<svg xmlns="http://www.w3.org/2000/svg" xmlns:xlink="http://www.w3.org/1999/xlink" width="85" height="85" viewBox="0 0 85 85">
  <defs>
    <clipPath id="clip-path">
      <rect id="Rectángulo_375816" data-name="Rectángulo 375816" width="85" height="85" transform="translate(407 1982)" fill="#fff"/>
    </clipPath>
    <clipPath id="clip-path-2">
      <path id="path3519" d="M0-85H85V0H0Z"/>
    </clipPath>
  </defs>
  <g id="Enmascarar_grupo_4" data-name="Enmascarar grupo 4" transform="translate(-407 -1982)" clip-path="url(#clip-path)">
    <g id="g3513" transform="translate(407 2067)">
      <g id="g3515">
        <g id="g3517" clip-path="url(#clip-path-2)">
          <g id="g3523" transform="translate(80.513 -1.246)">
            <path id="path3525" d="M0,0H-57.551a3.242,3.242,0,0,1-3.241-3.241V-79.267a3.241,3.241,0,0,1,3.241-3.241H-8.406L3.241-70.946v67.7A3.242,3.242,0,0,1,0,0" fill="#ffe270"/>
          </g>
          <g id="g3527" transform="translate(72.94 -78.127)">
            <path id="path3529" d="M0,0,5.979,5.935v67.7a3.241,3.241,0,0,1-3.241,3.241H7.573a3.241,3.241,0,0,0,3.242-3.241V5.935L2.836-1.986Z" fill="#ffd250"/>
          </g>
          <g id="g3531" transform="translate(72.108 -83.754)">
            <path id="path3533" d="M0,0,11.643,11.562l-8.2,1.024A4,4,0,0,1-1.02,8.125Z" fill="#ffc25e"/>
          </g>
          <g id="g3535" transform="translate(65.425 -9.36)">
            <path id="path3537" d="M0,0H-58.548A5.631,5.631,0,0,1-64.18-5.631v-9.485a5.631,5.631,0,0,1,5.631-5.631H0a5.631,5.631,0,0,1,5.631,5.631v9.485A5.631,5.631,0,0,1,0,0" fill="#fff3bd"/>
          </g>
          <g id="g3539" transform="translate(65.425 -30.108)">
            <path id="path3541" d="M0,0H-3.863A5.631,5.631,0,0,1,1.768,5.631v9.485a5.631,5.631,0,0,1-5.631,5.631H0a5.631,5.631,0,0,0,5.631-5.631V5.631A5.631,5.631,0,0,0,0,0" fill="#ffdca5"/>
          </g>
          <g id="g3543" transform="translate(83.456 -72.155)">
            <path id="path3545" d="M0,0-7.909.987a4,4,0,0,1-4.458-4.462l.979-7.8" fill="none" stroke="#000" stroke-linecap="round" stroke-linejoin="round" stroke-miterlimit="10" stroke-width="2.49"/>
          </g>
          <g id="g3547" transform="translate(19.721 -9.169)">
            <path id="path3549" d="M0,0V4.682A3.242,3.242,0,0,0,3.241,7.924H60.793a3.242,3.242,0,0,0,3.241-3.242V-.746" fill="none" stroke="#000" stroke-linecap="round" stroke-linejoin="round" stroke-miterlimit="10" stroke-width="2.49"/>
          </g>
          <g id="g3551" transform="translate(29.013 -83.754)">
            <path id="path3553" d="M0,0H-6.051A3.241,3.241,0,0,0-9.292,3.241V53.347" fill="none" stroke="#000" stroke-linecap="round" stroke-linejoin="round" stroke-miterlimit="10" stroke-width="2.49"/>
          </g>
          <g id="g3555" transform="translate(83.755 -14.73)">
            <path id="path3557" d="M0,0V-57.462L-11.647-69.025h-38.28" fill="none" stroke="#000" stroke-linecap="round" stroke-linejoin="round" stroke-miterlimit="10" stroke-width="2.49"/>
          </g>
          <g id="g3559" transform="translate(26.514 -55.561)">
            <path id="path3561" d="M0,0H6.275" fill="none" stroke="#000" stroke-linecap="round" stroke-linejoin="round" stroke-miterlimit="10" stroke-width="2.49"/>
          </g>
          <g id="g3563" transform="translate(36.811 -55.561)">
            <path id="path3565" d="M0,0H9.6" fill="none" stroke="#000" stroke-linecap="round" stroke-linejoin="round" stroke-miterlimit="10" stroke-width="2.49"/>
          </g>
          <g id="g3567" transform="translate(50.429 -55.561)">
            <path id="path3569" d="M0,0H17.9" fill="none" stroke="#000" stroke-linecap="round" stroke-linejoin="round" stroke-miterlimit="10" stroke-width="2.49"/>
          </g>
          <g id="g3571" transform="translate(72.347 -55.561)">
            <path id="path3573" d="M0,0H4.615" fill="none" stroke="#000" stroke-linecap="round" stroke-linejoin="round" stroke-miterlimit="10" stroke-width="2.49"/>
          </g>
          <g id="g3575" transform="translate(26.514 -49.676)">
            <path id="path3577" d="M0,0H14.576" fill="none" stroke="#000" stroke-linecap="round" stroke-linejoin="round" stroke-miterlimit="10" stroke-width="2.49"/>
          </g>
          <g id="g3579" transform="translate(45.112 -49.676)">
            <path id="path3581" d="M0,0H4.615" fill="none" stroke="#000" stroke-linecap="round" stroke-linejoin="round" stroke-miterlimit="10" stroke-width="2.49"/>
          </g>
          <g id="g3583" transform="translate(53.749 -49.676)">
            <path id="path3585" d="M0,0H16.236" fill="none" stroke="#000" stroke-linecap="round" stroke-linejoin="round" stroke-miterlimit="10" stroke-width="2.49"/>
          </g>
          <g id="g3587" transform="translate(74.007 -49.676)">
            <path id="path3589" d="M0,0H2.955" fill="none" stroke="#000" stroke-linecap="round" stroke-linejoin="round" stroke-miterlimit="10" stroke-width="2.49"/>
          </g>
          <g id="g3591" transform="translate(26.514 -43.79)">
            <path id="path3593" d="M0,0H7.935" fill="none" stroke="#000" stroke-linecap="round" stroke-linejoin="round" stroke-miterlimit="10" stroke-width="2.49"/>
          </g>
          <g id="g3595" transform="translate(38.471 -43.79)">
            <path id="path3597" d="M0,0H14.576" fill="none" stroke="#000" stroke-linecap="round" stroke-linejoin="round" stroke-miterlimit="10" stroke-width="2.49"/>
          </g>
          <g id="g3599" transform="translate(57.069 -43.79)">
            <path id="path3601" d="M0,0H7.935" fill="none" stroke="#000" stroke-linecap="round" stroke-linejoin="round" stroke-miterlimit="10" stroke-width="2.49"/>
          </g>
          <g id="g3603" transform="translate(69.026 -43.79)">
            <path id="path3605" d="M0,0H7.935" fill="none" stroke="#000" stroke-linecap="round" stroke-linejoin="round" stroke-miterlimit="10" stroke-width="2.49"/>
          </g>
          <g id="g3607" transform="translate(26.514 -37.905)">
            <path id="path3609" d="M0,0H17.9" fill="none" stroke="#000" stroke-linecap="round" stroke-linejoin="round" stroke-miterlimit="10" stroke-width="2.49"/>
          </g>
          <g id="g3611" transform="translate(48.432 -37.905)">
            <path id="path3613" d="M0,0H6.275" fill="none" stroke="#000" stroke-linecap="round" stroke-linejoin="round" stroke-miterlimit="10" stroke-width="2.49"/>
          </g>
          <g id="g3615" transform="translate(58.729 -37.905)">
            <path id="path3617" d="M0,0H4.615" fill="none" stroke="#000" stroke-linecap="round" stroke-linejoin="round" stroke-miterlimit="10" stroke-width="2.49"/>
          </g>
          <g id="g3619" transform="translate(67.366 -37.905)">
            <path id="path3621" d="M0,0H9.6" fill="none" stroke="#000" stroke-linecap="round" stroke-linejoin="round" stroke-miterlimit="10" stroke-width="2.49"/>
          </g>
          <g id="g3623" transform="translate(17.126 -19.734)">
            <path id="path3625" d="M0,0H1.988" fill="none" stroke="#000" stroke-linecap="round" stroke-linejoin="round" stroke-miterlimit="10" stroke-width="2.49"/>
          </g>
          <g id="g3627" transform="translate(53.188 -19.734)">
            <path id="path3629" d="M0,0H1.988" fill="none" stroke="#000" stroke-linecap="round" stroke-linejoin="round" stroke-miterlimit="10" stroke-width="2.49"/>
          </g>
          <g id="g3631" transform="translate(27.533 -15.014)">
            <path id="path3633" d="M0,0A2.441,2.441,0,0,0,2.744.528,2.23,2.23,0,0,0,3.876-1.427v-8.795" fill="none" stroke="#000" stroke-linecap="round" stroke-linejoin="round" stroke-miterlimit="10" stroke-width="2.49"/>
          </g>
          <g id="g3635" transform="translate(44.404 -24.105)">
            <path id="path3637" d="M0,0A5.019,5.019,0,0,0-4.3-.958a2.294,2.294,0,0,0-.89,4.118s1.518.677,3.2,1.3C2.06,5.952.315,9.873-2.947,9.873A5.2,5.2,0,0,1-6.782,8.242" fill="none" stroke="#000" stroke-linecap="round" stroke-linejoin="round" stroke-miterlimit="10" stroke-width="2.49"/>
          </g>
          <g id="g3639" transform="translate(49.163 -30.108)">
            <path id="path3641" d="M0,0H-42.286a5.631,5.631,0,0,0-5.631,5.631v9.485a5.631,5.631,0,0,0,5.631,5.631H16.262a5.631,5.631,0,0,0,5.631-5.631V5.631A5.631,5.631,0,0,0,16.262,0H4.814" fill="none" stroke="#000" stroke-linecap="round" stroke-linejoin="round" stroke-miterlimit="10" stroke-width="2.49"/>
          </g>
          <g id="g3643" transform="translate(34.361 -76.86)">
            <path id="path3645" d="M0,0A4.34,4.34,0,0,0-4.339,4.339h0A1.811,1.811,0,0,1-4.952,5.7l-1.8,1.588,1.8,1.588a1.811,1.811,0,0,1,.613,1.358h0A4.34,4.34,0,0,0,0,14.571" fill="none" stroke="#000" stroke-linecap="round" stroke-linejoin="round" stroke-miterlimit="10" stroke-width="2.49"/>
          </g>
          <g id="g3647" transform="translate(44.41 -76.86)">
            <path id="path3649" d="M0,0A4.34,4.34,0,0,1,4.339,4.339h0A1.811,1.811,0,0,0,4.952,5.7l1.8,1.588-1.8,1.588a1.811,1.811,0,0,0-.613,1.358h0A4.34,4.34,0,0,1,0,14.571" fill="none" stroke="#000" stroke-linecap="round" stroke-linejoin="round" stroke-miterlimit="10" stroke-width="2.49"/>
          </g>
          <g id="g3651" transform="translate(39.606 -73.554)">
            <path id="path3653" d="M0,0V.742" fill="none" stroke="#000" stroke-linecap="round" stroke-linejoin="round" stroke-miterlimit="10" stroke-width="2.49"/>
          </g>
          <g id="g3655" transform="translate(39.606 -67.184)">
            <path id="path3657" d="M0,0V1.175l-.75.414" fill="none" stroke="#000" stroke-linecap="round" stroke-linejoin="round" stroke-miterlimit="10" stroke-width="2.49"/>
          </g>
        </g>
      </g>
    </g>
  </g>
</svg>
