<svg xmlns="http://www.w3.org/2000/svg" width="400" height="279" viewBox="0 0 400 279">
  <g id="Grupo_1067576" data-name="Grupo 1067576" transform="translate(-390 -3153)">
    <rect id="Rectángulo_375830" data-name="Rectángulo 375830" width="400" height="279" transform="translate(390 3153)" fill="#451484"/>
    <g id="Insert_block-bro" data-name="Insert block-bro" transform="translate(357.94 3115.727)">
      <g id="freepik--background-simple--inject-2" transform="translate(57.667 50.589)">
        <path id="Trazado_807071" data-name="Trazado 807071" d="M66.637,235.866S48.981,148.958,97.078,99.627C139.536,56.1,206.74,39.168,261.571,75.166c19.526,12.825,33.737,37.72,56.547,45.417,25.571,8.626,58.45,11.71,82.2,48.693S415.5,253.738,383.89,279.011s-87.085.619-137-1.239S92.82,343.111,66.637,235.866Z" transform="translate(-63.473 -55.609)" fill="#4be5f1"/>
      </g>
      <g id="freepik--Graphics--inject-2" transform="translate(60.225 42.289)">
        <path id="Trazado_807131" data-name="Trazado 807131" d="M0,10.844l10.627-.217L10.844,0,.217.217Z" transform="translate(116.962 36.021) rotate(-135)" fill="none" stroke="#fb405f" stroke-linecap="round" stroke-width="1.201"/>
        <path id="Trazado_807132" data-name="Trazado 807132" d="M0,5.915,5.8,5.8,5.915,0,.118.118Z" transform="translate(195.504 8.366) rotate(-135)" fill="none" stroke="#fb405f" stroke-linecap="round" stroke-width="1.201"/>
        <path id="Trazado_807133" data-name="Trazado 807133" d="M0,5.915,5.8,5.8,5.915,0,.118.118Z" transform="translate(20.704 45.189) rotate(-135)" fill="none" stroke="#fb405f" stroke-linecap="round" stroke-width="1.201"/>
        <path id="Trazado_807106" data-name="Trazado 807106" d="M219.69,120.985a2.98,2.98,0,0,1,1.912-2.757,3.2,3.2,0,0,1,3.384.645,2.892,2.892,0,0,1,.671,3.249,3.107,3.107,0,0,1-2.872,1.836A3.036,3.036,0,0,1,219.69,120.985Z" transform="translate(21.206 -71.063)" fill="none" stroke="#fb405f" stroke-linecap="round" stroke-linejoin="round" stroke-width="1.201"/>
        <path id="Trazado_807107" data-name="Trazado 807107" d="M593.13,381.545a3.105,3.105,0,1,1,3.1,2.972,3.163,3.163,0,0,1-2.194-.868A2.914,2.914,0,0,1,593.13,381.545Z" transform="translate(-593.13 -170.267)" fill="none" stroke="#fb405f" stroke-linecap="round" stroke-linejoin="round" stroke-width="1.201"/>
        <path id="Trazado_807108" data-name="Trazado 807108" d="M476.67,139a3.1,3.1,0,1,1,3.1,2.973,3.036,3.036,0,0,1-3.1-2.973Z" transform="translate(-401.532 -77.928)" fill="none" stroke="#fb405f" stroke-linecap="round" stroke-linejoin="round" stroke-width="1.201"/>
        <path id="Trazado_807109" data-name="Trazado 807109" d="M100.82,175.015a3.105,3.105,0,1,1,3.1,2.973,3.042,3.042,0,0,1-3.1-2.973Z" transform="translate(216.755 -91.634)" fill="none" stroke="#fb405f" stroke-linecap="round" stroke-linejoin="round" stroke-width="1.201"/>
      </g>
      <g id="freepik--Device--inject-2" transform="translate(47.059 115.854)">
        <path id="Trazado_807110" data-name="Trazado 807110" d="M418.448,161H142.828a8.059,8.059,0,0,0-8.218,7.889v174.12H426.66V168.914a7.731,7.731,0,0,0-2.4-5.593A8.394,8.394,0,0,0,418.448,161Z" transform="translate(-111.51 -161)" fill="#fff" stroke="#263238" stroke-linecap="round" stroke-linejoin="round" stroke-width="1.201"/>
        <rect id="Rectángulo_375888" data-name="Rectángulo 375888" width="200.714" height="9.493" transform="translate(68.1 173.247)" fill="#263238" stroke="#263238" stroke-linecap="round" stroke-linejoin="round" stroke-width="1.201"/>
        <rect id="Rectángulo_375889" data-name="Rectángulo 375889" width="200.714" height="4.923" transform="translate(68.1 177.823)" fill="#fff" stroke="#263238" stroke-linecap="round" stroke-linejoin="round" stroke-width="1.201"/>
        <path id="Trazado_807111" data-name="Trazado 807111" d="M436.056,465.18s-3.3,3.87-13.185,7.035H108.624S101.3,470.456,98,465.533Z" transform="translate(-97.29 -276.811)" fill="#263238" stroke="#263238" stroke-linecap="round" stroke-linejoin="round" stroke-width="1.201"/>
        <rect id="Rectángulo_375890" data-name="Rectángulo 375890" width="339.443" height="7.394" rx="3.697" transform="translate(0 181.439)" fill="#fff" stroke="#263238" stroke-linecap="round" stroke-linejoin="round" stroke-width="1.201"/>
        <path id="Trazado_807112" data-name="Trazado 807112" d="M356.85,168.407a2.582,2.582,0,1,1,2.58,2.477A2.53,2.53,0,0,1,356.85,168.407Z" transform="translate(-190.222 -162.877)" fill="#263238"/>
        <path id="Trazado_807113" data-name="Trazado 807113" d="M138.475,230.338h0a.715.715,0,0,0,.729-.7V209.246a.721.721,0,0,0-.729-.706h0a.721.721,0,0,0-.735.706v20.393a.686.686,0,0,0,.216.5A.745.745,0,0,0,138.475,230.338Z" transform="translate(173.926 -179.1)" fill="#263238" stroke="#fff" stroke-linejoin="round" stroke-width="0.831"/>
        <rect id="Rectángulo_375891" data-name="Rectángulo 375891" width="268.35" height="145.584" transform="translate(34.956 14.243)" fill="#d1d1d1" stroke="#263238" stroke-linejoin="round" stroke-width="1.201"/>
        <rect id="Rectángulo_375892" data-name="Rectángulo 375892" width="223.756" height="8.608" transform="translate(34.95 14.243)" fill="#263238"/>
        <path id="Trazado_807134" data-name="Trazado 807134" d="M6.284,12.387A6.509,6.509,0,0,0,12.75,6.1,6.071,6.071,0,0,0,6.466,0,6.509,6.509,0,0,0,0,6.284,6.071,6.071,0,0,0,6.284,12.387Z" transform="translate(296.237 56.056) rotate(-157.5)" fill="none" stroke="#263238" stroke-width="1.201"/>
        <ellipse id="Elipse_4777" data-name="Elipse 4777" cx="6.412" cy="6.156" rx="6.412" ry="6.156" transform="translate(286.309 59.413)" fill="none" stroke="#263238" stroke-linejoin="round" stroke-width="1.201"/>
        <path id="Trazado_807135" data-name="Trazado 807135" d="M6.284,12.387A6.509,6.509,0,0,0,12.75,6.1,6.071,6.071,0,0,0,6.466,0,6.509,6.509,0,0,0,0,6.284,6.071,6.071,0,0,0,6.284,12.387Z" transform="translate(296.241 91.407) rotate(-157.5)" fill="none" stroke="#263238" stroke-width="1.201"/>
        <ellipse id="Elipse_4779" data-name="Elipse 4779" cx="6.412" cy="6.156" rx="6.412" ry="6.156" transform="translate(286.309 94.767)" fill="none" stroke="#263238" stroke-linejoin="round" stroke-width="1.201"/>
        <ellipse id="Elipse_4780" data-name="Elipse 4780" cx="6.412" cy="6.156" rx="6.412" ry="6.156" transform="translate(286.309 112.441)" fill="none" stroke="#263238" stroke-linejoin="round" stroke-width="1.201"/>
        <path id="Trazado_807136" data-name="Trazado 807136" d="M6.122,12.811a6.386,6.386,0,0,0,6.2-6.446A6.19,6.19,0,0,0,6.2,0,6.386,6.386,0,0,0,0,6.446,6.19,6.19,0,0,0,6.122,12.811Z" transform="matrix(-0.16, -0.987, 0.987, -0.16, 287.381, 143.395)" fill="none" stroke="#263238" stroke-width="1.201"/>
        <rect id="Rectángulo_375893" data-name="Rectángulo 375893" width="220.537" height="128.3" transform="translate(51.29 27.83)" fill="none" stroke="#263238" stroke-linejoin="round" stroke-width="1.201"/>
        <line id="Línea_1944" data-name="Línea 1944" x1="220.453" transform="translate(51.025 104.489)" fill="none" stroke="#263238" stroke-linejoin="round" stroke-width="1.201"/>
        <line id="Línea_1945" data-name="Línea 1945" x1="75.228" transform="translate(69.119 112.261)" fill="none" stroke="#263238" stroke-linejoin="round" stroke-width="1.201"/>
        <line id="Línea_1946" data-name="Línea 1946" x1="75.228" transform="translate(69.119 118.658)" fill="none" stroke="#263238" stroke-linejoin="round" stroke-width="1.201"/>
        <line id="Línea_1947" data-name="Línea 1947" x1="75.228" transform="translate(69.119 125.061)" fill="none" stroke="#263238" stroke-linejoin="round" stroke-width="1.201"/>
        <line id="Línea_1948" data-name="Línea 1948" x1="75.228" transform="translate(69.119 131.458)" fill="none" stroke="#263238" stroke-linejoin="round" stroke-width="1.201"/>
        <line id="Línea_1949" data-name="Línea 1949" x1="75.228" transform="translate(69.119 137.855)" fill="none" stroke="#263238" stroke-linejoin="round" stroke-width="1.201"/>
        <line id="Línea_1950" data-name="Línea 1950" x1="75.228" transform="translate(69.119 144.259)" fill="none" stroke="#263238" stroke-linejoin="round" stroke-width="1.201"/>
        <line id="Línea_1951" data-name="Línea 1951" y2="0.743" transform="translate(165.048 31.013)" fill="none" stroke="#263238" stroke-linejoin="round" stroke-width="1.201"/>
        <line id="Línea_1952" data-name="Línea 1952" y2="66.943" transform="translate(165.048 33.224)" fill="none" stroke="#263238" stroke-linejoin="round" stroke-width="1.201" stroke-dasharray="2.376 2.376"/>
        <line id="Línea_1953" data-name="Línea 1953" y2="0.743" transform="translate(165.048 100.904)" fill="none" stroke="#263238" stroke-linejoin="round" stroke-width="1.201"/>
        <path id="Trazado_807114" data-name="Trazado 807114" d="M362.17,326.507a3.312,3.312,0,1,1,3.309,3.177,3.374,3.374,0,0,1-2.342-.929A3.107,3.107,0,0,1,362.17,326.507Z" transform="translate(-200.431 -222.804)" fill="#fff" stroke="#263238" stroke-linejoin="round" stroke-width="1.201"/>
        <line id="Línea_1954" data-name="Línea 1954" y2="4.261" transform="translate(165.093 101.647)" fill="none" stroke="#263238" stroke-linejoin="round" stroke-width="0.6"/>
        <line id="Línea_1955" data-name="Línea 1955" x2="4.438" transform="translate(162.874 103.777)" fill="none" stroke="#263238" stroke-linejoin="round" stroke-width="0.6"/>
        <path id="Trazado_807115" data-name="Trazado 807115" d="M239.7,268.013h52.135a4.007,4.007,0,0,0,2.78-1.1,3.69,3.69,0,0,0,1.149-2.669h0a3.69,3.69,0,0,0-1.149-2.669,4.006,4.006,0,0,0-2.78-1.1H239.7a3.852,3.852,0,0,0-3.929,3.771h0a3.852,3.852,0,0,0,3.928,3.771Z" transform="translate(-45.867 -198.871)" fill="none" stroke="#263238" stroke-linejoin="round" stroke-width="1.201"/>
        <rect id="Rectángulo_375894" data-name="Rectángulo 375894" width="52.154" height="35.763" transform="translate(215.086 111.344)" fill="#4be5f1" stroke="#263238" stroke-linejoin="round" stroke-width="1.201"/>
        <line id="Línea_1956" data-name="Línea 1956" x1="52.154" y1="35.763" transform="translate(215.086 111.344)" fill="none" stroke="#263238" stroke-linejoin="round" stroke-width="1.201"/>
        <line id="Línea_1957" data-name="Línea 1957" x1="52.154" y2="35.763" transform="translate(215.086 111.344)" fill="none" stroke="#263238" stroke-linejoin="round" stroke-width="1.201"/>
        <rect id="Rectángulo_375895" data-name="Rectángulo 375895" width="52.154" height="35.763" transform="translate(155.572 111.344)" fill="#4be5f1" stroke="#263238" stroke-linejoin="round" stroke-width="1.201"/>
        <line id="Línea_1958" data-name="Línea 1958" x1="52.16" y1="35.763" transform="translate(155.565 111.344)" fill="none" stroke="#263238" stroke-linejoin="round" stroke-width="1.201"/>
        <line id="Línea_1959" data-name="Línea 1959" x1="52.16" y2="35.763" transform="translate(155.565 111.344)" fill="none" stroke="#263238" stroke-linejoin="round" stroke-width="1.201"/>
        <line id="Línea_1960" data-name="Línea 1960" x1="14.101" transform="translate(272.207 83.242)" fill="none" stroke="#263238" stroke-linejoin="round" stroke-width="1.201"/>
      </g>
      <g id="freepik--Character--inject-2" transform="translate(72.649 146.238)">
        <rect id="Rectángulo_375896" data-name="Rectángulo 375896" width="95.58" height="65.543" transform="translate(38.937 1.818)" fill="#4be5f1" stroke="#263238" stroke-linejoin="round" stroke-width="1.201"/>
        <line id="Línea_1961" data-name="Línea 1961" x1="95.58" y1="65.543" transform="translate(38.937 1.818)" fill="none" stroke="#263238" stroke-linejoin="round" stroke-width="1.201"/>
        <line id="Línea_1962" data-name="Línea 1962" x1="95.58" y2="65.543" transform="translate(38.937 1.818)" fill="none" stroke="#263238" stroke-linejoin="round" stroke-width="1.201"/>
        <path id="Trazado_807116" data-name="Trazado 807116" d="M515.9,266.23a36.792,36.792,0,0,0-2.283,3.474,13.738,13.738,0,0,0-1.29,3.01s-.406-.341-2.58-2.2a6.267,6.267,0,0,1-2.367-3.623l2.058-2.9S514.6,263.611,515.9,266.23Z" transform="translate(-466.805 -230.588)" fill="#fff" stroke="#263238" stroke-linecap="round" stroke-linejoin="round" stroke-width="1.201"/>
        <path id="Trazado_807117" data-name="Trazado 807117" d="M507.62,250s.7,1.957,1.342,2.037,2.529-.768,2.322.756a4.04,4.04,0,0,1-1.471,2.477s.439,5.022.174,5.765-.645,1.313-2.58,1.071l-3.5-.44a11.772,11.772,0,0,1-1.29.142c-.813.05-.8.136-2.2-1.437s-2.264-.217-1.9-2.811.742-4.254,2.245-5.772S507.62,250,507.62,250Z" transform="translate(-456.434 -225.269)" fill="#fff" stroke="#263238" stroke-linecap="round" stroke-linejoin="round" stroke-width="1.201"/>
        <path id="Trazado_807118" data-name="Trazado 807118" d="M503.525,254.412c.174.57.187,1.065,0,1.108s-.426-.378-.6-.947-.187-1.071,0-1.115S503.358,253.848,503.525,254.412Z" transform="translate(-451.604 -226.585)" fill="#263238"/>
        <path id="Trazado_807119" data-name="Trazado 807119" d="M518.073,226.243l10.966-7.958s1.729-.743,1.729-2.223a21.277,21.277,0,0,0,0-3.511c-.187-1.48,0-2.223-.768-2.223s-.961,1.666-.961,1.666l-.581-1.858s-1.348-.365-1.542.557-1.735,1.48-1.348,2.774a13.94,13.94,0,0,0,1.735,3.146s-10.218,4.254-12.14,4.812-5.464,2.124-5.077,3.976,2.284,7.394,2.284,7.394Z" transform="translate(-483.471 -210.065)" fill="#fff" stroke="#263238" stroke-linecap="round" stroke-linejoin="round" stroke-width="1.201"/>
        <path id="Trazado_807120" data-name="Trazado 807120" d="M521.5,260.94s2.683,1.771,5.806,3.988c3.87,2.75,3.935,9.128,4.212,9.772.452,1.071-12.218,14.305-14.03,16.535a12.5,12.5,0,0,0-2.142,5.821l-17.165-3.567s8.592-28.8,9.031-30.908,1.174-4.861,1.174-4.861-1.187-6.508-2.722-11.766-2.161-8.62-2.045-9.475,4.857-1.344,6.818-1.381,1.78.223,1.78.223,4.264,9.506,4.515,9.97S521.5,260.94,521.5,260.94Z" transform="translate(-476.501 -219.594)" fill="#fff" stroke="#263238" stroke-linecap="round" stroke-linejoin="round" stroke-width="1.201"/>
        <path id="Trazado_807121" data-name="Trazado 807121" d="M537.1,332.957l.858,8.242,10.586,26.641,2.29,31.032-4.29.279-8.3-30.214-11.153-19.773-5.148,18.126-15.894,30.065-4.064-2.3,9.941-30.784,5.722-31.583,2.29-3.294Z" transform="translate(-498.251 -255.496)" fill="#263238" stroke="#263238" stroke-linecap="round" stroke-linejoin="round" stroke-width="1.201"/>
        <path id="Trazado_807122" data-name="Trazado 807122" d="M510.809,267.881a30.96,30.96,0,0,0,2.058,2.576c.923.985,2.232,1.294,2.58,2.062a37.159,37.159,0,0,0,2.1,3.245S513.3,275,511.1,273.287s-2.909-5.14-2.909-5.14S509.835,267.324,510.809,267.881Z" transform="translate(-468.976 -232.004)" fill="#fff" stroke="#263238" stroke-linecap="round" stroke-linejoin="round" stroke-width="1.201"/>
        <path id="Trazado_807123" data-name="Trazado 807123" d="M446.839,318.332s16.8-5.1,18.43-5.84a5.656,5.656,0,0,1,4.69.05c1.509.619,3.019.142,3.058.786s-.935,1.016-1.49.793a9.386,9.386,0,0,0-2.155-.26l6.451,2.644s.135,1.146-.722,1.239a15.945,15.945,0,0,1-3.374.619c-1.271-.081-6.773-3.4-6.773-3.4a75.937,75.937,0,0,0-8.541,4.7c-4.161,2.7-10.618,5.6-12.76,5.258s-4.664-3.685-4.348-5.084C440.673,313.892,446.839,318.332,446.839,318.332Z" transform="translate(-382.803 -248.878)" fill="#fff" stroke="#263238" stroke-linecap="round" stroke-linejoin="round" stroke-width="1.201"/>
        <path id="Trazado_807124" data-name="Trazado 807124" d="M485.282,294.349s5.012,6.193,7.741,9.45,5.47,8.942,7.741,8.794,5.077-4.508,4.935-5.685-3.225-3.716-5.032-8.3c-1.329-3.4-3.664-9.165-4.773-11.89-.406-1-.49-1.765-1.374-2.409l-1.361-1.04" transform="translate(-442.352 -237.936)" fill="#fff" stroke="#263238" stroke-linecap="round" stroke-linejoin="round" stroke-width="1.201"/>
        <path id="Trazado_807125" data-name="Trazado 807125" d="M494.578,319.281c-.077-.669-1.142-1.808-2.367-3.511a11.764,11.764,0,0,1-2.871,3.716,20.006,20.006,0,0,1-4.057,1.92c2.155,2.533,3.116,3.641,4.361,3.561C491.92,324.824,494.719,320.458,494.578,319.281Z" transform="translate(-431.231 -250.31)" fill="#fff" stroke="#263238" stroke-linecap="round" stroke-linejoin="round" stroke-width="1.201"/>
        <path id="Trazado_807126" data-name="Trazado 807126" d="M536.687,238.5c-.793-1.765-1.426-3.183-1.426-3.183s.187-.266-1.78-.223-7.431.619-7.547,1.455a7.975,7.975,0,0,0,1.206,4.855C528.662,240.212,533.332,238.132,536.687,238.5Z" transform="translate(-499.543 -219.594)" fill="#fff" stroke="#263238" stroke-linecap="round" stroke-linejoin="round" stroke-width="1.201"/>
        <path id="Trazado_807127" data-name="Trazado 807127" d="M518.356,306.868a25.55,25.55,0,0,0-7.1-3.288" transform="translate(-471.762 -245.669)" fill="none" stroke="#263238" stroke-linecap="round" stroke-linejoin="round" stroke-width="1.201"/>
        <path id="Trazado_807128" data-name="Trazado 807128" d="M513.043,248.325s6.98-4.861,4.825-9.171-5.354-5.8-8.289-4.465-2.006,2.849-2.006,2.849-3.225-.093-4.354,2.248a3.808,3.808,0,0,0,.406,4.087,8.294,8.294,0,0,0-1.664,5.072c.077,2.96,5.477,7.214,6.573,7.512s1.935-1.307,1.935-1.307-1.568-2.688-.871-3.065,2.438,1.09,2.438,1.09.871.731,1.122-1.1A12.865,12.865,0,0,0,513.043,248.325Z" transform="translate(-465.688 -219.259)" fill="#263238" stroke="#263238" stroke-linecap="round" stroke-linejoin="round" stroke-width="1.201"/>
        <path id="Trazado_807129" data-name="Trazado 807129" d="M488.588,441.59s3.225,3.022,6.367,3.846a21.576,21.576,0,0,1,4.619,1.647l.716,1.2a.646.646,0,0,1,0,.67.7.7,0,0,1-.606.333H484.008a16.032,16.032,0,0,1-.284-3.567,10.843,10.843,0,0,1,.574-3.846Z" transform="translate(-436.021 -298.214)" fill="#fff" stroke="#263238" stroke-linecap="round" stroke-linejoin="round" stroke-width="1.201"/>
        <path id="Trazado_807130" data-name="Trazado 807130" d="M569.893,437.724l.232,2.3a8.485,8.485,0,0,0,2.477,3.325c1.49.954,3.3.954,3.3,1.9v1.746h-6.109s-1.29.155-3.135-1.43-2.148-3.01-3.464-3.8-1.322-1.9-.645-3.647,3.3-2.694,3.3-2.694Z" transform="translate(-562.1 -295.865)" fill="#fff" stroke="#263238" stroke-linecap="round" stroke-linejoin="round" stroke-width="1.201"/>
      </g>
    </g>
  </g>
</svg>
