<svg xmlns="http://www.w3.org/2000/svg" width="205.854" height="87.135" viewBox="0 0 205.854 87.135">
  <g id="Grupo_1067576" data-name="Grupo 1067576" transform="translate(-204.5 -589.432)">
    <g id="nasa-6" transform="translate(202.125 587.232)">
      <path id="Trazado_806962" data-name="Trazado 806962" d="M103.894,45.768A43.612,43.612,0,1,1,60.282,2.2c23.461,0,43.612,19.669,43.612,43.568" transform="translate(-9.008)" fill="#0f3a97"/>
      <path id="Trazado_806963" data-name="Trazado 806963" d="M107.217,94.053c18.632,7.665,15.4-11.7,5.467-26.535a80.806,80.806,0,0,0-17.6-18.781c-15.353-11.206-24.831-4.409-13.99,17.69C84.6,73.572,89.1,78.394,92.618,82.94c2.685,3.47,7.916,5.208,6.074,6.854-2.077,1.857-7.1-6.333-7.1-6.333a99.434,99.434,0,0,1-10.9-15.814C72.353,52.669,73.554,37.381,88.64,44.04c12.8,5.654,25.03,21.512,29.947,32.774,2.27,5.2,8.462,25.775-11.257,17.457" transform="translate(-46.106 -25.355)" fill="#fff"/>
      <path id="Trazado_806964" data-name="Trazado 806964" d="M4.526,65.828c8.2-5.459,15.968-8.983,29.194-13.352C52.3,46.337,66.291,42.21,83.453,33.584c7.682-3.86,21.011-12.518,25.777-20.044-1.427,2.913-5.848,8.583-7.848,11.09C78.1,53.786,28.5,52.132,4.853,66.129" transform="translate(-1.355 -7.146)" fill="#f7410a"/>
      <path id="Trazado_806965" data-name="Trazado 806965" d="M35.989,43.511c7.5.059,6.766-.015,6.854.073.131,0,5.99,10.09,5.99,10.177,0,.043-.044-3.586-.044-8.124,0-.524-1.442-2.053-1.4-2.053,2.141,0,4.94.044,4.94.044-1.049,1.223-1.258,1.122-1.267,1.878-.03,2.43-.057,6.922,0,11.967.008.756.568,1.049,1.487,2.359H45.685c-2.23-3.712-6.316-10.677-6.3-10.657s-.088,4.369.043,7.862c.044,1.154.569,1.529,1.531,2.577,0,0,1.107-.03-5.378.043,1.968-1.049,1.706-2.358,1.705-2.4-.071-4.827-.015-8.954-.015-11.619,0-.437-.03-.394-1.384-2.053m23.554,7.382c.63-2.187,1.168-4.141,1.424-5.416a4.047,4.047,0,0,0-1.311-1.791l-.059-.122c4.006.013,8.191.036,8.191.036,1.093,2.664,3.585,10.132,5.465,14.719a2.322,2.322,0,0,0,1.355,1.441c-3.41-.043-9.739-.014-9.705-.043,1.7-1.53,1.486-1.53.743-3.755H60.214c-1.093,2.533.341,3.721.524,3.712-1.214.063-5.334,0-5.334,0,2.23-1.573,2.1-2.053,2.1-2.053.612-2.179,1.322-4.566,1.944-6.727h2.188l-.94,3.013h4.242l-2.361-6.028-.94,3.013H59.446m36.64.219c.629-2.186,1.167-4.141,1.423-5.416A4.064,4.064,0,0,0,96.2,43.977l-.059-.121c4.007.013,8.192.035,8.192.035,1.091,2.664,3.584,10.132,5.463,14.719a2.316,2.316,0,0,0,1.354,1.441c-3.408-.043-9.737-.014-9.7-.043,1.7-1.529,1.487-1.529.744-3.755H96.853c-1.093,2.533.34,3.721.523,3.713-1.213.062-5.334,0-5.334,0,2.23-1.573,2.1-2.053,2.1-2.053.612-2.18,1.322-4.566,1.944-6.727h2.188c-.471,1.508-.939,3.015-.939,3.015h4.24L99.213,48.17s-.469,1.506-.939,3.013H96.086m-6.9-3.58c-.087-3.1,0-4.107,0-4.107-1.356,1.093-.671.953-4.065.393-9.78-1.614-10.525,7.517-5.2,9.565,4.468,1.72,6.05,2.057,5.377,3.668-.219.526-4.284,2.447-8.481-1.441L76.9,61.1A18.8,18.8,0,0,1,78.87,59.57c.043,0,4.549,1.985,8.612-.087,6.253-3.188,3.132-8.348-3.541-10.395-5.553-1.7-.306-5.679,5.2-1.441M72.815,12.294a.355.355,0,1,1-.355-.354.357.357,0,0,1,.355.354m2.463,5.378a.438.438,0,1,1-.437-.436.441.441,0,0,1,.437.436m6.39,8.79a.437.437,0,0,1-.875,0,.428.428,0,0,1,.424-.438.452.452,0,0,1,.451.438M71.4,20.7a.355.355,0,1,1-.355-.355.356.356,0,0,1,.355.355m3.828,2.02a.355.355,0,1,1-.355-.355.357.357,0,0,1,.355.355m-4.974-5.652a.437.437,0,1,1-.437-.437.44.44,0,0,1,.437.437m-5.792,3.522a.355.355,0,1,1-.355-.355.357.357,0,0,1,.355.355m1.036.709a.356.356,0,1,1-.356-.34.357.357,0,0,1,.356.34m1.039.71a.355.355,0,1,1-.355-.354.357.357,0,0,1,.355.354m-1.583,1.365a.356.356,0,1,1-.356-.355.359.359,0,0,1,.356.355M56.7,29.165a.356.356,0,1,1-.356-.355.357.357,0,0,1,.356.355m1.53,1.857a.356.356,0,1,1-.355-.355.358.358,0,0,1,.355.355M57.009,61a.355.355,0,1,1-.355-.355.357.357,0,0,1,.355.355m.219,8.269a.437.437,0,1,1-.437-.436.439.439,0,0,1,.437.436m-4.7,4.235a.355.355,0,1,1-.355-.355.357.357,0,0,1,.355.355M46.9,75.216a.438.438,0,1,1-.438-.437.44.44,0,0,1,.438.437M45.75,71.4a.437.437,0,1,1-.436-.438.439.439,0,0,1,.436.438m-.655,2.43a.356.356,0,1,1-.355-.355.357.357,0,0,1,.355.355m-4.209-2.019a.355.355,0,1,1-.354-.355.357.357,0,0,1,.354.355m14.7,6.823a.346.346,0,0,1-.341.355.37.37,0,0,1-.369-.355.355.355,0,0,1,.71,0m4.428-3.247a.428.428,0,0,1-.424.438.451.451,0,0,1-.45-.438.437.437,0,0,1,.874,0m.507,4.176a.37.37,0,0,1-.369.356.355.355,0,1,1,0-.71.368.368,0,0,1,.369.354m18.2-3.987a.355.355,0,1,1-.354-.355.358.358,0,0,1,.354.355m-8.469,3a.355.355,0,1,1-.355-.355.356.356,0,0,1,.355.355m22.79,4.316a.356.356,0,1,1-.355-.355.358.358,0,0,1,.355.355M94.895,66.1a.438.438,0,1,1-.438-.438.44.44,0,0,1,.438.438m-3.5,2.374a.355.355,0,1,1-.356-.354.358.358,0,0,1,.356.354m3.444.684a.438.438,0,1,1-.438-.437.44.44,0,0,1,.438.437M91.4,73.389a.355.355,0,1,1-.356-.355.357.357,0,0,1,.356.355m8.906-9.664a.355.355,0,1,1-.355-.354.358.358,0,0,1,.355.354m.862,2.156a.427.427,0,0,1-.423.438.451.451,0,0,1-.451-.438.437.437,0,0,1,.874,0m6.136,2.567a.438.438,0,1,1-.438-.438.438.438,0,0,1,.438.438m-6.232,4.561a.356.356,0,1,1-.356-.355.358.358,0,0,1,.356.355m3.935-3.714a.355.355,0,1,1-.355-.355.357.357,0,0,1,.355.355m-.725,5.733a.355.355,0,1,1-.355-.355.357.357,0,0,1,.355.355M105.95,65.5a.547.547,0,1,1-.547-.546.549.549,0,0,1,.547.546" transform="translate(-20.928 -6.138)" fill="#fff"/>
      <path id="Trazado_806966" data-name="Trazado 806966" d="M216.906,152.26l-.162,1.5-1.489.164,1.5.163.164,1.557.164-1.557,1.475-.192-1.488-.136-.166-1.5m-3.28,11.161a.547.547,0,1,1-.547-.546.549.549,0,0,1,.547.546" transform="translate(-132.432 -94.561)" fill="#fff"/>
      <path id="Trazado_806967" data-name="Trazado 806967" d="M143.622,103.006l-.164,1.5-1.489.163,1.5.164.165,1.555.164-1.555,1.474-.192-1.489-.137-.163-1.5M103.4,59.574a.547.547,0,1,1-.546-.546.549.549,0,0,1,.546.546" transform="translate(-62.971 -35.811)" fill="#fff"/>
      <path id="Trazado_806968" data-name="Trazado 806968" d="M100.962,35.4l-.164,1.5-1.49.164,1.5.162.164,1.557.163-1.557,1.476-.19-1.49-.137-.163-1.5m20.877-11.547a.546.546,0,1,1-.547-.547.549.549,0,0,1,.547.547" transform="translate(-61.083 -13.299)" fill="#fff"/>
      <path id="Trazado_806969" data-name="Trazado 806969" d="M115.707,20.277l-.163,1.5-1.489.164,1.5.163.163,1.556.164-1.556,1.475-.192-1.489-.136-.163-1.5M91.537,88.991a.547.547,0,1,1-.546-.547.549.549,0,0,1,.546.547" transform="translate(-55.497 -11.391)" fill="#fff"/>
      <path id="Trazado_806970" data-name="Trazado 806970" d="M89.142,201.561l-.163,1.5-1.489.163,1.5.163.164,1.556.163-1.556,1.476-.191-1.489-.137-.164-1.5" transform="translate(-53.635 -125.629)" fill="#fff"/>
      <path id="Trazado_806971" data-name="Trazado 806971" d="M129.395,13.541c-6.646,19.717-33.271,34.942-55.684,49.477C60.19,71.789,46.766,81.885,37.524,90.475c-2.436,2.265.5-.847-.437.109,12.9-14.85,27.733-23.695,35.931-29.263C86.884,51.9,94.77,49.528,118.691,27.494" transform="translate(-21.524 -7.147)" fill="#f7410a"/>
      <path id="Trazado_806972" data-name="Trazado 806972" d="M8.714,145.62c-2.387,1.167-4.525,2.32-6.339,3.447l1.1.4a48.422,48.422,0,0,1,5.5-2.893m12.339,21.11q-3.406,2.97-6.7,6.068l-.1,1.506a98.159,98.159,0,0,1,7.551-6.882" transform="translate(0 -90.377)" fill="#ee293d"/>
      <path id="Trazado_806973" data-name="Trazado 806973" d="M129.53,96.788c18.632,7.665,15.4-11.7,5.467-26.535a79.3,79.3,0,0,0-17.6-18.781c-5.873-4.336-6.446-4.7-6.446-4.7C124.064,53,135.979,68.288,140.9,79.55c2.271,5.2,8.462,25.775-11.257,17.456" transform="translate(-68.419 -28.09)" fill="#fff"/>
    </g>
    <path id="Trazado_808276" data-name="Trazado 808276" d="M4.052-2.373h5.37V0H.967V-12.8H4.052ZM15.943,0a3.344,3.344,0,0,1-.281-.853A2.754,2.754,0,0,1,13.377.176a3.374,3.374,0,0,1-2.285-.813,2.588,2.588,0,0,1-.94-2.043,2.66,2.66,0,0,1,1.143-2.338,5.821,5.821,0,0,1,3.322-.791h.914v-.5q0-1.316-1.134-1.316a.927.927,0,0,0-1.055,1.042H10.38a2.655,2.655,0,0,1,1.173-2.239,4.931,4.931,0,0,1,2.993-.86A4.323,4.323,0,0,1,17.42-8.8,3.086,3.086,0,0,1,18.5-6.363v4.21a4.311,4.311,0,0,0,.4,2V0ZM14.089-1.934a1.652,1.652,0,0,0,.918-.237,1.487,1.487,0,0,0,.523-.536V-4.228h-.861q-1.547,0-1.547,1.389a.848.848,0,0,0,.272.655A.986.986,0,0,0,14.089-1.934ZM35.446,0H32.379L27.844-7.963V0H24.759V-12.8h3.085L32.37-4.834V-12.8h3.076Zm7.172,0a3.344,3.344,0,0,1-.281-.853A2.754,2.754,0,0,1,40.052.176a3.374,3.374,0,0,1-2.285-.813,2.588,2.588,0,0,1-.94-2.043,2.66,2.66,0,0,1,1.143-2.338,5.821,5.821,0,0,1,3.322-.791h.914v-.5q0-1.316-1.134-1.316a.927.927,0,0,0-1.055,1.042H37.055a2.655,2.655,0,0,1,1.173-2.239,4.931,4.931,0,0,1,2.993-.86,4.323,4.323,0,0,1,2.874.888,3.086,3.086,0,0,1,1.081,2.435v4.21a4.311,4.311,0,0,0,.4,2V0ZM40.764-1.934a1.652,1.652,0,0,0,.918-.237,1.487,1.487,0,0,0,.523-.536V-4.228h-.861q-1.547,0-1.547,1.389a.848.848,0,0,0,.272.655A.986.986,0,0,0,40.764-1.934Zm11.03-.738a.684.684,0,0,0-.4-.606,6.016,6.016,0,0,0-1.5-.475A6.853,6.853,0,0,1,48.067-4.4a3.062,3.062,0,0,1-1.1-.971,2.319,2.319,0,0,1-.378-1.31,2.628,2.628,0,0,1,1.081-2.158,4.453,4.453,0,0,1,2.83-.848,4.934,4.934,0,0,1,3.023.853,2.666,2.666,0,0,1,1.143,2.241H51.7q0-1.143-1.2-1.143a1.194,1.194,0,0,0-.782.259.8.8,0,0,0-.316.646.737.737,0,0,0,.387.642,3.654,3.654,0,0,0,1.235.4,10.671,10.671,0,0,1,1.49.378A2.706,2.706,0,0,1,54.65-2.76,2.491,2.491,0,0,1,53.495-.642,5.068,5.068,0,0,1,50.5.176a5.172,5.172,0,0,1-2.18-.439,3.645,3.645,0,0,1-1.494-1.2,2.707,2.707,0,0,1-.536-1.591h2.769a1.145,1.145,0,0,0,.439.962,1.808,1.808,0,0,0,1.081.3,1.422,1.422,0,0,0,.91-.246A.787.787,0,0,0,51.794-2.672ZM61.392,0a3.344,3.344,0,0,1-.281-.853A2.754,2.754,0,0,1,58.825.176,3.374,3.374,0,0,1,56.54-.637a2.588,2.588,0,0,1-.94-2.043,2.66,2.66,0,0,1,1.143-2.338,5.821,5.821,0,0,1,3.322-.791h.914v-.5q0-1.316-1.134-1.316A.927.927,0,0,0,58.79-6.587H55.828A2.655,2.655,0,0,1,57-8.825a4.931,4.931,0,0,1,2.993-.86,4.323,4.323,0,0,1,2.874.888,3.086,3.086,0,0,1,1.081,2.435v4.21a4.311,4.311,0,0,0,.4,2V0ZM59.537-1.934a1.652,1.652,0,0,0,.918-.237,1.487,1.487,0,0,0,.523-.536V-4.228h-.861q-1.547,0-1.547,1.389a.848.848,0,0,0,.272.655A.986.986,0,0,0,59.537-1.934Z" transform="translate(346 639)" fill="#12263f"/>
  </g>
</svg>
