<svg xmlns="http://www.w3.org/2000/svg" xmlns:xlink="http://www.w3.org/1999/xlink" width="85" height="85" viewBox="0 0 85 85">
  <defs>
    <clipPath id="clip-path">
      <rect id="Rectángulo_375916" data-name="Rectángulo 375916" width="85" height="85" transform="translate(180 5237)" fill="#451484"/>
    </clipPath>
  </defs>
  <g id="Enmascarar_grupo_49" data-name="Enmascarar grupo 49" transform="translate(-180 -5237)" clip-path="url(#clip-path)">
    <g id="linea-de-comando" transform="translate(173.929 5230.929)">
      <g id="Grupo_1067077" data-name="Grupo 1067077">
        <path id="Trazado_807144" data-name="Trazado 807144" d="M57.679,85H39.464l2.019-12.143H55.66Z" fill="#074f77"/>
      </g>
      <g id="Grupo_1067078" data-name="Grupo 1067078">
        <path id="Trazado_807145" data-name="Trazado 807145" d="M56.419,77.411H40.739l.744-4.554H55.66Z" fill="#00325a"/>
      </g>
      <g id="Grupo_1067079" data-name="Grupo 1067079">
        <path id="Trazado_807146" data-name="Trazado 807146" d="M56.161,75.893H40.982l.5-3.036H55.66Z" fill="#00325a"/>
      </g>
      <g id="Grupo_1067080" data-name="Grupo 1067080">
        <path id="Trazado_807147" data-name="Trazado 807147" d="M91.071,21.25V72.857a3.045,3.045,0,0,1-3.036,3.036H9.107a3.045,3.045,0,0,1-3.036-3.036V21.25a3.045,3.045,0,0,1,3.036-3.036H88.036A3.045,3.045,0,0,1,91.071,21.25Z" fill="#01a0c8"/>
      </g>
      <g id="Grupo_1067081" data-name="Grupo 1067081">
        <path id="Trazado_807148" data-name="Trazado 807148" d="M80.446,74.375h6.071a1.518,1.518,0,1,0,0-3.036H80.446a1.518,1.518,0,1,0,0,3.036Z" fill="#0082aa"/>
      </g>
      <g id="Grupo_1067082" data-name="Grupo 1067082">
        <circle id="Elipse_4784" data-name="Elipse 4784" cx="1.518" cy="1.518" r="1.518" transform="translate(72.857 71.339)" fill="#0082aa"/>
      </g>
      <g id="Grupo_1067083" data-name="Grupo 1067083">
        <path id="Trazado_807149" data-name="Trazado 807149" d="M88.036,22.768v42.5a1.522,1.522,0,0,1-1.518,1.518H10.625a1.522,1.522,0,0,1-1.518-1.518v-42.5a1.522,1.522,0,0,1,1.518-1.518H86.518A1.522,1.522,0,0,1,88.036,22.768Z" fill="#fab400"/>
      </g>
      <g id="Grupo_1067084" data-name="Grupo 1067084">
        <path id="Trazado_807150" data-name="Trazado 807150" d="M86.518,21.25H10.625a1.522,1.522,0,0,0-1.518,1.518v1.518a1.522,1.522,0,0,1,1.518-1.518h4.554V60.714A1.522,1.522,0,0,0,16.7,62.232h63.75a1.522,1.522,0,0,0,1.518-1.518V22.768h4.554a1.522,1.522,0,0,1,1.518,1.518V22.768A1.522,1.522,0,0,0,86.518,21.25Z" fill="#dc9600"/>
      </g>
      <g id="Grupo_1067085" data-name="Grupo 1067085">
        <path id="Trazado_807151" data-name="Trazado 807151" d="M81.964,7.589V59.2a1.522,1.522,0,0,1-1.518,1.518H16.7A1.522,1.522,0,0,1,15.179,59.2V7.589A1.522,1.522,0,0,1,16.7,6.071h63.75A1.522,1.522,0,0,1,81.964,7.589Z" fill="#fab400"/>
      </g>
      <g id="Grupo_1067086" data-name="Grupo 1067086">
        <path id="Trazado_807152" data-name="Trazado 807152" d="M65.268,91.071H31.875a1.518,1.518,0,0,1-1.518-1.518V88.036A3.035,3.035,0,0,1,33.393,85H63.75a3.035,3.035,0,0,1,3.036,3.036v1.518A1.518,1.518,0,0,1,65.268,91.071Z" fill="#01a0c8"/>
      </g>
      <g id="Grupo_1067087" data-name="Grupo 1067087">
        <path id="Trazado_807153" data-name="Trazado 807153" d="M80.446,72.857h6.071a1.518,1.518,0,1,0,0-3.036H80.446a1.518,1.518,0,1,0,0,3.036Z" fill="#f0f0f0"/>
      </g>
      <g id="Grupo_1067088" data-name="Grupo 1067088">
        <circle id="Elipse_4785" data-name="Elipse 4785" cx="1.518" cy="1.518" r="1.518" transform="translate(72.857 69.821)" fill="#f0f0f0"/>
      </g>
      <g id="Grupo_1067095" data-name="Grupo 1067095">
        <g id="Grupo_1067089" data-name="Grupo 1067089">
          <path id="Trazado_807154" data-name="Trazado 807154" d="M81.964,15.179V59.2a1.522,1.522,0,0,1-1.518,1.518H16.7A1.522,1.522,0,0,1,15.179,59.2V15.179Z" fill="#0a5078"/>
        </g>
        <g id="Grupo_1067090" data-name="Grupo 1067090">
          <path id="Trazado_807155" data-name="Trazado 807155" d="M33.393,53.125a3.036,3.036,0,0,1-2.146-5.182l10-10-10-10a3.035,3.035,0,0,1,4.292-4.293L47.682,35.8a3.035,3.035,0,0,1,0,4.292L35.539,52.236a3.021,3.021,0,0,1-2.146.889Z" fill="#00325a"/>
        </g>
        <g id="Grupo_1067091" data-name="Grupo 1067091">
          <path id="Trazado_807156" data-name="Trazado 807156" d="M66.786,53.125H51.607a3.036,3.036,0,0,1,0-6.071H66.786a3.036,3.036,0,1,1,0,6.071Z" fill="#00325a"/>
        </g>
        <g id="Grupo_1067092" data-name="Grupo 1067092">
          <circle id="Elipse_4786" data-name="Elipse 4786" cx="1.518" cy="1.518" r="1.518" transform="translate(75.893 9.107)" fill="#c80a50"/>
        </g>
        <g id="Grupo_1067093" data-name="Grupo 1067093">
          <circle id="Elipse_4787" data-name="Elipse 4787" cx="1.518" cy="1.518" r="1.518" transform="translate(69.821 9.107)" fill="#01a0c8"/>
        </g>
        <g id="Grupo_1067094" data-name="Grupo 1067094">
          <circle id="Elipse_4788" data-name="Elipse 4788" cx="1.518" cy="1.518" r="1.518" transform="translate(63.75 9.107)" fill="#f0f0f0"/>
        </g>
      </g>
      <g id="Grupo_1067096" data-name="Grupo 1067096">
        <path id="Trazado_807157" data-name="Trazado 807157" d="M18.214,10.625a1.518,1.518,0,0,0,1.518,1.518h21.25a1.518,1.518,0,0,0,0-3.036H19.732A1.518,1.518,0,0,0,18.214,10.625Z" fill="#0a5078"/>
      </g>
      <g id="Grupo_1067097" data-name="Grupo 1067097">
        <path id="Trazado_807158" data-name="Trazado 807158" d="M33.393,51.607a3.036,3.036,0,0,1-2.146-5.182l10-10-10-10a3.035,3.035,0,0,1,4.292-4.292L47.682,34.282a3.035,3.035,0,0,1,0,4.292L35.539,50.718a3.021,3.021,0,0,1-2.146.889Z" fill="#fff"/>
      </g>
      <g id="Grupo_1067098" data-name="Grupo 1067098">
        <path id="Trazado_807159" data-name="Trazado 807159" d="M66.786,51.607H51.607a3.036,3.036,0,0,1,0-6.071H66.786a3.036,3.036,0,1,1,0,6.071Z" fill="#fff"/>
      </g>
    </g>
  </g>
</svg>
