<svg xmlns="http://www.w3.org/2000/svg" xmlns:xlink="http://www.w3.org/1999/xlink" width="231" height="47.076" viewBox="0 0 231 47.076">
  <defs>
    <linearGradient id="linear-gradient" x1="-2.226" y1="7.145" x2="-2.226" y2="7.161" gradientUnits="objectBoundingBox">
      <stop offset="0" stop-color="#0052cc"/>
      <stop offset="1" stop-color="#2684ff"/>
    </linearGradient>
  </defs>
  <g id="trello-seeklogo.com" transform="translate(-39 -82.3)">
    <path id="Trazado_806974" data-name="Trazado 806974" d="M79.839,82.3H44.495A5.482,5.482,0,0,0,39,87.795v35.27a5.577,5.577,0,0,0,5.569,5.569h35.27a5.577,5.577,0,0,0,5.569-5.569V87.795A5.644,5.644,0,0,0,79.839,82.3ZM58.974,115.639a2.135,2.135,0,0,1-.52,1.337,1.789,1.789,0,0,1-1.337.52H49.4a1.838,1.838,0,0,1-1.856-1.856V92.7A1.838,1.838,0,0,1,49.4,90.839h7.722A1.838,1.838,0,0,1,58.974,92.7ZM76.795,105.1a2.135,2.135,0,0,1-.52,1.337,1.789,1.789,0,0,1-1.337.52H67.216A1.838,1.838,0,0,1,65.36,105.1V92.7a1.838,1.838,0,0,1,1.856-1.856h7.722A1.838,1.838,0,0,1,76.795,92.7Z" fill-rule="evenodd" fill="url(#linear-gradient)"/>
    <g id="Grupo_1067036" data-name="Grupo 1067036" transform="translate(103.526 82.3)">
      <path id="Trazado_806975" data-name="Trazado 806975" d="M70.383,86.9v8.985H59.765v34.008H49.518V95.81H38.9V86.9Z" transform="translate(-38.9 -83.484)" fill="#293856"/>
      <path id="Trazado_806976" data-name="Trazado 806976" d="M95.53,132.947H86.1V99.534h9.43v6.386c1.782-4.529,4.678-7.2,9.8-6.831v9.876c-6.683-.52-9.8,1.114-9.8,6.46Z" transform="translate(-51.053 -86.614)" fill="#293856"/>
      <path id="Trazado_806977" data-name="Trazado 806977" d="M178.1,128.856c-6.237,0-10.1-2.97-10.1-10.024V82.3h9.5v35.27c0,2,1.337,2.747,2.97,2.747a8.986,8.986,0,0,0,1.411-.074v8.242a12.881,12.881,0,0,1-3.787.371Z" transform="translate(-72.14 -82.3)" fill="#293856"/>
      <path id="Trazado_806978" data-name="Trazado 806978" d="M204.9,128.856c-6.237,0-10.1-2.97-10.1-10.024V82.3h9.5v35.27c0,2,1.337,2.747,3.044,2.747a8.985,8.985,0,0,0,1.411-.074v8.242A13.9,13.9,0,0,1,204.9,128.856Z" transform="translate(-79.04 -82.3)" fill="#293856"/>
      <path id="Trazado_806979" data-name="Trazado 806979" d="M219.7,116.075c0-10.321,5.94-17.375,16.187-17.375s16.039,7.054,16.039,17.375S246.06,133.6,235.887,133.6,219.7,126.4,219.7,116.075Zm9.282,0c0,5.049,2.079,8.985,6.906,8.985s6.757-4.01,6.757-8.985-2.079-8.91-6.757-8.91S228.982,111.1,228.982,116.075Z" transform="translate(-85.451 -86.523)" fill="#293856"/>
      <path id="Trazado_806980" data-name="Trazado 806980" d="M125.982,119.094a72.239,72.239,0,0,0,7.945.446c7.277,0,13.365-1.931,13.365-8.985,0-6.831-6.311-11.955-13.885-11.955-10.173,0-16.707,7.351-16.707,17.672,0,10.692,5.643,17.078,18.34,17.078a31.358,31.358,0,0,0,11.064-2v-8.019a35.975,35.975,0,0,1-10.692,2.079C130.362,125.554,126.873,123.92,125.982,119.094Zm7.277-13.143c2.673,0,4.826,1.782,4.826,4.307,0,3.193-3.416,4.232-7.277,4.232a37.386,37.386,0,0,1-4.975-.371,11.9,11.9,0,0,1,1.337-4.455,7.26,7.26,0,0,1,6.089-3.713Z" transform="translate(-58.931 -86.497)" fill="#293856"/>
    </g>
  </g>
</svg>
