<svg id="Grupo_1067038" data-name="Grupo 1067038" xmlns="http://www.w3.org/2000/svg" xmlns:xlink="http://www.w3.org/1999/xlink" width="188" height="71.487" viewBox="0 0 188 71.487">
  <defs>
    <clipPath id="clip-path">
      <rect id="Rectángulo_375809" data-name="Rectángulo 375809" width="188" height="71.486" fill="none"/>
    </clipPath>
  </defs>
  <g id="Grupo_1067037" data-name="Grupo 1067037" clip-path="url(#clip-path)">
    <path id="Trazado_806981" data-name="Trazado 806981" d="M23.055,52.2C.76,52.194-.105,69.549.008,74.055c0,0-1.092,20.291,22.5,20.291,20.275,0,21.273-12.731,21.273-12.731l-9.329.019s-1.816,7.013-11.906,6.824C9.577,88.219,9.074,75.652,9.074,75.652H45.007S47.731,52.2,23.055,52.2M9.372,69.5s.638-11.362,13.462-11.366c12.776,0,12.776,11.366,12.776,11.366Z" transform="translate(0 -36.417)" fill="#d31b27"/>
    <path id="Trazado_806982" data-name="Trazado 806982" d="M173.113,15.782c-11.209-.064-16.032,6.637-16.032,6.637V0h-8.986l.151,47.384s-.054,5.518-.392,9.165h8.726l.376-5.321s4.072,6.7,15.969,6.7,21.3-7.329,21.546-20.917-10.146-21.168-21.357-21.23M171.055,51.87c-14.157.177-13.927-15.015-13.927-15.015s-.516-14.623,13.9-15,13.95,15.312,13.95,15.312.229,14.525-13.928,14.7" transform="translate(-103.152)" fill="#004a92"/>
    <path id="Trazado_806983" data-name="Trazado 806983" d="M341.636,83.171c.024-6.131.2-11.6,0-15.463-.236-4.476.189-15.28-19.163-16.078,0,0-18.554-1.691-20.481,12.117h9.49s.736-6.326,10.365-6.144c9.112.171,10.772,4.641,10.725,10.137,0,0-7.811.022-10.416.037-4.7.022-21.134.543-22.668,10.556-1.825,11.9,8.8,15.618,17.114,15.57s13.057-2.537,16.58-7l.377,5.542,8.267-.047s-.215-3.1-.189-9.228m-23.486,5s-9.006.012-9.535-7.185c-.562-7.68,13.858-7.218,13.858-7.218l10.187-.009s1.647,14.626-14.51,14.413" transform="translate(-208.796 -35.975)" fill="#f49a00"/>
    <path id="Trazado_806984" data-name="Trazado 806984" d="M423.116,57.164H433.54l15.251,30.407,15.282-30.407H473.5l-27.588,54.2H435.828l7.984-15.061Z" transform="translate(-295.192 -39.881)" fill="#689e22"/>
    <path id="Trazado_806985" data-name="Trazado 806985" d="M600.63,59.432V58.309h-.349v-.42h.349V57.3h.626v.585h.735v.42h-.735v1.046c0,.19.123.267.336.267a1.041,1.041,0,0,0,.39-.072v.4a1.323,1.323,0,0,1-.565.109c-.463,0-.787-.157-.787-.626" transform="translate(-418.792 -39.979)" fill="#100f0c"/>
    <path id="Trazado_806986" data-name="Trazado 806986" d="M608.045,59.141h.628v.324a1.056,1.056,0,0,1,.835-.367.924.924,0,0,1,.817.375,1.216,1.216,0,0,1,.922-.375c.6,0,.961.294.961.815v1.362h-.627V60.061a.488.488,0,0,0-.555-.521.521.521,0,0,0-.587.529v1.2h-.626V60.058a.491.491,0,0,0-.554-.519.527.527,0,0,0-.587.529v1.2h-.628Z" transform="translate(-424.209 -41.23)" fill="#100f0c"/>
  </g>
</svg>
