<svg id="Grupo_1066163" data-name="Grupo 1066163" xmlns="http://www.w3.org/2000/svg" xmlns:xlink="http://www.w3.org/1999/xlink" width="295" height="196.331" viewBox="0 0 295 196.331">
  <defs>
    <clipPath id="clip-path">
      <rect id="Rectángulo_375129" data-name="Rectángulo 375129" width="295" height="196.331" fill="none"/>
    </clipPath>
    <clipPath id="clip-path-3">
      <rect id="Rectángulo_375113" data-name="Rectángulo 375113" width="154.767" height="111.446" fill="none"/>
    </clipPath>
  </defs>
  <g id="Grupo_1066162" data-name="Grupo 1066162" clip-path="url(#clip-path)">
    <g id="Grupo_1066161" data-name="Grupo 1066161" transform="translate(0 0)">
      <g id="Grupo_1066160" data-name="Grupo 1066160" clip-path="url(#clip-path)">
        <path id="Trazado_802096" data-name="Trazado 802096" d="M2692.793,905.464h-50.978l-18.022-44.854s-25.326-15.52-31.79-27.3l30.188-46,17.508,11.054a5.022,5.022,0,0,0,5.047.188l0,0c.144-.072-2.354-6.889-1.9-10.916,0,0-6.535-4.632-7.325-6.823s-2.316-4.632-2.3-8.905,4.057-5.512,5.081-4.794,6.769,7.11,6.769,7.11,9.013,3.357,9.857,3.806a5.907,5.907,0,0,1,2.98,3.968s6.1,20.528,6.481,23.376a114.7,114.7,0,0,1-.1,31.006c-.385,2.436,21.57,49.973,28.5,69.083" transform="translate(-2408.989 -712.774)" fill="#fc938b"/>
        <path id="Trazado_802097" data-name="Trazado 802097" d="M2653.086,1208.215l-.055-.375s33.9-39.212,38.012-43.652l3.382,2.137s-.149,15.437-.064,30.758c.016,2.961-.076,4.294-.076,6.2,0,8.582-4.74,8.69-10.23,8.69-11.331,0-22.01-.121-27.579-.152a24.974,24.974,0,0,1-3.39-3.6" transform="translate(-2465.707 -1081.988)" fill="#f27c80"/>
        <path id="Trazado_802098" data-name="Trazado 802098" d="M3247.645,784.472h-.009a10.89,10.89,0,0,1-3.328-1,4.753,4.753,0,0,1-3.007-3.182,4.939,4.939,0,0,1,.019-2.664.206.206,0,0,1,.347-.073c2.342,2.528,5.881,6.337,6.1,6.546a.207.207,0,0,1-.126.37m.073-.4h0Zm0,0h0Zm-6.1-5.957a4.744,4.744,0,0,0,.078,2.071,4.34,4.34,0,0,0,2.764,2.907,15.762,15.762,0,0,0,2.624.893c-.407-.429-1.182-1.259-2.684-2.874-1.145-1.232-2.286-2.462-2.782-3" transform="translate(-3012.281 -722.594)" fill="#fffbe6"/>
        <path id="Trazado_802099" data-name="Trazado 802099" d="M3125.111,1887.044l-5.679-12.575s-25.164,5.579-44.143,25.278l3.254,8.33s23.462,4.5,46.567-21.033" transform="translate(-2858.15 -1742.118)" fill="#e8e8e8"/>
        <path id="Trazado_802100" data-name="Trazado 802100" d="M3084.958,1986.514l11.551,29.956h65.628l-27.29-58.052s-28.74,5.443-49.889,28.1" transform="translate(-2867.137 -1820.139)" fill="#243684"/>
        <path id="Trazado_802101" data-name="Trazado 802101" d="M3284.8,1784.413a.206.206,0,0,1-.1-.389c15.109-7.936,20.942-13.986,21-14.046a.206.206,0,0,1,.3.284,42.825,42.825,0,0,1-4.805,4.048,120.831,120.831,0,0,1-16.3,10.08.206.206,0,0,1-.1.024" transform="translate(-3052.681 -1644.945)" fill="#cf6072"/>
        <path id="Trazado_802102" data-name="Trazado 802102" d="M3058.987,1992.867a.206.206,0,0,1-.04-.409c5.4-1.065,13.482-5.43,13.563-5.474a.206.206,0,1,1,.2.363c-.081.044-8.218,4.439-13.681,5.516a.206.206,0,0,1-.04,0" transform="translate(-2842.808 -1846.665)" fill="#cf6072"/>
        <path id="Trazado_802103" data-name="Trazado 802103" d="M3317.691,1003.781a.206.206,0,0,1-.04-.409,16.28,16.28,0,0,0,7.431-3.661.206.206,0,0,1,.287.3,16.743,16.743,0,0,1-7.636,3.769.2.2,0,0,1-.041,0" transform="translate(-3083.245 -929.07)" fill="#cf6072"/>
        <path id="Trazado_802104" data-name="Trazado 802104" d="M3472.516,949.08a.207.207,0,0,1-.136-.362l1.865-1.632a.206.206,0,1,1,.271.311l-1.865,1.632a.2.2,0,0,1-.136.051" transform="translate(-3227.138 -880.168)" fill="#cf6072"/>
        <path id="Trazado_802105" data-name="Trazado 802105" d="M3457.029,933.611a.207.207,0,0,1-.191-.285l.722-1.754a.206.206,0,0,1,.382.157l-.722,1.754a.207.207,0,0,1-.191.128" transform="translate(-3212.745 -865.677)" fill="#cf6072"/>
        <path id="Trazado_802106" data-name="Trazado 802106" d="M3481.389,981.169a.206.206,0,0,1-.01-.412l2.064-.1a.206.206,0,1,1,.021.412l-2.064.1h-.01" transform="translate(-3235.385 -911.412)" fill="#cf6072"/>
        <path id="Trazado_802107" data-name="Trazado 802107" d="M3351.358,1217.4a.206.206,0,0,1-.068-.011,12.2,12.2,0,0,1-3.782-2.524.206.206,0,0,1,.29-.293,12.015,12.015,0,0,0,3.627,2.427.206.206,0,0,1-.068.4" transform="translate(-3111.092 -1128.755)" fill="#cf6072"/>
        <path id="Trazado_802108" data-name="Trazado 802108" d="M3172.053,773.681a5.266,5.266,0,0,1,3.7-4.988l-.6,14.708c-.832-.925-3.365-3.1-3.105-9.721" transform="translate(-2948.065 -714.418)" fill="#fc938b"/>
        <path id="Trazado_802109" data-name="Trazado 802109" d="M158.563,905.464h50.978l18.022-44.854s25.326-15.52,31.79-27.3l-30.188-46-17.508,11.054a5.022,5.022,0,0,1-5.047.188l0,0c-.144-.072,2.354-6.889,1.9-10.916,0,0,6.535-4.632,7.325-6.823s2.316-4.632,2.3-8.905-4.058-5.512-5.081-4.794-6.769,7.11-6.769,7.11-9.013,3.357-9.857,3.806a5.907,5.907,0,0,0-2.98,3.968s-6.1,20.528-6.481,23.376a114.685,114.685,0,0,0,.1,31.006c.385,2.436-21.571,49.973-28.5,69.083" transform="translate(-147.367 -712.774)" fill="#fc938b"/>
        <path id="Trazado_802110" data-name="Trazado 802110" d="M980.084,1208.215l.055-.375s-33.9-39.212-38.012-43.652l-3.382,2.137s.149,15.437.064,30.758c-.016,2.961.076,4.294.076,6.2,0,8.582,4.74,8.69,10.229,8.69,11.331,0,22.011-.121,27.579-.152a24.979,24.979,0,0,0,3.391-3.6" transform="translate(-872.463 -1081.988)" fill="#f27c80"/>
        <path id="Trazado_802111" data-name="Trazado 802111" d="M841.909,784.472a.206.206,0,0,1-.126-.37c.222-.208,3.762-4.017,6.1-6.546a.206.206,0,0,1,.347.074,4.938,4.938,0,0,1,.019,2.664,4.753,4.753,0,0,1-3.007,3.182,10.889,10.889,0,0,1-3.328,1h-.009m-.072-.4h0m0,0h0m6.1-5.957c-.5.535-1.637,1.765-2.782,3-1.5,1.616-2.277,2.445-2.684,2.874a15.759,15.759,0,0,0,2.624-.893,4.339,4.339,0,0,0,2.764-2.907,4.749,4.749,0,0,0,.078-2.071" transform="translate(-782.272 -722.594)" fill="#fffbe6"/>
        <path id="Trazado_802112" data-name="Trazado 802112" d="M397.131,1887.044l5.679-12.575s25.164,5.579,44.143,25.278l-3.254,8.33s-23.462,4.5-46.567-21.033" transform="translate(-369.091 -1742.118)" fill="#e8e8e8"/>
        <path id="Trazado_802113" data-name="Trazado 802113" d="M77.179,1986.514l-11.551,29.956H0l27.29-58.052s28.74,5.443,49.889,28.1" transform="translate(0 -1820.139)" fill="#243684"/>
        <path id="Trazado_802114" data-name="Trazado 802114" d="M610.683,1784.413a.206.206,0,0,1-.1-.024,120.851,120.851,0,0,1-16.3-10.08,42.7,42.7,0,0,1-4.805-4.048.206.206,0,0,1,.3-.284c.057.06,5.889,6.11,21,14.046a.206.206,0,0,1-.1.389" transform="translate(-547.806 -1644.945)" fill="#cf6072"/>
        <path id="Trazado_802115" data-name="Trazado 802115" d="M934.3,1992.867a.214.214,0,0,1-.04,0c-5.463-1.077-13.6-5.472-13.681-5.516a.206.206,0,0,1,.2-.363c.081.044,8.163,4.409,13.564,5.474a.206.206,0,0,1-.04.409" transform="translate(-855.482 -1846.665)" fill="#cf6072"/>
        <path id="Trazado_802116" data-name="Trazado 802116" d="M755.747,1003.782a.206.206,0,0,1-.041,0,16.744,16.744,0,0,1-7.636-3.769.206.206,0,0,1,.287-.3,16.308,16.308,0,0,0,7.431,3.661.206.206,0,0,1-.04.409" transform="translate(-695.192 -929.072)" fill="#cf6072"/>
        <path id="Trazado_802117" data-name="Trazado 802117" d="M675.536,949.08a.205.205,0,0,1-.136-.051l-1.865-1.632a.206.206,0,0,1,.272-.311l1.865,1.632a.206.206,0,0,1-.136.362" transform="translate(-625.913 -880.168)" fill="#cf6072"/>
        <path id="Trazado_802118" data-name="Trazado 802118" d="M706.061,933.611a.206.206,0,0,1-.191-.128l-.722-1.754a.206.206,0,0,1,.382-.157l.722,1.754a.207.207,0,0,1-.191.285" transform="translate(-655.344 -865.677)" fill="#cf6072"/>
        <path id="Trazado_802119" data-name="Trazado 802119" d="M664.044,981.168h-.01l-2.064-.1a.206.206,0,0,1,.021-.412l2.064.1a.206.206,0,0,1-.01.412" transform="translate(-615.047 -911.411)" fill="#cf6072"/>
        <path id="Trazado_802120" data-name="Trazado 802120" d="M772.476,1217.4a.206.206,0,0,1-.068-.4,12.015,12.015,0,0,0,3.627-2.427.206.206,0,0,1,.29.294,12.2,12.2,0,0,1-3.782,2.524.208.208,0,0,1-.068.011" transform="translate(-717.741 -1128.756)" fill="#cf6072"/>
        <path id="Trazado_802121" data-name="Trazado 802121" d="M957.026,773.681a5.267,5.267,0,0,0-3.7-4.988l.6,14.708c.831-.925,3.365-3.1,3.105-9.721" transform="translate(-886.013 -714.418)" fill="#fc938b"/>
        <path id="Trazado_802122" data-name="Trazado 802122" d="M1144.442,215.206H998.763a4.544,4.544,0,0,0-4.544,4.544V322.108a4.544,4.544,0,0,0,4.544,4.544h145.68a4.544,4.544,0,0,0,4.544-4.544V219.75a4.544,4.544,0,0,0-4.544-4.544" transform="translate(-924.02 -200.011)" fill="#fff"/>
        <g id="Grupo_1066159" data-name="Grupo 1066159" transform="translate(70.199 15.195)" opacity="0.4">
          <g id="Grupo_1066158" data-name="Grupo 1066158">
            <g id="Grupo_1066157" data-name="Grupo 1066157" clip-path="url(#clip-path-3)">
              <path id="Trazado_802123" data-name="Trazado 802123" d="M1440.65,317.267c0-4.955,5.79-4.955,5.79-9.91s-5.79-4.955-5.79-9.91,5.79-4.955,5.79-9.909-5.79-4.955-5.79-9.909,5.79-4.955,5.79-9.909-5.79-4.955-5.79-9.909,5.79-4.955,5.79-9.91-5.79-4.955-5.79-9.909,5.79-4.955,5.79-9.909-5.79-4.955-5.79-9.909a4.92,4.92,0,0,1,.923-2.967h-17.607a4.92,4.92,0,0,0-.923,2.968c0,4.955,5.79,4.955,5.79,9.91s-5.79,4.955-5.79,9.91,5.79,4.955,5.79,9.91-5.79,4.955-5.79,9.909,5.79,4.955,5.79,9.909-5.79,4.955-5.79,9.91,5.79,4.955,5.79,9.909-5.79,4.955-5.79,9.909,5.79,4.955,5.79,9.909-5.79,4.955-5.79,9.909c0,4.773,5.371,4.949,5.766,9.384h17.607c-.394-4.436-5.766-4.612-5.766-9.385" transform="translate(-1392.765 -215.206)" fill="#a2b7f9"/>
              <path id="Trazado_802124" data-name="Trazado 802124" d="M1690.017,317.269c0-4.955,5.79-4.955,5.79-9.909s-5.79-4.955-5.79-9.909,5.79-4.955,5.79-9.909-5.79-4.955-5.79-9.909,5.79-4.955,5.79-9.909-5.79-4.955-5.79-9.909,5.79-4.955,5.79-9.909-5.79-4.955-5.79-9.91,5.79-4.955,5.79-9.91-5.79-4.955-5.79-9.91a4.92,4.92,0,0,1,.923-2.968h-17.607a4.919,4.919,0,0,0-.923,2.967c0,4.955,5.79,4.955,5.79,9.909s-5.79,4.955-5.79,9.909,5.79,4.955,5.79,9.909-5.79,4.955-5.79,9.909,5.79,4.955,5.79,9.909-5.79,4.955-5.79,9.909,5.79,4.955,5.79,9.909-5.79,4.955-5.79,9.91,5.79,4.955,5.79,9.91-5.79,4.955-5.79,9.909c0,4.773,5.372,4.949,5.766,9.385h17.607c-.395-4.435-5.766-4.611-5.766-9.384" transform="translate(-1624.525 -215.206)" fill="#4c70d6"/>
              <path id="Trazado_802125" data-name="Trazado 802125" d="M1006.889,317.267c0-4.955,5.79-4.955,5.79-9.91s-5.79-4.955-5.79-9.91,5.79-4.955,5.79-9.909-5.79-4.955-5.79-9.909,5.79-4.955,5.79-9.909-5.79-4.955-5.79-9.909,5.79-4.955,5.79-9.91-5.79-4.955-5.79-9.909,5.79-4.955,5.79-9.909-5.79-4.955-5.79-9.909a4.919,4.919,0,0,1,.923-2.967h-9.05a4.544,4.544,0,0,0-4.544,4.544V322.108a4.544,4.544,0,0,0,4.544,4.544h13.893c-.394-4.436-5.766-4.612-5.766-9.385" transform="translate(-994.218 -215.206)" fill="#a2b7f9"/>
              <path id="Trazado_802126" data-name="Trazado 802126" d="M1191.284,317.269c0-4.955,5.79-4.955,5.79-9.909s-5.79-4.955-5.79-9.909,5.79-4.955,5.79-9.909-5.79-4.955-5.79-9.909,5.79-4.955,5.79-9.909-5.79-4.955-5.79-9.909,5.79-4.955,5.79-9.909-5.79-4.955-5.79-9.91,5.79-4.955,5.79-9.91-5.79-4.955-5.79-9.91a4.92,4.92,0,0,1,.923-2.968H1174.6a4.92,4.92,0,0,0-.923,2.967c0,4.955,5.79,4.955,5.79,9.909s-5.79,4.955-5.79,9.909,5.79,4.955,5.79,9.909-5.79,4.955-5.79,9.909,5.79,4.955,5.79,9.909-5.79,4.955-5.79,9.909,5.79,4.955,5.79,9.909-5.79,4.955-5.79,9.91,5.79,4.955,5.79,9.91-5.79,4.955-5.79,9.909c0,4.773,5.372,4.949,5.766,9.385h17.607c-.395-4.435-5.766-4.611-5.766-9.384" transform="translate(-1161.006 -215.206)" fill="#4c70d6"/>
              <path id="Trazado_802127" data-name="Trazado 802127" d="M2197.985,317.269c0-4.955,5.79-4.955,5.79-9.909s-5.79-4.955-5.79-9.909,5.79-4.955,5.79-9.909-5.79-4.955-5.79-9.909,5.79-4.955,5.79-9.909-5.79-4.955-5.79-9.909,5.79-4.955,5.79-9.909-5.79-4.955-5.79-9.91,5.79-4.955,5.79-9.91-5.79-4.955-5.79-9.91a4.921,4.921,0,0,1,.923-2.968H2181.3a4.92,4.92,0,0,0-.923,2.967c0,4.955,5.79,4.955,5.79,9.909s-5.79,4.955-5.79,9.909,5.79,4.955,5.79,9.909-5.79,4.955-5.79,9.909,5.79,4.955,5.79,9.909-5.79,4.955-5.79,9.909,5.79,4.955,5.79,9.909-5.79,4.955-5.79,9.91,5.79,4.955,5.79,9.91-5.79,4.955-5.79,9.909c0,4.773,5.372,4.949,5.766,9.385h17.607c-.395-4.435-5.766-4.611-5.766-9.384" transform="translate(-2096.626 -215.206)" fill="#4c70d6"/>
              <path id="Trazado_802128" data-name="Trazado 802128" d="M1940.035,317.267c0-4.955,5.79-4.955,5.79-9.91s-5.79-4.955-5.79-9.91,5.79-4.955,5.79-9.909-5.79-4.955-5.79-9.909,5.79-4.955,5.79-9.909-5.79-4.955-5.79-9.909,5.79-4.955,5.79-9.91-5.79-4.955-5.79-9.909,5.79-4.955,5.79-9.909-5.79-4.955-5.79-9.909a4.92,4.92,0,0,1,.923-2.967H1922.7a4.92,4.92,0,0,0-.923,2.968c0,4.955,5.79,4.955,5.79,9.91s-5.79,4.955-5.79,9.91,5.79,4.955,5.79,9.91-5.79,4.955-5.79,9.909,5.79,4.955,5.79,9.909-5.79,4.955-5.79,9.91,5.79,4.955,5.79,9.909-5.79,4.955-5.79,9.909,5.79,4.955,5.79,9.909-5.79,4.955-5.79,9.909c0,4.773,5.371,4.949,5.766,9.384H1945.8c-.394-4.436-5.766-4.612-5.766-9.385" transform="translate(-1856.283 -215.206)" fill="#80baff"/>
              <path id="Trazado_802129" data-name="Trazado 802129" d="M2942.127,215.206H2929.4a4.919,4.919,0,0,0-.923,2.968c0,4.955,5.79,4.955,5.79,9.91s-5.79,4.955-5.79,9.91,5.79,4.955,5.79,9.91-5.79,4.955-5.79,9.909,5.79,4.955,5.79,9.909-5.79,4.955-5.79,9.91,5.79,4.955,5.79,9.909-5.79,4.955-5.79,9.909,5.79,4.955,5.79,9.909-5.79,4.955-5.79,9.909c0,4.773,5.371,4.949,5.766,9.384h7.884a4.544,4.544,0,0,0,4.544-4.544V219.75a4.544,4.544,0,0,0-4.544-4.544" transform="translate(-2791.904 -215.206)" fill="#a2b7f9"/>
              <path id="Trazado_802130" data-name="Trazado 802130" d="M2696.717,317.269c0-4.955,5.79-4.955,5.79-9.909s-5.79-4.955-5.79-9.909,5.79-4.955,5.79-9.909-5.79-4.955-5.79-9.909,5.79-4.955,5.79-9.909-5.79-4.955-5.79-9.909,5.79-4.955,5.79-9.909-5.79-4.955-5.79-9.91,5.79-4.955,5.79-9.91-5.79-4.955-5.79-9.91a4.918,4.918,0,0,1,.923-2.968h-17.607a4.92,4.92,0,0,0-.923,2.967c0,4.955,5.79,4.955,5.79,9.909s-5.79,4.955-5.79,9.909,5.79,4.955,5.79,9.909-5.79,4.955-5.79,9.909,5.79,4.955,5.79,9.909-5.79,4.955-5.79,9.909,5.79,4.955,5.79,9.909-5.79,4.955-5.79,9.91,5.79,4.955,5.79,9.91-5.79,4.955-5.79,9.909c0,4.773,5.372,4.949,5.766,9.385h17.607c-.4-4.435-5.766-4.611-5.766-9.384" transform="translate(-2560.144 -215.206)" fill="#4c70d6"/>
              <path id="Trazado_802131" data-name="Trazado 802131" d="M2447.351,317.267c0-4.955,5.79-4.955,5.79-9.91s-5.79-4.955-5.79-9.91,5.79-4.955,5.79-9.909-5.79-4.955-5.79-9.909,5.79-4.955,5.79-9.909-5.79-4.955-5.79-9.909,5.79-4.955,5.79-9.91-5.79-4.955-5.79-9.909,5.79-4.955,5.79-9.909-5.79-4.955-5.79-9.909a4.918,4.918,0,0,1,.923-2.967h-17.607a4.919,4.919,0,0,0-.923,2.968c0,4.955,5.79,4.955,5.79,9.91s-5.79,4.955-5.79,9.91,5.79,4.955,5.79,9.91-5.79,4.955-5.79,9.909,5.79,4.955,5.79,9.909-5.79,4.955-5.79,9.91,5.79,4.955,5.79,9.909-5.79,4.955-5.79,9.909,5.79,4.955,5.79,9.909-5.79,4.955-5.79,9.909c0,4.773,5.371,4.949,5.766,9.384h17.607c-.395-4.436-5.766-4.612-5.766-9.385" transform="translate(-2328.385 -215.206)" fill="#a2b7f9"/>
            </g>
          </g>
        </g>
        <path id="Trazado_802132" data-name="Trazado 802132" d="M1471.987,1008.273c-11.913-5.87-24.228-6.561-25.264-10.186s-2.417-13.121-2.417-13.121h-20.717s-1.381,9.5-2.417,13.121-13.351,4.316-25.264,10.186-11.727,23.751-11.727,23.751h99.533s.185-17.882-11.727-23.751" transform="translate(-1286.447 -915.42)" fill="#fc8270"/>
        <path id="Trazado_802133" data-name="Trazado 802133" d="M1942.411,994.154c-.8-4.14-1.534-9.188-1.534-9.188H1920.16s-.828,5.693-1.683,9.945c11.969,5.656,24.231.781,23.934-.757" transform="translate(-1783.018 -915.42)" fill="#df5e50"/>
        <path id="Trazado_802134" data-name="Trazado 802134" d="M1786.13,667.168a5.7,5.7,0,0,0-2.367-4.871c-1.25-.82-2.837-1.1-3.969.106-3.8,4.057.6,10.764,5.368,10.757a.852.852,0,0,0,.889-.847Z" transform="translate(-1652.792 -614.874)" fill="#ee7365"/>
        <path id="Trazado_802135" data-name="Trazado 802135" d="M1808.809,706.964a.378.378,0,0,1-.362-.268,10.991,10.991,0,0,0-2.86-4.977.378.378,0,0,1,.484-.581,11.491,11.491,0,0,1,3.1,5.338.379.379,0,0,1-.362.488" transform="translate(-1677.974 -651.551)" fill="#df6556"/>
        <path id="Trazado_802136" data-name="Trazado 802136" d="M1794.727,725.75a.377.377,0,0,1-.146-.029,5.383,5.383,0,0,0-2.342-.241.378.378,0,0,1-.1-.75,6.071,6.071,0,0,1,2.732.293.378.378,0,0,1-.146.727" transform="translate(-1665.296 -673.519)" fill="#df6556"/>
        <path id="Trazado_802137" data-name="Trazado 802137" d="M2289.582,667.168a5.7,5.7,0,0,1,2.367-4.871c1.25-.82,2.837-1.1,3.969.106,3.8,4.057-.6,10.764-5.368,10.757a.852.852,0,0,1-.889-.847Z" transform="translate(-2127.919 -614.874)" fill="#ee7365"/>
        <path id="Trazado_802138" data-name="Trazado 802138" d="M2320.05,706.962a.378.378,0,0,1-.362-.488,11.493,11.493,0,0,1,3.1-5.338.378.378,0,0,1,.484.582,10.994,10.994,0,0,0-2.86,4.977.378.378,0,0,1-.362.268" transform="translate(-2155.885 -651.549)" fill="#df6556"/>
        <path id="Trazado_802139" data-name="Trazado 802139" d="M2339.954,725.751a.378.378,0,0,1-.146-.727,6.073,6.073,0,0,1,2.733-.293.378.378,0,0,1-.1.75,5.381,5.381,0,0,0-2.342.241.375.375,0,0,1-.145.029" transform="translate(-2174.384 -673.519)" fill="#df6556"/>
        <path id="Trazado_802140" data-name="Trazado 802140" d="M1897.516,450.31c0,12.814-3.591,25.343-15.745,25.343s-15.745-12.528-15.745-25.343c0-17.7,7.049-22.939,15.745-22.939s15.745,5.237,15.745,22.939" transform="translate(-1734.271 -397.196)" fill="#fc8270"/>
        <path id="Trazado_802141" data-name="Trazado 802141" d="M2062.075,779.04a2.412,2.412,0,0,1-1.1-.264,2.259,2.259,0,0,1-1.245-2.031,17.21,17.21,0,0,1,1.478-6.891.378.378,0,0,1,.682.327,16.743,16.743,0,0,0-1.4,6.557,1.515,1.515,0,0,0,.832,1.363,1.87,1.87,0,0,0,1.95-.227.378.378,0,1,1,.439.616,2.818,2.818,0,0,1-1.631.548" transform="translate(-1914.297 -715.298)" fill="#df6556"/>
        <path id="Trazado_802142" data-name="Trazado 802142" d="M2016.037,956.937c1.219,2.592,2.73,3.958,5.153,3.958s3.934-1.366,5.153-3.958a13.87,13.87,0,0,1-5.153.865,13.161,13.161,0,0,1-5.153-.865" transform="translate(-1873.69 -889.371)" fill="#fff"/>
        <path id="Trazado_802143" data-name="Trazado 802143" d="M1966.372,737.069a1.485,1.485,0,1,1-1.429-1.89,1.708,1.708,0,0,1,1.429,1.89" transform="translate(-1824.875 -683.27)" fill="#101119"/>
        <path id="Trazado_802144" data-name="Trazado 802144" d="M2176.9,737.069a1.485,1.485,0,1,1-1.429-1.89,1.709,1.709,0,0,1,1.429,1.89" transform="translate(-2020.539 -683.27)" fill="#101119"/>
        <path id="Trazado_802145" data-name="Trazado 802145" d="M1905.032,655.487a8.338,8.338,0,0,1,4.227-2.219c2.495-.478,3.505.446,4.023-.691.336-.738-.284-1.685-2.3-1.7a7.468,7.468,0,0,0-4.806,1.73,4.16,4.16,0,0,0-1.141,2.879" transform="translate(-1770.521 -604.921)" fill="#5e292b"/>
        <path id="Trazado_802146" data-name="Trazado 802146" d="M2163.259,655.487a8.338,8.338,0,0,0-4.227-2.219c-2.495-.478-3.505.446-4.023-.691-.336-.738.284-1.685,2.3-1.7a7.468,7.468,0,0,1,4.806,1.73,4.16,4.16,0,0,1,1.141,2.879" transform="translate(-2002.769 -604.921)" fill="#5e292b"/>
        <path id="Trazado_802147" data-name="Trazado 802147" d="M1845.92,314.8s4.114-1.091,4.449-5.037-2.225-5.373-2.225-5.373,3.341-7.217-2.225-12.005a8.8,8.8,0,0,0-10.662-.756,6.166,6.166,0,0,0-5.961-4.869c-4.722-.287-5.625,4.617-5.625,4.617a3.874,3.874,0,0,0-5.127-.134c-1.992,1.5-.854,4.258-.854,4.258a3.92,3.92,0,0,0-4.015,1.367c-2.015,2.1-.326,6.1-.326,6.1s-2.432,1.013-2.612,5.066a7.368,7.368,0,0,0,4.087,6.766,18.24,18.24,0,0,1,2.752-6.5c1.619-2.17,6.23-3.926,12.8-3.926s10.928,1.5,12.979,4.188a14.439,14.439,0,0,1,2.567,6.234" transform="translate(-1682.879 -266.498)" fill="#5e292b"/>
        <path id="Trazado_802148" data-name="Trazado 802148" d="M1892.9,681.82a6.336,6.336,0,1,1,6.336-6.336,6.343,6.343,0,0,1-6.336,6.336m0-12.023a5.687,5.687,0,1,0,5.687,5.687,5.694,5.694,0,0,0-5.687-5.687" transform="translate(-1753.355 -621.902)" fill="#101330"/>
        <path id="Trazado_802149" data-name="Trazado 802149" d="M2118.346,681.82a6.336,6.336,0,1,1,6.336-6.336,6.343,6.343,0,0,1-6.336,6.336m0-12.023a5.687,5.687,0,1,0,5.687,5.687,5.694,5.694,0,0,0-5.687-5.687" transform="translate(-1962.886 -621.902)" fill="#101330"/>
        <path id="Trazado_802150" data-name="Trazado 802150" d="M2060.864,729.149a2.826,2.826,0,0,0-3.695-.033l-.453-.464a3.5,3.5,0,0,1,4.52-.034Z" transform="translate(-1911.497 -676.427)" fill="#101330"/>
        <path id="Trazado_802151" data-name="Trazado 802151" d="M1458.843,1237.061c-5.943-2.928-12.255-4.568-17.218-5.926-4.658,6.2-12.759,10.3-21.974,10.3-9.2,0-17.287-4.086-21.949-10.263-4.944,1.352-11.2,2.988-17.1,5.893-11.912,5.87-11.727,24.832-11.727,24.832H1470.57s.185-18.962-11.727-24.832" transform="translate(-1272.223 -1144.208)" fill="#ffe98a"/>
        <path id="Trazado_802152" data-name="Trazado 802152" d="M1392.244,1253.168a72.724,72.724,0,0,0-11.642,4.37c-11.912,5.87-11.727,24.832-11.727,24.832h25.209c-3.389-11.958-3.18-21.832-1.84-29.2" transform="translate(-1272.222 -1164.685)" fill="#3c65b5"/>
        <path id="Trazado_802153" data-name="Trazado 802153" d="M2463.715,1256.951a73.156,73.156,0,0,0-11.794-4.414c1.348,7.375,1.564,17.264-1.832,29.247h25.353s.185-18.962-11.727-24.832" transform="translate(-2277.094 -1164.099)" fill="#3c65b5"/>
        <rect id="Rectángulo_375114" data-name="Rectángulo 375114" width="154.496" height="9.745" transform="translate(70.468 115.932)" fill="#49537c"/>
        <path id="Trazado_802154" data-name="Trazado 802154" d="M2952.32,1684.46a1.4,1.4,0,0,0-.026-.264l.543-.314-.449-.778-.544.314a1.379,1.379,0,0,0-.457-.264v-.628h-.9v.628a1.382,1.382,0,0,0-.457.264l-.544-.314-.449.778.543.314a1.362,1.362,0,0,0,0,.528l-.543.314.449.778.544-.314a1.378,1.378,0,0,0,.457.264v.628h.9v-.628a1.375,1.375,0,0,0,.457-.264l.544.314.449-.778-.543-.314a1.406,1.406,0,0,0,.026-.264m-1.382.685a.685.685,0,1,1,.685-.685.685.685,0,0,1-.685.685" transform="translate(-2740.814 -1563.728)" fill="#fff"/>
        <path id="Trazado_802155" data-name="Trazado 802155" d="M3056.485,1682.824h1v-.3h-1.3v1.3h.3Z" transform="translate(-2840.398 -1563.728)" fill="#fff"/>
        <path id="Trazado_802156" data-name="Trazado 802156" d="M3056.485,1719.882v-1h-.3v1.3h1.3v-.3Z" transform="translate(-2840.398 -1597.513)" fill="#fff"/>
        <path id="Trazado_802157" data-name="Trazado 802157" d="M3093.544,1719.882h-1v.3h1.3v-1.3h-.3Z" transform="translate(-2874.183 -1597.513)" fill="#fff"/>
        <path id="Trazado_802158" data-name="Trazado 802158" d="M3093.544,1682.824v1h.3v-1.3h-1.3v.3Z" transform="translate(-2874.183 -1563.728)" fill="#fff"/>
        <path id="Trazado_802159" data-name="Trazado 802159" d="M1062.552,1687.582v-3.869l3.869,1.934Z" transform="translate(-987.528 -1564.831)" fill="#fff"/>
        <path id="Trazado_802160" data-name="Trazado 802160" d="M1170.908,1682.527l-1.626,1.319h-.855v1.231h.855l1.626,1.319Z" transform="translate(-1085.927 -1563.728)" fill="#fff"/>
        <path id="Trazado_802161" data-name="Trazado 802161" d="M1208.552,1682.924a1.539,1.539,0,0,1,0,3.077v.4a1.934,1.934,0,0,0,0-3.869Z" transform="translate(-1123.219 -1563.729)" fill="#fff"/>
        <path id="Trazado_802162" data-name="Trazado 802162" d="M1208.552,1696.62a1.095,1.095,0,0,0,0-2.187Z" transform="translate(-1123.219 -1574.794)" fill="#fff"/>
        <path id="Trazado_802163" data-name="Trazado 802163" d="M1291.464,1701.648h-4.808a.165.165,0,0,0-.165.165v.839a.165.165,0,0,0,.165.164h4.808Z" transform="translate(-1195.655 -1581.499)" fill="#fff"/>
        <path id="Trazado_802164" data-name="Trazado 802164" d="M1359.306,1701.648h-3.4v1.168h3.4a.164.164,0,0,0,.164-.164v-.839a.164.164,0,0,0-.164-.165" transform="translate(-1260.168 -1581.499)" fill="#191921"/>
        <path id="Trazado_802165" data-name="Trazado 802165" d="M1502.305,1701.648h-32.976a.164.164,0,0,0-.164.165v.839a.164.164,0,0,0,.164.164h32.976Z" transform="translate(-1365.431 -1581.499)" fill="#fff"/>
        <path id="Trazado_802166" data-name="Trazado 802166" d="M2004.227,1701.648h-66.718v1.168h66.718a.164.164,0,0,0,.164-.164v-.839a.164.164,0,0,0-.164-.165" transform="translate(-1800.707 -1581.499)" fill="#191921"/>
        <path id="Trazado_802167" data-name="Trazado 802167" d="M1123.928,200.912a1.82,1.82,0,0,1,1.818,1.818V307.309a1.82,1.82,0,0,1-1.818,1.818H975.088a1.82,1.82,0,0,1-1.818-1.818V202.73a1.82,1.82,0,0,1,1.818-1.818Zm0-2.824H975.088a4.642,4.642,0,0,0-4.642,4.642V307.309a4.642,4.642,0,0,0,4.642,4.642h148.84a4.642,4.642,0,0,0,4.642-4.642V202.73a4.642,4.642,0,0,0-4.642-4.642" transform="translate(-901.925 -184.102)" fill="#1f2649"/>
        <path id="Trazado_802168" data-name="Trazado 802168" d="M2470.839,597.564h-36.57a1.991,1.991,0,0,0-1.991,1.991v17.778l-4.894,3.435,4.894,3.163v5.34a1.991,1.991,0,0,0,1.991,1.991h36.57a1.991,1.991,0,0,0,1.991-1.991V599.555a1.991,1.991,0,0,0-1.991-1.991" transform="translate(-2255.994 -555.372)" fill="#f7526e"/>
        <path id="Trazado_802169" data-name="Trazado 802169" d="M2460.615,621.816h-36.57a2.771,2.771,0,0,1-2.768-2.768v-4.917l-4.538-2.933a.776.776,0,0,1-.025-1.288l4.563-3.2V589.332a2.771,2.771,0,0,1,2.768-2.767h36.57a2.771,2.771,0,0,1,2.767,2.767v29.716a2.771,2.771,0,0,1-2.767,2.768m-42.064-11.3,3.925,2.537a.776.776,0,0,1,.355.652v5.34a1.215,1.215,0,0,0,1.214,1.214h36.57a1.215,1.215,0,0,0,1.214-1.214V589.332a1.215,1.215,0,0,0-1.214-1.214h-36.57a1.215,1.215,0,0,0-1.214,1.214v17.778a.776.776,0,0,1-.33.636Z" transform="translate(-2245.769 -545.15)" fill="#fff"/>
        <rect id="Rectángulo_375115" data-name="Rectángulo 375115" width="5.183" height="2.118" transform="translate(180.801 46.167)" fill="#fff"/>
        <rect id="Rectángulo_375116" data-name="Rectángulo 375116" width="7.097" height="2.118" transform="translate(188.935 46.167)" fill="#fff"/>
        <rect id="Rectángulo_375117" data-name="Rectángulo 375117" width="7.456" height="2.118" transform="translate(199.103 46.167)" fill="#fff"/>
        <rect id="Rectángulo_375118" data-name="Rectángulo 375118" width="3.689" height="2.118" transform="translate(209.169 46.167)" fill="#fff"/>
        <rect id="Rectángulo_375119" data-name="Rectángulo 375119" width="9.33" height="2.118" transform="translate(180.801 53.96)" fill="#fff"/>
        <rect id="Rectángulo_375120" data-name="Rectángulo 375120" width="5.463" height="2.118" transform="translate(193.321 53.96)" fill="#fff"/>
        <rect id="Rectángulo_375121" data-name="Rectángulo 375121" width="10.805" height="2.118" transform="translate(202.053 53.96)" fill="#fff"/>
        <rect id="Rectángulo_375122" data-name="Rectángulo 375122" width="8.019" height="2.118" transform="translate(180.801 61.754)" fill="#fff"/>
        <rect id="Rectángulo_375123" data-name="Rectángulo 375123" width="11.837" height="2.118" transform="translate(191.851 61.754)" fill="#fff"/>
        <rect id="Rectángulo_375124" data-name="Rectángulo 375124" width="6.3" height="2.118" transform="translate(206.559 61.754)" fill="#fff"/>
        <rect id="Rectángulo_375125" data-name="Rectángulo 375125" width="4.534" height="2.118" transform="translate(180.801 69.548)" fill="#fff"/>
        <rect id="Rectángulo_375126" data-name="Rectángulo 375126" width="4.848" height="2.118" transform="translate(188.473 69.548)" fill="#fff"/>
        <rect id="Rectángulo_375127" data-name="Rectángulo 375127" width="7.815" height="2.118" transform="translate(196.511 69.548)" fill="#fff"/>
        <path id="Trazado_802170" data-name="Trazado 802170" d="M957.026,773.681a5.267,5.267,0,0,0-3.7-4.988l.6,14.708c.831-.925,3.365-3.1,3.105-9.721" transform="translate(-886.013 -714.418)" fill="#fc938b"/>
        <path id="Trazado_802171" data-name="Trazado 802171" d="M3172.053,773.681a5.266,5.266,0,0,1,3.7-4.988l-.6,14.708c-.832-.925-3.365-3.1-3.105-9.721" transform="translate(-2948.065 -714.418)" fill="#fc938b"/>
        <path id="Trazado_802172" data-name="Trazado 802172" d="M3237.148,12.36a1.024,1.024,0,0,1-.724-1.748L3246.732.3a1.024,1.024,0,0,1,1.448,1.448l-10.308,10.308a1.02,1.02,0,0,1-.724.3" transform="translate(-3007.631 -0.005)" fill="#d6e0f2"/>
        <path id="Trazado_802173" data-name="Trazado 802173" d="M3158.558,10.128a1.024,1.024,0,0,1-1.024-1.024V1.029a1.024,1.024,0,0,1,2.048,0V9.1a1.024,1.024,0,0,1-1.024,1.024" transform="translate(-2934.588 -0.005)" fill="#d6e0f2"/>
        <path id="Trazado_802174" data-name="Trazado 802174" d="M3265.811,240.687H3256.9a1.024,1.024,0,1,1,0-2.048h8.914a1.024,1.024,0,1,1,0,2.048" transform="translate(-3025.984 -221.79)" fill="#d6e0f2"/>
      </g>
    </g>
  </g>
</svg>
