<svg xmlns="http://www.w3.org/2000/svg" xmlns:xlink="http://www.w3.org/1999/xlink" width="1328" height="200" viewBox="0 0 1328 200">
  <defs>
    <clipPath id="clip-path">
      <rect id="Rectángulo_375112" data-name="Rectángulo 375112" width="1328" height="200" transform="translate(0 70)" fill="#451484"/>
    </clipPath>
  </defs>
  <g id="Grupo_1067578" data-name="Grupo 1067578" transform="translate(-136 -6102)">
    <rect id="Rectángulo_375111" data-name="Rectángulo 375111" width="1328" height="200" transform="translate(136 6102)" fill="#451484"/>
    <g id="Enmascarar_grupo_4" data-name="Enmascarar grupo 4" transform="translate(136 6032)" clip-path="url(#clip-path)">
      <g id="Grupo_1066152" data-name="Grupo 1066152" transform="translate(844.643 49.795)">
        <path id="Trazado_802090" data-name="Trazado 802090" d="M482.89,0V322.509H0l28.838-4.774A128,128,0,0,0,68.921,304.03a55.084,55.084,0,0,0,18.491-10.9,63.331,63.331,0,0,0,6.656-7.186,115.239,115.239,0,0,0,16.794-19.61,23.6,23.6,0,0,1,4.921-5.45c.258-.2.517-.381.787-.567,15.7-10.567,36.9-7.43,54.551-14.295a51.471,51.471,0,0,0,31.926-42.876c1.39-17.323-6.188-34.67-3.383-51.808,2.842-17.458,17.372-32.394,34.756-35.7,8.821-1.686,17.987-.615,26.857-2.005a49.277,49.277,0,0,0,32.738-20.755c7.7-11.343,11.688-26.931,24.4-32.086,12.475-5.057,26.5,3.014,39.886,1.649,12.98-1.316,23.449-11.306,30.659-22.182S401.236,17.113,409.5,7.025A65.574,65.574,0,0,1,416.159,0Z" fill="#fff9e2"/>
        <path id="Trazado_802091" data-name="Trazado 802091" d="M482.89,0V3.74C458.518,9.19,435.536,18.221,418.079,35.6c-15.194,15.108-26.4,36.552-46.985,42.531-13.509,3.925-30.167.824-39.948,10.937-2.891,2.977-4.749,6.791-6.828,10.384A84.146,84.146,0,0,1,269.9,139.011c-10.7,2.288-22.6,2.805-30.831,10.015-8.428,7.382-10.433,19.759-9.732,30.942s3.543,22.305,2.584,33.464c-2.436,28.334-30.622,50.036-59.042,50.91-11.676.357-23.917-2.042-34.707,2.448-14.345,5.978-20.73,21.383-26.574,34.633a119.539,119.539,0,0,1-11.811,21.087H0l28.838-4.774A128,128,0,0,0,68.921,304.03a121.661,121.661,0,0,0,25.147-18.087,115.239,115.239,0,0,0,16.794-19.61,23.6,23.6,0,0,1,4.921-5.45c.258-.2.517-.381.787-.567,15.7-10.567,36.9-7.43,54.551-14.295a51.471,51.471,0,0,0,31.926-42.876c1.39-17.323-6.188-34.67-3.383-51.808,2.842-17.458,17.372-32.394,34.756-35.7,8.821-1.686,17.987-.615,26.857-2.005a49.277,49.277,0,0,0,32.738-20.755c7.7-11.343,11.688-26.931,24.4-32.086,12.475-5.057,26.5,3.014,39.886,1.649,12.98-1.316,23.449-11.306,30.659-22.182S401.236,17.113,409.5,7.025A65.574,65.574,0,0,1,416.159,0Z" fill="#ffda47"/>
      </g>
      <g id="Grupo_1066153" data-name="Grupo 1066153" transform="translate(398.814 333.018) rotate(180)">
        <path id="Trazado_802092" data-name="Trazado 802092" d="M631.1,0V421.492H0l37.689-6.239a167.286,167.286,0,0,0,52.385-17.912A71.991,71.991,0,0,0,114.241,383.1a82.769,82.769,0,0,0,8.7-9.392,150.607,150.607,0,0,0,21.948-25.628,30.847,30.847,0,0,1,6.432-7.123c.338-.257.675-.5,1.029-.741,20.517-13.81,48.221-9.71,71.294-18.682,22.88-8.892,39.763-31.564,41.725-56.035,1.817-22.639-8.088-45.31-4.422-67.708,3.714-22.816,22.7-42.336,45.423-46.661,11.529-2.2,23.507-.8,35.1-2.621a64.4,64.4,0,0,0,42.786-27.125c10.065-14.825,15.275-35.2,31.884-41.934,16.3-6.608,34.634,3.939,52.128,2.155,16.963-1.72,30.646-14.776,40.069-28.99,9.406-14.2,16.047-30.244,26.852-43.429A85.7,85.7,0,0,1,543.884,0Z" transform="translate(0)" fill="#dffdff"/>
        <path id="Trazado_802093" data-name="Trazado 802093" d="M631.1,0V4.888c-31.852,7.123-61.888,18.925-84.7,41.644-19.857,19.745-34.505,47.77-61.405,55.585-17.655,5.129-39.425,1.077-52.208,14.294-3.779,3.891-6.207,8.876-8.924,13.571a109.971,109.971,0,0,1-71.117,51.694c-13.989,2.991-29.537,3.666-40.294,13.088-11.014,9.647-13.635,25.823-12.718,40.438s4.631,29.151,3.377,43.735c-3.184,37.03-40.02,65.393-77.163,66.534-15.259.466-31.257-2.669-45.359,3.2-18.748,7.813-27.093,27.945-34.73,45.262a156.226,156.226,0,0,1-15.436,27.559H0l37.689-6.239a167.286,167.286,0,0,0,52.385-17.912A159,159,0,0,0,122.939,373.7a150.607,150.607,0,0,0,21.948-25.628,30.847,30.847,0,0,1,6.432-7.123c.338-.257.675-.5,1.029-.741,20.517-13.81,48.221-9.71,71.294-18.682,22.88-8.892,39.763-31.564,41.725-56.035,1.817-22.639-8.088-45.31-4.422-67.708,3.714-22.816,22.7-42.336,45.423-46.661,11.529-2.2,23.507-.8,35.1-2.621a64.4,64.4,0,0,0,42.786-27.125c10.065-14.825,15.275-35.2,31.884-41.934,16.3-6.608,34.634,3.939,52.128,2.155,16.963-1.72,30.646-14.776,40.069-28.99,9.406-14.2,16.047-30.244,26.852-43.429A85.7,85.7,0,0,1,543.884,0Z" transform="translate(0)" fill="#4be5f1"/>
      </g>
      <g id="Grupo_1066154" data-name="Grupo 1066154" transform="translate(303.758 406.958) rotate(20)">
        <line id="Línea_1678" data-name="Línea 1678" y2="15.653" transform="translate(7.897 0)" fill="none" stroke="#4be5f1" stroke-width="5"/>
        <line id="Línea_1679" data-name="Línea 1679" x2="15.137" transform="translate(0 8.256)" fill="none" stroke="#4be5f1" stroke-width="5"/>
      </g>
      <ellipse id="Elipse_1143" data-name="Elipse 1143" cx="24.5" cy="25" rx="24.5" ry="25" transform="translate(59 241)" fill="#fb405f"/>
      <circle id="Elipse_1144" data-name="Elipse 1144" cx="12" cy="12" r="12" transform="translate(1237 94)" fill="#4be5f1"/>
      <path id="Unión_5" data-name="Unión 5" d="M30.45,19.524c-5.324.68-10.65,1.969-12.227-4.985a5.513,5.513,0,0,0-4.4-4.564L11.638,16.6,0,3.556,17.119,0,15.151,5.96c2.8.817,6.74,2.483,8.2,5.616,2.365,5.081,6.7,2.4,10.647,2.163s7.495,6.119,7.495,10.24l-4.928,2.076S35.777,18.844,30.45,19.524Z" transform="translate(1054.834 127.249)" fill="#ffda47" stroke="rgba(0,0,0,0)" stroke-miterlimit="10" stroke-width="1"/>
      <g id="Grupo_1066155" data-name="Grupo 1066155" transform="translate(167.686 95.817) rotate(20)">
        <line id="Línea_1680" data-name="Línea 1680" y2="15.653" transform="translate(7.897 0)" fill="none" stroke="#fb405f" stroke-width="5"/>
        <line id="Línea_1681" data-name="Línea 1681" x2="15.137" transform="translate(0 8.256)" fill="none" stroke="#fb405f" stroke-width="5"/>
      </g>
      <g id="Grupo_1066156" data-name="Grupo 1066156" transform="translate(1054.928 99.869) rotate(20)">
        <line id="Línea_1682" data-name="Línea 1682" y2="15.653" transform="translate(7.897 0)" fill="none" stroke="#fb405f" stroke-width="5"/>
        <line id="Línea_1683" data-name="Línea 1683" x2="15.137" transform="translate(0 8.256)" fill="none" stroke="#fb405f" stroke-width="5"/>
      </g>
      <circle id="Elipse_1145" data-name="Elipse 1145" cx="4" cy="4" r="4" transform="translate(145 96)" fill="#4be5f1"/>
    </g>
  </g>
</svg>
