<svg xmlns="http://www.w3.org/2000/svg" xmlns:xlink="http://www.w3.org/1999/xlink" width="85" height="85" viewBox="0 0 85 85">
  <defs>
    <clipPath id="clip-path">
      <rect id="Rectángulo_375932" data-name="Rectángulo 375932" width="85" height="85" transform="translate(180 1104)" fill="#ffda47"/>
    </clipPath>
  </defs>
  <g id="Enmascarar_grupo_55" data-name="Enmascarar grupo 55" transform="translate(-180 -1104)" clip-path="url(#clip-path)">
    <g id="css-1" transform="translate(180 1104)">
      <path id="Trazado_807195" data-name="Trazado 807195" d="M82.271,4.788H2.729A2.729,2.729,0,0,0,0,7.517V16.65A240.427,240.427,0,0,0,37.456,20.07C59.941,20.07,84.335,16.65,85,16.65V7.517A2.729,2.729,0,0,0,82.271,4.788Z" fill="#98d5b9"/>
      <path id="Trazado_807196" data-name="Trazado 807196" d="M82.271,4.788h-4.96A2.729,2.729,0,0,1,80.04,7.517V20.07L85,16.65V7.517A2.729,2.729,0,0,0,82.271,4.788Z" fill="#7acaa6"/>
      <path id="Trazado_807197" data-name="Trazado 807197" d="M30.2,15.751l-1.39-3.013a1.548,1.548,0,0,0-1.405-.9H13.292a1.548,1.548,0,0,0-1.405.9L10.5,15.751a1.548,1.548,0,0,1-1.405.9H0V77.483a2.729,2.729,0,0,0,2.729,2.729H82.271A2.729,2.729,0,0,0,85,77.483V16.65H31.607a1.548,1.548,0,0,1-1.405-.9Z" fill="#f5f8f9"/>
      <g id="Grupo_1067158" data-name="Grupo 1067158">
        <path id="Trazado_807198" data-name="Trazado 807198" d="M80.04,16.65V77.483a2.729,2.729,0,0,1-2.729,2.729h4.96A2.729,2.729,0,0,0,85,77.483V16.65Z" fill="#e8edf2"/>
      </g>
      <g id="Grupo_1067162" data-name="Grupo 1067162">
        <g id="Grupo_1067159" data-name="Grupo 1067159">
          <path id="Trazado_807199" data-name="Trazado 807199" d="M62.515,12H61.272a1.283,1.283,0,1,1,0-2.565h1.243a1.283,1.283,0,1,1,0,2.565Z" fill="#f5f8f9"/>
        </g>
        <g id="Grupo_1067160" data-name="Grupo 1067160">
          <path id="Trazado_807200" data-name="Trazado 807200" d="M68.672,12H67.429a1.283,1.283,0,1,1,0-2.565h1.243a1.283,1.283,0,1,1,0,2.565Z" fill="#f5f8f9"/>
        </g>
        <g id="Grupo_1067161" data-name="Grupo 1067161">
          <path id="Trazado_807201" data-name="Trazado 807201" d="M74.829,12H73.586a1.283,1.283,0,1,1,0-2.565h1.243a1.283,1.283,0,1,1,0,2.565Z" fill="#f5f8f9"/>
        </g>
      </g>
      <g id="Grupo_1067187" data-name="Grupo 1067187">
        <g id="Grupo_1067168" data-name="Grupo 1067168">
          <g id="Grupo_1067163" data-name="Grupo 1067163">
            <path id="Trazado_807202" data-name="Trazado 807202" d="M16.485,50.09H15.166a1.283,1.283,0,0,1,0-2.565h1.318a1.283,1.283,0,0,1,0,2.565Z" fill="#f07281"/>
          </g>
          <g id="Grupo_1067164" data-name="Grupo 1067164">
            <path id="Trazado_807203" data-name="Trazado 807203" d="M31.691,50.09H23.532a1.283,1.283,0,0,1,0-2.565h8.159a1.283,1.283,0,0,1,0,2.565Z" fill="#7a8c98"/>
          </g>
          <g id="Grupo_1067165" data-name="Grupo 1067165">
            <path id="Trazado_807204" data-name="Trazado 807204" d="M50.319,50.09H38.739a1.283,1.283,0,0,1,0-2.565h11.58a1.283,1.283,0,0,1,0,2.565Z" fill="#ffe177"/>
          </g>
          <g id="Grupo_1067166" data-name="Grupo 1067166">
            <path id="Trazado_807205" data-name="Trazado 807205" d="M62.1,50.09H57.366a1.283,1.283,0,0,1,0-2.565H62.1a1.283,1.283,0,0,1,0,2.565Z" fill="#98d5b9"/>
          </g>
          <g id="Grupo_1067167" data-name="Grupo 1067167">
            <path id="Trazado_807206" data-name="Trazado 807206" d="M77.311,50.09H69.152a1.283,1.283,0,0,1,0-2.565h8.159a1.283,1.283,0,0,1,0,2.565Z" fill="#ffe177"/>
          </g>
        </g>
        <g id="Grupo_1067174" data-name="Grupo 1067174">
          <g id="Grupo_1067169" data-name="Grupo 1067169">
            <path id="Trazado_807207" data-name="Trazado 807207" d="M21.616,56.428H15.167a1.283,1.283,0,0,1,0-2.565h6.449a1.283,1.283,0,0,1,0,2.565Z" fill="#98d5b9"/>
          </g>
          <g id="Grupo_1067170" data-name="Grupo 1067170">
            <path id="Trazado_807208" data-name="Trazado 807208" d="M40.243,56.428H28.663a1.283,1.283,0,0,1,0-2.565h11.58a1.283,1.283,0,0,1,0,2.565Z" fill="#f07281"/>
          </g>
          <g id="Grupo_1067171" data-name="Grupo 1067171">
            <path id="Trazado_807209" data-name="Trazado 807209" d="M52.029,56.428H47.29a1.283,1.283,0,0,1,0-2.565h4.739a1.283,1.283,0,1,1,0,2.565Z" fill="#7a8c98"/>
          </g>
          <g id="Grupo_1067172" data-name="Grupo 1067172">
            <path id="Trazado_807210" data-name="Trazado 807210" d="M67.236,56.428H59.076a1.283,1.283,0,1,1,0-2.565h8.159a1.283,1.283,0,1,1,0,2.565Z" fill="#ffe177"/>
          </g>
          <g id="Grupo_1067173" data-name="Grupo 1067173">
            <path id="Trazado_807211" data-name="Trazado 807211" d="M77.311,56.428H74.283a1.283,1.283,0,1,1,0-2.565h3.028a1.283,1.283,0,1,1,0,2.565Z" fill="#7a8c98"/>
          </g>
        </g>
        <g id="Grupo_1067179" data-name="Grupo 1067179">
          <g id="Grupo_1067175" data-name="Grupo 1067175">
            <path id="Trazado_807212" data-name="Trazado 807212" d="M19.905,62.919H8.326a1.283,1.283,0,0,1,0-2.565h11.58a1.283,1.283,0,0,1,0,2.565Z" fill="#ffe177"/>
          </g>
          <g id="Grupo_1067176" data-name="Grupo 1067176">
            <path id="Trazado_807213" data-name="Trazado 807213" d="M36.822,62.919h-9.87a1.283,1.283,0,0,1,0-2.565h9.87a1.283,1.283,0,0,1,0,2.565Z" fill="#98d5b9"/>
          </g>
          <g id="Grupo_1067177" data-name="Grupo 1067177">
            <path id="Trazado_807214" data-name="Trazado 807214" d="M50.319,62.919H43.869a1.283,1.283,0,1,1,0-2.565h6.449a1.283,1.283,0,0,1,0,2.565Z" fill="#f07281"/>
          </g>
          <g id="Grupo_1067178" data-name="Grupo 1067178">
            <path id="Trazado_807215" data-name="Trazado 807215" d="M68.946,62.919H57.366a1.283,1.283,0,0,1,0-2.565h11.58a1.283,1.283,0,0,1,0,2.565Z" fill="#98d5b9"/>
          </g>
        </g>
        <g id="Grupo_1067184" data-name="Grupo 1067184">
          <g id="Grupo_1067180" data-name="Grupo 1067180">
            <path id="Trazado_807216" data-name="Trazado 807216" d="M25.036,69.257H8.326a1.283,1.283,0,0,1,0-2.565H25.036a1.283,1.283,0,1,1,0,2.565Z" fill="#f07281"/>
          </g>
          <g id="Grupo_1067181" data-name="Grupo 1067181">
            <path id="Trazado_807217" data-name="Trazado 807217" d="M40.243,69.257H32.083a1.283,1.283,0,0,1,0-2.565h8.159a1.283,1.283,0,0,1,0,2.565Z" fill="#7a8c98"/>
          </g>
          <g id="Grupo_1067182" data-name="Grupo 1067182">
            <path id="Trazado_807218" data-name="Trazado 807218" d="M52.029,69.257H47.29a1.283,1.283,0,0,1,0-2.565h4.739a1.283,1.283,0,1,1,0,2.565Z" fill="#98d5b9"/>
          </g>
          <g id="Grupo_1067183" data-name="Grupo 1067183">
            <path id="Trazado_807219" data-name="Trazado 807219" d="M68.946,69.257h-9.87a1.283,1.283,0,1,1,0-2.565h9.87a1.283,1.283,0,0,1,0,2.565Z" fill="#ffe177"/>
          </g>
        </g>
        <g id="Grupo_1067185" data-name="Grupo 1067185">
          <path id="Trazado_807220" data-name="Trazado 807220" d="M11.37,57.989a4.868,4.868,0,0,1-4.863-4.863.21.21,0,0,0-.071-.158L4.95,51.658a1.283,1.283,0,0,1,0-1.924l1.486-1.31a.21.21,0,0,0,.071-.158A4.868,4.868,0,0,1,11.37,43.4a1.283,1.283,0,0,1,0,2.565,2.3,2.3,0,0,0-2.3,2.3,2.777,2.777,0,0,1-.94,2.082l-.395.348.395.348a2.777,2.777,0,0,1,.94,2.082,2.3,2.3,0,0,0,2.3,2.3,1.283,1.283,0,0,1,0,2.566Z" fill="#7a8c98"/>
        </g>
        <g id="Grupo_1067186" data-name="Grupo 1067186">
          <path id="Trazado_807221" data-name="Trazado 807221" d="M73.631,72.272a1.283,1.283,0,0,1,0-2.565,2.3,2.3,0,0,0,2.3-2.3,2.777,2.777,0,0,1,.939-2.082l.4-.349-.395-.349a2.777,2.777,0,0,1-.94-2.082,2.3,2.3,0,0,0-2.3-2.3,1.283,1.283,0,1,1,0-2.565,4.868,4.868,0,0,1,4.862,4.862.211.211,0,0,0,.071.158l1.486,1.311a1.283,1.283,0,0,1,0,1.924l-1.486,1.31a.211.211,0,0,0-.071.158,4.868,4.868,0,0,1-4.862,4.862Z" fill="#7a8c98"/>
        </g>
      </g>
      <g id="Grupo_1067194" data-name="Grupo 1067194">
        <g id="Grupo_1067189" data-name="Grupo 1067189">
          <g id="Grupo_1067188" data-name="Grupo 1067188">
            <path id="Trazado_807222" data-name="Trazado 807222" d="M30.49,39.7a7.619,7.619,0,1,1,4.261-13.937,1.283,1.283,0,1,1-1.436,2.126,5.054,5.054,0,1,0-2.825,9.246A3.711,3.711,0,0,0,33.5,35.8a1.283,1.283,0,0,1,1.966,1.648A6.27,6.27,0,0,1,30.49,39.7Z" fill="#7a8c98"/>
          </g>
        </g>
        <g id="Grupo_1067191" data-name="Grupo 1067191">
          <g id="Grupo_1067190" data-name="Grupo 1067190">
            <path id="Trazado_807223" data-name="Trazado 807223" d="M43.818,39.7a7.321,7.321,0,0,1-5.367-2.3,1.283,1.283,0,0,1,1.9-1.723,4.719,4.719,0,0,0,3.466,1.457,2.44,2.44,0,0,0,2.511-1.69c.147-.821-.529-1.573-1.854-2.061-1.956-.722-3.693-1.494-3.766-1.527a1.255,1.255,0,0,1-.178-.1,3.729,3.729,0,0,1-1.663-3.692,4.159,4.159,0,0,1,3.019-3.353,7.068,7.068,0,0,1,6.151,1.35,1.283,1.283,0,0,1-1.645,1.968,4.531,4.531,0,0,0-3.766-.862,1.562,1.562,0,0,0-1.219,1.261,1.173,1.173,0,0,0,.454,1.129c.4.178,1.9.824,3.5,1.416,3.023,1.115,3.786,3.272,3.492,4.919a4.989,4.989,0,0,1-5.036,3.8Z" fill="#7a8c98"/>
          </g>
        </g>
        <g id="Grupo_1067193" data-name="Grupo 1067193">
          <g id="Grupo_1067192" data-name="Grupo 1067192">
            <path id="Trazado_807224" data-name="Trazado 807224" d="M57.034,39.7a7.321,7.321,0,0,1-5.367-2.3,1.283,1.283,0,0,1,1.9-1.723,4.719,4.719,0,0,0,3.466,1.457,2.44,2.44,0,0,0,2.511-1.69c.147-.821-.529-1.573-1.854-2.061-1.956-.722-3.693-1.494-3.766-1.527a1.288,1.288,0,0,1-.178-.1,3.729,3.729,0,0,1-1.663-3.692A4.16,4.16,0,0,1,55.1,24.714a7.069,7.069,0,0,1,6.151,1.35,1.283,1.283,0,0,1-1.645,1.968,4.527,4.527,0,0,0-3.766-.862,1.562,1.562,0,0,0-1.22,1.261,1.173,1.173,0,0,0,.454,1.129c.4.177,1.9.824,3.5,1.416,3.023,1.115,3.786,3.272,3.492,4.919a4.989,4.989,0,0,1-5.036,3.8Z" fill="#7a8c98"/>
          </g>
        </g>
      </g>
    </g>
  </g>
</svg>
