<svg xmlns="http://www.w3.org/2000/svg" xmlns:xlink="http://www.w3.org/1999/xlink" width="891.836" height="502" viewBox="0 0 891.836 502">
  <defs>
    <clipPath id="clip-path">
      <rect id="Rectángulo_375938" data-name="Rectángulo 375938" width="76.43" height="155.28" fill="none"/>
    </clipPath>
    <clipPath id="clip-path-3">
      <rect id="Rectángulo_375935" data-name="Rectángulo 375935" width="14.46" height="14.46" transform="translate(14.49 13.07)" fill="none"/>
    </clipPath>
    <clipPath id="clip-path-4">
      <rect id="Rectángulo_375936" data-name="Rectángulo 375936" width="68.98" height="27.33" transform="translate(3.9 22.1)" fill="none"/>
    </clipPath>
    <clipPath id="clip-path-9">
      <rect id="Rectángulo_375948" data-name="Rectángulo 375948" width="115.7" height="166.03" fill="none"/>
    </clipPath>
    <clipPath id="clip-path-11">
      <rect id="Rectángulo_375941" data-name="Rectángulo 375941" width="108.23" height="38.2" transform="translate(3.65 16.58)" fill="none"/>
    </clipPath>
    <clipPath id="clip-path-12">
      <rect id="Rectángulo_375942" data-name="Rectángulo 375942" width="13.98" height="13.98" transform="translate(36.3 19.64)" fill="none"/>
    </clipPath>
    <clipPath id="clip-path-13">
      <rect id="Rectángulo_375946" data-name="Rectángulo 375946" width="15.82" height="4.89" transform="translate(3.65 11.36)" fill="none"/>
    </clipPath>
    <clipPath id="clip-path-19">
      <rect id="Rectángulo_375959" data-name="Rectángulo 375959" width="278.66" height="172.36" fill="none"/>
    </clipPath>
    <clipPath id="clip-path-21">
      <rect id="Rectángulo_375955" data-name="Rectángulo 375955" width="60.13" height="20.169" transform="translate(25.79 29.12)" fill="none"/>
    </clipPath>
    <clipPath id="clip-path-22">
      <rect id="Rectángulo_375956" data-name="Rectángulo 375956" width="17.68" height="17.68" transform="translate(107.209 39.575)" fill="none"/>
    </clipPath>
    <clipPath id="clip-path-23">
      <rect id="Rectángulo_375957" data-name="Rectángulo 375957" width="223.41" height="53.436" transform="translate(25.77 30.594)" fill="none"/>
    </clipPath>
  </defs>
  <g id="Grupo_1067240" data-name="Grupo 1067240" transform="translate(-323.164 -1342)">
    <g id="Grupo_1067206" data-name="Grupo 1067206" transform="translate(1028.57 1400.08)">
      <g id="Grupo_1067205" data-name="Grupo 1067205" clip-path="url(#clip-path)">
        <g id="Grupo_1067204" data-name="Grupo 1067204">
          <g id="Grupo_1067203" data-name="Grupo 1067203" clip-path="url(#clip-path)">
            <path id="Trazado_807225" data-name="Trazado 807225" d="M64.31,155.28l-52.85-.25A11.49,11.49,0,0,1,0,143.51v-.01L.56,11.43A11.5,11.5,0,0,1,12.13,0L64.97.25a11.48,11.48,0,0,1,11.46,11.5v.02l-.56,132.12a11.5,11.5,0,0,1-11.56,11.39" fill="#263238"/>
            <path id="Trazado_807226" data-name="Trazado 807226" d="M64.9,4.76H54.65a2.54,2.54,0,0,0-2.5,2.579h0V9.19a2.539,2.539,0,0,1-2.489,2.59h0l-20-.1a2.53,2.53,0,0,1-2.421-2.635V7.18a2.54,2.54,0,0,0-2.468-2.61H12.16a8.05,8.05,0,0,0-8.1,8l-.55,129a8,8,0,0,0,7.93,8.07h.07l52.74.24a8.05,8.05,0,0,0,8.1-8l.54-129a8,8,0,0,0-7.879-8.119H64.9" fill="#fff"/>
            <path id="Trazado_807227" data-name="Trazado 807227" d="M64.24,57.57c0,.14-11.47.26-25.61.26s-25.62-.12-25.62-.26,11.47-.26,25.62-.26,25.61.12,25.61.26" fill="#263238"/>
            <path id="Trazado_807228" data-name="Trazado 807228" d="M64.24,60.72c0,.15-11.47.26-25.61.26s-25.62-.11-25.62-.26,11.47-.26,25.62-.26,25.61.12,25.61.26" fill="#263238"/>
            <path id="Trazado_807229" data-name="Trazado 807229" d="M46.93,63.55c0,.14-4.62.26-10.31.26s-10.31-.12-10.31-.26a99.907,99.907,0,0,1,10.31-.26,100.471,100.471,0,0,1,10.31.26" fill="#263238"/>
            <rect id="Rectángulo_375934" data-name="Rectángulo 375934" width="54.19" height="34.69" transform="translate(10.02 70.49)" fill="#4be5f1"/>
            <path id="Trazado_807230" data-name="Trazado 807230" d="M15.71,75.24a2.13,2.13,0,1,1-2.17,2.13,2.151,2.151,0,0,1,2.17-2.13" fill="#fafafa"/>
            <path id="Trazado_807231" data-name="Trazado 807231" d="M61.24,79.17l-1.75-1.74-1.65,1.66-.06-5h3.44Zm-1.79-1.93.06.05,1.57,1.51V74.26H57.95L58,78.7Z" fill="#fafafa"/>
            <path id="Trazado_807232" data-name="Trazado 807232" d="M47.63,76.24c0,.15-5.95.26-13.3.26s-13.29-.11-13.29-.26,5.95-.26,13.29-.26,13.3.12,13.3.26" fill="#fafafa"/>
            <path id="Trazado_807233" data-name="Trazado 807233" d="M31.29,79.17a25.723,25.723,0,0,1-5.12.26,25.823,25.823,0,0,1-5.13-.26,24.536,24.536,0,0,1,5.13-.27,24.441,24.441,0,0,1,5.12.27" fill="#fafafa"/>
            <path id="Trazado_807234" data-name="Trazado 807234" d="M24.73,4.57H12.12a8.05,8.05,0,0,0-8.1,8L3.91,37.02c2.71.55,5.42,1.08,8.13,1.55,14,2.44,28.93,3.31,41.72-2.79,7.09-3.37,13-8.64,19.08-13.64V12.88a8,8,0,0,0-7.93-8.07H54.59a2.54,2.54,0,0,0-2.5,2.579h0V9.24A2.539,2.539,0,0,1,49.6,11.83h0l-20-.1a2.531,2.531,0,0,1-2.361-2.689V7.18a2.54,2.54,0,0,0-2.469-2.609H24.73M28.95,20.3a7.23,7.23,0,1,1-7.23-7.23h.01a7.23,7.23,0,0,1,7.22,7.23" fill="#4be5f1"/>
            <path id="Trazado_807235" data-name="Trazado 807235" d="M12.08,38.52c-2.71-.47-5.42-1-8.13-1.55L3.9,49.43H72.77l.11-27.33c-6.09,5-12,10.27-19.08,13.64-12.79,6.09-27.76,5.22-41.72,2.78m21,6.51a.62.62,0,1,1,.62-.62.621.621,0,0,1-.62.62h0Zm3.94,0a.62.62,0,1,1,.62-.62.621.621,0,0,1-.62.62h0Zm3.94,0a.62.62,0,1,1,.62-.62.621.621,0,0,1-.62.62h0Z" fill="#4be5f1"/>
            <path id="Trazado_807236" data-name="Trazado 807236" d="M33.04,43.79a.62.62,0,1,0,.62.62.621.621,0,0,0-.62-.62" fill="#263238"/>
            <path id="Trazado_807237" data-name="Trazado 807237" d="M36.98,43.79a.62.62,0,1,0,.62.62.621.621,0,0,0-.62-.62" fill="#263238"/>
            <path id="Trazado_807238" data-name="Trazado 807238" d="M40.92,43.79a.62.62,0,1,0,.62.62.621.621,0,0,0-.62-.62" fill="#263238"/>
            <path id="Trazado_807239" data-name="Trazado 807239" d="M21.73,13.07a7.23,7.23,0,1,0,7.22,7.24V20.3a7.23,7.23,0,0,0-7.22-7.23" fill="#4be5f1"/>
            <g id="Grupo_1067199" data-name="Grupo 1067199" opacity="0.3">
              <g id="Grupo_1067198" data-name="Grupo 1067198">
                <g id="Grupo_1067197" data-name="Grupo 1067197" clip-path="url(#clip-path-3)">
                  <path id="Trazado_807240" data-name="Trazado 807240" d="M21.73,13.07a7.23,7.23,0,1,0,7.22,7.24V20.3a7.23,7.23,0,0,0-7.22-7.23"/>
                </g>
              </g>
            </g>
            <path id="Trazado_807241" data-name="Trazado 807241" d="M10.02,149.43a8.429,8.429,0,0,0,1.52.15l51.67.24V122.63H10.02Zm50.22-23.18.06,5.05-1.75-1.71-1.63,1.66-.05-5Zm-44.63,1.18a2.13,2.13,0,1,1-2.13,2.13A2.13,2.13,0,0,1,15.61,127.43Z" fill="#455a64"/>
            <path id="Trazado_807242" data-name="Trazado 807242" d="M58.58,129.37l.05.06,1.54,1.5-.05-4.53-3.07.03.05,4.45Z" fill="#455a64"/>
            <path id="Trazado_807243" data-name="Trazado 807243" d="M15.61,127.38a2.13,2.13,0,1,1-2.13,2.13,2.13,2.13,0,0,1,2.13-2.13" fill="#fafafa"/>
            <path id="Trazado_807244" data-name="Trazado 807244" d="M58.58,129.59l1.75,1.71-.06-5.05H56.9l.05,5Zm1.54-3.19.05,4.54-1.54-1.51-.06-.06-1.47,1.51-.05-4.45Z" fill="#fafafa"/>
            <g id="Grupo_1067202" data-name="Grupo 1067202" opacity="0.3">
              <g id="Grupo_1067201" data-name="Grupo 1067201">
                <g id="Grupo_1067200" data-name="Grupo 1067200" clip-path="url(#clip-path-4)">
                  <path id="Trazado_807245" data-name="Trazado 807245" d="M12.08,38.52c-2.71-.47-5.42-1-8.13-1.55L3.9,49.43H72.77l.11-27.33c-6.09,5-12,10.27-19.08,13.64-12.79,6.09-27.76,5.22-41.72,2.78m21,6.51a.62.62,0,1,1,.62-.62.621.621,0,0,1-.62.62h0Zm3.94,0a.62.62,0,1,1,.62-.62.621.621,0,0,1-.62.62h0Zm3.94,0a.62.62,0,1,1,.62-.62.621.621,0,0,1-.62.62h0Z"/>
                </g>
              </g>
            </g>
            <path id="Trazado_807246" data-name="Trazado 807246" d="M62.77,108.66c0,.15-11.81.26-26.37.26s-26.38-.11-26.38-.26,11.81-.26,26.38-.26,26.37.12,26.37.26" fill="#263238"/>
            <path id="Trazado_807247" data-name="Trazado 807247" d="M62.77,111.33c0,.14-11.81.26-26.37.26s-26.38-.12-26.38-.26,11.81-.26,26.38-.26,26.37.11,26.37.26" fill="#263238"/>
            <path id="Trazado_807248" data-name="Trazado 807248" d="M62.77,114.37c0,.14-11.81.26-26.37.26s-26.38-.12-26.38-.26,11.81-.26,26.38-.26,26.37.12,26.37.26" fill="#263238"/>
            <path id="Trazado_807249" data-name="Trazado 807249" d="M37.51,117.01c0,.15-6.15.26-13.74.26s-13.75-.11-13.75-.26,6.16-.26,13.75-.26,13.74.12,13.74.26" fill="#263238"/>
          </g>
        </g>
      </g>
    </g>
    <g id="Grupo_1067233" data-name="Grupo 1067233" transform="translate(495.595 1688.64)">
      <g id="Grupo_1067205-2" data-name="Grupo 1067205" clip-path="url(#clip-path)">
        <g id="Grupo_1067204-2" data-name="Grupo 1067204">
          <g id="Grupo_1067203-2" data-name="Grupo 1067203" clip-path="url(#clip-path)">
            <path id="Trazado_807225-2" data-name="Trazado 807225" d="M64.31,155.28l-52.85-.25A11.49,11.49,0,0,1,0,143.51v-.01L.56,11.43A11.5,11.5,0,0,1,12.13,0L64.97.25a11.48,11.48,0,0,1,11.46,11.5v.02l-.56,132.12a11.5,11.5,0,0,1-11.56,11.39" fill="#263238"/>
            <path id="Trazado_807226-2" data-name="Trazado 807226" d="M64.9,4.76H54.65a2.54,2.54,0,0,0-2.5,2.579h0V9.19a2.539,2.539,0,0,1-2.489,2.59h0l-20-.1a2.53,2.53,0,0,1-2.421-2.635V7.18a2.54,2.54,0,0,0-2.468-2.61H12.16a8.05,8.05,0,0,0-8.1,8l-.55,129a8,8,0,0,0,7.93,8.07h.07l52.74.24a8.05,8.05,0,0,0,8.1-8l.54-129a8,8,0,0,0-7.879-8.119H64.9" fill="#fff"/>
            <path id="Trazado_807227-2" data-name="Trazado 807227" d="M64.24,57.57c0,.14-11.47.26-25.61.26s-25.62-.12-25.62-.26,11.47-.26,25.62-.26,25.61.12,25.61.26" fill="#263238"/>
            <path id="Trazado_807228-2" data-name="Trazado 807228" d="M64.24,60.72c0,.15-11.47.26-25.61.26s-25.62-.11-25.62-.26,11.47-.26,25.62-.26,25.61.12,25.61.26" fill="#263238"/>
            <path id="Trazado_807229-2" data-name="Trazado 807229" d="M46.93,63.55c0,.14-4.62.26-10.31.26s-10.31-.12-10.31-.26a99.907,99.907,0,0,1,10.31-.26,100.471,100.471,0,0,1,10.31.26" fill="#263238"/>
            <rect id="Rectángulo_375934-2" data-name="Rectángulo 375934" width="54.19" height="34.69" transform="translate(10.02 70.49)" fill="#4be5f1"/>
            <path id="Trazado_807230-2" data-name="Trazado 807230" d="M15.71,75.24a2.13,2.13,0,1,1-2.17,2.13,2.151,2.151,0,0,1,2.17-2.13" fill="#fafafa"/>
            <path id="Trazado_807231-2" data-name="Trazado 807231" d="M61.24,79.17l-1.75-1.74-1.65,1.66-.06-5h3.44Zm-1.79-1.93.06.05,1.57,1.51V74.26H57.95L58,78.7Z" fill="#fafafa"/>
            <path id="Trazado_807232-2" data-name="Trazado 807232" d="M47.63,76.24c0,.15-5.95.26-13.3.26s-13.29-.11-13.29-.26,5.95-.26,13.29-.26,13.3.12,13.3.26" fill="#fafafa"/>
            <path id="Trazado_807233-2" data-name="Trazado 807233" d="M31.29,79.17a25.723,25.723,0,0,1-5.12.26,25.823,25.823,0,0,1-5.13-.26,24.536,24.536,0,0,1,5.13-.27,24.441,24.441,0,0,1,5.12.27" fill="#fafafa"/>
            <path id="Trazado_807234-2" data-name="Trazado 807234" d="M24.73,4.57H12.12a8.05,8.05,0,0,0-8.1,8L3.91,37.02c2.71.55,5.42,1.08,8.13,1.55,14,2.44,28.93,3.31,41.72-2.79,7.09-3.37,13-8.64,19.08-13.64V12.88a8,8,0,0,0-7.93-8.07H54.59a2.54,2.54,0,0,0-2.5,2.579h0V9.24A2.539,2.539,0,0,1,49.6,11.83h0l-20-.1a2.531,2.531,0,0,1-2.361-2.689V7.18a2.54,2.54,0,0,0-2.469-2.609H24.73M28.95,20.3a7.23,7.23,0,1,1-7.23-7.23h.01a7.23,7.23,0,0,1,7.22,7.23" fill="#4be5f1"/>
            <path id="Trazado_807235-2" data-name="Trazado 807235" d="M12.08,38.52c-2.71-.47-5.42-1-8.13-1.55L3.9,49.43H72.77l.11-27.33c-6.09,5-12,10.27-19.08,13.64-12.79,6.09-27.76,5.22-41.72,2.78m21,6.51a.62.62,0,1,1,.62-.62.621.621,0,0,1-.62.62h0Zm3.94,0a.62.62,0,1,1,.62-.62.621.621,0,0,1-.62.62h0Zm3.94,0a.62.62,0,1,1,.62-.62.621.621,0,0,1-.62.62h0Z" fill="#4be5f1"/>
            <path id="Trazado_807236-2" data-name="Trazado 807236" d="M33.04,43.79a.62.62,0,1,0,.62.62.621.621,0,0,0-.62-.62" fill="#263238"/>
            <path id="Trazado_807237-2" data-name="Trazado 807237" d="M36.98,43.79a.62.62,0,1,0,.62.62.621.621,0,0,0-.62-.62" fill="#263238"/>
            <path id="Trazado_807238-2" data-name="Trazado 807238" d="M40.92,43.79a.62.62,0,1,0,.62.62.621.621,0,0,0-.62-.62" fill="#263238"/>
            <path id="Trazado_807239-2" data-name="Trazado 807239" d="M21.73,13.07a7.23,7.23,0,1,0,7.22,7.24V20.3a7.23,7.23,0,0,0-7.22-7.23" fill="#4be5f1"/>
            <g id="Grupo_1067199-2" data-name="Grupo 1067199" opacity="0.3">
              <g id="Grupo_1067198-2" data-name="Grupo 1067198">
                <g id="Grupo_1067197-2" data-name="Grupo 1067197" clip-path="url(#clip-path-3)">
                  <path id="Trazado_807240-2" data-name="Trazado 807240" d="M21.73,13.07a7.23,7.23,0,1,0,7.22,7.24V20.3a7.23,7.23,0,0,0-7.22-7.23"/>
                </g>
              </g>
            </g>
            <path id="Trazado_807241-2" data-name="Trazado 807241" d="M10.02,149.43a8.429,8.429,0,0,0,1.52.15l51.67.24V122.63H10.02Zm50.22-23.18.06,5.05-1.75-1.71-1.63,1.66-.05-5Zm-44.63,1.18a2.13,2.13,0,1,1-2.13,2.13A2.13,2.13,0,0,1,15.61,127.43Z" fill="#455a64"/>
            <path id="Trazado_807242-2" data-name="Trazado 807242" d="M58.58,129.37l.05.06,1.54,1.5-.05-4.53-3.07.03.05,4.45Z" fill="#455a64"/>
            <path id="Trazado_807243-2" data-name="Trazado 807243" d="M15.61,127.38a2.13,2.13,0,1,1-2.13,2.13,2.13,2.13,0,0,1,2.13-2.13" fill="#fafafa"/>
            <path id="Trazado_807244-2" data-name="Trazado 807244" d="M58.58,129.59l1.75,1.71-.06-5.05H56.9l.05,5Zm1.54-3.19.05,4.54-1.54-1.51-.06-.06-1.47,1.51-.05-4.45Z" fill="#fafafa"/>
            <g id="Grupo_1067202-2" data-name="Grupo 1067202" opacity="0.3">
              <g id="Grupo_1067201-2" data-name="Grupo 1067201">
                <g id="Grupo_1067200-2" data-name="Grupo 1067200" clip-path="url(#clip-path-4)">
                  <path id="Trazado_807245-2" data-name="Trazado 807245" d="M12.08,38.52c-2.71-.47-5.42-1-8.13-1.55L3.9,49.43H72.77l.11-27.33c-6.09,5-12,10.27-19.08,13.64-12.79,6.09-27.76,5.22-41.72,2.78m21,6.51a.62.62,0,1,1,.62-.62.621.621,0,0,1-.62.62h0Zm3.94,0a.62.62,0,1,1,.62-.62.621.621,0,0,1-.62.62h0Zm3.94,0a.62.62,0,1,1,.62-.62.621.621,0,0,1-.62.62h0Z"/>
                </g>
              </g>
            </g>
            <path id="Trazado_807246-2" data-name="Trazado 807246" d="M62.77,108.66c0,.15-11.81.26-26.37.26s-26.38-.11-26.38-.26,11.81-.26,26.38-.26,26.37.12,26.37.26" fill="#263238"/>
            <path id="Trazado_807247-2" data-name="Trazado 807247" d="M62.77,111.33c0,.14-11.81.26-26.37.26s-26.38-.12-26.38-.26,11.81-.26,26.38-.26,26.37.11,26.37.26" fill="#263238"/>
            <path id="Trazado_807248-2" data-name="Trazado 807248" d="M62.77,114.37c0,.14-11.81.26-26.37.26s-26.38-.12-26.38-.26,11.81-.26,26.38-.26,26.37.12,26.37.26" fill="#263238"/>
            <path id="Trazado_807249-2" data-name="Trazado 807249" d="M37.51,117.01c0,.15-6.15.26-13.74.26s-13.75-.11-13.75-.26,6.16-.26,13.75-.26,13.74.12,13.74.26" fill="#263238"/>
          </g>
        </g>
      </g>
    </g>
    <g id="Grupo_1067219" data-name="Grupo 1067219" transform="translate(838.77 1389.33)">
      <g id="Grupo_1067218" data-name="Grupo 1067218" clip-path="url(#clip-path-9)">
        <g id="Grupo_1067217" data-name="Grupo 1067217">
          <g id="Grupo_1067216" data-name="Grupo 1067216" clip-path="url(#clip-path-9)">
            <path id="Trazado_807250" data-name="Trazado 807250" d="M11.55,0h92.6A11.55,11.55,0,0,1,115.7,11.55V154.48a11.55,11.55,0,0,1-11.55,11.55H11.55A11.55,11.55,0,0,1,0,154.48V11.55A11.55,11.55,0,0,1,11.55,0" fill="#263238"/>
            <rect id="Rectángulo_375939" data-name="Rectángulo 375939" width="108.22" height="138.66" transform="translate(3.65 11.36)" fill="#fff"/>
            <path id="Trazado_807251" data-name="Trazado 807251" d="M62.29,157.69a4.44,4.44,0,1,1-4.44-4.44,4.44,4.44,0,0,1,4.44,4.44" fill="#455a64"/>
            <path id="Trazado_807252" data-name="Trazado 807252" d="M41.34,4.78H74.37a.909.909,0,0,1,.91.91V5.7a.909.909,0,0,1-.91.91H41.34a.909.909,0,0,1-.91-.91V5.69a.909.909,0,0,1,.91-.91" fill="#455a64"/>
            <rect id="Rectángulo_375940" data-name="Rectángulo 375940" width="43.34" height="28.27" transform="translate(59.3 74.15)" fill="#455a64"/>
            <path id="Trazado_807253" data-name="Trazado 807253" d="M65.59,79.76a1.73,1.73,0,1,1,0-.02v.02" fill="#fafafa"/>
            <path id="Trazado_807254" data-name="Trazado 807254" d="M100.29,81.25l-1.43-1.4-1.32,1.36V77.16h2.76Zm-1.43-1.57h0l1.25,1.23V77.22h-2.5v3.63Z" fill="#fafafa"/>
            <path id="Trazado_807255" data-name="Trazado 807255" d="M89.37,78.84c0,.14-4.76.26-10.63.26s-10.63-.12-10.63-.26,4.76-.26,10.63-.26,10.63.11,10.63.26" fill="#fafafa"/>
            <path id="Trazado_807256" data-name="Trazado 807256" d="M76.31,81.25a32.426,32.426,0,0,1-8.2,0,32.426,32.426,0,0,1,8.2,0" fill="#fafafa"/>
            <path id="Trazado_807257" data-name="Trazado 807257" d="M13.66,15.79c-3.25.63-6.62-.05-9.89.45H3.65V38.9c10.16,1,20.22,3.56,30.32,5.33,13.49,2.36,28,3.19,40.34-2.7,10-4.74,17.49-13.35,26.71-19.41a56.511,56.511,0,0,1,10.86-5.56V11.34H19.47c-.8,2.26-3.33,3.97-5.81,4.45m29.63,3.85a7,7,0,1,1-7,7,7,7,0,0,1,7-7" fill="#4be5f1"/>
            <path id="Trazado_807258" data-name="Trazado 807258" d="M74.31,41.55c-12.37,5.89-26.85,5.06-40.34,2.7-10.1-1.77-20.16-4.33-30.32-5.33V54.78H111.88V16.58a56.511,56.511,0,0,0-10.86,5.56C91.8,28.25,84.24,36.81,74.31,41.55m-20.08,9a52.1,52.1,0,1,0,.01-.01Zm3.81,0a.6.6,0,1,0,0-.01Zm3.81,0a.6.6,0,1,1,.6-.6.6.6,0,0,1-.6.6" fill="#4be5f1"/>
            <g id="Grupo_1067209" data-name="Grupo 1067209" opacity="0.3">
              <g id="Grupo_1067208" data-name="Grupo 1067208">
                <g id="Grupo_1067207" data-name="Grupo 1067207" clip-path="url(#clip-path-11)">
                  <path id="Trazado_807259" data-name="Trazado 807259" d="M74.31,41.55c-12.37,5.89-26.85,5.06-40.34,2.7-10.1-1.77-20.16-4.33-30.32-5.33V54.78H111.88V16.58a56.511,56.511,0,0,0-10.86,5.56C91.8,28.25,84.24,36.81,74.31,41.55m-20.08,9a52.1,52.1,0,1,0,.01-.01Zm3.81,0a.6.6,0,1,0,0-.01Zm3.81,0a.6.6,0,1,1,.6-.6.6.6,0,0,1-.6.6"/>
                </g>
              </g>
            </g>
            <path id="Trazado_807260" data-name="Trazado 807260" d="M54.24,49.34a.605.605,0,1,0,.01,0h-.01" fill="#263238"/>
            <path id="Trazado_807261" data-name="Trazado 807261" d="M58.04,49.34a.605.605,0,1,0,.01,0h-.01" fill="#263238"/>
            <path id="Trazado_807262" data-name="Trazado 807262" d="M61.85,49.34a.6.6,0,1,0,.6.6.6.6,0,0,0-.6-.6" fill="#263238"/>
            <path id="Trazado_807263" data-name="Trazado 807263" d="M43.29,19.64a6.99,6.99,0,1,1-6.99,6.99,6.991,6.991,0,0,1,6.99-6.99" fill="#4be5f1"/>
            <g id="Grupo_1067212" data-name="Grupo 1067212" opacity="0.3">
              <g id="Grupo_1067211" data-name="Grupo 1067211">
                <g id="Grupo_1067210" data-name="Grupo 1067210" clip-path="url(#clip-path-12)">
                  <path id="Trazado_807264" data-name="Trazado 807264" d="M43.29,19.64a6.99,6.99,0,1,1-6.99,6.99,6.991,6.991,0,0,1,6.99-6.99"/>
                </g>
              </g>
            </g>
            <path id="Trazado_807265" data-name="Trazado 807265" d="M13.66,15.79c2.48-.48,5-2.19,5.81-4.43H3.65v4.89h.12c3.27-.51,6.64.17,9.89-.46" fill="#4be5f1"/>
            <path id="Trazado_807266" data-name="Trazado 807266" d="M99.83,63.63c0,.15-18.84.26-42.06.26s-42.07-.11-42.07-.26,18.83-.26,42.07-.26,42.06.12,42.06.26" fill="#263238"/>
            <path id="Trazado_807267" data-name="Trazado 807267" d="M79.37,66.53c0,.15-10.09.26-22.53.26s-22.54-.11-22.54-.26,10.09-.26,22.54-.26,22.53.12,22.53.26" fill="#263238"/>
            <rect id="Rectángulo_375943" data-name="Rectángulo 375943" width="43.34" height="28.27" transform="translate(9.97 74.15)" fill="#4be5f1"/>
            <path id="Trazado_807268" data-name="Trazado 807268" d="M16.24,79.76a1.73,1.73,0,1,1,0-.02v.02" fill="#fafafa"/>
            <path id="Trazado_807269" data-name="Trazado 807269" d="M50.96,81.25l-1.43-1.4-1.29,1.33-.05-4.05h2.76Zm-1.43-1.57h.05l1.25,1.23V77.22h-2.5v3.63Z" fill="#fafafa"/>
            <path id="Trazado_807270" data-name="Trazado 807270" d="M40.04,78.84c0,.14-4.76.26-10.63.26s-10.63-.12-10.63-.26,4.76-.26,10.63-.26,10.63.11,10.63.26" fill="#fafafa"/>
            <path id="Trazado_807271" data-name="Trazado 807271" d="M26.98,81.25a32.426,32.426,0,0,1-8.2,0,32.426,32.426,0,0,1,8.2,0" fill="#fafafa"/>
            <path id="Trazado_807272" data-name="Trazado 807272" d="M53.31,106.25c0,.14-9.7.26-21.67.26s-21.67-.12-21.67-.26,9.7-.26,21.67-.26,21.67.13,21.67.26" fill="#263238"/>
            <path id="Trazado_807273" data-name="Trazado 807273" d="M53.31,108.84c0,.14-9.7.26-21.67.26s-21.67-.12-21.67-.26,9.7-.26,21.67-.26,21.67.12,21.67.26" fill="#263238"/>
            <path id="Trazado_807274" data-name="Trazado 807274" d="M32.56,111.42c0,.14-5.06.26-11.3.26s-11.29-.12-11.29-.26,5.06-.26,11.29-.26,11.3.09,11.3.26" fill="#263238"/>
            <rect id="Rectángulo_375944" data-name="Rectángulo 375944" width="43.34" height="28.27" transform="translate(9.97 116.4)" fill="#4be5f1"/>
            <path id="Trazado_807275" data-name="Trazado 807275" d="M16.24,122a1.74,1.74,0,1,1-1.74-1.74A1.74,1.74,0,0,1,16.24,122" fill="#fafafa"/>
            <path id="Trazado_807276" data-name="Trazado 807276" d="M50.96,123.46l-1.43-1.39-1.29,1.35-.05-4.05h2.76Zm-1.43-1.57h.05l1.25,1.23v-3.69h-2.5v3.62Z" fill="#fafafa"/>
            <path id="Trazado_807277" data-name="Trazado 807277" d="M40.04,121.08c0,.14-4.76.26-10.63.26s-10.63-.12-10.63-.26,4.76-.26,10.63-.26,10.63.12,10.63.26" fill="#fafafa"/>
            <path id="Trazado_807278" data-name="Trazado 807278" d="M26.98,123.46a32.426,32.426,0,0,1-8.2,0,32.426,32.426,0,0,1,8.2,0" fill="#fafafa"/>
            <path id="Trazado_807279" data-name="Trazado 807279" d="M53.31,148.5c0,.15-9.7.26-21.67.26s-21.67-.11-21.67-.26,9.7-.26,21.67-.26,21.67.12,21.67.26" fill="#263238"/>
            <rect id="Rectángulo_375945" data-name="Rectángulo 375945" width="43.34" height="28.27" transform="translate(60.46 116.4)" fill="#455a64"/>
            <path id="Trazado_807280" data-name="Trazado 807280" d="M66.75,122a1.74,1.74,0,1,1-1.74-1.74A1.74,1.74,0,0,1,66.75,122" fill="#fafafa"/>
            <path id="Trazado_807281" data-name="Trazado 807281" d="M101.46,123.46l-1.43-1.39-1.33,1.35v-4.05h2.75Zm-1.43-1.57h0l1.26,1.23v-3.69H98.78v3.62Z" fill="#fafafa"/>
            <path id="Trazado_807282" data-name="Trazado 807282" d="M90.54,121.08c0,.14-4.76.26-10.63.26s-10.67-.09-10.67-.26,4.75-.26,10.63-.26,10.67.12,10.67.26" fill="#fafafa"/>
            <path id="Trazado_807283" data-name="Trazado 807283" d="M77.47,123.46a32.347,32.347,0,0,1-8.19,0,32.347,32.347,0,0,1,8.19,0" fill="#fafafa"/>
            <path id="Trazado_807284" data-name="Trazado 807284" d="M103.81,148.5c0,.15-9.71.26-21.67.26s-21.68-.11-21.68-.26,9.71-.26,21.68-.26,21.67.12,21.67.26" fill="#263238"/>
            <path id="Trazado_807285" data-name="Trazado 807285" d="M103.24,106.25c0,.14-9.7.26-21.67.26s-21.67-.12-21.67-.26,9.7-.26,21.67-.26,21.67.13,21.67.26" fill="#263238"/>
            <path id="Trazado_807286" data-name="Trazado 807286" d="M103.24,108.84c0,.14-9.7.26-21.67.26s-21.67-.12-21.67-.26,9.7-.26,21.67-.26,21.67.12,21.67.26" fill="#263238"/>
            <path id="Trazado_807287" data-name="Trazado 807287" d="M82.48,111.42c0,.14-5.06.26-11.29.26s-11.3-.12-11.3-.26,5.06-.26,11.3-.26,11.29.09,11.29.26" fill="#263238"/>
            <g id="Grupo_1067215" data-name="Grupo 1067215" opacity="0.3">
              <g id="Grupo_1067214" data-name="Grupo 1067214">
                <g id="Grupo_1067213" data-name="Grupo 1067213" clip-path="url(#clip-path-13)">
                  <path id="Trazado_807288" data-name="Trazado 807288" d="M13.66,15.79c2.48-.48,5-2.19,5.81-4.43H3.65v4.89h.12c3.27-.51,6.64.17,9.89-.46" fill="#fff"/>
                </g>
              </g>
            </g>
          </g>
        </g>
      </g>
    </g>
    <g id="Grupo_1067234" data-name="Grupo 1067234" transform="translate(646.44 1677.64)">
      <g id="Grupo_1067218-2" data-name="Grupo 1067218" clip-path="url(#clip-path-9)">
        <g id="Grupo_1067217-2" data-name="Grupo 1067217">
          <g id="Grupo_1067216-2" data-name="Grupo 1067216" clip-path="url(#clip-path-9)">
            <path id="Trazado_807250-2" data-name="Trazado 807250" d="M11.55,0h92.6A11.55,11.55,0,0,1,115.7,11.55V154.48a11.55,11.55,0,0,1-11.55,11.55H11.55A11.55,11.55,0,0,1,0,154.48V11.55A11.55,11.55,0,0,1,11.55,0" fill="#263238"/>
            <rect id="Rectángulo_375939-2" data-name="Rectángulo 375939" width="108.22" height="138.66" transform="translate(3.65 11.36)" fill="#fff"/>
            <path id="Trazado_807251-2" data-name="Trazado 807251" d="M62.29,157.69a4.44,4.44,0,1,1-4.44-4.44,4.44,4.44,0,0,1,4.44,4.44" fill="#455a64"/>
            <path id="Trazado_807252-2" data-name="Trazado 807252" d="M41.34,4.78H74.37a.909.909,0,0,1,.91.91V5.7a.909.909,0,0,1-.91.91H41.34a.909.909,0,0,1-.91-.91V5.69a.909.909,0,0,1,.91-.91" fill="#455a64"/>
            <rect id="Rectángulo_375940-2" data-name="Rectángulo 375940" width="43.34" height="28.27" transform="translate(59.3 74.15)" fill="#455a64"/>
            <path id="Trazado_807253-2" data-name="Trazado 807253" d="M65.59,79.76a1.73,1.73,0,1,1,0-.02v.02" fill="#fafafa"/>
            <path id="Trazado_807254-2" data-name="Trazado 807254" d="M100.29,81.25l-1.43-1.4-1.32,1.36V77.16h2.76Zm-1.43-1.57h0l1.25,1.23V77.22h-2.5v3.63Z" fill="#fafafa"/>
            <path id="Trazado_807255-2" data-name="Trazado 807255" d="M89.37,78.84c0,.14-4.76.26-10.63.26s-10.63-.12-10.63-.26,4.76-.26,10.63-.26,10.63.11,10.63.26" fill="#fafafa"/>
            <path id="Trazado_807256-2" data-name="Trazado 807256" d="M76.31,81.25a32.426,32.426,0,0,1-8.2,0,32.426,32.426,0,0,1,8.2,0" fill="#fafafa"/>
            <path id="Trazado_807257-2" data-name="Trazado 807257" d="M13.66,15.79c-3.25.63-6.62-.05-9.89.45H3.65V38.9c10.16,1,20.22,3.56,30.32,5.33,13.49,2.36,28,3.19,40.34-2.7,10-4.74,17.49-13.35,26.71-19.41a56.511,56.511,0,0,1,10.86-5.56V11.34H19.47c-.8,2.26-3.33,3.97-5.81,4.45m29.63,3.85a7,7,0,1,1-7,7,7,7,0,0,1,7-7" fill="#4be5f1"/>
            <path id="Trazado_807258-2" data-name="Trazado 807258" d="M74.31,41.55c-12.37,5.89-26.85,5.06-40.34,2.7-10.1-1.77-20.16-4.33-30.32-5.33V54.78H111.88V16.58a56.511,56.511,0,0,0-10.86,5.56C91.8,28.25,84.24,36.81,74.31,41.55m-20.08,9a52.1,52.1,0,1,0,.01-.01Zm3.81,0a.6.6,0,1,0,0-.01Zm3.81,0a.6.6,0,1,1,.6-.6.6.6,0,0,1-.6.6" fill="#4be5f1"/>
            <g id="Grupo_1067209-2" data-name="Grupo 1067209" opacity="0.3">
              <g id="Grupo_1067208-2" data-name="Grupo 1067208">
                <g id="Grupo_1067207-2" data-name="Grupo 1067207" clip-path="url(#clip-path-11)">
                  <path id="Trazado_807259-2" data-name="Trazado 807259" d="M74.31,41.55c-12.37,5.89-26.85,5.06-40.34,2.7-10.1-1.77-20.16-4.33-30.32-5.33V54.78H111.88V16.58a56.511,56.511,0,0,0-10.86,5.56C91.8,28.25,84.24,36.81,74.31,41.55m-20.08,9a52.1,52.1,0,1,0,.01-.01Zm3.81,0a.6.6,0,1,0,0-.01Zm3.81,0a.6.6,0,1,1,.6-.6.6.6,0,0,1-.6.6"/>
                </g>
              </g>
            </g>
            <path id="Trazado_807260-2" data-name="Trazado 807260" d="M54.24,49.34a.605.605,0,1,0,.01,0h-.01" fill="#263238"/>
            <path id="Trazado_807261-2" data-name="Trazado 807261" d="M58.04,49.34a.605.605,0,1,0,.01,0h-.01" fill="#263238"/>
            <path id="Trazado_807262-2" data-name="Trazado 807262" d="M61.85,49.34a.6.6,0,1,0,.6.6.6.6,0,0,0-.6-.6" fill="#263238"/>
            <path id="Trazado_807263-2" data-name="Trazado 807263" d="M43.29,19.64a6.99,6.99,0,1,1-6.99,6.99,6.991,6.991,0,0,1,6.99-6.99" fill="#4be5f1"/>
            <g id="Grupo_1067212-2" data-name="Grupo 1067212" opacity="0.3">
              <g id="Grupo_1067211-2" data-name="Grupo 1067211">
                <g id="Grupo_1067210-2" data-name="Grupo 1067210" clip-path="url(#clip-path-12)">
                  <path id="Trazado_807264-2" data-name="Trazado 807264" d="M43.29,19.64a6.99,6.99,0,1,1-6.99,6.99,6.991,6.991,0,0,1,6.99-6.99"/>
                </g>
              </g>
            </g>
            <path id="Trazado_807265-2" data-name="Trazado 807265" d="M13.66,15.79c2.48-.48,5-2.19,5.81-4.43H3.65v4.89h.12c3.27-.51,6.64.17,9.89-.46" fill="#4be5f1"/>
            <path id="Trazado_807266-2" data-name="Trazado 807266" d="M99.83,63.63c0,.15-18.84.26-42.06.26s-42.07-.11-42.07-.26,18.83-.26,42.07-.26,42.06.12,42.06.26" fill="#263238"/>
            <path id="Trazado_807267-2" data-name="Trazado 807267" d="M79.37,66.53c0,.15-10.09.26-22.53.26s-22.54-.11-22.54-.26,10.09-.26,22.54-.26,22.53.12,22.53.26" fill="#263238"/>
            <rect id="Rectángulo_375943-2" data-name="Rectángulo 375943" width="43.34" height="28.27" transform="translate(9.97 74.15)" fill="#4be5f1"/>
            <path id="Trazado_807268-2" data-name="Trazado 807268" d="M16.24,79.76a1.73,1.73,0,1,1,0-.02v.02" fill="#fafafa"/>
            <path id="Trazado_807269-2" data-name="Trazado 807269" d="M50.96,81.25l-1.43-1.4-1.29,1.33-.05-4.05h2.76Zm-1.43-1.57h.05l1.25,1.23V77.22h-2.5v3.63Z" fill="#fafafa"/>
            <path id="Trazado_807270-2" data-name="Trazado 807270" d="M40.04,78.84c0,.14-4.76.26-10.63.26s-10.63-.12-10.63-.26,4.76-.26,10.63-.26,10.63.11,10.63.26" fill="#fafafa"/>
            <path id="Trazado_807271-2" data-name="Trazado 807271" d="M26.98,81.25a32.426,32.426,0,0,1-8.2,0,32.426,32.426,0,0,1,8.2,0" fill="#fafafa"/>
            <path id="Trazado_807272-2" data-name="Trazado 807272" d="M53.31,106.25c0,.14-9.7.26-21.67.26s-21.67-.12-21.67-.26,9.7-.26,21.67-.26,21.67.13,21.67.26" fill="#263238"/>
            <path id="Trazado_807273-2" data-name="Trazado 807273" d="M53.31,108.84c0,.14-9.7.26-21.67.26s-21.67-.12-21.67-.26,9.7-.26,21.67-.26,21.67.12,21.67.26" fill="#263238"/>
            <path id="Trazado_807274-2" data-name="Trazado 807274" d="M32.56,111.42c0,.14-5.06.26-11.3.26s-11.29-.12-11.29-.26,5.06-.26,11.29-.26,11.3.09,11.3.26" fill="#263238"/>
            <rect id="Rectángulo_375944-2" data-name="Rectángulo 375944" width="43.34" height="28.27" transform="translate(9.97 116.4)" fill="#4be5f1"/>
            <path id="Trazado_807275-2" data-name="Trazado 807275" d="M16.24,122a1.74,1.74,0,1,1-1.74-1.74A1.74,1.74,0,0,1,16.24,122" fill="#fafafa"/>
            <path id="Trazado_807276-2" data-name="Trazado 807276" d="M50.96,123.46l-1.43-1.39-1.29,1.35-.05-4.05h2.76Zm-1.43-1.57h.05l1.25,1.23v-3.69h-2.5v3.62Z" fill="#fafafa"/>
            <path id="Trazado_807277-2" data-name="Trazado 807277" d="M40.04,121.08c0,.14-4.76.26-10.63.26s-10.63-.12-10.63-.26,4.76-.26,10.63-.26,10.63.12,10.63.26" fill="#fafafa"/>
            <path id="Trazado_807278-2" data-name="Trazado 807278" d="M26.98,123.46a32.426,32.426,0,0,1-8.2,0,32.426,32.426,0,0,1,8.2,0" fill="#fafafa"/>
            <path id="Trazado_807279-2" data-name="Trazado 807279" d="M53.31,148.5c0,.15-9.7.26-21.67.26s-21.67-.11-21.67-.26,9.7-.26,21.67-.26,21.67.12,21.67.26" fill="#263238"/>
            <rect id="Rectángulo_375945-2" data-name="Rectángulo 375945" width="43.34" height="28.27" transform="translate(60.46 116.4)" fill="#455a64"/>
            <path id="Trazado_807280-2" data-name="Trazado 807280" d="M66.75,122a1.74,1.74,0,1,1-1.74-1.74A1.74,1.74,0,0,1,66.75,122" fill="#fafafa"/>
            <path id="Trazado_807281-2" data-name="Trazado 807281" d="M101.46,123.46l-1.43-1.39-1.33,1.35v-4.05h2.75Zm-1.43-1.57h0l1.26,1.23v-3.69H98.78v3.62Z" fill="#fafafa"/>
            <path id="Trazado_807282-2" data-name="Trazado 807282" d="M90.54,121.08c0,.14-4.76.26-10.63.26s-10.67-.09-10.67-.26,4.75-.26,10.63-.26,10.67.12,10.67.26" fill="#fafafa"/>
            <path id="Trazado_807283-2" data-name="Trazado 807283" d="M77.47,123.46a32.347,32.347,0,0,1-8.19,0,32.347,32.347,0,0,1,8.19,0" fill="#fafafa"/>
            <path id="Trazado_807284-2" data-name="Trazado 807284" d="M103.81,148.5c0,.15-9.71.26-21.67.26s-21.68-.11-21.68-.26,9.71-.26,21.68-.26,21.67.12,21.67.26" fill="#263238"/>
            <path id="Trazado_807285-2" data-name="Trazado 807285" d="M103.24,106.25c0,.14-9.7.26-21.67.26s-21.67-.12-21.67-.26,9.7-.26,21.67-.26,21.67.13,21.67.26" fill="#263238"/>
            <path id="Trazado_807286-2" data-name="Trazado 807286" d="M103.24,108.84c0,.14-9.7.26-21.67.26s-21.67-.12-21.67-.26,9.7-.26,21.67-.26,21.67.12,21.67.26" fill="#263238"/>
            <path id="Trazado_807287-2" data-name="Trazado 807287" d="M82.48,111.42c0,.14-5.06.26-11.29.26s-11.3-.12-11.3-.26,5.06-.26,11.3-.26,11.29.09,11.29.26" fill="#263238"/>
            <g id="Grupo_1067215-2" data-name="Grupo 1067215" opacity="0.3">
              <g id="Grupo_1067214-2" data-name="Grupo 1067214">
                <g id="Grupo_1067213-2" data-name="Grupo 1067213" clip-path="url(#clip-path-13)">
                  <path id="Trazado_807288-2" data-name="Trazado 807288" d="M13.66,15.79c2.48-.48,5-2.19,5.81-4.43H3.65v4.89h.12c3.27-.51,6.64.17,9.89-.46" fill="#fff"/>
                </g>
              </g>
            </g>
          </g>
        </g>
      </g>
    </g>
    <g id="Grupo_1067232" data-name="Grupo 1067232" transform="translate(501.77 1383)">
      <g id="Grupo_1067231" data-name="Grupo 1067231" clip-path="url(#clip-path-19)">
        <g id="Grupo_1067230" data-name="Grupo 1067230">
          <g id="Grupo_1067229" data-name="Grupo 1067229" clip-path="url(#clip-path-19)">
            <path id="Trazado_807289" data-name="Trazado 807289" d="M18.54,0H261.22a6.741,6.741,0,0,1,6.74,6.74V155.49a14.57,14.57,0,0,1-14.57,14.57h-228a14.57,14.57,0,0,1-14.57-14.57V7.75A7.75,7.75,0,0,1,18.57,0Z" fill="#263238"/>
            <path id="Trazado_807290" data-name="Trazado 807290" d="M.04,157.48H278.66v1.16a13.72,13.72,0,0,1-13.72,13.72H13.72A13.72,13.72,0,0,1,0,158.64v-1.16Z" fill="#263238"/>
            <rect id="Rectángulo_375949" data-name="Rectángulo 375949" width="242.64" height="143.61" transform="translate(17.69 6.75)" fill="#455a64"/>
            <path id="Trazado_807291" data-name="Trazado 807291" d="M114.02,157.48l3.46,5.5h48.65l3.21-5.5Z" fill="#455a64"/>
            <rect id="Rectángulo_375950" data-name="Rectángulo 375950" width="223.4" height="133.99" transform="translate(25.79 16.32)" fill="#fff"/>
            <path id="Trazado_807292" data-name="Trazado 807292" d="M35.32,22.93a1.88,1.88,0,1,1-1.88-1.88h.01a1.87,1.87,0,0,1,1.87,1.87v.01" fill="#263238"/>
            <path id="Trazado_807293" data-name="Trazado 807293" d="M42.97,22.93a1.88,1.88,0,1,1-1.88-1.88h.01a1.87,1.87,0,0,1,1.87,1.87v.01" fill="#263238"/>
            <path id="Trazado_807294" data-name="Trazado 807294" d="M50.62,22.93a1.86,1.86,0,1,1,0-.04v.04" fill="#263238"/>
            <rect id="Rectángulo_375951" data-name="Rectángulo 375951" width="257.17" height="0.82" transform="translate(10.79 157.6)" fill="#455a64"/>
            <path id="Trazado_807295" data-name="Trazado 807295" d="M191.1,92.91c0,.14-23.81.26-53.17.26s-53.21-.12-53.21-.26,23.8-.26,53.17-.26,53.21.11,53.21.26" fill="#263238"/>
            <path id="Trazado_807296" data-name="Trazado 807296" d="M165.24,96.57c0,.15-12.75.26-28.48.26s-28.49-.11-28.49-.26,12.75-.26,28.45-.26,28.52.12,28.52.26" fill="#263238"/>
            <rect id="Rectángulo_375952" data-name="Rectángulo 375952" width="59.63" height="38.89" transform="translate(42.05 108.97)" fill="#4be5f1"/>
            <path id="Trazado_807297" data-name="Trazado 807297" d="M50.72,116.69a2.375,2.375,0,1,1,0-.01v.01" fill="#fafafa"/>
            <path id="Trazado_807298" data-name="Trazado 807298" d="M98.45,118.7l-2-1.93-1.82,1.87-.06-5.57h3.79Zm-2-2.17.06.06,1.73,1.69-.05-5.08H94.74v5Z" fill="#fafafa"/>
            <path id="Trazado_807299" data-name="Trazado 807299" d="M83.43,115.42c0,.14-6.55.26-14.63.26s-14.63-.12-14.63-.26,6.55-.26,14.63-.26,14.63.15,14.63.26" fill="#fafafa"/>
            <path id="Trazado_807300" data-name="Trazado 807300" d="M65.45,118.7a31.19,31.19,0,0,1-5.64.26,31.19,31.19,0,0,1-5.64-.26,30.136,30.136,0,0,1,5.64-.26,30.136,30.136,0,0,1,5.64.26" fill="#fafafa"/>
            <rect id="Rectángulo_375953" data-name="Rectángulo 375953" width="59.63" height="38.89" transform="translate(108.11 108.97)" fill="#455a64"/>
            <path id="Trazado_807301" data-name="Trazado 807301" d="M116.72,116.69a2.39,2.39,0,1,1-2.39-2.39,2.39,2.39,0,0,1,2.39,2.39" fill="#fafafa"/>
            <path id="Trazado_807302" data-name="Trazado 807302" d="M164.51,118.7l-2-1.93-1.79,1.87-.06-5.57h3.79Zm-2-2.17.07.06,1.72,1.69-.05-5.08h-3.44v5Z" fill="#fafafa"/>
            <path id="Trazado_807303" data-name="Trazado 807303" d="M149.49,115.42c0,.14-6.55.26-14.63.26s-14.63-.12-14.63-.26,6.55-.26,14.63-.26,14.63.15,14.63.26" fill="#fafafa"/>
            <path id="Trazado_807304" data-name="Trazado 807304" d="M131.51,118.7a31.19,31.19,0,0,1-5.64.26,31.19,31.19,0,0,1-5.64-.26,30.136,30.136,0,0,1,5.64-.26,30.136,30.136,0,0,1,5.64.26" fill="#fafafa"/>
            <rect id="Rectángulo_375954" data-name="Rectángulo 375954" width="59.63" height="38.89" transform="translate(174.05 108.97)" fill="#4be5f1"/>
            <path id="Trazado_807305" data-name="Trazado 807305" d="M182.72,116.69a2.39,2.39,0,1,1-2.39-2.39,2.39,2.39,0,0,1,2.39,2.39" fill="#fafafa"/>
            <path id="Trazado_807306" data-name="Trazado 807306" d="M230.45,118.7l-2-1.93-1.83,1.87-.06-5.57h3.79Zm-2-2.17.06.06,1.73,1.69-.06-5.08h-3.44l.05,5Z" fill="#fafafa"/>
            <path id="Trazado_807307" data-name="Trazado 807307" d="M215.43,115.42c0,.14-6.55.26-14.62.26s-14.63-.12-14.63-.26,6.54-.26,14.63-.26,14.62.15,14.62.26" fill="#fafafa"/>
            <path id="Trazado_807308" data-name="Trazado 807308" d="M197.45,118.7a31.08,31.08,0,0,1-5.63.26,31.19,31.19,0,0,1-5.64-.26,30.136,30.136,0,0,1,5.64-.26,30.026,30.026,0,0,1,5.63.26" fill="#fafafa"/>
            <path id="Trazado_807309" data-name="Trazado 807309" d="M78.59,34.72c-4.1.79-8.37-.07-12.5.57-8.25,1.26-14.43,8.07-22,11.54A28.614,28.614,0,0,1,25.81,48.5V70.18a64.7,64.7,0,0,1,27.15-6.73c17.31-.52,34.27,4.25,51.33,7.24s35.35,4,51-3.41c12.59-6,22.12-16.87,33.77-24.54,17.49-11.51,39.87-14.87,60.16-9.95V29.12H85.94c-1.02,2.83-4.22,4.99-7.35,5.6m37.46,4.86a8.84,8.84,0,1,1-8.84,8.84,8.84,8.84,0,0,1,8.84-8.84" fill="#4be5f1"/>
            <path id="Trazado_807310" data-name="Trazado 807310" d="M189.02,42.74c-11.65,7.67-21.18,18.57-33.77,24.57-15.63,7.45-33.93,6.39-51,3.41s-34-7.76-51.33-7.24a64.7,64.7,0,0,0-27.15,6.73V84.03H249.18V32.79c-20.29-4.92-42.67-1.56-60.16,9.95M131.14,77.55a.88.88,0,1,1,.88-.88A.88.88,0,0,1,131.14,77.55Zm5.58,0a.88.88,0,1,1,.88-.88.88.88,0,0,1-.88.88m5.57,0a.88.88,0,1,1,.88-.88A.88.88,0,0,1,142.29,77.55Zm98.05-19.81a2.88,2.88,0,1,1,0,4.073l0,0a2.87,2.87,0,0,1-.011-4.059l.011-.011" fill="#4be5f1"/>
            <path id="Trazado_807311" data-name="Trazado 807311" d="M131.14,75.79a.88.88,0,1,0,.88.88.88.88,0,0,0-.88-.88" fill="#263238"/>
            <path id="Trazado_807312" data-name="Trazado 807312" d="M136.72,75.79a.88.88,0,1,1-.88.88.88.88,0,0,1,.88-.88" fill="#263238"/>
            <path id="Trazado_807313" data-name="Trazado 807313" d="M142.29,75.79a.88.88,0,1,1-.88.88.88.88,0,0,1,.88-.88" fill="#263238"/>
            <path id="Trazado_807314" data-name="Trazado 807314" d="M44.07,46.83c7.59-3.47,13.77-10.28,22-11.54,4.13-.64,8.4.22,12.5-.57,3.14-.61,6.33-2.77,7.35-5.6H25.79V48.5a28.614,28.614,0,0,0,18.28-1.67" fill="#4be5f1"/>
            <g id="Grupo_1067222" data-name="Grupo 1067222" opacity="0.3">
              <g id="Grupo_1067221" data-name="Grupo 1067221">
                <g id="Grupo_1067220" data-name="Grupo 1067220" clip-path="url(#clip-path-21)">
                  <path id="Trazado_807315" data-name="Trazado 807315" d="M44.07,46.83c7.59-3.47,13.77-10.28,22-11.54,4.13-.64,8.4.22,12.5-.57,3.14-.61,6.33-2.77,7.35-5.6H25.79V48.5a28.614,28.614,0,0,0,18.28-1.67" fill="#fff"/>
                </g>
              </g>
            </g>
            <path id="Trazado_807316" data-name="Trazado 807316" d="M109.8,42.164a8.84,8.84,0,1,1,0,12.5,8.841,8.841,0,0,1,0-12.5" fill="#4be5f1"/>
            <g id="Grupo_1067225" data-name="Grupo 1067225" opacity="0.3">
              <g id="Grupo_1067224" data-name="Grupo 1067224">
                <g id="Grupo_1067223" data-name="Grupo 1067223" clip-path="url(#clip-path-22)">
                  <path id="Trazado_807317" data-name="Trazado 807317" d="M109.8,42.164a8.84,8.84,0,1,1,0,12.5,8.841,8.841,0,0,1,0-12.5"/>
                </g>
              </g>
            </g>
            <path id="Trazado_807318" data-name="Trazado 807318" d="M242.38,56.89a2.88,2.88,0,1,1-2.88,2.88,2.879,2.879,0,0,1,2.88-2.88" fill="#4be5f1"/>
            <g id="Grupo_1067228" data-name="Grupo 1067228" opacity="0.3">
              <g id="Grupo_1067227" data-name="Grupo 1067227">
                <g id="Grupo_1067226" data-name="Grupo 1067226" clip-path="url(#clip-path-23)">
                  <path id="Trazado_807319" data-name="Trazado 807319" d="M189.02,42.74c-11.65,7.67-21.18,18.57-33.77,24.57-15.63,7.45-33.93,6.39-51,3.41s-34-7.76-51.33-7.24a64.7,64.7,0,0,0-27.15,6.73V84.03H249.18V32.79c-20.29-4.92-42.67-1.56-60.16,9.95M131.14,77.55a.88.88,0,1,1,.88-.88A.88.88,0,0,1,131.14,77.55Zm5.58,0a.88.88,0,1,1,.88-.88.88.88,0,0,1-.88.88m5.57,0a.88.88,0,1,1,.88-.88A.88.88,0,0,1,142.29,77.55Zm98.05-19.81a2.88,2.88,0,1,1,0,4.073l0,0a2.87,2.87,0,0,1-.011-4.059l.011-.011"/>
                </g>
              </g>
            </g>
            <path id="Trazado_807320" data-name="Trazado 807320" d="M240.49,132.14a7.367,7.367,0,0,1,.82-.76c.53-.45,1.26-1.06,2.08-1.73v.16l-2.05-1.82a6.444,6.444,0,0,1-.81-.8,5.66,5.66,0,0,1,.91.69c.54.44,1.28,1.07,2.09,1.77l.09.09-.09.07c-.83.67-1.58,1.26-2.12,1.68a6.234,6.234,0,0,1-.92.65" fill="#263238"/>
            <path id="Trazado_807321" data-name="Trazado 807321" d="M35.5,127.16a6.346,6.346,0,0,1-.82.76c-.52.45-1.26,1.06-2.08,1.72v-.15c.81.7,1.54,1.35,2,1.82a5.724,5.724,0,0,1,.81.8,6.018,6.018,0,0,1-.9-.69c-.54-.44-1.28-1.07-2.09-1.77l-.1-.08.1-.08c.82-.66,1.57-1.25,2.12-1.68a5.888,5.888,0,0,1,.96-.65" fill="#263238"/>
          </g>
        </g>
      </g>
    </g>
    <g id="Grupo_1067235" data-name="Grupo 1067235" transform="translate(846.34 1671.64)">
      <g id="Grupo_1067231-2" data-name="Grupo 1067231" clip-path="url(#clip-path-19)">
        <g id="Grupo_1067230-2" data-name="Grupo 1067230">
          <g id="Grupo_1067229-2" data-name="Grupo 1067229" clip-path="url(#clip-path-19)">
            <path id="Trazado_807289-2" data-name="Trazado 807289" d="M18.54,0H261.22a6.741,6.741,0,0,1,6.74,6.74V155.49a14.57,14.57,0,0,1-14.57,14.57h-228a14.57,14.57,0,0,1-14.57-14.57V7.75A7.75,7.75,0,0,1,18.57,0Z" fill="#263238"/>
            <path id="Trazado_807290-2" data-name="Trazado 807290" d="M.04,157.48H278.66v1.16a13.72,13.72,0,0,1-13.72,13.72H13.72A13.72,13.72,0,0,1,0,158.64v-1.16Z" fill="#263238"/>
            <rect id="Rectángulo_375949-2" data-name="Rectángulo 375949" width="242.64" height="143.61" transform="translate(17.69 6.75)" fill="#455a64"/>
            <path id="Trazado_807291-2" data-name="Trazado 807291" d="M114.02,157.48l3.46,5.5h48.65l3.21-5.5Z" fill="#455a64"/>
            <rect id="Rectángulo_375950-2" data-name="Rectángulo 375950" width="223.4" height="133.99" transform="translate(25.79 16.32)" fill="#fff"/>
            <path id="Trazado_807292-2" data-name="Trazado 807292" d="M35.32,22.93a1.88,1.88,0,1,1-1.88-1.88h.01a1.87,1.87,0,0,1,1.87,1.87v.01" fill="#263238"/>
            <path id="Trazado_807293-2" data-name="Trazado 807293" d="M42.97,22.93a1.88,1.88,0,1,1-1.88-1.88h.01a1.87,1.87,0,0,1,1.87,1.87v.01" fill="#263238"/>
            <path id="Trazado_807294-2" data-name="Trazado 807294" d="M50.62,22.93a1.86,1.86,0,1,1,0-.04v.04" fill="#263238"/>
            <rect id="Rectángulo_375951-2" data-name="Rectángulo 375951" width="257.17" height="0.82" transform="translate(10.79 157.6)" fill="#455a64"/>
            <path id="Trazado_807295-2" data-name="Trazado 807295" d="M191.1,92.91c0,.14-23.81.26-53.17.26s-53.21-.12-53.21-.26,23.8-.26,53.17-.26,53.21.11,53.21.26" fill="#263238"/>
            <path id="Trazado_807296-2" data-name="Trazado 807296" d="M165.24,96.57c0,.15-12.75.26-28.48.26s-28.49-.11-28.49-.26,12.75-.26,28.45-.26,28.52.12,28.52.26" fill="#263238"/>
            <rect id="Rectángulo_375952-2" data-name="Rectángulo 375952" width="59.63" height="38.89" transform="translate(42.05 108.97)" fill="#4be5f1"/>
            <path id="Trazado_807297-2" data-name="Trazado 807297" d="M50.72,116.69a2.375,2.375,0,1,1,0-.01v.01" fill="#fafafa"/>
            <path id="Trazado_807298-2" data-name="Trazado 807298" d="M98.45,118.7l-2-1.93-1.82,1.87-.06-5.57h3.79Zm-2-2.17.06.06,1.73,1.69-.05-5.08H94.74v5Z" fill="#fafafa"/>
            <path id="Trazado_807299-2" data-name="Trazado 807299" d="M83.43,115.42c0,.14-6.55.26-14.63.26s-14.63-.12-14.63-.26,6.55-.26,14.63-.26,14.63.15,14.63.26" fill="#fafafa"/>
            <path id="Trazado_807300-2" data-name="Trazado 807300" d="M65.45,118.7a31.19,31.19,0,0,1-5.64.26,31.19,31.19,0,0,1-5.64-.26,30.136,30.136,0,0,1,5.64-.26,30.136,30.136,0,0,1,5.64.26" fill="#fafafa"/>
            <rect id="Rectángulo_375953-2" data-name="Rectángulo 375953" width="59.63" height="38.89" transform="translate(108.11 108.97)" fill="#455a64"/>
            <path id="Trazado_807301-2" data-name="Trazado 807301" d="M116.72,116.69a2.39,2.39,0,1,1-2.39-2.39,2.39,2.39,0,0,1,2.39,2.39" fill="#fafafa"/>
            <path id="Trazado_807302-2" data-name="Trazado 807302" d="M164.51,118.7l-2-1.93-1.79,1.87-.06-5.57h3.79Zm-2-2.17.07.06,1.72,1.69-.05-5.08h-3.44v5Z" fill="#fafafa"/>
            <path id="Trazado_807303-2" data-name="Trazado 807303" d="M149.49,115.42c0,.14-6.55.26-14.63.26s-14.63-.12-14.63-.26,6.55-.26,14.63-.26,14.63.15,14.63.26" fill="#fafafa"/>
            <path id="Trazado_807304-2" data-name="Trazado 807304" d="M131.51,118.7a31.19,31.19,0,0,1-5.64.26,31.19,31.19,0,0,1-5.64-.26,30.136,30.136,0,0,1,5.64-.26,30.136,30.136,0,0,1,5.64.26" fill="#fafafa"/>
            <rect id="Rectángulo_375954-2" data-name="Rectángulo 375954" width="59.63" height="38.89" transform="translate(174.05 108.97)" fill="#4be5f1"/>
            <path id="Trazado_807305-2" data-name="Trazado 807305" d="M182.72,116.69a2.39,2.39,0,1,1-2.39-2.39,2.39,2.39,0,0,1,2.39,2.39" fill="#fafafa"/>
            <path id="Trazado_807306-2" data-name="Trazado 807306" d="M230.45,118.7l-2-1.93-1.83,1.87-.06-5.57h3.79Zm-2-2.17.06.06,1.73,1.69-.06-5.08h-3.44l.05,5Z" fill="#fafafa"/>
            <path id="Trazado_807307-2" data-name="Trazado 807307" d="M215.43,115.42c0,.14-6.55.26-14.62.26s-14.63-.12-14.63-.26,6.54-.26,14.63-.26,14.62.15,14.62.26" fill="#fafafa"/>
            <path id="Trazado_807308-2" data-name="Trazado 807308" d="M197.45,118.7a31.08,31.08,0,0,1-5.63.26,31.19,31.19,0,0,1-5.64-.26,30.136,30.136,0,0,1,5.64-.26,30.026,30.026,0,0,1,5.63.26" fill="#fafafa"/>
            <path id="Trazado_807309-2" data-name="Trazado 807309" d="M78.59,34.72c-4.1.79-8.37-.07-12.5.57-8.25,1.26-14.43,8.07-22,11.54A28.614,28.614,0,0,1,25.81,48.5V70.18a64.7,64.7,0,0,1,27.15-6.73c17.31-.52,34.27,4.25,51.33,7.24s35.35,4,51-3.41c12.59-6,22.12-16.87,33.77-24.54,17.49-11.51,39.87-14.87,60.16-9.95V29.12H85.94c-1.02,2.83-4.22,4.99-7.35,5.6m37.46,4.86a8.84,8.84,0,1,1-8.84,8.84,8.84,8.84,0,0,1,8.84-8.84" fill="#4be5f1"/>
            <path id="Trazado_807310-2" data-name="Trazado 807310" d="M189.02,42.74c-11.65,7.67-21.18,18.57-33.77,24.57-15.63,7.45-33.93,6.39-51,3.41s-34-7.76-51.33-7.24a64.7,64.7,0,0,0-27.15,6.73V84.03H249.18V32.79c-20.29-4.92-42.67-1.56-60.16,9.95M131.14,77.55a.88.88,0,1,1,.88-.88A.88.88,0,0,1,131.14,77.55Zm5.58,0a.88.88,0,1,1,.88-.88.88.88,0,0,1-.88.88m5.57,0a.88.88,0,1,1,.88-.88A.88.88,0,0,1,142.29,77.55Zm98.05-19.81a2.88,2.88,0,1,1,0,4.073l0,0a2.87,2.87,0,0,1-.011-4.059l.011-.011" fill="#4be5f1"/>
            <path id="Trazado_807311-2" data-name="Trazado 807311" d="M131.14,75.79a.88.88,0,1,0,.88.88.88.88,0,0,0-.88-.88" fill="#263238"/>
            <path id="Trazado_807312-2" data-name="Trazado 807312" d="M136.72,75.79a.88.88,0,1,1-.88.88.88.88,0,0,1,.88-.88" fill="#263238"/>
            <path id="Trazado_807313-2" data-name="Trazado 807313" d="M142.29,75.79a.88.88,0,1,1-.88.88.88.88,0,0,1,.88-.88" fill="#263238"/>
            <path id="Trazado_807314-2" data-name="Trazado 807314" d="M44.07,46.83c7.59-3.47,13.77-10.28,22-11.54,4.13-.64,8.4.22,12.5-.57,3.14-.61,6.33-2.77,7.35-5.6H25.79V48.5a28.614,28.614,0,0,0,18.28-1.67" fill="#4be5f1"/>
            <g id="Grupo_1067222-2" data-name="Grupo 1067222" opacity="0.3">
              <g id="Grupo_1067221-2" data-name="Grupo 1067221">
                <g id="Grupo_1067220-2" data-name="Grupo 1067220" clip-path="url(#clip-path-21)">
                  <path id="Trazado_807315-2" data-name="Trazado 807315" d="M44.07,46.83c7.59-3.47,13.77-10.28,22-11.54,4.13-.64,8.4.22,12.5-.57,3.14-.61,6.33-2.77,7.35-5.6H25.79V48.5a28.614,28.614,0,0,0,18.28-1.67" fill="#fff"/>
                </g>
              </g>
            </g>
            <path id="Trazado_807316-2" data-name="Trazado 807316" d="M109.8,42.164a8.84,8.84,0,1,1,0,12.5,8.841,8.841,0,0,1,0-12.5" fill="#4be5f1"/>
            <g id="Grupo_1067225-2" data-name="Grupo 1067225" opacity="0.3">
              <g id="Grupo_1067224-2" data-name="Grupo 1067224">
                <g id="Grupo_1067223-2" data-name="Grupo 1067223" clip-path="url(#clip-path-22)">
                  <path id="Trazado_807317-2" data-name="Trazado 807317" d="M109.8,42.164a8.84,8.84,0,1,1,0,12.5,8.841,8.841,0,0,1,0-12.5"/>
                </g>
              </g>
            </g>
            <path id="Trazado_807318-2" data-name="Trazado 807318" d="M242.38,56.89a2.88,2.88,0,1,1-2.88,2.88,2.879,2.879,0,0,1,2.88-2.88" fill="#4be5f1"/>
            <g id="Grupo_1067228-2" data-name="Grupo 1067228" opacity="0.3">
              <g id="Grupo_1067227-2" data-name="Grupo 1067227">
                <g id="Grupo_1067226-2" data-name="Grupo 1067226" clip-path="url(#clip-path-23)">
                  <path id="Trazado_807319-2" data-name="Trazado 807319" d="M189.02,42.74c-11.65,7.67-21.18,18.57-33.77,24.57-15.63,7.45-33.93,6.39-51,3.41s-34-7.76-51.33-7.24a64.7,64.7,0,0,0-27.15,6.73V84.03H249.18V32.79c-20.29-4.92-42.67-1.56-60.16,9.95M131.14,77.55a.88.88,0,1,1,.88-.88A.88.88,0,0,1,131.14,77.55Zm5.58,0a.88.88,0,1,1,.88-.88.88.88,0,0,1-.88.88m5.57,0a.88.88,0,1,1,.88-.88A.88.88,0,0,1,142.29,77.55Zm98.05-19.81a2.88,2.88,0,1,1,0,4.073l0,0a2.87,2.87,0,0,1-.011-4.059l.011-.011"/>
                </g>
              </g>
            </g>
            <path id="Trazado_807320-2" data-name="Trazado 807320" d="M240.49,132.14a7.367,7.367,0,0,1,.82-.76c.53-.45,1.26-1.06,2.08-1.73v.16l-2.05-1.82a6.444,6.444,0,0,1-.81-.8,5.66,5.66,0,0,1,.91.69c.54.44,1.28,1.07,2.09,1.77l.09.09-.09.07c-.83.67-1.58,1.26-2.12,1.68a6.234,6.234,0,0,1-.92.65" fill="#263238"/>
            <path id="Trazado_807321-2" data-name="Trazado 807321" d="M35.5,127.16a6.346,6.346,0,0,1-.82.76c-.52.45-1.26,1.06-2.08,1.72v-.15c.81.7,1.54,1.35,2,1.82a5.724,5.724,0,0,1,.81.8,6.018,6.018,0,0,1-.9-.69c-.54-.44-1.28-1.07-2.09-1.77l-.1-.08.1-.08c.82-.66,1.57-1.25,2.12-1.68a5.888,5.888,0,0,1,.96-.65" fill="#263238"/>
          </g>
        </g>
      </g>
    </g>
    <g id="Grupo_1067236" data-name="Grupo 1067236" transform="translate(278.77 85.08)">
      <line id="Línea_1999" data-name="Línea 1999" x2="29" transform="translate(511.5 1384.5)" fill="none" stroke="#fb405f" stroke-linecap="round" stroke-width="10"/>
      <path id="Polígono_15" data-name="Polígono 15" d="M9,0l9,16H0Z" transform="translate(554 1376) rotate(90)" fill="#fb405f"/>
    </g>
    <g id="Grupo_1067238" data-name="Grupo 1067238" transform="translate(78.209 375.654)">
      <line id="Línea_1999-2" data-name="Línea 1999" x2="29" transform="translate(511.5 1384.5)" fill="none" stroke="#fb405f" stroke-linecap="round" stroke-width="10"/>
      <path id="Polígono_15-2" data-name="Polígono 15" d="M9,0l9,16H0Z" transform="translate(554 1376) rotate(90)" fill="#fb405f"/>
    </g>
    <g id="Grupo_1067239" data-name="Grupo 1067239" transform="translate(278.11 375.654)">
      <line id="Línea_1999-3" data-name="Línea 1999" x2="29" transform="translate(511.5 1384.5)" fill="none" stroke="#fb405f" stroke-linecap="round" stroke-width="10"/>
      <path id="Polígono_15-3" data-name="Polígono 15" d="M9,0l9,16H0Z" transform="translate(554 1376) rotate(90)" fill="#fb405f"/>
    </g>
    <g id="Grupo_1067237" data-name="Grupo 1067237" transform="translate(458.77 85.08)">
      <line id="Línea_1999-4" data-name="Línea 1999" x2="29" transform="translate(511.5 1384.5)" fill="none" stroke="#fb405f" stroke-linecap="round" stroke-width="10"/>
      <path id="Polígono_15-4" data-name="Polígono 15" d="M9,0l9,16H0Z" transform="translate(554 1376) rotate(90)" fill="#fb405f"/>
    </g>
    <path id="Trazado_808277" data-name="Trazado 808277" d="M5.039-4.164H3.18L2.453,0H.164L2.141-11.375l3.766.008a4.289,4.289,0,0,1,2.91.891A2.817,2.817,0,0,1,9.719-8a3.574,3.574,0,0,1-2.5,3.258L8.82-.125V0H6.383Zm-1.531-1.9,1.7.016a2.386,2.386,0,0,0,1.5-.488A1.933,1.933,0,0,0,7.414-7.82a1.473,1.473,0,0,0-.242-1.187,1.442,1.442,0,0,0-1.117-.461L4.1-9.477ZM14.023.156a3.677,3.677,0,0,1-1.965-.543,3.292,3.292,0,0,1-1.277-1.469,4.093,4.093,0,0,1-.328-2.059l.023-.312A5.465,5.465,0,0,1,11.2-6.492a4.341,4.341,0,0,1,1.547-1.59,3.827,3.827,0,0,1,2.094-.527,2.924,2.924,0,0,1,2.473,1.2,4.117,4.117,0,0,1,.637,2.962l-.125.962h-5.18a1.814,1.814,0,0,0,.4,1.313,1.521,1.521,0,0,0,1.172.508A2.7,2.7,0,0,0,16.32-2.6l1.008,1.25A3.135,3.135,0,0,1,15.953-.23,4.5,4.5,0,0,1,14.023.156Zm.7-6.945a1.565,1.565,0,0,0-1.082.383A3.363,3.363,0,0,0,12.8-5.023h3.031l.047-.2a2.071,2.071,0,0,0,.008-.594,1.134,1.134,0,0,0-.383-.707A1.2,1.2,0,0,0,14.727-6.789Zm8.648,4.406q.125-.625-.867-.906l-.711-.18q-2.523-.7-2.453-2.453A2.428,2.428,0,0,1,20.4-7.871a3.942,3.942,0,0,1,2.457-.738,3.536,3.536,0,0,1,2.313.758,2.5,2.5,0,0,1,.9,1.977l-2.187-.008a.963.963,0,0,0-1.078-1.1,1.551,1.551,0,0,0-.895.258,1.061,1.061,0,0,0-.465.7q-.117.625.945.883l.313.07a6.285,6.285,0,0,1,1.648.59,2.488,2.488,0,0,1,.879.824,2.04,2.04,0,0,1,.285,1.18A2.251,2.251,0,0,1,25-1.078a3.18,3.18,0,0,1-1.359.93,4.736,4.736,0,0,1-1.816.3,3.568,3.568,0,0,1-2.344-.809A2.607,2.607,0,0,1,18.523-2.7l2.078.016a1.142,1.142,0,0,0,1.3,1.227,1.845,1.845,0,0,0,1-.25A.987.987,0,0,0,23.375-2.383ZM34.648-4.2a6.981,6.981,0,0,1-.7,2.359,3.826,3.826,0,0,1-1.32,1.531,3.058,3.058,0,0,1-1.75.477A2.44,2.44,0,0,1,28.945-.75l-.773,4h-2.2l2.023-11.7,2.031-.008-.148.852a2.7,2.7,0,0,1,2.156-1,2.4,2.4,0,0,1,1.93.9A3.922,3.922,0,0,1,34.7-5.344,9.132,9.132,0,0,1,34.648-4.2Zm-2.187-.16.047-.751A2.089,2.089,0,0,0,32.23-6.32a1,1,0,0,0-.855-.462,1.818,1.818,0,0,0-1.586.814l-.633,3.49a1.233,1.233,0,0,0,1.242.822,1.59,1.59,0,0,0,1.328-.618A4.234,4.234,0,0,0,32.461-4.364ZM40.18-8.609a3.39,3.39,0,0,1,1.926.574A3.234,3.234,0,0,1,43.293-6.5a4.762,4.762,0,0,1,.27,2.176,5.143,5.143,0,0,1-1.4,3.262A3.96,3.96,0,0,1,39.141.156,3.38,3.38,0,0,1,37.234-.41a3.222,3.222,0,0,1-1.187-1.527,4.657,4.657,0,0,1-.273-2.156A5.3,5.3,0,0,1,37.2-7.422,3.878,3.878,0,0,1,40.18-8.609ZM37.953-3.294A1.95,1.95,0,0,0,38.3-2.113a1.168,1.168,0,0,0,.945.449A1.712,1.712,0,0,0,40.844-2.6a4.647,4.647,0,0,0,.539-2.531,2.122,2.122,0,0,0-.363-1.2,1.149,1.149,0,0,0-.949-.464,1.715,1.715,0,0,0-1.574.924A4.6,4.6,0,0,0,37.953-3.294ZM47.68-8.461l-.187,1a3.042,3.042,0,0,1,2.461-1.148,2.028,2.028,0,0,1,1.766.875,3.526,3.526,0,0,1,.414,2.359L51.242,0h-2.2l.906-5.4a2.528,2.528,0,0,0,.016-.555.9.9,0,0,0-1-.82,1.9,1.9,0,0,0-1.555.8L46.352,0h-2.2l1.469-8.453ZM57.867-2.383q.125-.625-.867-.906l-.711-.18q-2.523-.7-2.453-2.453a2.428,2.428,0,0,1,1.059-1.949,3.942,3.942,0,0,1,2.457-.738,3.536,3.536,0,0,1,2.313.758,2.5,2.5,0,0,1,.9,1.977l-2.187-.008a.963.963,0,0,0-1.078-1.1,1.552,1.552,0,0,0-.895.258,1.061,1.061,0,0,0-.465.7q-.117.625.945.883l.313.07a6.285,6.285,0,0,1,1.648.59,2.488,2.488,0,0,1,.879.824,2.04,2.04,0,0,1,.285,1.18,2.251,2.251,0,0,1-.52,1.406,3.18,3.18,0,0,1-1.359.93,4.736,4.736,0,0,1-1.816.3,3.568,3.568,0,0,1-2.344-.809A2.607,2.607,0,0,1,53.016-2.7l2.078.016a1.142,1.142,0,0,0,1.3,1.227,1.845,1.845,0,0,0,1-.25A.987.987,0,0,0,57.867-2.383ZM63.352,0H61.133L62.6-8.453H64.82Zm-.492-10.6a1.1,1.1,0,0,1,.344-.867,1.209,1.209,0,0,1,.867-.344,1.215,1.215,0,0,1,.867.3,1.1,1.1,0,0,1,.383.828A1.132,1.132,0,0,1,65-9.836a1.215,1.215,0,0,1-.887.375,1.235,1.235,0,0,1-.863-.3A1.091,1.091,0,0,1,62.859-10.6Zm5.914,7.813L71.18-8.453h2.375L69.469,0H67.359L65.914-8.453h2.234ZM77.156.156a3.677,3.677,0,0,1-1.965-.543,3.292,3.292,0,0,1-1.277-1.469,4.093,4.093,0,0,1-.328-2.059l.023-.312a5.465,5.465,0,0,1,.719-2.266,4.341,4.341,0,0,1,1.547-1.59,3.827,3.827,0,0,1,2.094-.527,2.924,2.924,0,0,1,2.473,1.2,4.117,4.117,0,0,1,.637,2.962l-.125.962h-5.18a1.814,1.814,0,0,0,.4,1.313,1.521,1.521,0,0,0,1.172.508A2.7,2.7,0,0,0,79.453-2.6l1.008,1.25A3.135,3.135,0,0,1,79.086-.23,4.5,4.5,0,0,1,77.156.156Zm.7-6.945a1.565,1.565,0,0,0-1.082.383,3.363,3.363,0,0,0-.848,1.383h3.031l.047-.2a2.071,2.071,0,0,0,.008-.594,1.134,1.134,0,0,0-.383-.707A1.2,1.2,0,0,0,77.859-6.789ZM94.867-3.3l2.742-8.07h2.336L95.719,0h-2.3l-.6-7.578L89.836,0h-2.3l-.672-11.375h2.234l.227,8.031,3.063-8.031h1.945ZM103.219.156a3.677,3.677,0,0,1-1.965-.543,3.292,3.292,0,0,1-1.277-1.469,4.093,4.093,0,0,1-.328-2.059l.023-.312a5.465,5.465,0,0,1,.719-2.266,4.341,4.341,0,0,1,1.547-1.59,3.827,3.827,0,0,1,2.094-.527,2.924,2.924,0,0,1,2.473,1.2,4.117,4.117,0,0,1,.637,2.962l-.125.962h-5.18a1.814,1.814,0,0,0,.4,1.313,1.521,1.521,0,0,0,1.172.508,2.7,2.7,0,0,0,2.109-.937l1.008,1.25A3.135,3.135,0,0,1,105.148-.23,4.5,4.5,0,0,1,103.219.156Zm.7-6.945a1.565,1.565,0,0,0-1.082.383,3.363,3.363,0,0,0-.848,1.383h3.031l.047-.2a2.071,2.071,0,0,0,.008-.594,1.134,1.134,0,0,0-.383-.707A1.2,1.2,0,0,0,103.922-6.789ZM115.8-4.2A6.061,6.061,0,0,1,114.578-1,3.033,3.033,0,0,1,112.031.164,2.357,2.357,0,0,1,110-.914L109.68,0h-2.008l2.078-12h2.211l-.852,4.32a2.634,2.634,0,0,1,2.063-.93,2.385,2.385,0,0,1,1.926.879,3.89,3.89,0,0,1,.746,2.387A9.133,9.133,0,0,1,115.8-4.2Zm-2.187-.165a6.554,6.554,0,0,0,.047-1.034q-.086-1.364-1.125-1.387a1.833,1.833,0,0,0-1.617.885l-.609,3.37a1.258,1.258,0,0,0,1.266.878q1.625.047,1.992-2.367ZM120.57,0l1.977-11.375,3.266.008a4.473,4.473,0,0,1,2.066.52,3.905,3.905,0,0,1,1.488,1.426,4.883,4.883,0,0,1,.688,2.094,6.911,6.911,0,0,1-.016,1.391l-.055.414a6.5,6.5,0,0,1-1.965,4.012A5.558,5.558,0,0,1,124.086,0Zm3.938-9.477-1.32,7.594.953.008a3.127,3.127,0,0,0,2.535-1.156,5.976,5.976,0,0,0,1.1-3.492l.016-.25A3.151,3.151,0,0,0,127.3-8.75a1.879,1.879,0,0,0-1.539-.719Zm10.1,9.633a3.677,3.677,0,0,1-1.965-.543,3.292,3.292,0,0,1-1.277-1.469,4.093,4.093,0,0,1-.328-2.059l.023-.312a5.465,5.465,0,0,1,.719-2.266,4.341,4.341,0,0,1,1.547-1.59,3.827,3.827,0,0,1,2.094-.527,2.924,2.924,0,0,1,2.473,1.2,4.117,4.117,0,0,1,.637,2.962l-.125.962h-5.18a1.814,1.814,0,0,0,.4,1.313,1.521,1.521,0,0,0,1.172.508,2.7,2.7,0,0,0,2.109-.937l1.008,1.25A3.135,3.135,0,0,1,136.539-.23,4.5,4.5,0,0,1,134.609.156Zm.7-6.945a1.565,1.565,0,0,0-1.082.383,3.363,3.363,0,0,0-.848,1.383h3.031l.047-.2a2.071,2.071,0,0,0,.008-.594,1.134,1.134,0,0,0-.383-.707A1.2,1.2,0,0,0,135.313-6.789Zm8.648,4.406q.125-.625-.867-.906l-.711-.18q-2.523-.7-2.453-2.453a2.428,2.428,0,0,1,1.059-1.949,3.942,3.942,0,0,1,2.457-.738,3.536,3.536,0,0,1,2.313.758,2.5,2.5,0,0,1,.9,1.977l-2.187-.008a.963.963,0,0,0-1.078-1.1,1.552,1.552,0,0,0-.895.258,1.061,1.061,0,0,0-.465.7q-.117.625.945.883l.313.07a6.285,6.285,0,0,1,1.648.59,2.488,2.488,0,0,1,.879.824,2.04,2.04,0,0,1,.285,1.18,2.251,2.251,0,0,1-.52,1.406,3.18,3.18,0,0,1-1.359.93,4.736,4.736,0,0,1-1.816.3,3.568,3.568,0,0,1-2.344-.809,2.607,2.607,0,0,1-.953-2.051l2.078.016a1.142,1.142,0,0,0,1.3,1.227,1.845,1.845,0,0,0,1-.25A.987.987,0,0,0,143.961-2.383ZM149.445,0h-2.219L148.7-8.453h2.219Zm-.492-10.6a1.1,1.1,0,0,1,.344-.867,1.209,1.209,0,0,1,.867-.344,1.215,1.215,0,0,1,.867.3,1.1,1.1,0,0,1,.383.828,1.132,1.132,0,0,1-.324.844,1.215,1.215,0,0,1-.887.375,1.235,1.235,0,0,1-.863-.3A1.091,1.091,0,0,1,148.953-10.6Zm2.781,6.367a5.849,5.849,0,0,1,1.277-3.184,3.242,3.242,0,0,1,2.629-1.2,2.37,2.37,0,0,1,2.016.977l.289-.82,2.023.008L158.586-.289a3.983,3.983,0,0,1-1.437,2.672,4.471,4.471,0,0,1-3,.953,4.168,4.168,0,0,1-1.672-.379,3.575,3.575,0,0,1-1.312-1L152.258.617a2.349,2.349,0,0,0,1.844.961,2.166,2.166,0,0,0,1.469-.449A2.4,2.4,0,0,0,156.4-.227l.125-.508a2.749,2.749,0,0,1-2.07.891,2.428,2.428,0,0,1-1.961-.918,3.947,3.947,0,0,1-.8-2.348A7.889,7.889,0,0,1,151.734-4.234Zm2.164.927a2.02,2.02,0,0,0,.309,1.178,1.08,1.08,0,0,0,.895.466,1.972,1.972,0,0,0,1.594-.767l.656-3.583a1.3,1.3,0,0,0-1.242-.767,1.728,1.728,0,0,0-1.43.681,3.561,3.561,0,0,0-.734,1.87A8.216,8.216,0,0,0,153.9-3.307Zm9.836-5.154-.187,1a3.042,3.042,0,0,1,2.461-1.148,2.028,2.028,0,0,1,1.766.875,3.526,3.526,0,0,1,.414,2.359L167.3,0h-2.2L166-5.4a2.527,2.527,0,0,0,.016-.555.9.9,0,0,0-1-.82,1.9,1.9,0,0,0-1.555.8L162.406,0h-2.2l1.469-8.453Z" transform="translate(323 1354)" fill="#fb405f"/>
    <path id="Trazado_808278" data-name="Trazado 808278" d="M5.078-11.375l1.4,8.227,4.242-8.227h3.047L11.789,0h-2.3l.563-3.242L11.164-8.3,6.8,0H5.234L3.711-8.594l-.734,5.6L2.453,0H.164L2.141-11.375ZM18.531-8.609a3.39,3.39,0,0,1,1.926.574A3.234,3.234,0,0,1,21.645-6.5a4.762,4.762,0,0,1,.27,2.176,5.143,5.143,0,0,1-1.4,3.262A3.96,3.96,0,0,1,17.492.156,3.38,3.38,0,0,1,15.586-.41,3.222,3.222,0,0,1,14.4-1.937a4.657,4.657,0,0,1-.273-2.156,5.3,5.3,0,0,1,1.422-3.328A3.878,3.878,0,0,1,18.531-8.609ZM16.3-3.294a1.95,1.95,0,0,0,.352,1.182,1.168,1.168,0,0,0,.945.449A1.712,1.712,0,0,0,19.2-2.6a4.647,4.647,0,0,0,.539-2.531,2.122,2.122,0,0,0-.363-1.2,1.149,1.149,0,0,0-.949-.464,1.715,1.715,0,0,0-1.574.924A4.6,4.6,0,0,0,16.3-3.294ZM30.672-4.2A6.061,6.061,0,0,1,29.453-1,3.033,3.033,0,0,1,26.906.164,2.357,2.357,0,0,1,24.875-.914L24.555,0H22.547l2.078-12h2.211l-.852,4.32a2.634,2.634,0,0,1,2.063-.93,2.385,2.385,0,0,1,1.926.879,3.89,3.89,0,0,1,.746,2.387A9.133,9.133,0,0,1,30.672-4.2Zm-2.187-.165A6.554,6.554,0,0,0,28.531-5.4q-.086-1.364-1.125-1.387a1.833,1.833,0,0,0-1.617.885l-.609,3.37a1.258,1.258,0,0,0,1.266.878q1.625.047,1.992-2.367ZM33.688,0H31.469l1.469-8.453h2.219ZM33.2-10.6a1.1,1.1,0,0,1,.344-.867,1.209,1.209,0,0,1,.867-.344,1.215,1.215,0,0,1,.867.3,1.1,1.1,0,0,1,.383.828,1.132,1.132,0,0,1-.324.844,1.215,1.215,0,0,1-.887.375,1.235,1.235,0,0,1-.863-.3A1.091,1.091,0,0,1,33.2-10.6ZM37.883,0H35.664L37.75-12h2.211Zm5.883.156A3.677,3.677,0,0,1,41.8-.387a3.292,3.292,0,0,1-1.277-1.469A4.093,4.093,0,0,1,40.2-3.914l.023-.312a5.465,5.465,0,0,1,.719-2.266,4.341,4.341,0,0,1,1.547-1.59,3.827,3.827,0,0,1,2.094-.527,2.924,2.924,0,0,1,2.473,1.2,4.117,4.117,0,0,1,.637,2.962l-.125.962h-5.18a1.814,1.814,0,0,0,.4,1.313,1.521,1.521,0,0,0,1.172.508A2.7,2.7,0,0,0,46.063-2.6l1.008,1.25A3.135,3.135,0,0,1,45.7-.23,4.5,4.5,0,0,1,43.766.156Zm.7-6.945a1.565,1.565,0,0,0-1.082.383,3.363,3.363,0,0,0-.848,1.383H45.57l.047-.2a2.071,2.071,0,0,0,.008-.594,1.134,1.134,0,0,0-.383-.707A1.2,1.2,0,0,0,44.469-6.789Zm15.3,2.141H55.406L54.594,0H52.3l1.977-11.375h7.2l-.336,1.9H56.242l-.516,2.938H60.1ZM63.07,0H60.852L62.32-8.453h2.219Zm-.492-10.6a1.1,1.1,0,0,1,.344-.867,1.209,1.209,0,0,1,.867-.344,1.215,1.215,0,0,1,.867.3,1.1,1.1,0,0,1,.383.828,1.132,1.132,0,0,1-.324.844,1.215,1.215,0,0,1-.887.375,1.235,1.235,0,0,1-.863-.3A1.091,1.091,0,0,1,62.578-10.6Zm8.148,4.266a4.548,4.548,0,0,0-.742-.078,2.136,2.136,0,0,0-1.867.883L67.141,0h-2.2l1.469-8.453,2.07-.008-.2,1.031a2.325,2.325,0,0,1,1.969-1.2,3.214,3.214,0,0,1,.766.109Zm4.852,3.953q.125-.625-.867-.906L74-3.469q-2.523-.7-2.453-2.453a2.428,2.428,0,0,1,1.059-1.949,3.942,3.942,0,0,1,2.457-.738,3.536,3.536,0,0,1,2.313.758,2.5,2.5,0,0,1,.9,1.977l-2.187-.008a.963.963,0,0,0-1.078-1.1,1.551,1.551,0,0,0-.895.258,1.061,1.061,0,0,0-.465.7q-.117.625.945.883l.313.07a6.285,6.285,0,0,1,1.648.59,2.488,2.488,0,0,1,.879.824,2.04,2.04,0,0,1,.285,1.18,2.251,2.251,0,0,1-.52,1.406,3.18,3.18,0,0,1-1.359.93,4.736,4.736,0,0,1-1.816.3A3.568,3.568,0,0,1,71.68-.652,2.607,2.607,0,0,1,70.727-2.7l2.078.016a1.142,1.142,0,0,0,1.3,1.227,1.845,1.845,0,0,0,1-.25A.987.987,0,0,0,75.578-2.383ZM83.2-10.531l-.367,2.078h1.406L83.953-6.8H82.547l-.719,4.234a1.077,1.077,0,0,0,.063.609q.109.211.531.227.125.008.672-.039L82.938-.039a3.706,3.706,0,0,1-1.266.18,1.985,1.985,0,0,1-1.617-.68,2.456,2.456,0,0,1-.437-1.8L80.344-6.8h-1.2l.289-1.656h1.2l.359-2.078ZM97.313-3.3l2.742-8.07h2.336L98.164,0h-2.3l-.6-7.578L92.281,0h-2.3L89.3-11.375h2.234l.227,8.031,3.063-8.031h1.945ZM105.664.156A3.677,3.677,0,0,1,103.7-.387a3.292,3.292,0,0,1-1.277-1.469,4.093,4.093,0,0,1-.328-2.059l.023-.312a5.465,5.465,0,0,1,.719-2.266,4.341,4.341,0,0,1,1.547-1.59,3.827,3.827,0,0,1,2.094-.527,2.924,2.924,0,0,1,2.473,1.2,4.117,4.117,0,0,1,.637,2.962l-.125.962h-5.18a1.814,1.814,0,0,0,.4,1.313,1.521,1.521,0,0,0,1.172.508,2.7,2.7,0,0,0,2.109-.937l1.008,1.25A3.135,3.135,0,0,1,107.594-.23,4.5,4.5,0,0,1,105.664.156Zm.7-6.945a1.565,1.565,0,0,0-1.082.383,3.363,3.363,0,0,0-.848,1.383h3.031l.047-.2a2.071,2.071,0,0,0,.008-.594,1.134,1.134,0,0,0-.383-.707A1.2,1.2,0,0,0,106.367-6.789ZM118.242-4.2A6.061,6.061,0,0,1,117.023-1,3.033,3.033,0,0,1,114.477.164a2.357,2.357,0,0,1-2.031-1.078l-.32.914h-2.008L112.2-12h2.211l-.852,4.32a2.634,2.634,0,0,1,2.063-.93,2.385,2.385,0,0,1,1.926.879,3.89,3.89,0,0,1,.746,2.387A9.133,9.133,0,0,1,118.242-4.2Zm-2.187-.165A6.554,6.554,0,0,0,116.1-5.4q-.086-1.364-1.125-1.387a1.833,1.833,0,0,0-1.617.885l-.609,3.37a1.258,1.258,0,0,0,1.266.878q1.625.047,1.992-2.367ZM123.016,0l1.977-11.375,3.266.008a4.473,4.473,0,0,1,2.066.52,3.905,3.905,0,0,1,1.488,1.426,4.883,4.883,0,0,1,.688,2.094,6.911,6.911,0,0,1-.016,1.391l-.055.414a6.5,6.5,0,0,1-1.965,4.012A5.558,5.558,0,0,1,126.531,0Zm3.938-9.477-1.32,7.594.953.008a3.127,3.127,0,0,0,2.535-1.156,5.976,5.976,0,0,0,1.1-3.492l.016-.25a3.151,3.151,0,0,0-.492-1.977,1.879,1.879,0,0,0-1.539-.719Zm10.1,9.633a3.677,3.677,0,0,1-1.965-.543,3.292,3.292,0,0,1-1.277-1.469,4.093,4.093,0,0,1-.328-2.059l.023-.312a5.465,5.465,0,0,1,.719-2.266,4.341,4.341,0,0,1,1.547-1.59,3.827,3.827,0,0,1,2.094-.527,2.924,2.924,0,0,1,2.473,1.2,4.117,4.117,0,0,1,.637,2.962l-.125.962h-5.18a1.814,1.814,0,0,0,.4,1.313,1.521,1.521,0,0,0,1.172.508,2.7,2.7,0,0,0,2.109-.937l1.008,1.25A3.135,3.135,0,0,1,138.984-.23,4.5,4.5,0,0,1,137.055.156Zm.7-6.945a1.565,1.565,0,0,0-1.082.383,3.363,3.363,0,0,0-.848,1.383h3.031l.047-.2a2.071,2.071,0,0,0,.008-.594,1.134,1.134,0,0,0-.383-.707A1.2,1.2,0,0,0,137.758-6.789Zm8.648,4.406q.125-.625-.867-.906l-.711-.18q-2.523-.7-2.453-2.453a2.428,2.428,0,0,1,1.059-1.949,3.942,3.942,0,0,1,2.457-.738,3.536,3.536,0,0,1,2.313.758,2.5,2.5,0,0,1,.9,1.977l-2.187-.008a.963.963,0,0,0-1.078-1.1,1.552,1.552,0,0,0-.895.258,1.061,1.061,0,0,0-.465.7q-.117.625.945.883l.313.07a6.285,6.285,0,0,1,1.648.59,2.488,2.488,0,0,1,.879.824,2.04,2.04,0,0,1,.285,1.18,2.251,2.251,0,0,1-.52,1.406,3.18,3.18,0,0,1-1.359.93,4.736,4.736,0,0,1-1.816.3,3.568,3.568,0,0,1-2.344-.809,2.607,2.607,0,0,1-.953-2.051l2.078.016a1.142,1.142,0,0,0,1.3,1.227,1.845,1.845,0,0,0,1-.25A.987.987,0,0,0,146.406-2.383ZM151.891,0h-2.219l1.469-8.453h2.219ZM151.4-10.6a1.1,1.1,0,0,1,.344-.867,1.209,1.209,0,0,1,.867-.344,1.215,1.215,0,0,1,.867.3,1.1,1.1,0,0,1,.383.828,1.132,1.132,0,0,1-.324.844,1.215,1.215,0,0,1-.887.375,1.235,1.235,0,0,1-.863-.3A1.091,1.091,0,0,1,151.4-10.6Zm2.781,6.367a5.849,5.849,0,0,1,1.277-3.184,3.242,3.242,0,0,1,2.629-1.2,2.37,2.37,0,0,1,2.016.977l.289-.82,2.023.008L161.031-.289a3.983,3.983,0,0,1-1.437,2.672,4.471,4.471,0,0,1-3,.953,4.168,4.168,0,0,1-1.672-.379,3.575,3.575,0,0,1-1.312-1L154.7.617a2.349,2.349,0,0,0,1.844.961,2.166,2.166,0,0,0,1.469-.449,2.4,2.4,0,0,0,.828-1.355l.125-.508a2.749,2.749,0,0,1-2.07.891,2.428,2.428,0,0,1-1.961-.918,3.947,3.947,0,0,1-.8-2.348A7.889,7.889,0,0,1,154.18-4.234Zm2.164.927a2.02,2.02,0,0,0,.309,1.178,1.08,1.08,0,0,0,.895.466,1.972,1.972,0,0,0,1.594-.767l.656-3.583a1.3,1.3,0,0,0-1.242-.767,1.728,1.728,0,0,0-1.43.681,3.561,3.561,0,0,0-.734,1.87A8.216,8.216,0,0,0,156.344-3.307Zm9.836-5.154-.187,1a3.042,3.042,0,0,1,2.461-1.148,2.028,2.028,0,0,1,1.766.875,3.526,3.526,0,0,1,.414,2.359L169.742,0h-2.2l.906-5.4a2.527,2.527,0,0,0,.016-.555.9.9,0,0,0-1-.82,1.9,1.9,0,0,0-1.555.8L164.852,0h-2.2l1.469-8.453Z" transform="translate(323 1647)" fill="#fb405f"/>
    <line id="Línea_2000" data-name="Línea 2000" x2="820" transform="translate(390 1592)" fill="none" stroke="#4be5f1" stroke-linecap="round" stroke-width="10"/>
  </g>
</svg>
