<svg xmlns="http://www.w3.org/2000/svg" xmlns:xlink="http://www.w3.org/1999/xlink" width="1320" height="506" viewBox="0 0 1320 506">
  <defs>
    <radialGradient id="radial-gradient" cx="0.696" cy="0.438" r="0.653" gradientTransform="matrix(0.16, -0.987, 0.415, 0.067, 0.403, 1.096)" gradientUnits="objectBoundingBox">
      <stop offset="0" stop-color="#793ec4"/>
      <stop offset="1" stop-color="#44226f"/>
    </radialGradient>
    <clipPath id="clip-path">
      <rect id="Rectángulo_375104" data-name="Rectángulo 375104" width="1320" height="506" rx="20" transform="translate(140.333 81)" fill="#451484"/>
    </clipPath>
  </defs>
  <g id="Grupo_1067576" data-name="Grupo 1067576" transform="translate(-140.333 -81)">
    <rect id="Rectángulo_373412" data-name="Rectángulo 373412" width="1320" height="506" rx="20" transform="translate(140.333 81)" fill="url(#radial-gradient)"/>
    <g id="Enmascarar_grupo_2" data-name="Enmascarar grupo 2" clip-path="url(#clip-path)">
      <g id="Grupo_1066133" data-name="Grupo 1066133" transform="translate(-4.291 -2)">
        <path id="Trazado_802082" data-name="Trazado 802082" d="M760.624,0V508H0l45.424-7.519a201.619,201.619,0,0,0,63.137-21.588,86.766,86.766,0,0,0,29.127-17.17A99.759,99.759,0,0,0,148.171,450.4a181.519,181.519,0,0,0,26.452-30.888,37.178,37.178,0,0,1,7.752-8.585c.407-.31.814-.6,1.24-.893,24.728-16.645,58.117-11.7,85.926-22.516,27.576-10.717,47.924-38.043,50.288-67.536,2.19-27.286-9.748-54.61-5.329-81.6,4.477-27.5,27.363-51.025,54.746-56.238,13.895-2.655,28.332-.969,42.3-3.159a77.618,77.618,0,0,0,51.567-32.692c12.131-17.867,18.41-42.421,38.428-50.54,19.65-7.965,41.742,4.748,62.827,2.6,20.445-2.074,36.936-17.809,48.292-34.94C624,46.3,632.006,26.956,645.029,11.065A103.291,103.291,0,0,1,655.513,0Z" transform="translate(705 81)" fill="#fff9e2"/>
        <path id="Trazado_802083" data-name="Trazado 802083" d="M760.624,0V5.891c-38.39,8.585-74.59,22.809-102.088,50.191-23.933,23.8-41.587,57.575-74.008,66.993-21.278,6.182-47.517,1.3-62.923,17.228-4.554,4.69-7.48,10.7-10.755,16.356a132.542,132.542,0,0,1-85.713,62.3c-16.86,3.6-35.6,4.418-48.564,15.774-13.275,11.627-16.433,31.123-15.329,48.738s5.581,35.134,4.07,52.711c-3.837,44.63-48.234,78.814-93,80.19-18.391.562-37.673-3.217-54.668,3.856-22.6,9.416-32.654,33.681-41.859,54.552A188.289,188.289,0,0,1,157.183,508H0l45.424-7.519a201.619,201.619,0,0,0,63.137-21.588A191.634,191.634,0,0,0,148.171,450.4a181.519,181.519,0,0,0,26.452-30.888,37.178,37.178,0,0,1,7.752-8.585c.407-.31.814-.6,1.24-.893,24.728-16.645,58.117-11.7,85.926-22.516,27.576-10.717,47.924-38.043,50.288-67.536,2.19-27.286-9.748-54.61-5.329-81.6,4.477-27.5,27.363-51.025,54.746-56.238,13.895-2.655,28.332-.969,42.3-3.159a77.618,77.618,0,0,0,51.567-32.692c12.131-17.867,18.41-42.421,38.428-50.54,19.65-7.965,41.742,4.748,62.827,2.6,20.445-2.074,36.936-17.809,48.292-34.94C624,46.3,632.006,26.956,645.029,11.065A103.291,103.291,0,0,1,655.513,0Z" transform="translate(705 81)" fill="#ffda47"/>
      </g>
      <g id="Grupo_1066134" data-name="Grupo 1066134" transform="translate(1285 451) rotate(180)">
        <path id="Trazado_802082-2" data-name="Trazado 802082" d="M760.624,0V508H0l45.424-7.519a201.619,201.619,0,0,0,63.137-21.588,86.766,86.766,0,0,0,29.127-17.17A99.759,99.759,0,0,0,148.171,450.4a181.519,181.519,0,0,0,26.452-30.888,37.178,37.178,0,0,1,7.752-8.585c.407-.31.814-.6,1.24-.893,24.728-16.645,58.117-11.7,85.926-22.516,27.576-10.717,47.924-38.043,50.288-67.536,2.19-27.286-9.748-54.61-5.329-81.6,4.477-27.5,27.363-51.025,54.746-56.238,13.895-2.655,28.332-.969,42.3-3.159a77.618,77.618,0,0,0,51.567-32.692c12.131-17.867,18.41-42.421,38.428-50.54,19.65-7.965,41.742,4.748,62.827,2.6,20.445-2.074,36.936-17.809,48.292-34.94C624,46.3,632.006,26.956,645.029,11.065A103.291,103.291,0,0,1,655.513,0Z" transform="translate(705 81)" fill="#dffdff"/>
        <path id="Trazado_802083-2" data-name="Trazado 802083" d="M760.624,0V5.891c-38.39,8.585-74.59,22.809-102.088,50.191-23.933,23.8-41.587,57.575-74.008,66.993-21.278,6.182-47.517,1.3-62.923,17.228-4.554,4.69-7.48,10.7-10.755,16.356a132.542,132.542,0,0,1-85.713,62.3c-16.86,3.6-35.6,4.418-48.564,15.774-13.275,11.627-16.433,31.123-15.329,48.738s5.581,35.134,4.07,52.711c-3.837,44.63-48.234,78.814-93,80.19-18.391.562-37.673-3.217-54.668,3.856-22.6,9.416-32.654,33.681-41.859,54.552A188.289,188.289,0,0,1,157.183,508H0l45.424-7.519a201.619,201.619,0,0,0,63.137-21.588A191.634,191.634,0,0,0,148.171,450.4a181.519,181.519,0,0,0,26.452-30.888,37.178,37.178,0,0,1,7.752-8.585c.407-.31.814-.6,1.24-.893,24.728-16.645,58.117-11.7,85.926-22.516,27.576-10.717,47.924-38.043,50.288-67.536,2.19-27.286-9.748-54.61-5.329-81.6,4.477-27.5,27.363-51.025,54.746-56.238,13.895-2.655,28.332-.969,42.3-3.159a77.618,77.618,0,0,0,51.567-32.692c12.131-17.867,18.41-42.421,38.428-50.54,19.65-7.965,41.742,4.748,62.827,2.6,20.445-2.074,36.936-17.809,48.292-34.94C624,46.3,632.006,26.956,645.029,11.065A103.291,103.291,0,0,1,655.513,0Z" transform="translate(705 81)" fill="#4be5f1"/>
      </g>
    </g>
    <g id="Grupo_1066128" data-name="Grupo 1066128" transform="translate(-486.273 -406.109) rotate(20)">
      <line id="Línea_1676" data-name="Línea 1676" y2="18.865" transform="translate(854.184 251.5)" fill="none" stroke="#fb405f" stroke-width="5"/>
      <line id="Línea_1677" data-name="Línea 1677" x2="18.243" transform="translate(844.666 261.451)" fill="none" stroke="#fb405f" stroke-width="5"/>
    </g>
  </g>
</svg>
