<svg xmlns="http://www.w3.org/2000/svg" xmlns:xlink="http://www.w3.org/1999/xlink" width="1240" height="499" viewBox="0 0 1240 499">
  <defs>
    <clipPath id="clip-path">
      <rect id="Rectángulo_375112" data-name="Rectángulo 375112" width="1240" height="499" rx="10" transform="translate(44 70)" fill="#451484"/>
    </clipPath>
  </defs>
  <g id="Grupo_1067418" data-name="Grupo 1067418" transform="translate(-180 -9404)">
    <rect id="Rectángulo_4750" data-name="Rectángulo 4750" width="1240" height="499" rx="10" transform="translate(180 9404)" fill="#4be5f1" opacity="0.1"/>
    <g id="Enmascarar_grupo_4" data-name="Enmascarar grupo 4" transform="translate(136 9334)" clip-path="url(#clip-path)">
      <g id="Grupo_1066152" data-name="Grupo 1066152" transform="translate(639 90.795)">
        <path id="Trazado_802090" data-name="Trazado 802090" d="M778.534,0V519.962H0l46.494-7.7a206.367,206.367,0,0,0,64.623-22.1,88.809,88.809,0,0,0,29.812-17.574,102.107,102.107,0,0,0,10.731-11.586,185.793,185.793,0,0,0,27.075-31.615,38.053,38.053,0,0,1,7.934-8.787c.417-.317.833-.615,1.269-.914,25.31-17.037,59.486-11.978,87.95-23.047,28.226-10.969,49.053-38.939,51.473-69.126,2.241-27.928-9.977-55.9-5.455-83.526,4.582-28.146,28.007-52.226,56.035-57.562,14.222-2.717,29-.992,43.3-3.233a79.446,79.446,0,0,0,52.782-33.462c12.417-18.288,18.844-43.419,39.333-51.73,20.113-8.152,42.725,4.86,64.306,2.658,20.926-2.122,37.806-18.229,49.43-35.763,11.6-17.515,19.8-37.31,33.125-53.575A105.72,105.72,0,0,1,670.948,0Z" fill="#e9fdff"/>
        <path id="Trazado_802091" data-name="Trazado 802091" d="M778.534,0V6.03C739.24,14.817,702.188,29.376,674.042,57.4c-24.5,24.358-42.566,58.931-75.751,68.57-21.779,6.327-48.636,1.329-64.405,17.634-4.661,4.8-7.656,10.949-11.009,16.741a135.663,135.663,0,0,1-87.731,63.77c-17.257,3.689-36.437,4.522-49.707,16.146-13.587,11.9-16.82,31.855-15.69,49.886s5.713,35.961,4.165,53.952c-3.927,45.681-49.37,80.67-95.189,82.078-18.824.575-38.56-3.293-55.955,3.947-23.128,9.638-33.422,34.474-42.844,55.836a192.725,192.725,0,0,1-19.042,34H0l46.494-7.7a206.367,206.367,0,0,0,64.623-22.1,196.146,196.146,0,0,0,40.543-29.16,185.793,185.793,0,0,0,27.075-31.615,38.053,38.053,0,0,1,7.934-8.787c.417-.317.833-.615,1.269-.914,25.31-17.037,59.486-11.978,87.95-23.047,28.226-10.969,49.053-38.939,51.473-69.126,2.241-27.928-9.977-55.9-5.455-83.526,4.582-28.146,28.007-52.226,56.035-57.562,14.222-2.717,29-.992,43.3-3.233a79.446,79.446,0,0,0,52.782-33.462c12.417-18.288,18.844-43.419,39.333-51.73,20.113-8.152,42.725,4.86,64.306,2.658,20.926-2.122,37.806-18.229,49.43-35.763,11.6-17.515,19.8-37.31,33.125-53.575A105.72,105.72,0,0,1,670.948,0Z" fill="#4be5f1"/>
      </g>
      <g id="Grupo_1066153" data-name="Grupo 1066153" transform="translate(398.814 333.018) rotate(180)">
        <path id="Trazado_802092" data-name="Trazado 802092" d="M631.1,0V421.492H0l37.689-6.239a167.286,167.286,0,0,0,52.385-17.912A71.991,71.991,0,0,0,114.241,383.1a82.769,82.769,0,0,0,8.7-9.392,150.607,150.607,0,0,0,21.948-25.628,30.847,30.847,0,0,1,6.432-7.123c.338-.257.675-.5,1.029-.741,20.517-13.81,48.221-9.71,71.294-18.682,22.88-8.892,39.763-31.564,41.725-56.035,1.817-22.639-8.088-45.31-4.422-67.708,3.714-22.816,22.7-42.336,45.423-46.661,11.529-2.2,23.507-.8,35.1-2.621a64.4,64.4,0,0,0,42.786-27.125c10.065-14.825,15.275-35.2,31.884-41.934,16.3-6.608,34.634,3.939,52.128,2.155,16.963-1.72,30.646-14.776,40.069-28.99,9.406-14.2,16.047-30.244,26.852-43.429A85.7,85.7,0,0,1,543.884,0Z" transform="translate(0)" fill="#dffdff"/>
        <path id="Trazado_802093" data-name="Trazado 802093" d="M631.1,0V4.888c-31.852,7.123-61.888,18.925-84.7,41.644-19.857,19.745-34.505,47.77-61.405,55.585-17.655,5.129-39.425,1.077-52.208,14.294-3.779,3.891-6.207,8.876-8.924,13.571a109.971,109.971,0,0,1-71.117,51.694c-13.989,2.991-29.537,3.666-40.294,13.088-11.014,9.647-13.635,25.823-12.718,40.438s4.631,29.151,3.377,43.735c-3.184,37.03-40.02,65.393-77.163,66.534-15.259.466-31.257-2.669-45.359,3.2-18.748,7.813-27.093,27.945-34.73,45.262a156.226,156.226,0,0,1-15.436,27.559H0l37.689-6.239a167.286,167.286,0,0,0,52.385-17.912A159,159,0,0,0,122.939,373.7a150.607,150.607,0,0,0,21.948-25.628,30.847,30.847,0,0,1,6.432-7.123c.338-.257.675-.5,1.029-.741,20.517-13.81,48.221-9.71,71.294-18.682,22.88-8.892,39.763-31.564,41.725-56.035,1.817-22.639-8.088-45.31-4.422-67.708,3.714-22.816,22.7-42.336,45.423-46.661,11.529-2.2,23.507-.8,35.1-2.621a64.4,64.4,0,0,0,42.786-27.125c10.065-14.825,15.275-35.2,31.884-41.934,16.3-6.608,34.634,3.939,52.128,2.155,16.963-1.72,30.646-14.776,40.069-28.99,9.406-14.2,16.047-30.244,26.852-43.429A85.7,85.7,0,0,1,543.884,0Z" transform="translate(0)" fill="#4be5f1"/>
      </g>
      <g id="Grupo_1066154" data-name="Grupo 1066154" transform="translate(114.776 485.057) rotate(20)">
        <line id="Línea_1678" data-name="Línea 1678" y2="15.653" transform="translate(7.897 0)" fill="none" stroke="#4be5f1" stroke-width="5"/>
        <line id="Línea_1679" data-name="Línea 1679" x2="15.137" transform="translate(0 8.256)" fill="none" stroke="#4be5f1" stroke-width="5"/>
      </g>
      <ellipse id="Elipse_1143" data-name="Elipse 1143" cx="24.5" cy="25" rx="24.5" ry="25" transform="translate(59 495)" fill="#fb405f"/>
      <circle id="Elipse_1144" data-name="Elipse 1144" cx="12" cy="12" r="12" transform="translate(1219 521)" fill="#4be5f1"/>
      <path id="Unión_5" data-name="Unión 5" d="M30.45,19.524c-5.324.68-10.65,1.969-12.227-4.985a5.513,5.513,0,0,0-4.4-4.564L11.638,16.6,0,3.556,17.119,0,15.151,5.96c2.8.817,6.74,2.483,8.2,5.616,2.365,5.081,6.7,2.4,10.647,2.163s7.495,6.119,7.495,10.24l-4.928,2.076S35.777,18.844,30.45,19.524Z" transform="translate(1199 484.999)" fill="#ffda47" stroke="rgba(0,0,0,0)" stroke-miterlimit="10" stroke-width="1"/>
      <g id="Grupo_1066155" data-name="Grupo 1066155" transform="translate(167.686 95.817) rotate(20)">
        <line id="Línea_1680" data-name="Línea 1680" y2="15.653" transform="translate(7.897 0)" fill="none" stroke="#fb405f" stroke-width="5"/>
        <line id="Línea_1681" data-name="Línea 1681" x2="15.137" transform="translate(0 8.256)" fill="none" stroke="#fb405f" stroke-width="5"/>
      </g>
      <g id="Grupo_1066156" data-name="Grupo 1066156" transform="translate(1238.354 465.114) rotate(20)">
        <line id="Línea_1682" data-name="Línea 1682" y2="15.653" transform="translate(7.897 0)" fill="none" stroke="#fb405f" stroke-width="5"/>
        <line id="Línea_1683" data-name="Línea 1683" x2="15.137" transform="translate(0 8.256)" fill="none" stroke="#fb405f" stroke-width="5"/>
      </g>
      <circle id="Elipse_1145" data-name="Elipse 1145" cx="4" cy="4" r="4" transform="translate(145 96)" fill="#4be5f1"/>
    </g>
  </g>
</svg>
