<svg xmlns="http://www.w3.org/2000/svg" xmlns:xlink="http://www.w3.org/1999/xlink" width="1600" height="220" viewBox="0 0 1600 220">
  <defs>
    <clipPath id="clip-path">
      <rect id="Rectángulo_375105" data-name="Rectángulo 375105" width="1600" height="220" transform="translate(0 70)" fill="#451484"/>
    </clipPath>
  </defs>
  <g id="Grupo_1067576" data-name="Grupo 1067576" transform="translate(0 -70)">
    <rect id="Rectángulo_373428" data-name="Rectángulo 373428" width="1600" height="220" transform="translate(0 70)" fill="#451484"/>
    <g id="Enmascarar_grupo_3" data-name="Enmascarar grupo 3" clip-path="url(#clip-path)">
      <g id="Grupo_1066135" data-name="Grupo 1066135" transform="translate(313 -35.352)">
        <path id="Trazado_802084" data-name="Trazado 802084" d="M582,0V388.7H0l34.757-5.753a154.271,154.271,0,0,0,48.31-16.518,66.39,66.39,0,0,0,22.287-13.138,76.33,76.33,0,0,0,8.022-8.661A138.891,138.891,0,0,0,133.615,321a28.447,28.447,0,0,1,5.931-6.569c.311-.237.623-.46.949-.684,18.921-12.736,44.469-8.955,65.747-17.229,21.1-8.2,36.67-29.109,38.479-51.676,1.676-20.878-7.459-41.785-4.078-62.441,3.425-21.041,20.937-39.042,41.889-43.031,10.632-2.031,21.679-.741,32.37-2.417a59.39,59.39,0,0,0,39.457-25.015c9.282-13.671,14.087-32.459,29.4-38.671,15.036-6.094,31.94,3.633,48.072,1.987,15.644-1.587,28.262-13.627,36.951-26.735s14.8-27.892,24.763-40.051A79.033,79.033,0,0,1,501.573,0Z" transform="translate(705 81)" fill="#fff9e2"/>
        <path id="Trazado_802085" data-name="Trazado 802085" d="M582,0V4.508c-29.374,6.569-57.073,17.453-78.114,38.4-18.313,18.209-31.821,44.054-56.628,51.26-16.281,4.73-36.358.993-48.147,13.182-3.485,3.588-5.724,8.185-8.23,12.515A101.416,101.416,0,0,1,325.3,167.542c-12.9,2.758-27.239,3.381-37.159,12.07-10.157,8.9-12.574,23.814-11.729,37.292s4.27,26.883,3.114,40.332c-2.936,34.149-36.907,60.306-71.16,61.358-14.072.43-28.826-2.461-41.83,2.951-17.289,7.2-24.985,25.771-32.029,41.741A144.072,144.072,0,0,1,120.27,388.7H0l34.757-5.753a154.271,154.271,0,0,0,48.31-16.518,146.631,146.631,0,0,0,30.308-21.8A138.891,138.891,0,0,0,133.615,321a28.447,28.447,0,0,1,5.931-6.569c.311-.237.623-.46.949-.684,18.921-12.736,44.469-8.955,65.747-17.229,21.1-8.2,36.67-29.109,38.479-51.676,1.676-20.878-7.459-41.785-4.078-62.441,3.425-21.041,20.937-39.042,41.889-43.031,10.632-2.031,21.679-.741,32.37-2.417a59.39,59.39,0,0,0,39.457-25.015c9.282-13.671,14.087-32.459,29.4-38.671,15.036-6.094,31.94,3.633,48.072,1.987,15.644-1.587,28.262-13.627,36.951-26.735s14.8-27.892,24.763-40.051A79.033,79.033,0,0,1,501.573,0Z" transform="translate(705 81)" fill="#ffda47"/>
      </g>
      <g id="Grupo_1066136" data-name="Grupo 1066136" transform="translate(1185.667 468) rotate(180)">
        <path id="Trazado_802086" data-name="Trazado 802086" d="M760.624,0V508H0l45.424-7.519a201.619,201.619,0,0,0,63.137-21.588,86.766,86.766,0,0,0,29.127-17.17A99.759,99.759,0,0,0,148.171,450.4a181.519,181.519,0,0,0,26.452-30.888,37.178,37.178,0,0,1,7.752-8.585c.407-.31.814-.6,1.24-.893,24.728-16.645,58.117-11.7,85.926-22.516,27.576-10.717,47.924-38.043,50.288-67.536,2.19-27.286-9.748-54.61-5.329-81.6,4.477-27.5,27.363-51.025,54.746-56.238,13.895-2.655,28.332-.969,42.3-3.159a77.618,77.618,0,0,0,51.567-32.692c12.131-17.867,18.41-42.421,38.428-50.54,19.65-7.965,41.742,4.748,62.827,2.6,20.445-2.074,36.936-17.809,48.292-34.94C624,46.3,632.006,26.956,645.029,11.065A103.291,103.291,0,0,1,655.513,0Z" transform="translate(705 81)" fill="#dffdff"/>
        <path id="Trazado_802087" data-name="Trazado 802087" d="M760.624,0V5.891c-38.39,8.585-74.59,22.809-102.088,50.191-23.933,23.8-41.587,57.575-74.008,66.993-21.278,6.182-47.517,1.3-62.923,17.228-4.554,4.69-7.48,10.7-10.755,16.356a132.542,132.542,0,0,1-85.713,62.3c-16.86,3.6-35.6,4.418-48.564,15.774-13.275,11.627-16.433,31.123-15.329,48.738s5.581,35.134,4.07,52.711c-3.837,44.63-48.234,78.814-93,80.19-18.391.562-37.673-3.217-54.668,3.856-22.6,9.416-32.654,33.681-41.859,54.552A188.289,188.289,0,0,1,157.183,508H0l45.424-7.519a201.619,201.619,0,0,0,63.137-21.588A191.634,191.634,0,0,0,148.171,450.4a181.519,181.519,0,0,0,26.452-30.888,37.178,37.178,0,0,1,7.752-8.585c.407-.31.814-.6,1.24-.893,24.728-16.645,58.117-11.7,85.926-22.516,27.576-10.717,47.924-38.043,50.288-67.536,2.19-27.286-9.748-54.61-5.329-81.6,4.477-27.5,27.363-51.025,54.746-56.238,13.895-2.655,28.332-.969,42.3-3.159a77.618,77.618,0,0,0,51.567-32.692c12.131-17.867,18.41-42.421,38.428-50.54,19.65-7.965,41.742,4.748,62.827,2.6,20.445-2.074,36.936-17.809,48.292-34.94C624,46.3,632.006,26.956,645.029,11.065A103.291,103.291,0,0,1,655.513,0Z" transform="translate(705 81)" fill="#4be5f1"/>
      </g>
      <g id="Grupo_1066137" data-name="Grupo 1066137" transform="translate(-341.606 -49.109) rotate(20)">
        <line id="Línea_1676" data-name="Línea 1676" y2="18.865" transform="translate(854.184 251.5)" fill="none" stroke="#4be5f1" stroke-width="5"/>
        <line id="Línea_1677" data-name="Línea 1677" x2="18.243" transform="translate(844.666 261.451)" fill="none" stroke="#4be5f1" stroke-width="5"/>
      </g>
      <circle id="Elipse_19" data-name="Elipse 19" cx="30" cy="30" r="30" transform="translate(107 247)" fill="#fb405f"/>
      <circle id="Elipse_20" data-name="Elipse 20" cx="15" cy="15" r="15" transform="translate(1490 98)" fill="#4be5f1"/>
      <path id="Unión_4" data-name="Unión 4" d="M12796.033,11723.531c-6.416.819-12.836,2.372-14.736-6.009a6.643,6.643,0,0,0-5.3-5.5l-2.637,7.988-14.026-15.726,20.632-4.286-2.371,7.184c3.378.984,8.123,2.992,9.885,6.769,2.851,6.124,8.081,2.894,12.833,2.607s9.033,7.374,9.033,12.341l-5.94,2.5S12802.453,11722.712,12796.033,11723.531Z" transform="translate(-11488.004 -11561)" fill="#ffda47" stroke="rgba(0,0,0,0)" stroke-miterlimit="10" stroke-width="1"/>
      <g id="Grupo_1066137-2" data-name="Grupo 1066137" transform="translate(-505.606 -424.109) rotate(20)">
        <line id="Línea_1676-2" data-name="Línea 1676" y2="18.865" transform="translate(854.184 251.5)" fill="none" stroke="#fb405f" stroke-width="5"/>
        <line id="Línea_1677-2" data-name="Línea 1677" x2="18.243" transform="translate(844.666 261.451)" fill="none" stroke="#fb405f" stroke-width="5"/>
      </g>
      <g id="Grupo_1066138" data-name="Grupo 1066138" transform="translate(563.735 -419.227) rotate(20)">
        <line id="Línea_1676-3" data-name="Línea 1676" y2="18.865" transform="translate(854.184 251.5)" fill="none" stroke="#fb405f" stroke-width="5"/>
        <line id="Línea_1677-3" data-name="Línea 1677" x2="18.243" transform="translate(844.666 261.451)" fill="none" stroke="#fb405f" stroke-width="5"/>
      </g>
      <circle id="Elipse_19-2" data-name="Elipse 19" cx="5" cy="5" r="5" transform="translate(174 101)" fill="#4be5f1"/>
    </g>
  </g>
</svg>
