<svg xmlns="http://www.w3.org/2000/svg" width="200.499" height="82.477" viewBox="0 0 200.499 82.477">
  <g id="Grupo_1067577" data-name="Grupo 1067577" transform="translate(-518.245 -592)">
    <path id="Trazado_808277" data-name="Trazado 808277" d="M11.013-10.415H7.172V0H4.087V-10.415H.316V-12.8h10.7ZM19.978-3.9l.958-5.607h2.839L21.533,0h-2.5L17.455-5.643,15.873,0h-2.5L11.127-9.51h2.839l.94,5.739L16.418-9.51h2.065ZM27.958,0H24.987V-9.51h2.971ZM24.812-11.971a1.334,1.334,0,0,1,.457-1.043,1.718,1.718,0,0,1,1.187-.407,1.718,1.718,0,0,1,1.187.407,1.334,1.334,0,0,1,.457,1.043,1.334,1.334,0,0,1-.457,1.043,1.718,1.718,0,0,1-1.187.407,1.718,1.718,0,0,1-1.187-.407A1.334,1.334,0,0,1,24.812-11.971Zm8.42.1V-9.51H34.8v2.057H33.231V-3.1a1.111,1.111,0,0,0,.193.747,1.037,1.037,0,0,0,.765.211,4.345,4.345,0,0,0,.738-.053V-.079a5.466,5.466,0,0,1-1.67.255A3.1,3.1,0,0,1,31-.545a2.954,2.954,0,0,1-.729-2.188v-4.72H29.057V-9.51H30.27v-2.364Zm6.179,0V-9.51h1.564v2.057H39.41V-3.1a1.111,1.111,0,0,0,.193.747,1.037,1.037,0,0,0,.765.211,4.345,4.345,0,0,0,.738-.053V-.079a5.466,5.466,0,0,1-1.67.255,3.1,3.1,0,0,1-2.259-.721,2.954,2.954,0,0,1-.729-2.188v-4.72H35.235V-9.51h1.213v-2.364ZM46.74.176A4.889,4.889,0,0,1,43.2-1.129a4.507,4.507,0,0,1-1.354-3.4v-.246a5.84,5.84,0,0,1,.541-2.575,3.955,3.955,0,0,1,1.578-1.727,4.763,4.763,0,0,1,2.461-.611,4.117,4.117,0,0,1,3.164,1.244,4.887,4.887,0,0,1,1.16,3.467v1.151H44.859a2.135,2.135,0,0,0,.694,1.257,2.066,2.066,0,0,0,1.389.457,2.662,2.662,0,0,0,2.2-.984l1.354,1.6A3.784,3.784,0,0,1,48.924-.277,5.3,5.3,0,0,1,46.74.176ZM46.406-7.4q-1.3,0-1.547,1.723h2.988v-.229a1.467,1.467,0,0,0-.36-1.1A1.434,1.434,0,0,0,46.406-7.4Zm11.285.571-.976-.07a1.752,1.752,0,0,0-1.793.879V0H51.961V-9.51h2.777l.1,1.222a2.294,2.294,0,0,1,2.083-1.4,2.888,2.888,0,0,1,.826.105Z" transform="translate(661 639)" fill="#12263f"/>
    <path id="twitter" d="M101.51,57.764A43.388,43.388,0,0,1,89.519,61.05a20.694,20.694,0,0,0,9.155-11.5,41.589,41.589,0,0,1-13.2,5.037,20.809,20.809,0,0,0-36,14.23,21.428,21.428,0,0,0,.482,4.746A58.9,58.9,0,0,1,7.068,51.794a20.816,20.816,0,0,0,6.4,27.814,20.552,20.552,0,0,1-9.4-2.563v.228A20.906,20.906,0,0,0,20.733,97.721a20.77,20.77,0,0,1-5.456.685,18.4,18.4,0,0,1-3.94-.355,21.008,21.008,0,0,0,19.445,14.5,41.815,41.815,0,0,1-25.8,8.876A38.978,38.978,0,0,1,0,121.138a58.587,58.587,0,0,0,31.925,9.339c38.295,0,59.231-31.722,59.231-59.218,0-.92-.032-1.808-.076-2.69A41.516,41.516,0,0,0,101.51,57.764Z" transform="translate(518.245 544)" fill="#03a9f4"/>
  </g>
</svg>
