<svg xmlns="http://www.w3.org/2000/svg" width="1030" height="260" viewBox="0 0 1030 260">
  <g id="Grupo_1067550" data-name="Grupo 1067550" transform="translate(5007 -2885)">
    <rect id="Rectángulo_376216" data-name="Rectángulo 376216" width="1030" height="260" rx="20" transform="translate(-5007 2885)" fill="#fff"/>
    <rect id="Rectángulo_376204" data-name="Rectángulo 376204" width="206" height="54" rx="10" transform="translate(-4746 2935)" fill="#451484"/>
    <rect id="Rectángulo_376206" data-name="Rectángulo 376206" width="206" height="54" rx="10" transform="translate(-4746 3029)" fill="#451484"/>
    <rect id="Rectángulo_376205" data-name="Rectángulo 376205" width="206" height="54" rx="10" transform="translate(-4277 2935)" fill="#451484"/>
    <rect id="Rectángulo_376207" data-name="Rectángulo 376207" width="206" height="54" rx="10" transform="translate(-4277 3029)" fill="#451484"/>
    <path id="Trazado_808304" data-name="Trazado 808304" d="M-24.219-1.016a2.145,2.145,0,0,0,1.367-.441,2.1,2.1,0,0,0,.8-1.2l1.336-.008a3.014,3.014,0,0,1-.637,1.453A3.553,3.553,0,0,1-22.664-.187a3.551,3.551,0,0,1-1.617.344,3.017,3.017,0,0,1-1.785-.551,3.084,3.084,0,0,1-1.074-1.492,4.972,4.972,0,0,1-.234-2.152l.039-.391a5.605,5.605,0,0,1,.711-2.18,4.11,4.11,0,0,1,1.469-1.5,3.648,3.648,0,0,1,2-.5,2.857,2.857,0,0,1,2.125.891,3.08,3.08,0,0,1,.8,2.18l-1.32-.008a2.029,2.029,0,0,0-.461-1.34,1.607,1.607,0,0,0-1.2-.543,2.254,2.254,0,0,0-1.832.82,4.3,4.3,0,0,0-.91,2.359l-.023.2A6.776,6.776,0,0,0-26-3.016a2.355,2.355,0,0,0,.516,1.445A1.656,1.656,0,0,0-24.219-1.016Zm9.328-7.594a3.047,3.047,0,0,1,1.82.578A3.285,3.285,0,0,1-11.949-6.48,4.8,4.8,0,0,1-11.7-4.32l-.016.172a5.685,5.685,0,0,1-.734,2.23A4.309,4.309,0,0,1-13.969-.367a3.7,3.7,0,0,1-2.039.523,3.052,3.052,0,0,1-1.816-.578,3.21,3.21,0,0,1-1.113-1.531,4.931,4.931,0,0,1-.25-2.133,5.76,5.76,0,0,1,.711-2.359,4.409,4.409,0,0,1,1.527-1.621A3.652,3.652,0,0,1-14.891-8.609Zm-2.875,4.531a4.8,4.8,0,0,0,0,1.023,2.507,2.507,0,0,0,.551,1.469,1.653,1.653,0,0,0,1.262.57,2.253,2.253,0,0,0,1.3-.348,2.919,2.919,0,0,0,1-1.121,4.721,4.721,0,0,0,.523-1.664,7.494,7.494,0,0,0,.023-1.211,2.6,2.6,0,0,0-.57-1.492,1.69,1.69,0,0,0-1.266-.578A2.3,2.3,0,0,0-16.8-6.57a4.245,4.245,0,0,0-.945,2.313Zm9.914-4.383-.2,1.07A3.333,3.333,0,0,1-5.461-8.609,2.1,2.1,0,0,1-3.7-7.781a3.217,3.217,0,0,1,.422,2.242L-4.2,0H-5.609l.93-5.557a2.962,2.962,0,0,0,.008-.71A1.168,1.168,0,0,0-5.961-7.383,2.661,2.661,0,0,0-8.2-6.025L-9.242,0h-1.414l1.469-8.453Zm8.641,0-.2,1.07A3.333,3.333,0,0,1,3.18-8.609a2.1,2.1,0,0,1,1.766.828,3.217,3.217,0,0,1,.422,2.242L4.445,0H3.031l.93-5.557a2.962,2.962,0,0,0,.008-.71A1.168,1.168,0,0,0,2.68-7.383,2.661,2.661,0,0,0,.445-6.025L-.6,0H-2.016L-.547-8.453ZM10.281.156A3.048,3.048,0,0,1,7.813-1.008a4.006,4.006,0,0,1-.75-2.9L7.1-4.242a5.624,5.624,0,0,1,.746-2.3,4.339,4.339,0,0,1,1.5-1.566,3.491,3.491,0,0,1,1.906-.5,2.688,2.688,0,0,1,2.047.867,3.566,3.566,0,0,1,.813,2.266,6.621,6.621,0,0,1-.031,1.016l-.086.648H8.469a2.856,2.856,0,0,0,.379,1.953,1.8,1.8,0,0,0,1.551.836,3.007,3.007,0,0,0,2.313-1.125l.813.688a3.718,3.718,0,0,1-1.371,1.2A3.886,3.886,0,0,1,10.281.156Zm.9-7.586a2.066,2.066,0,0,0-1.527.594A4.22,4.22,0,0,0,8.617-5l4.109.008.031-.125a2.313,2.313,0,0,0-.316-1.637A1.488,1.488,0,0,0,11.18-7.43Zm7.313,6.414a2.145,2.145,0,0,0,1.367-.441,2.1,2.1,0,0,0,.8-1.2l1.336-.008a3.014,3.014,0,0,1-.637,1.453A3.553,3.553,0,0,1,20.047-.187,3.551,3.551,0,0,1,18.43.156a3.017,3.017,0,0,1-1.785-.551A3.084,3.084,0,0,1,15.57-1.887a4.972,4.972,0,0,1-.234-2.152l.039-.391a5.605,5.605,0,0,1,.711-2.18,4.11,4.11,0,0,1,1.469-1.5,3.648,3.648,0,0,1,2-.5,2.857,2.857,0,0,1,2.125.891,3.08,3.08,0,0,1,.8,2.18l-1.32-.008a2.029,2.029,0,0,0-.461-1.34,1.607,1.607,0,0,0-1.2-.543,2.254,2.254,0,0,0-1.832.82,4.3,4.3,0,0,0-.91,2.359l-.023.2a6.776,6.776,0,0,0-.016,1.031,2.355,2.355,0,0,0,.516,1.445A1.656,1.656,0,0,0,18.492-1.016ZM26.859-10.5,26.5-8.453h1.539l-.2,1.117H26.313L25.43-2.078a1.833,1.833,0,0,0-.008.375.6.6,0,0,0,.664.609,4.05,4.05,0,0,0,.688-.078L26.664.008a3.847,3.847,0,0,1-1.031.141,1.476,1.476,0,0,1-1.266-.621A2.4,2.4,0,0,1,24.039-2.1L24.9-7.336H23.406l.2-1.117h1.492l.359-2.047Z" transform="translate(-4408 2931)" fill="#12263f"/>
    <path id="Trazado_808309" data-name="Trazado 808309" d="M-72.215-2.289q.117-.875-.961-1.234l-1.469-.43q-1.859-.641-1.8-2.125a2.341,2.341,0,0,1,1.02-1.832,3.631,3.631,0,0,1,2.27-.7,3.027,3.027,0,0,1,2.082.746,2.363,2.363,0,0,1,.77,1.9l-1.406-.008A1.319,1.319,0,0,0-72.105-7a1.576,1.576,0,0,0-1.1-.414,2.059,2.059,0,0,0-1.266.359,1.316,1.316,0,0,0-.57.922q-.1.734.9,1.07l.711.2a4.577,4.577,0,0,1,2.063.977A1.865,1.865,0,0,1-70.809-2.4a2.37,2.37,0,0,1-.516,1.375,2.948,2.948,0,0,1-1.25.895,4.18,4.18,0,0,1-1.664.285,3.3,3.3,0,0,1-2.219-.785,2.427,2.427,0,0,1-.844-1.98l1.414.008a1.5,1.5,0,0,0,.453,1.141,1.732,1.732,0,0,0,1.242.43,2.436,2.436,0,0,0,1.336-.324A1.247,1.247,0,0,0-72.215-2.289Zm7.539-6.32a3.047,3.047,0,0,1,1.82.578A3.285,3.285,0,0,1-61.734-6.48a4.8,4.8,0,0,1,.246,2.16l-.016.172a5.685,5.685,0,0,1-.734,2.23A4.309,4.309,0,0,1-63.754-.367a3.7,3.7,0,0,1-2.039.523,3.052,3.052,0,0,1-1.816-.578,3.21,3.21,0,0,1-1.113-1.531,4.931,4.931,0,0,1-.25-2.133,5.76,5.76,0,0,1,.711-2.359,4.409,4.409,0,0,1,1.527-1.621A3.652,3.652,0,0,1-64.676-8.609Zm-2.875,4.531a4.8,4.8,0,0,0,0,1.023A2.507,2.507,0,0,0-67-1.586a1.653,1.653,0,0,0,1.262.57,2.253,2.253,0,0,0,1.3-.348,2.919,2.919,0,0,0,1-1.121,4.721,4.721,0,0,0,.523-1.664,7.494,7.494,0,0,0,.023-1.211,2.6,2.6,0,0,0-.57-1.492A1.69,1.69,0,0,0-64.73-7.43a2.3,2.3,0,0,0-1.859.859,4.245,4.245,0,0,0-.945,2.313Zm9.9-4.383-.18.945a3.305,3.305,0,0,1,2.57-1.094,2.608,2.608,0,0,1,1.363.367,1.8,1.8,0,0,1,.77.992,3.49,3.49,0,0,1,2.8-1.359,2.235,2.235,0,0,1,1.867.852,3.042,3.042,0,0,1,.445,2.2L-48.941,0h-1.406l.922-5.57a2.943,2.943,0,0,0,0-.742q-.148-1.062-1.391-1.086a2.136,2.136,0,0,0-1.4.48,2.222,2.222,0,0,0-.809,1.3L-53.988,0H-55.41l.938-5.562A1.786,1.786,0,0,0-54.734-6.9a1.377,1.377,0,0,0-1.129-.484,2.315,2.315,0,0,0-2.1,1.2L-59.035,0h-1.414l1.469-8.453ZM-43.105.156a3.048,3.048,0,0,1-2.469-1.164,4.006,4.006,0,0,1-.75-2.9l.039-.336a5.624,5.624,0,0,1,.746-2.3,4.339,4.339,0,0,1,1.5-1.566,3.491,3.491,0,0,1,1.906-.5,2.688,2.688,0,0,1,2.047.867,3.566,3.566,0,0,1,.813,2.266,6.621,6.621,0,0,1-.031,1.016l-.086.648h-5.523a2.856,2.856,0,0,0,.379,1.953,1.8,1.8,0,0,0,1.551.836,3.007,3.007,0,0,0,2.313-1.125l.813.688a3.718,3.718,0,0,1-1.371,1.2A3.886,3.886,0,0,1-43.105.156Zm.9-7.586a2.066,2.066,0,0,0-1.527.594A4.22,4.22,0,0,0-44.77-5l4.109.008.031-.125a2.313,2.313,0,0,0-.316-1.637A1.488,1.488,0,0,0-42.207-7.43Zm7.477-3.07-.359,2.047h1.539l-.2,1.117h-1.531l-.883,5.258a1.833,1.833,0,0,0-.008.375.6.6,0,0,0,.664.609,4.05,4.05,0,0,0,.688-.078l-.109,1.18a3.847,3.847,0,0,1-1.031.141,1.476,1.476,0,0,1-1.266-.621A2.4,2.4,0,0,1-37.551-2.1l.859-5.234h-1.492l.2-1.117H-36.5l.359-2.047Zm4.055,3.078A3.275,3.275,0,0,1-28.121-8.6a2.058,2.058,0,0,1,1.762.816,3.217,3.217,0,0,1,.426,2.246L-26.855,0H-28.27l.93-5.562a2.968,2.968,0,0,0,.008-.711,1.168,1.168,0,0,0-1.289-1.117,2.6,2.6,0,0,0-2.234,1.359L-31.9,0h-1.414l2.086-12h1.414ZM-23.16,0h-1.406L-23.1-8.453h1.406ZM-22-11.539a.774.774,0,0,1,.6.215.8.8,0,0,1,.238.605.849.849,0,0,1-.238.6.855.855,0,0,1-.6.25.779.779,0,0,1-.6-.211.764.764,0,0,1-.227-.594.886.886,0,0,1,.234-.609A.826.826,0,0,1-22-11.539Zm3.953,3.078-.2,1.07a3.333,3.333,0,0,1,2.594-1.219,2.1,2.1,0,0,1,1.766.828,3.217,3.217,0,0,1,.422,2.242L-14.387,0H-15.8l.93-5.557a2.962,2.962,0,0,0,.008-.71,1.168,1.168,0,0,0-1.289-1.116,2.661,2.661,0,0,0-2.234,1.358L-19.434,0h-1.414l1.469-8.453Zm6.25,4.219a6.889,6.889,0,0,1,.746-2.4A3.9,3.9,0,0,1-9.687-8.152a3.151,3.151,0,0,1,1.754-.465A2.6,2.6,0,0,1-5.715-7.508l.281-.945h1.3L-5.543-.18A4.113,4.113,0,0,1-6.855,2.41a3.7,3.7,0,0,1-2.68.926A3.8,3.8,0,0,1-11.18,2.93a3.127,3.127,0,0,1-1.238-1.07l.8-.867A2.419,2.419,0,0,0-9.59,2.156a2.425,2.425,0,0,0,1.707-.562A2.9,2.9,0,0,0-6.957-.094l.156-.75a3.2,3.2,0,0,1-2.414,1A2.486,2.486,0,0,1-10.586-.27a2.589,2.589,0,0,1-.9-1.164,4.759,4.759,0,0,1-.352-1.7A8.733,8.733,0,0,1-11.793-4.242Zm1.367.8a2.974,2.974,0,0,0,.387,1.728A1.461,1.461,0,0,0-8.8-1.07a2.561,2.561,0,0,0,2.18-1.241l.664-3.878a1.776,1.776,0,0,0-1.7-1.2,2.194,2.194,0,0,0-1.887.936A4.878,4.878,0,0,0-10.41-3.84ZM3.145-7.422A3.275,3.275,0,0,1,5.7-8.6a2.058,2.058,0,0,1,1.762.816,3.217,3.217,0,0,1,.426,2.246L6.965,0H5.551l.93-5.562a2.968,2.968,0,0,0,.008-.711A1.168,1.168,0,0,0,5.2-7.391,2.6,2.6,0,0,0,2.965-6.031L1.918,0H.5L2.59-12H4ZM14.3,0a1.894,1.894,0,0,1-.055-.445l.023-.445A3.465,3.465,0,0,1,11.8.156,2.526,2.526,0,0,1,9.984-.551a2.14,2.14,0,0,1-.637-1.73,2.6,2.6,0,0,1,1.176-2.1,5.005,5.005,0,0,1,2.887-.754l1.477.008L14.98-5.8A1.545,1.545,0,0,0,14.688-7a1.414,1.414,0,0,0-1.113-.457,2.181,2.181,0,0,0-1.285.355,1.513,1.513,0,0,0-.684.98l-1.422.008a2.266,2.266,0,0,1,.578-1.316,3.363,3.363,0,0,1,1.3-.891,4.215,4.215,0,0,1,1.648-.3,2.8,2.8,0,0,1,2.055.8,2.484,2.484,0,0,1,.617,2.043L15.7-1.586l-.039.6a2.949,2.949,0,0,0,.094.852L15.738,0ZM12.082-1.094a2.466,2.466,0,0,0,1.285-.324,3.254,3.254,0,0,0,1.043-.941l.3-1.742-1.07-.008a4.054,4.054,0,0,0-2.047.422,1.554,1.554,0,0,0-.8,1.2,1.21,1.21,0,0,0,.277.988A1.321,1.321,0,0,0,12.082-1.094ZM25.309-4.187a6.707,6.707,0,0,1-.7,2.32A3.949,3.949,0,0,1,23.277-.324a3.058,3.058,0,0,1-1.766.488,2.815,2.815,0,0,1-2.25-.992L18.5,3.25H17.09l2.031-11.7L20.4-8.461l-.156.945a3.207,3.207,0,0,1,2.508-1.094,2.358,2.358,0,0,1,1.9.9,3.954,3.954,0,0,1,.719,2.391,8.413,8.413,0,0,1-.039.969Zm-1.391-.16L23.957-5a2.969,2.969,0,0,0-.434-1.744,1.525,1.525,0,0,0-1.254-.636A2.508,2.508,0,0,0,20.152-6.22l-.711,4.05a1.769,1.769,0,0,0,1.711,1.155,2.224,2.224,0,0,0,1.793-.823A4.777,4.777,0,0,0,23.918-4.348Zm10.18.16a6.707,6.707,0,0,1-.7,2.32A3.949,3.949,0,0,1,32.066-.324,3.058,3.058,0,0,1,30.3.164a2.815,2.815,0,0,1-2.25-.992L27.293,3.25H25.879l2.031-11.7,1.281-.008-.156.945a3.207,3.207,0,0,1,2.508-1.094,2.358,2.358,0,0,1,1.9.9A3.954,3.954,0,0,1,34.16-5.32a8.413,8.413,0,0,1-.039.969Zm-1.391-.16L32.746-5a2.969,2.969,0,0,0-.434-1.744,1.525,1.525,0,0,0-1.254-.636A2.508,2.508,0,0,0,28.941-6.22L28.23-2.17a1.769,1.769,0,0,0,1.711,1.155,2.224,2.224,0,0,0,1.793-.823A4.777,4.777,0,0,0,32.707-4.348Zm6.18,4.5a3.048,3.048,0,0,1-2.469-1.164,4.006,4.006,0,0,1-.75-2.9l.039-.336a5.624,5.624,0,0,1,.746-2.3,4.339,4.339,0,0,1,1.5-1.566,3.491,3.491,0,0,1,1.906-.5,2.688,2.688,0,0,1,2.047.867,3.566,3.566,0,0,1,.813,2.266,6.621,6.621,0,0,1-.031,1.016l-.086.648H37.074a2.856,2.856,0,0,0,.379,1.953A1.8,1.8,0,0,0,39-1.023a3.007,3.007,0,0,0,2.313-1.125l.813.688a3.718,3.718,0,0,1-1.371,1.2A3.886,3.886,0,0,1,38.887.156Zm.9-7.586a2.066,2.066,0,0,0-1.527.594A4.22,4.22,0,0,0,37.223-5l4.109.008.031-.125a2.313,2.313,0,0,0-.316-1.637A1.488,1.488,0,0,0,39.785-7.43Zm6.547-1.031-.2,1.07a3.333,3.333,0,0,1,2.594-1.219,2.1,2.1,0,0,1,1.766.828,3.217,3.217,0,0,1,.422,2.242L49.988,0H48.574l.93-5.557a2.962,2.962,0,0,0,.008-.71,1.168,1.168,0,0,0-1.289-1.116,2.661,2.661,0,0,0-2.234,1.358L44.941,0H43.527L45-8.453Zm8.641,0-.2,1.07a3.333,3.333,0,0,1,2.594-1.219,2.1,2.1,0,0,1,1.766.828,3.217,3.217,0,0,1,.422,2.242L58.629,0H57.215l.93-5.557a2.962,2.962,0,0,0,.008-.71,1.168,1.168,0,0,0-1.289-1.116,2.661,2.661,0,0,0-2.234,1.358L53.582,0H52.168l1.469-8.453ZM64.465.156A3.048,3.048,0,0,1,62-1.008a4.006,4.006,0,0,1-.75-2.9l.039-.336a5.624,5.624,0,0,1,.746-2.3,4.339,4.339,0,0,1,1.5-1.566,3.491,3.491,0,0,1,1.906-.5,2.688,2.688,0,0,1,2.047.867,3.566,3.566,0,0,1,.813,2.266,6.62,6.62,0,0,1-.031,1.016l-.086.648H62.652a2.856,2.856,0,0,0,.379,1.953,1.8,1.8,0,0,0,1.551.836,3.007,3.007,0,0,0,2.313-1.125l.813.688a3.718,3.718,0,0,1-1.371,1.2A3.886,3.886,0,0,1,64.465.156Zm.9-7.586a2.066,2.066,0,0,0-1.527.594A4.22,4.22,0,0,0,62.8-5l4.109.008.031-.125a2.313,2.313,0,0,0-.316-1.637A1.488,1.488,0,0,0,65.363-7.43Zm4.148,3.188a6.578,6.578,0,0,1,.711-2.328A4.03,4.03,0,0,1,71.59-8.125a3.127,3.127,0,0,1,1.789-.492,2.64,2.64,0,0,1,2.172,1.031L76.363-12h1.414L75.7,0H74.41l.148-.906A3.116,3.116,0,0,1,72.09.156a2.335,2.335,0,0,1-1.867-.918,4,4,0,0,1-.75-2.379A7.6,7.6,0,0,1,69.512-4.242Zm1.359.808a2.929,2.929,0,0,0,.4,1.732A1.437,1.437,0,0,0,72.5-1.07,2.554,2.554,0,0,0,74.684-2.3l.672-3.9a1.754,1.754,0,0,0-1.7-1.186,2.143,2.143,0,0,0-1.473.5,3.256,3.256,0,0,0-.969,1.475A6.082,6.082,0,0,0,70.871-3.435Z" transform="translate(-4408 3071)" fill="#12263f"/>
    <path id="Trazado_808307" data-name="Trazado 808307" d="M-43.574,0a1.894,1.894,0,0,1-.055-.445l.023-.445A3.465,3.465,0,0,1-46.074.156a2.526,2.526,0,0,1-1.816-.707,2.14,2.14,0,0,1-.637-1.73,2.6,2.6,0,0,1,1.176-2.1,5.005,5.005,0,0,1,2.887-.754l1.477.008.094-.672A1.545,1.545,0,0,0-43.187-7,1.414,1.414,0,0,0-44.3-7.453a2.181,2.181,0,0,0-1.285.355,1.513,1.513,0,0,0-.684.98l-1.422.008a2.266,2.266,0,0,1,.578-1.316,3.363,3.363,0,0,1,1.3-.891,4.215,4.215,0,0,1,1.648-.3,2.8,2.8,0,0,1,2.055.8,2.484,2.484,0,0,1,.617,2.043l-.687,4.188-.039.6a2.949,2.949,0,0,0,.094.852L-42.137,0Zm-2.219-1.094a2.466,2.466,0,0,0,1.285-.324,3.254,3.254,0,0,0,1.043-.941l.3-1.742-1.07-.008a4.054,4.054,0,0,0-2.047.422,1.554,1.554,0,0,0-.8,1.2A1.21,1.21,0,0,0-46.8-1.5,1.321,1.321,0,0,0-45.793-1.094ZM-39.535,0l1.281-7.336h-1.3l.2-1.117h1.3l.141-1a3.318,3.318,0,0,1,.984-1.992,2.926,2.926,0,0,1,2.094-.734,4.884,4.884,0,0,1,1.008.134l-.172,1.187a4.636,4.636,0,0,0-.758-.094,1.614,1.614,0,0,0-1.191.456,2.073,2.073,0,0,0-.566,1.211l-.125.833h1.75l-.2,1.117h-1.75L-38.121,0Zm8.516-10.5-.359,2.047h1.539l-.2,1.117h-1.531l-.883,5.258a1.833,1.833,0,0,0-.008.375.6.6,0,0,0,.664.609,4.05,4.05,0,0,0,.688-.078l-.109,1.18a3.847,3.847,0,0,1-1.031.141,1.476,1.476,0,0,1-1.266-.621A2.4,2.4,0,0,1-33.84-2.1l.859-5.234h-1.492l.2-1.117h1.492l.359-2.047ZM-25.949.156a3.048,3.048,0,0,1-2.469-1.164,4.006,4.006,0,0,1-.75-2.9l.039-.336a5.624,5.624,0,0,1,.746-2.3,4.339,4.339,0,0,1,1.5-1.566,3.491,3.491,0,0,1,1.906-.5,2.688,2.688,0,0,1,2.047.867,3.566,3.566,0,0,1,.813,2.266,6.621,6.621,0,0,1-.031,1.016l-.086.648h-5.523a2.856,2.856,0,0,0,.379,1.953,1.8,1.8,0,0,0,1.551.836A3.007,3.007,0,0,0-23.52-2.148l.813.688a3.718,3.718,0,0,1-1.371,1.2A3.886,3.886,0,0,1-25.949.156Zm.9-7.586a2.066,2.066,0,0,0-1.527.594A4.22,4.22,0,0,0-27.613-5l4.109.008.031-.125a2.313,2.313,0,0,0-.316-1.637A1.488,1.488,0,0,0-25.051-7.43Zm9,.266-.664-.07a2.42,2.42,0,0,0-2.141,1.227L-19.895,0h-1.414l1.469-8.453,1.367-.008-.211.984a2.527,2.527,0,0,1,2.117-1.148,2.594,2.594,0,0,1,.672.117ZM-6.887,0a1.894,1.894,0,0,1-.055-.445l.023-.445A3.465,3.465,0,0,1-9.387.156,2.526,2.526,0,0,1-11.2-.551a2.14,2.14,0,0,1-.637-1.73,2.6,2.6,0,0,1,1.176-2.1,5.005,5.005,0,0,1,2.887-.754l1.477.008.094-.672A1.545,1.545,0,0,0-6.5-7a1.414,1.414,0,0,0-1.113-.457A2.181,2.181,0,0,0-8.9-7.1a1.513,1.513,0,0,0-.684.98L-11-6.109a2.266,2.266,0,0,1,.578-1.316,3.363,3.363,0,0,1,1.3-.891,4.215,4.215,0,0,1,1.648-.3,2.8,2.8,0,0,1,2.055.8A2.484,2.484,0,0,1-4.8-5.773l-.687,4.188-.039.6a2.949,2.949,0,0,0,.094.852L-5.449,0ZM-9.105-1.094A2.466,2.466,0,0,0-7.82-1.418a3.254,3.254,0,0,0,1.043-.941l.3-1.742-1.07-.008a4.054,4.054,0,0,0-2.047.422,1.554,1.554,0,0,0-.8,1.2,1.21,1.21,0,0,0,.277.988A1.321,1.321,0,0,0-9.105-1.094ZM7.973-2l2.7-6.453h1.461L8.277,0H7.129L6.254-6.391,3.207,0H2.059L1.145-8.453H2.5l.516,6.3,3-6.3H7.152Zm6.8-5.422A3.275,3.275,0,0,1,17.324-8.6a2.058,2.058,0,0,1,1.762.816,3.217,3.217,0,0,1,.426,2.246L18.59,0H17.176l.93-5.562a2.968,2.968,0,0,0,.008-.711,1.168,1.168,0,0,0-1.289-1.117A2.6,2.6,0,0,0,14.59-6.031L13.543,0H12.129l2.086-12h1.414ZM22.285,0H20.879l1.469-8.453h1.406Zm1.164-11.539a.774.774,0,0,1,.6.215.8.8,0,0,1,.238.605.849.849,0,0,1-.238.6.855.855,0,0,1-.6.25.779.779,0,0,1-.6-.211.764.764,0,0,1-.227-.594.886.886,0,0,1,.234-.609A.826.826,0,0,1,23.449-11.539ZM26.129,0H24.723L26.8-12h1.414ZM32.1.156a3.048,3.048,0,0,1-2.469-1.164,4.006,4.006,0,0,1-.75-2.9l.039-.336a5.624,5.624,0,0,1,.746-2.3,4.339,4.339,0,0,1,1.5-1.566,3.491,3.491,0,0,1,1.906-.5,2.688,2.688,0,0,1,2.047.867,3.566,3.566,0,0,1,.813,2.266,6.621,6.621,0,0,1-.031,1.016l-.086.648H30.285a2.856,2.856,0,0,0,.379,1.953,1.8,1.8,0,0,0,1.551.836,3.007,3.007,0,0,0,2.313-1.125l.813.688a3.718,3.718,0,0,1-1.371,1.2A3.886,3.886,0,0,1,32.1.156ZM33-7.43a2.066,2.066,0,0,0-1.527.594A4.22,4.22,0,0,0,30.434-5l4.109.008.031-.125a2.313,2.313,0,0,0-.316-1.637A1.488,1.488,0,0,0,33-7.43Zm4.781,5.789a.846.846,0,0,1,.633.234.807.807,0,0,1,.242.625.844.844,0,0,1-.258.621.929.929,0,0,1-.625.254.807.807,0,0,1-.617-.215.807.807,0,0,1-.242-.613.886.886,0,0,1,.242-.637A.878.878,0,0,1,37.777-1.641Zm4.164,0a.846.846,0,0,1,.633.234.807.807,0,0,1,.242.625.844.844,0,0,1-.258.621.929.929,0,0,1-.625.254.807.807,0,0,1-.617-.215.807.807,0,0,1-.242-.613.886.886,0,0,1,.242-.637A.878.878,0,0,1,41.941-1.641Zm4.164,0a.846.846,0,0,1,.633.234.807.807,0,0,1,.242.625.844.844,0,0,1-.258.621A.929.929,0,0,1,46.1.094a.807.807,0,0,1-.617-.215.807.807,0,0,1-.242-.613.886.886,0,0,1,.242-.637A.878.878,0,0,1,46.105-1.641Z" transform="translate(-4408 3015)" fill="#12263f"/>
    <path id="Trazado_808308" data-name="Trazado 808308" d="M-72.215-2.289q.117-.875-.961-1.234l-1.469-.43q-1.859-.641-1.8-2.125a2.341,2.341,0,0,1,1.02-1.832,3.631,3.631,0,0,1,2.27-.7,3.027,3.027,0,0,1,2.082.746,2.363,2.363,0,0,1,.77,1.9l-1.406-.008A1.319,1.319,0,0,0-72.105-7a1.576,1.576,0,0,0-1.1-.414,2.059,2.059,0,0,0-1.266.359,1.316,1.316,0,0,0-.57.922q-.1.734.9,1.07l.711.2a4.577,4.577,0,0,1,2.063.977A1.865,1.865,0,0,1-70.809-2.4a2.37,2.37,0,0,1-.516,1.375,2.948,2.948,0,0,1-1.25.895,4.18,4.18,0,0,1-1.664.285,3.3,3.3,0,0,1-2.219-.785,2.427,2.427,0,0,1-.844-1.98l1.414.008a1.5,1.5,0,0,0,.453,1.141,1.732,1.732,0,0,0,1.242.43,2.436,2.436,0,0,0,1.336-.324A1.247,1.247,0,0,0-72.215-2.289Zm7.539-6.32a3.047,3.047,0,0,1,1.82.578A3.285,3.285,0,0,1-61.734-6.48a4.8,4.8,0,0,1,.246,2.16l-.016.172a5.685,5.685,0,0,1-.734,2.23A4.309,4.309,0,0,1-63.754-.367a3.7,3.7,0,0,1-2.039.523,3.052,3.052,0,0,1-1.816-.578,3.21,3.21,0,0,1-1.113-1.531,4.931,4.931,0,0,1-.25-2.133,5.76,5.76,0,0,1,.711-2.359,4.409,4.409,0,0,1,1.527-1.621A3.652,3.652,0,0,1-64.676-8.609Zm-2.875,4.531a4.8,4.8,0,0,0,0,1.023A2.507,2.507,0,0,0-67-1.586a1.653,1.653,0,0,0,1.262.57,2.253,2.253,0,0,0,1.3-.348,2.919,2.919,0,0,0,1-1.121,4.721,4.721,0,0,0,.523-1.664,7.494,7.494,0,0,0,.023-1.211,2.6,2.6,0,0,0-.57-1.492A1.69,1.69,0,0,0-64.73-7.43a2.3,2.3,0,0,0-1.859.859,4.245,4.245,0,0,0-.945,2.313Zm9.9-4.383-.18.945a3.305,3.305,0,0,1,2.57-1.094,2.608,2.608,0,0,1,1.363.367,1.8,1.8,0,0,1,.77.992,3.49,3.49,0,0,1,2.8-1.359,2.235,2.235,0,0,1,1.867.852,3.042,3.042,0,0,1,.445,2.2L-48.941,0h-1.406l.922-5.57a2.943,2.943,0,0,0,0-.742q-.148-1.062-1.391-1.086a2.136,2.136,0,0,0-1.4.48,2.222,2.222,0,0,0-.809,1.3L-53.988,0H-55.41l.938-5.562A1.786,1.786,0,0,0-54.734-6.9a1.377,1.377,0,0,0-1.129-.484,2.315,2.315,0,0,0-2.1,1.2L-59.035,0h-1.414l1.469-8.453ZM-43.105.156a3.048,3.048,0,0,1-2.469-1.164,4.006,4.006,0,0,1-.75-2.9l.039-.336a5.624,5.624,0,0,1,.746-2.3,4.339,4.339,0,0,1,1.5-1.566,3.491,3.491,0,0,1,1.906-.5,2.688,2.688,0,0,1,2.047.867,3.566,3.566,0,0,1,.813,2.266,6.621,6.621,0,0,1-.031,1.016l-.086.648h-5.523a2.856,2.856,0,0,0,.379,1.953,1.8,1.8,0,0,0,1.551.836,3.007,3.007,0,0,0,2.313-1.125l.813.688a3.718,3.718,0,0,1-1.371,1.2A3.886,3.886,0,0,1-43.105.156Zm.9-7.586a2.066,2.066,0,0,0-1.527.594A4.22,4.22,0,0,0-44.77-5l4.109.008.031-.125a2.313,2.313,0,0,0-.316-1.637A1.488,1.488,0,0,0-42.207-7.43Zm7.477-3.07-.359,2.047h1.539l-.2,1.117h-1.531l-.883,5.258a1.833,1.833,0,0,0-.008.375.6.6,0,0,0,.664.609,4.05,4.05,0,0,0,.688-.078l-.109,1.18a3.847,3.847,0,0,1-1.031.141,1.476,1.476,0,0,1-1.266-.621A2.4,2.4,0,0,1-37.551-2.1l.859-5.234h-1.492l.2-1.117H-36.5l.359-2.047Zm4.055,3.078A3.275,3.275,0,0,1-28.121-8.6a2.058,2.058,0,0,1,1.762.816,3.217,3.217,0,0,1,.426,2.246L-26.855,0H-28.27l.93-5.562a2.968,2.968,0,0,0,.008-.711,1.168,1.168,0,0,0-1.289-1.117,2.6,2.6,0,0,0-2.234,1.359L-31.9,0h-1.414l2.086-12h1.414ZM-23.16,0h-1.406L-23.1-8.453h1.406ZM-22-11.539a.774.774,0,0,1,.6.215.8.8,0,0,1,.238.605.849.849,0,0,1-.238.6.855.855,0,0,1-.6.25.779.779,0,0,1-.6-.211.764.764,0,0,1-.227-.594.886.886,0,0,1,.234-.609A.826.826,0,0,1-22-11.539Zm3.953,3.078-.2,1.07a3.333,3.333,0,0,1,2.594-1.219,2.1,2.1,0,0,1,1.766.828,3.217,3.217,0,0,1,.422,2.242L-14.387,0H-15.8l.93-5.557a2.962,2.962,0,0,0,.008-.71,1.168,1.168,0,0,0-1.289-1.116,2.661,2.661,0,0,0-2.234,1.358L-19.434,0h-1.414l1.469-8.453Zm6.25,4.219a6.889,6.889,0,0,1,.746-2.4A3.9,3.9,0,0,1-9.687-8.152a3.151,3.151,0,0,1,1.754-.465A2.6,2.6,0,0,1-5.715-7.508l.281-.945h1.3L-5.543-.18A4.113,4.113,0,0,1-6.855,2.41a3.7,3.7,0,0,1-2.68.926A3.8,3.8,0,0,1-11.18,2.93a3.127,3.127,0,0,1-1.238-1.07l.8-.867A2.419,2.419,0,0,0-9.59,2.156a2.425,2.425,0,0,0,1.707-.562A2.9,2.9,0,0,0-6.957-.094l.156-.75a3.2,3.2,0,0,1-2.414,1A2.486,2.486,0,0,1-10.586-.27a2.589,2.589,0,0,1-.9-1.164,4.759,4.759,0,0,1-.352-1.7A8.733,8.733,0,0,1-11.793-4.242Zm1.367.8a2.974,2.974,0,0,0,.387,1.728A1.461,1.461,0,0,0-8.8-1.07a2.561,2.561,0,0,0,2.18-1.241l.664-3.878a1.776,1.776,0,0,0-1.7-1.2,2.194,2.194,0,0,0-1.887.936A4.878,4.878,0,0,0-10.41-3.84ZM3.145-7.422A3.275,3.275,0,0,1,5.7-8.6a2.058,2.058,0,0,1,1.762.816,3.217,3.217,0,0,1,.426,2.246L6.965,0H5.551l.93-5.562a2.968,2.968,0,0,0,.008-.711A1.168,1.168,0,0,0,5.2-7.391,2.6,2.6,0,0,0,2.965-6.031L1.918,0H.5L2.59-12H4ZM14.3,0a1.894,1.894,0,0,1-.055-.445l.023-.445A3.465,3.465,0,0,1,11.8.156,2.526,2.526,0,0,1,9.984-.551a2.14,2.14,0,0,1-.637-1.73,2.6,2.6,0,0,1,1.176-2.1,5.005,5.005,0,0,1,2.887-.754l1.477.008L14.98-5.8A1.545,1.545,0,0,0,14.688-7a1.414,1.414,0,0,0-1.113-.457,2.181,2.181,0,0,0-1.285.355,1.513,1.513,0,0,0-.684.98l-1.422.008a2.266,2.266,0,0,1,.578-1.316,3.363,3.363,0,0,1,1.3-.891,4.215,4.215,0,0,1,1.648-.3,2.8,2.8,0,0,1,2.055.8,2.484,2.484,0,0,1,.617,2.043L15.7-1.586l-.039.6a2.949,2.949,0,0,0,.094.852L15.738,0ZM12.082-1.094a2.466,2.466,0,0,0,1.285-.324,3.254,3.254,0,0,0,1.043-.941l.3-1.742-1.07-.008a4.054,4.054,0,0,0-2.047.422,1.554,1.554,0,0,0-.8,1.2,1.21,1.21,0,0,0,.277.988A1.321,1.321,0,0,0,12.082-1.094ZM25.309-4.187a6.707,6.707,0,0,1-.7,2.32A3.949,3.949,0,0,1,23.277-.324a3.058,3.058,0,0,1-1.766.488,2.815,2.815,0,0,1-2.25-.992L18.5,3.25H17.09l2.031-11.7L20.4-8.461l-.156.945a3.207,3.207,0,0,1,2.508-1.094,2.358,2.358,0,0,1,1.9.9,3.954,3.954,0,0,1,.719,2.391,8.413,8.413,0,0,1-.039.969Zm-1.391-.16L23.957-5a2.969,2.969,0,0,0-.434-1.744,1.525,1.525,0,0,0-1.254-.636A2.508,2.508,0,0,0,20.152-6.22l-.711,4.05a1.769,1.769,0,0,0,1.711,1.155,2.224,2.224,0,0,0,1.793-.823A4.777,4.777,0,0,0,23.918-4.348Zm10.18.16a6.707,6.707,0,0,1-.7,2.32A3.949,3.949,0,0,1,32.066-.324,3.058,3.058,0,0,1,30.3.164a2.815,2.815,0,0,1-2.25-.992L27.293,3.25H25.879l2.031-11.7,1.281-.008-.156.945a3.207,3.207,0,0,1,2.508-1.094,2.358,2.358,0,0,1,1.9.9A3.954,3.954,0,0,1,34.16-5.32a8.413,8.413,0,0,1-.039.969Zm-1.391-.16L32.746-5a2.969,2.969,0,0,0-.434-1.744,1.525,1.525,0,0,0-1.254-.636A2.508,2.508,0,0,0,28.941-6.22L28.23-2.17a1.769,1.769,0,0,0,1.711,1.155,2.224,2.224,0,0,0,1.793-.823A4.777,4.777,0,0,0,32.707-4.348Zm6.18,4.5a3.048,3.048,0,0,1-2.469-1.164,4.006,4.006,0,0,1-.75-2.9l.039-.336a5.624,5.624,0,0,1,.746-2.3,4.339,4.339,0,0,1,1.5-1.566,3.491,3.491,0,0,1,1.906-.5,2.688,2.688,0,0,1,2.047.867,3.566,3.566,0,0,1,.813,2.266,6.621,6.621,0,0,1-.031,1.016l-.086.648H37.074a2.856,2.856,0,0,0,.379,1.953A1.8,1.8,0,0,0,39-1.023a3.007,3.007,0,0,0,2.313-1.125l.813.688a3.718,3.718,0,0,1-1.371,1.2A3.886,3.886,0,0,1,38.887.156Zm.9-7.586a2.066,2.066,0,0,0-1.527.594A4.22,4.22,0,0,0,37.223-5l4.109.008.031-.125a2.313,2.313,0,0,0-.316-1.637A1.488,1.488,0,0,0,39.785-7.43Zm6.547-1.031-.2,1.07a3.333,3.333,0,0,1,2.594-1.219,2.1,2.1,0,0,1,1.766.828,3.217,3.217,0,0,1,.422,2.242L49.988,0H48.574l.93-5.557a2.962,2.962,0,0,0,.008-.71,1.168,1.168,0,0,0-1.289-1.116,2.661,2.661,0,0,0-2.234,1.358L44.941,0H43.527L45-8.453Zm8.641,0-.2,1.07a3.333,3.333,0,0,1,2.594-1.219,2.1,2.1,0,0,1,1.766.828,3.217,3.217,0,0,1,.422,2.242L58.629,0H57.215l.93-5.557a2.962,2.962,0,0,0,.008-.71,1.168,1.168,0,0,0-1.289-1.116,2.661,2.661,0,0,0-2.234,1.358L53.582,0H52.168l1.469-8.453ZM64.465.156A3.048,3.048,0,0,1,62-1.008a4.006,4.006,0,0,1-.75-2.9l.039-.336a5.624,5.624,0,0,1,.746-2.3,4.339,4.339,0,0,1,1.5-1.566,3.491,3.491,0,0,1,1.906-.5,2.688,2.688,0,0,1,2.047.867,3.566,3.566,0,0,1,.813,2.266,6.62,6.62,0,0,1-.031,1.016l-.086.648H62.652a2.856,2.856,0,0,0,.379,1.953,1.8,1.8,0,0,0,1.551.836,3.007,3.007,0,0,0,2.313-1.125l.813.688a3.718,3.718,0,0,1-1.371,1.2A3.886,3.886,0,0,1,64.465.156Zm.9-7.586a2.066,2.066,0,0,0-1.527.594A4.22,4.22,0,0,0,62.8-5l4.109.008.031-.125a2.313,2.313,0,0,0-.316-1.637A1.488,1.488,0,0,0,65.363-7.43Zm4.148,3.188a6.578,6.578,0,0,1,.711-2.328A4.03,4.03,0,0,1,71.59-8.125a3.127,3.127,0,0,1,1.789-.492,2.64,2.64,0,0,1,2.172,1.031L76.363-12h1.414L75.7,0H74.41l.148-.906A3.116,3.116,0,0,1,72.09.156a2.335,2.335,0,0,1-1.867-.918,4,4,0,0,1-.75-2.379A7.6,7.6,0,0,1,69.512-4.242Zm1.359.808a2.929,2.929,0,0,0,.4,1.732A1.437,1.437,0,0,0,72.5-1.07,2.554,2.554,0,0,0,74.684-2.3l.672-3.9a1.754,1.754,0,0,0-1.7-1.186,2.143,2.143,0,0,0-1.473.5,3.256,3.256,0,0,0-.969,1.475A6.082,6.082,0,0,0,70.871-3.435Z" transform="translate(-4846 3052)" fill="#12263f"/>
    <path id="Trazado_808305" data-name="Trazado 808305" d="M-17.348-2.383q.125-.625-.867-.906l-.711-.18q-2.523-.7-2.453-2.453A2.428,2.428,0,0,1-20.32-7.871a3.942,3.942,0,0,1,2.457-.738,3.536,3.536,0,0,1,2.313.758,2.5,2.5,0,0,1,.9,1.977l-2.187-.008a.963.963,0,0,0-1.078-1.1,1.551,1.551,0,0,0-.895.258,1.061,1.061,0,0,0-.465.7q-.117.625.945.883l.313.07a6.285,6.285,0,0,1,1.648.59,2.488,2.488,0,0,1,.879.824,2.04,2.04,0,0,1,.285,1.18,2.251,2.251,0,0,1-.52,1.406,3.18,3.18,0,0,1-1.359.93,4.736,4.736,0,0,1-1.816.3,3.568,3.568,0,0,1-2.344-.809A2.607,2.607,0,0,1-22.2-2.7l2.078.016a1.142,1.142,0,0,0,1.3,1.227,1.845,1.845,0,0,0,1-.25A.987.987,0,0,0-17.348-2.383ZM-10.176.156a3.677,3.677,0,0,1-1.965-.543,3.292,3.292,0,0,1-1.277-1.469,4.093,4.093,0,0,1-.328-2.059l.023-.312A5.465,5.465,0,0,1-13-6.492a4.341,4.341,0,0,1,1.547-1.59,3.827,3.827,0,0,1,2.094-.527,2.924,2.924,0,0,1,2.473,1.2,4.117,4.117,0,0,1,.637,2.962l-.125.962h-5.18a1.814,1.814,0,0,0,.4,1.313,1.521,1.521,0,0,0,1.172.508A2.7,2.7,0,0,0-7.879-2.6l1.008,1.25A3.135,3.135,0,0,1-8.246-.23,4.5,4.5,0,0,1-10.176.156Zm.7-6.945a1.565,1.565,0,0,0-1.082.383A3.363,3.363,0,0,0-11.4-5.023h3.031l.047-.2a2.071,2.071,0,0,0,.008-.594A1.134,1.134,0,0,0-8.7-6.527,1.2,1.2,0,0,0-9.473-6.789Zm9.539.453a4.548,4.548,0,0,0-.742-.078,2.136,2.136,0,0,0-1.867.883L-3.52,0h-2.2l1.469-8.453,2.07-.008-.2,1.031a2.325,2.325,0,0,1,1.969-1.2,3.214,3.214,0,0,1,.766.109ZM3.715-2.789,6.121-8.453H8.5L4.41,0H2.3L.855-8.453H3.09ZM12.1.156a3.677,3.677,0,0,1-1.965-.543A3.292,3.292,0,0,1,8.855-1.855a4.093,4.093,0,0,1-.328-2.059l.023-.312A5.465,5.465,0,0,1,9.27-6.492a4.341,4.341,0,0,1,1.547-1.59,3.827,3.827,0,0,1,2.094-.527,2.924,2.924,0,0,1,2.473,1.2,4.117,4.117,0,0,1,.637,2.962l-.125.962h-5.18a1.814,1.814,0,0,0,.4,1.313,1.521,1.521,0,0,0,1.172.508A2.7,2.7,0,0,0,14.395-2.6L15.4-1.352A3.135,3.135,0,0,1,14.027-.23,4.5,4.5,0,0,1,12.1.156Zm.7-6.945a1.565,1.565,0,0,0-1.082.383,3.363,3.363,0,0,0-.848,1.383H13.9l.047-.2a2.071,2.071,0,0,0,.008-.594,1.134,1.134,0,0,0-.383-.707A1.2,1.2,0,0,0,12.8-6.789Zm9.539.453a4.548,4.548,0,0,0-.742-.078,2.136,2.136,0,0,0-1.867.883L18.754,0h-2.2L18.02-8.453l2.07-.008-.2,1.031a2.325,2.325,0,0,1,1.969-1.2,3.214,3.214,0,0,1,.766.109Z" transform="translate(-4637 2968)" fill="#fff"/>
    <path id="Trazado_808311" data-name="Trazado 808311" d="M-17.348-2.383q.125-.625-.867-.906l-.711-.18q-2.523-.7-2.453-2.453A2.428,2.428,0,0,1-20.32-7.871a3.942,3.942,0,0,1,2.457-.738,3.536,3.536,0,0,1,2.313.758,2.5,2.5,0,0,1,.9,1.977l-2.187-.008a.963.963,0,0,0-1.078-1.1,1.551,1.551,0,0,0-.895.258,1.061,1.061,0,0,0-.465.7q-.117.625.945.883l.313.07a6.285,6.285,0,0,1,1.648.59,2.488,2.488,0,0,1,.879.824,2.04,2.04,0,0,1,.285,1.18,2.251,2.251,0,0,1-.52,1.406,3.18,3.18,0,0,1-1.359.93,4.736,4.736,0,0,1-1.816.3,3.568,3.568,0,0,1-2.344-.809A2.607,2.607,0,0,1-22.2-2.7l2.078.016a1.142,1.142,0,0,0,1.3,1.227,1.845,1.845,0,0,0,1-.25A.987.987,0,0,0-17.348-2.383ZM-10.176.156a3.677,3.677,0,0,1-1.965-.543,3.292,3.292,0,0,1-1.277-1.469,4.093,4.093,0,0,1-.328-2.059l.023-.312A5.465,5.465,0,0,1-13-6.492a4.341,4.341,0,0,1,1.547-1.59,3.827,3.827,0,0,1,2.094-.527,2.924,2.924,0,0,1,2.473,1.2,4.117,4.117,0,0,1,.637,2.962l-.125.962h-5.18a1.814,1.814,0,0,0,.4,1.313,1.521,1.521,0,0,0,1.172.508A2.7,2.7,0,0,0-7.879-2.6l1.008,1.25A3.135,3.135,0,0,1-8.246-.23,4.5,4.5,0,0,1-10.176.156Zm.7-6.945a1.565,1.565,0,0,0-1.082.383A3.363,3.363,0,0,0-11.4-5.023h3.031l.047-.2a2.071,2.071,0,0,0,.008-.594A1.134,1.134,0,0,0-8.7-6.527,1.2,1.2,0,0,0-9.473-6.789Zm9.539.453a4.548,4.548,0,0,0-.742-.078,2.136,2.136,0,0,0-1.867.883L-3.52,0h-2.2l1.469-8.453,2.07-.008-.2,1.031a2.325,2.325,0,0,1,1.969-1.2,3.214,3.214,0,0,1,.766.109ZM3.715-2.789,6.121-8.453H8.5L4.41,0H2.3L.855-8.453H3.09ZM12.1.156a3.677,3.677,0,0,1-1.965-.543A3.292,3.292,0,0,1,8.855-1.855a4.093,4.093,0,0,1-.328-2.059l.023-.312A5.465,5.465,0,0,1,9.27-6.492a4.341,4.341,0,0,1,1.547-1.59,3.827,3.827,0,0,1,2.094-.527,2.924,2.924,0,0,1,2.473,1.2,4.117,4.117,0,0,1,.637,2.962l-.125.962h-5.18a1.814,1.814,0,0,0,.4,1.313,1.521,1.521,0,0,0,1.172.508A2.7,2.7,0,0,0,14.395-2.6L15.4-1.352A3.135,3.135,0,0,1,14.027-.23,4.5,4.5,0,0,1,12.1.156Zm.7-6.945a1.565,1.565,0,0,0-1.082.383,3.363,3.363,0,0,0-.848,1.383H13.9l.047-.2a2.071,2.071,0,0,0,.008-.594,1.134,1.134,0,0,0-.383-.707A1.2,1.2,0,0,0,12.8-6.789Zm9.539.453a4.548,4.548,0,0,0-.742-.078,2.136,2.136,0,0,0-1.867.883L18.754,0h-2.2L18.02-8.453l2.07-.008-.2,1.031a2.325,2.325,0,0,1,1.969-1.2,3.214,3.214,0,0,1,.766.109Z" transform="translate(-4637 3062)" fill="#fff"/>
    <path id="Trazado_808306" data-name="Trazado 808306" d="M-15.836-1.656a1.447,1.447,0,0,0,1.016-.332,1.632,1.632,0,0,0,.531-.926l2.07-.008a3.037,3.037,0,0,1-.559,1.6A3.394,3.394,0,0,1-14.121-.211a3.847,3.847,0,0,1-1.77.375A3.123,3.123,0,0,1-18.328-.9,3.965,3.965,0,0,1-19.2-3.664l.023-.43.008-.086a5.284,5.284,0,0,1,1.391-3.27,3.761,3.761,0,0,1,2.914-1.16,3.047,3.047,0,0,1,2.27.934A3.3,3.3,0,0,1-11.766-5.3H-13.82a1.73,1.73,0,0,0-.3-1.07,1.128,1.128,0,0,0-.891-.422q-1.578-.047-1.914,2.3a7.782,7.782,0,0,0-.086,1.438Q-16.93-1.68-15.836-1.656ZM-9.039,0h-2.219l2.086-12h2.211Zm4.2,0H-7.062l1.469-8.453h2.219Zm-.492-10.6a1.1,1.1,0,0,1,.344-.867,1.209,1.209,0,0,1,.867-.344,1.215,1.215,0,0,1,.867.3,1.1,1.1,0,0,1,.383.828,1.132,1.132,0,0,1-.324.844,1.215,1.215,0,0,1-.887.375,1.235,1.235,0,0,1-.863-.3A1.091,1.091,0,0,1-5.336-10.6ZM1.039.156A3.677,3.677,0,0,1-.926-.387,3.292,3.292,0,0,1-2.2-1.855a4.093,4.093,0,0,1-.328-2.059l.023-.312a5.465,5.465,0,0,1,.719-2.266A4.341,4.341,0,0,1-.242-8.082a3.827,3.827,0,0,1,2.094-.527,2.924,2.924,0,0,1,2.473,1.2,4.117,4.117,0,0,1,.637,2.962l-.125.962H-.344a1.814,1.814,0,0,0,.4,1.313,1.521,1.521,0,0,0,1.172.508A2.7,2.7,0,0,0,3.336-2.6l1.008,1.25A3.135,3.135,0,0,1,2.969-.23,4.5,4.5,0,0,1,1.039.156Zm.7-6.945A1.565,1.565,0,0,0,.66-6.406,3.363,3.363,0,0,0-.187-5.023H2.844l.047-.2A2.071,2.071,0,0,0,2.9-5.82a1.134,1.134,0,0,0-.383-.707A1.2,1.2,0,0,0,1.742-6.789ZM8.977-8.461l-.187,1A3.042,3.042,0,0,1,11.25-8.609a2.028,2.028,0,0,1,1.766.875,3.526,3.526,0,0,1,.414,2.359L12.539,0h-2.2l.906-5.4a2.528,2.528,0,0,0,.016-.555.9.9,0,0,0-1-.82,1.9,1.9,0,0,0-1.555.8L7.648,0h-2.2L6.914-8.453Zm9.758-2.07-.367,2.078h1.406L19.484-6.8H18.078l-.719,4.234a1.077,1.077,0,0,0,.063.609q.109.211.531.227.125.008.672-.039L18.469-.039A3.706,3.706,0,0,1,17.2.141a1.985,1.985,0,0,1-1.617-.68,2.456,2.456,0,0,1-.437-1.8L15.875-6.8h-1.2l.289-1.656h1.2l.359-2.078Z" transform="translate(-4168 2968)" fill="#fff"/>
    <path id="Trazado_808310" data-name="Trazado 808310" d="M-15.836-1.656a1.447,1.447,0,0,0,1.016-.332,1.632,1.632,0,0,0,.531-.926l2.07-.008a3.037,3.037,0,0,1-.559,1.6A3.394,3.394,0,0,1-14.121-.211a3.847,3.847,0,0,1-1.77.375A3.123,3.123,0,0,1-18.328-.9,3.965,3.965,0,0,1-19.2-3.664l.023-.43.008-.086a5.284,5.284,0,0,1,1.391-3.27,3.761,3.761,0,0,1,2.914-1.16,3.047,3.047,0,0,1,2.27.934A3.3,3.3,0,0,1-11.766-5.3H-13.82a1.73,1.73,0,0,0-.3-1.07,1.128,1.128,0,0,0-.891-.422q-1.578-.047-1.914,2.3a7.782,7.782,0,0,0-.086,1.438Q-16.93-1.68-15.836-1.656ZM-9.039,0h-2.219l2.086-12h2.211Zm4.2,0H-7.062l1.469-8.453h2.219Zm-.492-10.6a1.1,1.1,0,0,1,.344-.867,1.209,1.209,0,0,1,.867-.344,1.215,1.215,0,0,1,.867.3,1.1,1.1,0,0,1,.383.828,1.132,1.132,0,0,1-.324.844,1.215,1.215,0,0,1-.887.375,1.235,1.235,0,0,1-.863-.3A1.091,1.091,0,0,1-5.336-10.6ZM1.039.156A3.677,3.677,0,0,1-.926-.387,3.292,3.292,0,0,1-2.2-1.855a4.093,4.093,0,0,1-.328-2.059l.023-.312a5.465,5.465,0,0,1,.719-2.266A4.341,4.341,0,0,1-.242-8.082a3.827,3.827,0,0,1,2.094-.527,2.924,2.924,0,0,1,2.473,1.2,4.117,4.117,0,0,1,.637,2.962l-.125.962H-.344a1.814,1.814,0,0,0,.4,1.313,1.521,1.521,0,0,0,1.172.508A2.7,2.7,0,0,0,3.336-2.6l1.008,1.25A3.135,3.135,0,0,1,2.969-.23,4.5,4.5,0,0,1,1.039.156Zm.7-6.945A1.565,1.565,0,0,0,.66-6.406,3.363,3.363,0,0,0-.187-5.023H2.844l.047-.2A2.071,2.071,0,0,0,2.9-5.82a1.134,1.134,0,0,0-.383-.707A1.2,1.2,0,0,0,1.742-6.789ZM8.977-8.461l-.187,1A3.042,3.042,0,0,1,11.25-8.609a2.028,2.028,0,0,1,1.766.875,3.526,3.526,0,0,1,.414,2.359L12.539,0h-2.2l.906-5.4a2.528,2.528,0,0,0,.016-.555.9.9,0,0,0-1-.82,1.9,1.9,0,0,0-1.555.8L7.648,0h-2.2L6.914-8.453Zm9.758-2.07-.367,2.078h1.406L19.484-6.8H18.078l-.719,4.234a1.077,1.077,0,0,0,.063.609q.109.211.531.227.125.008.672-.039L18.469-.039A3.706,3.706,0,0,1,17.2.141a1.985,1.985,0,0,1-1.617-.68,2.456,2.456,0,0,1-.437-1.8L15.875-6.8h-1.2l.289-1.656h1.2l.359-2.078Z" transform="translate(-4168 3062)" fill="#fff"/>
    <g id="Grupo_1067545" data-name="Grupo 1067545" transform="translate(-3578 16362.332) rotate(180)">
      <line id="Línea_2048" data-name="Línea 2048" x2="241" transform="translate(705 13281.5)" fill="none" stroke="#fb405f" stroke-width="2" stroke-dasharray="6 2"/>
      <circle id="Elipse_4865" data-name="Elipse 4865" cx="6" cy="6" r="6" transform="translate(940 13275)" fill="#fb405f"/>
      <path id="Trazado_808198" data-name="Trazado 808198" d="M-3120,1574.333l-12,10,12,9" transform="translate(3837 11697)" fill="none" stroke="#fb405f" stroke-linecap="round" stroke-width="2"/>
    </g>
    <g id="Grupo_1067542" data-name="Grupo 1067542" transform="translate(-4070 16354.332) rotate(180)">
      <line id="Línea_2048-2" data-name="Línea 2048" x2="145" transform="translate(705 13281.5)" fill="none" stroke="#fb405f" stroke-width="2" stroke-dasharray="6 2"/>
      <circle id="Elipse_4865-2" data-name="Elipse 4865" cx="6" cy="6" r="6" transform="translate(844 13275)" fill="#fb405f"/>
      <path id="Trazado_808198-2" data-name="Trazado 808198" d="M-3120,1574.333l-12,10,12,9" transform="translate(3837 11697)" fill="none" stroke="#fb405f" stroke-linecap="round" stroke-width="2"/>
    </g>
    <line id="Línea_2049" data-name="Línea 2049" x1="263" transform="translate(-4539.5 3047)" fill="none" stroke="#fb405f" stroke-width="2"/>
    <line id="Línea_2052" data-name="Línea 2052" x1="263" transform="translate(-4539.5 2953)" fill="none" stroke="#fb405f" stroke-width="2"/>
  </g>
</svg>
