<svg xmlns="http://www.w3.org/2000/svg" width="1030" height="366" viewBox="0 0 1030 366">
  <g id="Grupo_1067539" data-name="Grupo 1067539" transform="translate(-285 -13210)">
    <rect id="Rectángulo_376210" data-name="Rectángulo 376210" width="1030" height="366" rx="20" transform="translate(285 13210)" fill="#fff"/>
    <g id="Grupo_1067538" data-name="Grupo 1067538" transform="translate(1 -15)">
      <rect id="Rectángulo_376204" data-name="Rectángulo 376204" width="206" height="54" rx="10" transform="translate(462 13275)" fill="#451484"/>
      <rect id="Rectángulo_376206" data-name="Rectángulo 376206" width="206" height="54" rx="10" transform="translate(462 13396)" fill="#451484"/>
      <rect id="Rectángulo_376208" data-name="Rectángulo 376208" width="206" height="54" rx="10" transform="translate(462 13517)" fill="#451484"/>
      <rect id="Rectángulo_376205" data-name="Rectángulo 376205" width="206" height="54" rx="10" transform="translate(931 13275)" fill="#451484"/>
      <rect id="Rectángulo_376207" data-name="Rectángulo 376207" width="206" height="54" rx="10" transform="translate(931 13396)" fill="#451484"/>
      <rect id="Rectángulo_376209" data-name="Rectángulo 376209" width="206" height="54" rx="10" transform="translate(931 13517)" fill="#451484"/>
      <path id="Trazado_808277" data-name="Trazado 808277" d="M-79.691-4.242A6.578,6.578,0,0,1-78.98-6.57a4.03,4.03,0,0,1,1.367-1.555,3.127,3.127,0,0,1,1.789-.492,2.64,2.64,0,0,1,2.172,1.031L-72.84-12h1.414L-73.5,0h-1.289l.148-.906A3.116,3.116,0,0,1-77.113.156,2.335,2.335,0,0,1-78.98-.762a4,4,0,0,1-.75-2.379A7.6,7.6,0,0,1-79.691-4.242Zm1.359.808a2.929,2.929,0,0,0,.4,1.732A1.437,1.437,0,0,0-76.7-1.07,2.554,2.554,0,0,0-74.52-2.3l.672-3.9a1.754,1.754,0,0,0-1.7-1.186,2.143,2.143,0,0,0-1.473.5,3.256,3.256,0,0,0-.969,1.475A6.082,6.082,0,0,0-78.332-3.435Zm11.758-5.175a3.047,3.047,0,0,1,1.82.578A3.285,3.285,0,0,1-63.633-6.48a4.8,4.8,0,0,1,.246,2.16l-.016.172a5.685,5.685,0,0,1-.734,2.23A4.309,4.309,0,0,1-65.652-.367a3.7,3.7,0,0,1-2.039.523,3.052,3.052,0,0,1-1.816-.578,3.21,3.21,0,0,1-1.113-1.531,4.931,4.931,0,0,1-.25-2.133,5.76,5.76,0,0,1,.711-2.359,4.409,4.409,0,0,1,1.527-1.621A3.652,3.652,0,0,1-66.574-8.609Zm-2.875,4.531a4.8,4.8,0,0,0,0,1.023A2.507,2.507,0,0,0-68.9-1.586a1.653,1.653,0,0,0,1.262.57,2.253,2.253,0,0,0,1.3-.348,2.919,2.919,0,0,0,1-1.121,4.721,4.721,0,0,0,.523-1.664,7.5,7.5,0,0,0,.023-1.211,2.6,2.6,0,0,0-.57-1.492,1.69,1.69,0,0,0-1.266-.578,2.3,2.3,0,0,0-1.859.859,4.245,4.245,0,0,0-.945,2.313ZM-58.684.156a3.048,3.048,0,0,1-2.469-1.164,4.006,4.006,0,0,1-.75-2.9l.039-.336a5.624,5.624,0,0,1,.746-2.3,4.339,4.339,0,0,1,1.5-1.566,3.491,3.491,0,0,1,1.906-.5,2.688,2.688,0,0,1,2.047.867,3.566,3.566,0,0,1,.813,2.266,6.621,6.621,0,0,1-.031,1.016l-.086.648H-60.5a2.856,2.856,0,0,0,.379,1.953,1.8,1.8,0,0,0,1.551.836,3.007,3.007,0,0,0,2.313-1.125l.813.688a3.718,3.718,0,0,1-1.371,1.2A3.886,3.886,0,0,1-58.684.156Zm.9-7.586a2.066,2.066,0,0,0-1.527.594A4.22,4.22,0,0,0-60.348-5l4.109.008.031-.125a2.313,2.313,0,0,0-.316-1.637A1.488,1.488,0,0,0-57.785-7.43Zm8.977,5.141q.117-.875-.961-1.234l-1.469-.43q-1.859-.641-1.8-2.125a2.341,2.341,0,0,1,1.02-1.832,3.631,3.631,0,0,1,2.27-.7,3.027,3.027,0,0,1,2.082.746,2.363,2.363,0,0,1,.77,1.9L-48.3-5.969A1.319,1.319,0,0,0-48.7-7a1.576,1.576,0,0,0-1.1-.414,2.059,2.059,0,0,0-1.266.359,1.316,1.316,0,0,0-.57.922q-.1.734.9,1.07l.711.2a4.577,4.577,0,0,1,2.063.977A1.865,1.865,0,0,1-47.4-2.4a2.37,2.37,0,0,1-.516,1.375,2.948,2.948,0,0,1-1.25.895,4.18,4.18,0,0,1-1.664.285,3.3,3.3,0,0,1-2.219-.785,2.427,2.427,0,0,1-.844-1.98l1.414.008a1.5,1.5,0,0,0,.453,1.141,1.732,1.732,0,0,0,1.242.43,2.436,2.436,0,0,0,1.336-.324A1.247,1.247,0,0,0-48.809-2.289ZM-36.871,0a1.894,1.894,0,0,1-.055-.445l.023-.445A3.465,3.465,0,0,1-39.371.156a2.526,2.526,0,0,1-1.816-.707,2.14,2.14,0,0,1-.637-1.73,2.6,2.6,0,0,1,1.176-2.1,5.005,5.005,0,0,1,2.887-.754l1.477.008.094-.672A1.545,1.545,0,0,0-36.484-7,1.414,1.414,0,0,0-37.6-7.453a2.181,2.181,0,0,0-1.285.355,1.513,1.513,0,0,0-.684.98l-1.422.008a2.266,2.266,0,0,1,.578-1.316,3.363,3.363,0,0,1,1.3-.891,4.215,4.215,0,0,1,1.648-.3,2.8,2.8,0,0,1,2.055.8,2.484,2.484,0,0,1,.617,2.043l-.687,4.188-.039.6a2.949,2.949,0,0,0,.094.852L-35.434,0ZM-39.09-1.094A2.466,2.466,0,0,0-37.8-1.418a3.254,3.254,0,0,0,1.043-.941l.3-1.742-1.07-.008a4.054,4.054,0,0,0-2.047.422,1.554,1.554,0,0,0-.8,1.2A1.21,1.21,0,0,0-40.1-1.5,1.321,1.321,0,0,0-39.09-1.094Zm8.375-7.367-.2,1.07a3.333,3.333,0,0,1,2.594-1.219,2.1,2.1,0,0,1,1.766.828,3.217,3.217,0,0,1,.422,2.242L-27.059,0h-1.414l.93-5.557a2.962,2.962,0,0,0,.008-.71,1.168,1.168,0,0,0-1.289-1.116,2.661,2.661,0,0,0-2.234,1.358L-32.105,0H-33.52l1.469-8.453Zm8.867,6.328,3.008-6.32h1.563l-5.016,9.859Q-23.34,3.461-24.98,3.438a4.6,4.6,0,0,1-.852-.141l.125-1.172.367.039a1.853,1.853,0,0,0,1.16-.3A2.772,2.772,0,0,0-23.316.789l.508-.969L-24.27-8.453h1.477Zm8.125-8.367-.359,2.047h1.539l-.2,1.117H-14.27l-.883,5.258a1.833,1.833,0,0,0-.008.375.6.6,0,0,0,.664.609,4.05,4.05,0,0,0,.688-.078l-.109,1.18a3.847,3.847,0,0,1-1.031.141,1.476,1.476,0,0,1-1.266-.621A2.4,2.4,0,0,1-16.543-2.1l.859-5.234h-1.492l.2-1.117h1.492l.359-2.047Zm4.055,3.078A3.275,3.275,0,0,1-7.113-8.6a2.058,2.058,0,0,1,1.762.816,3.217,3.217,0,0,1,.426,2.246L-5.848,0H-7.262l.93-5.562a2.968,2.968,0,0,0,.008-.711A1.168,1.168,0,0,0-7.613-7.391,2.6,2.6,0,0,0-9.848-6.031L-10.895,0h-1.414l2.086-12h1.414ZM-2.152,0H-3.559L-2.09-8.453H-.684ZM-.988-11.539a.774.774,0,0,1,.6.215.8.8,0,0,1,.238.605.849.849,0,0,1-.238.6.855.855,0,0,1-.6.25.779.779,0,0,1-.6-.211.764.764,0,0,1-.227-.594.886.886,0,0,1,.234-.609A.826.826,0,0,1-.988-11.539ZM2.965-8.461l-.2,1.07A3.333,3.333,0,0,1,5.355-8.609a2.1,2.1,0,0,1,1.766.828,3.217,3.217,0,0,1,.422,2.242L6.621,0H5.207l.93-5.557a2.962,2.962,0,0,0,.008-.71A1.168,1.168,0,0,0,4.855-7.383,2.661,2.661,0,0,0,2.621-6.025L1.574,0H.16L1.629-8.453Zm6.25,4.219a6.889,6.889,0,0,1,.746-2.4A3.9,3.9,0,0,1,11.32-8.152a3.151,3.151,0,0,1,1.754-.465,2.6,2.6,0,0,1,2.219,1.109l.281-.945h1.3L15.465-.18a4.113,4.113,0,0,1-1.312,2.59,3.7,3.7,0,0,1-2.68.926A3.8,3.8,0,0,1,9.828,2.93,3.127,3.127,0,0,1,8.59,1.859l.8-.867a2.419,2.419,0,0,0,2.023,1.164,2.425,2.425,0,0,0,1.707-.562,2.9,2.9,0,0,0,.926-1.687l.156-.75a3.2,3.2,0,0,1-2.414,1A2.486,2.486,0,0,1,10.422-.27a2.589,2.589,0,0,1-.9-1.164,4.759,4.759,0,0,1-.352-1.7A8.733,8.733,0,0,1,9.215-4.242Zm1.367.8a2.974,2.974,0,0,0,.387,1.728,1.461,1.461,0,0,0,1.238.644,2.561,2.561,0,0,0,2.18-1.241l.664-3.878a1.776,1.776,0,0,0-1.7-1.2,2.194,2.194,0,0,0-1.887.936A4.878,4.878,0,0,0,10.6-3.84Zm13.57-3.979A3.275,3.275,0,0,1,26.707-8.6a2.058,2.058,0,0,1,1.762.816,3.217,3.217,0,0,1,.426,2.246L27.973,0H26.559l.93-5.562a2.968,2.968,0,0,0,.008-.711,1.168,1.168,0,0,0-1.289-1.117,2.6,2.6,0,0,0-2.234,1.359L22.926,0H21.512L23.6-12h1.414ZM35.309,0a1.894,1.894,0,0,1-.055-.445l.023-.445A3.465,3.465,0,0,1,32.809.156a2.526,2.526,0,0,1-1.816-.707,2.14,2.14,0,0,1-.637-1.73,2.6,2.6,0,0,1,1.176-2.1,5.005,5.005,0,0,1,2.887-.754l1.477.008.094-.672A1.545,1.545,0,0,0,35.7-7a1.414,1.414,0,0,0-1.113-.457A2.181,2.181,0,0,0,33.3-7.1a1.513,1.513,0,0,0-.684.98l-1.422.008a2.266,2.266,0,0,1,.578-1.316,3.363,3.363,0,0,1,1.3-.891,4.215,4.215,0,0,1,1.648-.3,2.8,2.8,0,0,1,2.055.8,2.484,2.484,0,0,1,.617,2.043l-.687,4.188-.039.6a2.949,2.949,0,0,0,.094.852L36.746,0ZM33.09-1.094a2.466,2.466,0,0,0,1.285-.324,3.254,3.254,0,0,0,1.043-.941l.3-1.742-1.07-.008a4.054,4.054,0,0,0-2.047.422,1.554,1.554,0,0,0-.8,1.2,1.21,1.21,0,0,0,.277.988A1.321,1.321,0,0,0,33.09-1.094ZM46.316-4.187a6.707,6.707,0,0,1-.7,2.32A3.949,3.949,0,0,1,44.285-.324,3.058,3.058,0,0,1,42.52.164a2.815,2.815,0,0,1-2.25-.992L39.512,3.25H38.1l2.031-11.7,1.281-.008-.156.945a3.207,3.207,0,0,1,2.508-1.094,2.358,2.358,0,0,1,1.9.9,3.954,3.954,0,0,1,.719,2.391,8.413,8.413,0,0,1-.039.969Zm-1.391-.16L44.965-5a2.969,2.969,0,0,0-.434-1.744,1.525,1.525,0,0,0-1.254-.636A2.508,2.508,0,0,0,41.16-6.22l-.711,4.05A1.769,1.769,0,0,0,42.16-1.016a2.224,2.224,0,0,0,1.793-.823A4.777,4.777,0,0,0,44.926-4.348Zm10.18.16a6.707,6.707,0,0,1-.7,2.32A3.949,3.949,0,0,1,53.074-.324a3.058,3.058,0,0,1-1.766.488,2.815,2.815,0,0,1-2.25-.992L48.3,3.25H46.887l2.031-11.7L50.2-8.461l-.156.945a3.207,3.207,0,0,1,2.508-1.094,2.358,2.358,0,0,1,1.9.9,3.954,3.954,0,0,1,.719,2.391,8.413,8.413,0,0,1-.039.969Zm-1.391-.16L53.754-5a2.969,2.969,0,0,0-.434-1.744,1.525,1.525,0,0,0-1.254-.636A2.508,2.508,0,0,0,49.949-6.22l-.711,4.05a1.769,1.769,0,0,0,1.711,1.155,2.224,2.224,0,0,0,1.793-.823A4.777,4.777,0,0,0,53.715-4.348Zm6.18,4.5a3.048,3.048,0,0,1-2.469-1.164,4.006,4.006,0,0,1-.75-2.9l.039-.336a5.624,5.624,0,0,1,.746-2.3,4.339,4.339,0,0,1,1.5-1.566,3.491,3.491,0,0,1,1.906-.5,2.688,2.688,0,0,1,2.047.867,3.566,3.566,0,0,1,.813,2.266,6.621,6.621,0,0,1-.031,1.016l-.086.648H58.082a2.856,2.856,0,0,0,.379,1.953,1.8,1.8,0,0,0,1.551.836,3.007,3.007,0,0,0,2.313-1.125l.813.688a3.718,3.718,0,0,1-1.371,1.2A3.886,3.886,0,0,1,59.895.156Zm.9-7.586a2.066,2.066,0,0,0-1.527.594A4.22,4.22,0,0,0,58.23-5l4.109.008.031-.125a2.313,2.313,0,0,0-.316-1.637A1.488,1.488,0,0,0,60.793-7.43ZM67.34-8.461l-.2,1.07A3.333,3.333,0,0,1,69.73-8.609a2.1,2.1,0,0,1,1.766.828,3.217,3.217,0,0,1,.422,2.242L71,0H69.582l.93-5.557a2.962,2.962,0,0,0,.008-.71A1.168,1.168,0,0,0,69.23-7.383,2.661,2.661,0,0,0,67-6.025L65.949,0H64.535L66-8.453Zm8.1,5.266a4.285,4.285,0,0,1,.477-1.586,5.592,5.592,0,0,1,1.219-1.437l.633-.555a3,3,0,0,0,1.1-1.82,1.616,1.616,0,0,0-.242-1.2,1.284,1.284,0,0,0-1.047-.492,1.873,1.873,0,0,0-1.309.426,1.934,1.934,0,0,0-.645,1.137l-1.406.008a3,3,0,0,1,1.105-2.066,3.525,3.525,0,0,1,2.34-.762,2.7,2.7,0,0,1,2.035.828,2.633,2.633,0,0,1,.613,2.086,4.283,4.283,0,0,1-1.594,2.734l-.953.813A3.062,3.062,0,0,0,76.824-3.2ZM74.887-.7a.872.872,0,0,1,.234-.605.843.843,0,0,1,.6-.254.8.8,0,0,1,.6.223.77.77,0,0,1,.23.6.8.8,0,0,1-.234.594.841.841,0,0,1-.6.242.767.767,0,0,1-.6-.211A.786.786,0,0,1,74.887-.7Z" transform="translate(800 13261)" fill="#12263f"/>
      <path id="Trazado_808282" data-name="Trazado 808282" d="M-79.691-4.242A6.578,6.578,0,0,1-78.98-6.57a4.03,4.03,0,0,1,1.367-1.555,3.127,3.127,0,0,1,1.789-.492,2.64,2.64,0,0,1,2.172,1.031L-72.84-12h1.414L-73.5,0h-1.289l.148-.906A3.116,3.116,0,0,1-77.113.156,2.335,2.335,0,0,1-78.98-.762a4,4,0,0,1-.75-2.379A7.6,7.6,0,0,1-79.691-4.242Zm1.359.808a2.929,2.929,0,0,0,.4,1.732A1.437,1.437,0,0,0-76.7-1.07,2.554,2.554,0,0,0-74.52-2.3l.672-3.9a1.754,1.754,0,0,0-1.7-1.186,2.143,2.143,0,0,0-1.473.5,3.256,3.256,0,0,0-.969,1.475A6.082,6.082,0,0,0-78.332-3.435Zm11.758-5.175a3.047,3.047,0,0,1,1.82.578A3.285,3.285,0,0,1-63.633-6.48a4.8,4.8,0,0,1,.246,2.16l-.016.172a5.685,5.685,0,0,1-.734,2.23A4.309,4.309,0,0,1-65.652-.367a3.7,3.7,0,0,1-2.039.523,3.052,3.052,0,0,1-1.816-.578,3.21,3.21,0,0,1-1.113-1.531,4.931,4.931,0,0,1-.25-2.133,5.76,5.76,0,0,1,.711-2.359,4.409,4.409,0,0,1,1.527-1.621A3.652,3.652,0,0,1-66.574-8.609Zm-2.875,4.531a4.8,4.8,0,0,0,0,1.023A2.507,2.507,0,0,0-68.9-1.586a1.653,1.653,0,0,0,1.262.57,2.253,2.253,0,0,0,1.3-.348,2.919,2.919,0,0,0,1-1.121,4.721,4.721,0,0,0,.523-1.664,7.5,7.5,0,0,0,.023-1.211,2.6,2.6,0,0,0-.57-1.492,1.69,1.69,0,0,0-1.266-.578,2.3,2.3,0,0,0-1.859.859,4.245,4.245,0,0,0-.945,2.313ZM-58.684.156a3.048,3.048,0,0,1-2.469-1.164,4.006,4.006,0,0,1-.75-2.9l.039-.336a5.624,5.624,0,0,1,.746-2.3,4.339,4.339,0,0,1,1.5-1.566,3.491,3.491,0,0,1,1.906-.5,2.688,2.688,0,0,1,2.047.867,3.566,3.566,0,0,1,.813,2.266,6.621,6.621,0,0,1-.031,1.016l-.086.648H-60.5a2.856,2.856,0,0,0,.379,1.953,1.8,1.8,0,0,0,1.551.836,3.007,3.007,0,0,0,2.313-1.125l.813.688a3.718,3.718,0,0,1-1.371,1.2A3.886,3.886,0,0,1-58.684.156Zm.9-7.586a2.066,2.066,0,0,0-1.527.594A4.22,4.22,0,0,0-60.348-5l4.109.008.031-.125a2.313,2.313,0,0,0-.316-1.637A1.488,1.488,0,0,0-57.785-7.43Zm8.977,5.141q.117-.875-.961-1.234l-1.469-.43q-1.859-.641-1.8-2.125a2.341,2.341,0,0,1,1.02-1.832,3.631,3.631,0,0,1,2.27-.7,3.027,3.027,0,0,1,2.082.746,2.363,2.363,0,0,1,.77,1.9L-48.3-5.969A1.319,1.319,0,0,0-48.7-7a1.576,1.576,0,0,0-1.1-.414,2.059,2.059,0,0,0-1.266.359,1.316,1.316,0,0,0-.57.922q-.1.734.9,1.07l.711.2a4.577,4.577,0,0,1,2.063.977A1.865,1.865,0,0,1-47.4-2.4a2.37,2.37,0,0,1-.516,1.375,2.948,2.948,0,0,1-1.25.895,4.18,4.18,0,0,1-1.664.285,3.3,3.3,0,0,1-2.219-.785,2.427,2.427,0,0,1-.844-1.98l1.414.008a1.5,1.5,0,0,0,.453,1.141,1.732,1.732,0,0,0,1.242.43,2.436,2.436,0,0,0,1.336-.324A1.247,1.247,0,0,0-48.809-2.289ZM-36.871,0a1.894,1.894,0,0,1-.055-.445l.023-.445A3.465,3.465,0,0,1-39.371.156a2.526,2.526,0,0,1-1.816-.707,2.14,2.14,0,0,1-.637-1.73,2.6,2.6,0,0,1,1.176-2.1,5.005,5.005,0,0,1,2.887-.754l1.477.008.094-.672A1.545,1.545,0,0,0-36.484-7,1.414,1.414,0,0,0-37.6-7.453a2.181,2.181,0,0,0-1.285.355,1.513,1.513,0,0,0-.684.98l-1.422.008a2.266,2.266,0,0,1,.578-1.316,3.363,3.363,0,0,1,1.3-.891,4.215,4.215,0,0,1,1.648-.3,2.8,2.8,0,0,1,2.055.8,2.484,2.484,0,0,1,.617,2.043l-.687,4.188-.039.6a2.949,2.949,0,0,0,.094.852L-35.434,0ZM-39.09-1.094A2.466,2.466,0,0,0-37.8-1.418a3.254,3.254,0,0,0,1.043-.941l.3-1.742-1.07-.008a4.054,4.054,0,0,0-2.047.422,1.554,1.554,0,0,0-.8,1.2A1.21,1.21,0,0,0-40.1-1.5,1.321,1.321,0,0,0-39.09-1.094Zm8.375-7.367-.2,1.07a3.333,3.333,0,0,1,2.594-1.219,2.1,2.1,0,0,1,1.766.828,3.217,3.217,0,0,1,.422,2.242L-27.059,0h-1.414l.93-5.557a2.962,2.962,0,0,0,.008-.71,1.168,1.168,0,0,0-1.289-1.116,2.661,2.661,0,0,0-2.234,1.358L-32.105,0H-33.52l1.469-8.453Zm8.867,6.328,3.008-6.32h1.563l-5.016,9.859Q-23.34,3.461-24.98,3.438a4.6,4.6,0,0,1-.852-.141l.125-1.172.367.039a1.853,1.853,0,0,0,1.16-.3A2.772,2.772,0,0,0-23.316.789l.508-.969L-24.27-8.453h1.477Zm8.125-8.367-.359,2.047h1.539l-.2,1.117H-14.27l-.883,5.258a1.833,1.833,0,0,0-.008.375.6.6,0,0,0,.664.609,4.05,4.05,0,0,0,.688-.078l-.109,1.18a3.847,3.847,0,0,1-1.031.141,1.476,1.476,0,0,1-1.266-.621A2.4,2.4,0,0,1-16.543-2.1l.859-5.234h-1.492l.2-1.117h1.492l.359-2.047Zm4.055,3.078A3.275,3.275,0,0,1-7.113-8.6a2.058,2.058,0,0,1,1.762.816,3.217,3.217,0,0,1,.426,2.246L-5.848,0H-7.262l.93-5.562a2.968,2.968,0,0,0,.008-.711A1.168,1.168,0,0,0-7.613-7.391,2.6,2.6,0,0,0-9.848-6.031L-10.895,0h-1.414l2.086-12h1.414ZM-2.152,0H-3.559L-2.09-8.453H-.684ZM-.988-11.539a.774.774,0,0,1,.6.215.8.8,0,0,1,.238.605.849.849,0,0,1-.238.6.855.855,0,0,1-.6.25.779.779,0,0,1-.6-.211.764.764,0,0,1-.227-.594.886.886,0,0,1,.234-.609A.826.826,0,0,1-.988-11.539ZM2.965-8.461l-.2,1.07A3.333,3.333,0,0,1,5.355-8.609a2.1,2.1,0,0,1,1.766.828,3.217,3.217,0,0,1,.422,2.242L6.621,0H5.207l.93-5.557a2.962,2.962,0,0,0,.008-.71A1.168,1.168,0,0,0,4.855-7.383,2.661,2.661,0,0,0,2.621-6.025L1.574,0H.16L1.629-8.453Zm6.25,4.219a6.889,6.889,0,0,1,.746-2.4A3.9,3.9,0,0,1,11.32-8.152a3.151,3.151,0,0,1,1.754-.465,2.6,2.6,0,0,1,2.219,1.109l.281-.945h1.3L15.465-.18a4.113,4.113,0,0,1-1.312,2.59,3.7,3.7,0,0,1-2.68.926A3.8,3.8,0,0,1,9.828,2.93,3.127,3.127,0,0,1,8.59,1.859l.8-.867a2.419,2.419,0,0,0,2.023,1.164,2.425,2.425,0,0,0,1.707-.562,2.9,2.9,0,0,0,.926-1.687l.156-.75a3.2,3.2,0,0,1-2.414,1A2.486,2.486,0,0,1,10.422-.27a2.589,2.589,0,0,1-.9-1.164,4.759,4.759,0,0,1-.352-1.7A8.733,8.733,0,0,1,9.215-4.242Zm1.367.8a2.974,2.974,0,0,0,.387,1.728,1.461,1.461,0,0,0,1.238.644,2.561,2.561,0,0,0,2.18-1.241l.664-3.878a1.776,1.776,0,0,0-1.7-1.2,2.194,2.194,0,0,0-1.887.936A4.878,4.878,0,0,0,10.6-3.84Zm13.57-3.979A3.275,3.275,0,0,1,26.707-8.6a2.058,2.058,0,0,1,1.762.816,3.217,3.217,0,0,1,.426,2.246L27.973,0H26.559l.93-5.562a2.968,2.968,0,0,0,.008-.711,1.168,1.168,0,0,0-1.289-1.117,2.6,2.6,0,0,0-2.234,1.359L22.926,0H21.512L23.6-12h1.414ZM35.309,0a1.894,1.894,0,0,1-.055-.445l.023-.445A3.465,3.465,0,0,1,32.809.156a2.526,2.526,0,0,1-1.816-.707,2.14,2.14,0,0,1-.637-1.73,2.6,2.6,0,0,1,1.176-2.1,5.005,5.005,0,0,1,2.887-.754l1.477.008.094-.672A1.545,1.545,0,0,0,35.7-7a1.414,1.414,0,0,0-1.113-.457A2.181,2.181,0,0,0,33.3-7.1a1.513,1.513,0,0,0-.684.98l-1.422.008a2.266,2.266,0,0,1,.578-1.316,3.363,3.363,0,0,1,1.3-.891,4.215,4.215,0,0,1,1.648-.3,2.8,2.8,0,0,1,2.055.8,2.484,2.484,0,0,1,.617,2.043l-.687,4.188-.039.6a2.949,2.949,0,0,0,.094.852L36.746,0ZM33.09-1.094a2.466,2.466,0,0,0,1.285-.324,3.254,3.254,0,0,0,1.043-.941l.3-1.742-1.07-.008a4.054,4.054,0,0,0-2.047.422,1.554,1.554,0,0,0-.8,1.2,1.21,1.21,0,0,0,.277.988A1.321,1.321,0,0,0,33.09-1.094ZM46.316-4.187a6.707,6.707,0,0,1-.7,2.32A3.949,3.949,0,0,1,44.285-.324,3.058,3.058,0,0,1,42.52.164a2.815,2.815,0,0,1-2.25-.992L39.512,3.25H38.1l2.031-11.7,1.281-.008-.156.945a3.207,3.207,0,0,1,2.508-1.094,2.358,2.358,0,0,1,1.9.9,3.954,3.954,0,0,1,.719,2.391,8.413,8.413,0,0,1-.039.969Zm-1.391-.16L44.965-5a2.969,2.969,0,0,0-.434-1.744,1.525,1.525,0,0,0-1.254-.636A2.508,2.508,0,0,0,41.16-6.22l-.711,4.05A1.769,1.769,0,0,0,42.16-1.016a2.224,2.224,0,0,0,1.793-.823A4.777,4.777,0,0,0,44.926-4.348Zm10.18.16a6.707,6.707,0,0,1-.7,2.32A3.949,3.949,0,0,1,53.074-.324a3.058,3.058,0,0,1-1.766.488,2.815,2.815,0,0,1-2.25-.992L48.3,3.25H46.887l2.031-11.7L50.2-8.461l-.156.945a3.207,3.207,0,0,1,2.508-1.094,2.358,2.358,0,0,1,1.9.9,3.954,3.954,0,0,1,.719,2.391,8.413,8.413,0,0,1-.039.969Zm-1.391-.16L53.754-5a2.969,2.969,0,0,0-.434-1.744,1.525,1.525,0,0,0-1.254-.636A2.508,2.508,0,0,0,49.949-6.22l-.711,4.05a1.769,1.769,0,0,0,1.711,1.155,2.224,2.224,0,0,0,1.793-.823A4.777,4.777,0,0,0,53.715-4.348Zm6.18,4.5a3.048,3.048,0,0,1-2.469-1.164,4.006,4.006,0,0,1-.75-2.9l.039-.336a5.624,5.624,0,0,1,.746-2.3,4.339,4.339,0,0,1,1.5-1.566,3.491,3.491,0,0,1,1.906-.5,2.688,2.688,0,0,1,2.047.867,3.566,3.566,0,0,1,.813,2.266,6.621,6.621,0,0,1-.031,1.016l-.086.648H58.082a2.856,2.856,0,0,0,.379,1.953,1.8,1.8,0,0,0,1.551.836,3.007,3.007,0,0,0,2.313-1.125l.813.688a3.718,3.718,0,0,1-1.371,1.2A3.886,3.886,0,0,1,59.895.156Zm.9-7.586a2.066,2.066,0,0,0-1.527.594A4.22,4.22,0,0,0,58.23-5l4.109.008.031-.125a2.313,2.313,0,0,0-.316-1.637A1.488,1.488,0,0,0,60.793-7.43ZM67.34-8.461l-.2,1.07A3.333,3.333,0,0,1,69.73-8.609a2.1,2.1,0,0,1,1.766.828,3.217,3.217,0,0,1,.422,2.242L71,0H69.582l.93-5.557a2.962,2.962,0,0,0,.008-.71A1.168,1.168,0,0,0,69.23-7.383,2.661,2.661,0,0,0,67-6.025L65.949,0H64.535L66-8.453Zm8.1,5.266a4.285,4.285,0,0,1,.477-1.586,5.592,5.592,0,0,1,1.219-1.437l.633-.555a3,3,0,0,0,1.1-1.82,1.616,1.616,0,0,0-.242-1.2,1.284,1.284,0,0,0-1.047-.492,1.873,1.873,0,0,0-1.309.426,1.934,1.934,0,0,0-.645,1.137l-1.406.008a3,3,0,0,1,1.105-2.066,3.525,3.525,0,0,1,2.34-.762,2.7,2.7,0,0,1,2.035.828,2.633,2.633,0,0,1,.613,2.086,4.283,4.283,0,0,1-1.594,2.734l-.953.813A3.062,3.062,0,0,0,76.824-3.2ZM74.887-.7a.872.872,0,0,1,.234-.605.843.843,0,0,1,.6-.254.8.8,0,0,1,.6.223.77.77,0,0,1,.23.6.8.8,0,0,1-.234.594.841.841,0,0,1-.6.242.767.767,0,0,1-.6-.211A.786.786,0,0,1,74.887-.7Z" transform="translate(800 13380)" fill="#12263f"/>
      <path id="Trazado_808286" data-name="Trazado 808286" d="M-79.691-4.242A6.578,6.578,0,0,1-78.98-6.57a4.03,4.03,0,0,1,1.367-1.555,3.127,3.127,0,0,1,1.789-.492,2.64,2.64,0,0,1,2.172,1.031L-72.84-12h1.414L-73.5,0h-1.289l.148-.906A3.116,3.116,0,0,1-77.113.156,2.335,2.335,0,0,1-78.98-.762a4,4,0,0,1-.75-2.379A7.6,7.6,0,0,1-79.691-4.242Zm1.359.808a2.929,2.929,0,0,0,.4,1.732A1.437,1.437,0,0,0-76.7-1.07,2.554,2.554,0,0,0-74.52-2.3l.672-3.9a1.754,1.754,0,0,0-1.7-1.186,2.143,2.143,0,0,0-1.473.5,3.256,3.256,0,0,0-.969,1.475A6.082,6.082,0,0,0-78.332-3.435Zm11.758-5.175a3.047,3.047,0,0,1,1.82.578A3.285,3.285,0,0,1-63.633-6.48a4.8,4.8,0,0,1,.246,2.16l-.016.172a5.685,5.685,0,0,1-.734,2.23A4.309,4.309,0,0,1-65.652-.367a3.7,3.7,0,0,1-2.039.523,3.052,3.052,0,0,1-1.816-.578,3.21,3.21,0,0,1-1.113-1.531,4.931,4.931,0,0,1-.25-2.133,5.76,5.76,0,0,1,.711-2.359,4.409,4.409,0,0,1,1.527-1.621A3.652,3.652,0,0,1-66.574-8.609Zm-2.875,4.531a4.8,4.8,0,0,0,0,1.023A2.507,2.507,0,0,0-68.9-1.586a1.653,1.653,0,0,0,1.262.57,2.253,2.253,0,0,0,1.3-.348,2.919,2.919,0,0,0,1-1.121,4.721,4.721,0,0,0,.523-1.664,7.5,7.5,0,0,0,.023-1.211,2.6,2.6,0,0,0-.57-1.492,1.69,1.69,0,0,0-1.266-.578,2.3,2.3,0,0,0-1.859.859,4.245,4.245,0,0,0-.945,2.313ZM-58.684.156a3.048,3.048,0,0,1-2.469-1.164,4.006,4.006,0,0,1-.75-2.9l.039-.336a5.624,5.624,0,0,1,.746-2.3,4.339,4.339,0,0,1,1.5-1.566,3.491,3.491,0,0,1,1.906-.5,2.688,2.688,0,0,1,2.047.867,3.566,3.566,0,0,1,.813,2.266,6.621,6.621,0,0,1-.031,1.016l-.086.648H-60.5a2.856,2.856,0,0,0,.379,1.953,1.8,1.8,0,0,0,1.551.836,3.007,3.007,0,0,0,2.313-1.125l.813.688a3.718,3.718,0,0,1-1.371,1.2A3.886,3.886,0,0,1-58.684.156Zm.9-7.586a2.066,2.066,0,0,0-1.527.594A4.22,4.22,0,0,0-60.348-5l4.109.008.031-.125a2.313,2.313,0,0,0-.316-1.637A1.488,1.488,0,0,0-57.785-7.43Zm8.977,5.141q.117-.875-.961-1.234l-1.469-.43q-1.859-.641-1.8-2.125a2.341,2.341,0,0,1,1.02-1.832,3.631,3.631,0,0,1,2.27-.7,3.027,3.027,0,0,1,2.082.746,2.363,2.363,0,0,1,.77,1.9L-48.3-5.969A1.319,1.319,0,0,0-48.7-7a1.576,1.576,0,0,0-1.1-.414,2.059,2.059,0,0,0-1.266.359,1.316,1.316,0,0,0-.57.922q-.1.734.9,1.07l.711.2a4.577,4.577,0,0,1,2.063.977A1.865,1.865,0,0,1-47.4-2.4a2.37,2.37,0,0,1-.516,1.375,2.948,2.948,0,0,1-1.25.895,4.18,4.18,0,0,1-1.664.285,3.3,3.3,0,0,1-2.219-.785,2.427,2.427,0,0,1-.844-1.98l1.414.008a1.5,1.5,0,0,0,.453,1.141,1.732,1.732,0,0,0,1.242.43,2.436,2.436,0,0,0,1.336-.324A1.247,1.247,0,0,0-48.809-2.289ZM-36.871,0a1.894,1.894,0,0,1-.055-.445l.023-.445A3.465,3.465,0,0,1-39.371.156a2.526,2.526,0,0,1-1.816-.707,2.14,2.14,0,0,1-.637-1.73,2.6,2.6,0,0,1,1.176-2.1,5.005,5.005,0,0,1,2.887-.754l1.477.008.094-.672A1.545,1.545,0,0,0-36.484-7,1.414,1.414,0,0,0-37.6-7.453a2.181,2.181,0,0,0-1.285.355,1.513,1.513,0,0,0-.684.98l-1.422.008a2.266,2.266,0,0,1,.578-1.316,3.363,3.363,0,0,1,1.3-.891,4.215,4.215,0,0,1,1.648-.3,2.8,2.8,0,0,1,2.055.8,2.484,2.484,0,0,1,.617,2.043l-.687,4.188-.039.6a2.949,2.949,0,0,0,.094.852L-35.434,0ZM-39.09-1.094A2.466,2.466,0,0,0-37.8-1.418a3.254,3.254,0,0,0,1.043-.941l.3-1.742-1.07-.008a4.054,4.054,0,0,0-2.047.422,1.554,1.554,0,0,0-.8,1.2A1.21,1.21,0,0,0-40.1-1.5,1.321,1.321,0,0,0-39.09-1.094Zm8.375-7.367-.2,1.07a3.333,3.333,0,0,1,2.594-1.219,2.1,2.1,0,0,1,1.766.828,3.217,3.217,0,0,1,.422,2.242L-27.059,0h-1.414l.93-5.557a2.962,2.962,0,0,0,.008-.71,1.168,1.168,0,0,0-1.289-1.116,2.661,2.661,0,0,0-2.234,1.358L-32.105,0H-33.52l1.469-8.453Zm8.867,6.328,3.008-6.32h1.563l-5.016,9.859Q-23.34,3.461-24.98,3.438a4.6,4.6,0,0,1-.852-.141l.125-1.172.367.039a1.853,1.853,0,0,0,1.16-.3A2.772,2.772,0,0,0-23.316.789l.508-.969L-24.27-8.453h1.477Zm8.125-8.367-.359,2.047h1.539l-.2,1.117H-14.27l-.883,5.258a1.833,1.833,0,0,0-.008.375.6.6,0,0,0,.664.609,4.05,4.05,0,0,0,.688-.078l-.109,1.18a3.847,3.847,0,0,1-1.031.141,1.476,1.476,0,0,1-1.266-.621A2.4,2.4,0,0,1-16.543-2.1l.859-5.234h-1.492l.2-1.117h1.492l.359-2.047Zm4.055,3.078A3.275,3.275,0,0,1-7.113-8.6a2.058,2.058,0,0,1,1.762.816,3.217,3.217,0,0,1,.426,2.246L-5.848,0H-7.262l.93-5.562a2.968,2.968,0,0,0,.008-.711A1.168,1.168,0,0,0-7.613-7.391,2.6,2.6,0,0,0-9.848-6.031L-10.895,0h-1.414l2.086-12h1.414ZM-2.152,0H-3.559L-2.09-8.453H-.684ZM-.988-11.539a.774.774,0,0,1,.6.215.8.8,0,0,1,.238.605.849.849,0,0,1-.238.6.855.855,0,0,1-.6.25.779.779,0,0,1-.6-.211.764.764,0,0,1-.227-.594.886.886,0,0,1,.234-.609A.826.826,0,0,1-.988-11.539ZM2.965-8.461l-.2,1.07A3.333,3.333,0,0,1,5.355-8.609a2.1,2.1,0,0,1,1.766.828,3.217,3.217,0,0,1,.422,2.242L6.621,0H5.207l.93-5.557a2.962,2.962,0,0,0,.008-.71A1.168,1.168,0,0,0,4.855-7.383,2.661,2.661,0,0,0,2.621-6.025L1.574,0H.16L1.629-8.453Zm6.25,4.219a6.889,6.889,0,0,1,.746-2.4A3.9,3.9,0,0,1,11.32-8.152a3.151,3.151,0,0,1,1.754-.465,2.6,2.6,0,0,1,2.219,1.109l.281-.945h1.3L15.465-.18a4.113,4.113,0,0,1-1.312,2.59,3.7,3.7,0,0,1-2.68.926A3.8,3.8,0,0,1,9.828,2.93,3.127,3.127,0,0,1,8.59,1.859l.8-.867a2.419,2.419,0,0,0,2.023,1.164,2.425,2.425,0,0,0,1.707-.562,2.9,2.9,0,0,0,.926-1.687l.156-.75a3.2,3.2,0,0,1-2.414,1A2.486,2.486,0,0,1,10.422-.27a2.589,2.589,0,0,1-.9-1.164,4.759,4.759,0,0,1-.352-1.7A8.733,8.733,0,0,1,9.215-4.242Zm1.367.8a2.974,2.974,0,0,0,.387,1.728,1.461,1.461,0,0,0,1.238.644,2.561,2.561,0,0,0,2.18-1.241l.664-3.878a1.776,1.776,0,0,0-1.7-1.2,2.194,2.194,0,0,0-1.887.936A4.878,4.878,0,0,0,10.6-3.84Zm13.57-3.979A3.275,3.275,0,0,1,26.707-8.6a2.058,2.058,0,0,1,1.762.816,3.217,3.217,0,0,1,.426,2.246L27.973,0H26.559l.93-5.562a2.968,2.968,0,0,0,.008-.711,1.168,1.168,0,0,0-1.289-1.117,2.6,2.6,0,0,0-2.234,1.359L22.926,0H21.512L23.6-12h1.414ZM35.309,0a1.894,1.894,0,0,1-.055-.445l.023-.445A3.465,3.465,0,0,1,32.809.156a2.526,2.526,0,0,1-1.816-.707,2.14,2.14,0,0,1-.637-1.73,2.6,2.6,0,0,1,1.176-2.1,5.005,5.005,0,0,1,2.887-.754l1.477.008.094-.672A1.545,1.545,0,0,0,35.7-7a1.414,1.414,0,0,0-1.113-.457A2.181,2.181,0,0,0,33.3-7.1a1.513,1.513,0,0,0-.684.98l-1.422.008a2.266,2.266,0,0,1,.578-1.316,3.363,3.363,0,0,1,1.3-.891,4.215,4.215,0,0,1,1.648-.3,2.8,2.8,0,0,1,2.055.8,2.484,2.484,0,0,1,.617,2.043l-.687,4.188-.039.6a2.949,2.949,0,0,0,.094.852L36.746,0ZM33.09-1.094a2.466,2.466,0,0,0,1.285-.324,3.254,3.254,0,0,0,1.043-.941l.3-1.742-1.07-.008a4.054,4.054,0,0,0-2.047.422,1.554,1.554,0,0,0-.8,1.2,1.21,1.21,0,0,0,.277.988A1.321,1.321,0,0,0,33.09-1.094ZM46.316-4.187a6.707,6.707,0,0,1-.7,2.32A3.949,3.949,0,0,1,44.285-.324,3.058,3.058,0,0,1,42.52.164a2.815,2.815,0,0,1-2.25-.992L39.512,3.25H38.1l2.031-11.7,1.281-.008-.156.945a3.207,3.207,0,0,1,2.508-1.094,2.358,2.358,0,0,1,1.9.9,3.954,3.954,0,0,1,.719,2.391,8.413,8.413,0,0,1-.039.969Zm-1.391-.16L44.965-5a2.969,2.969,0,0,0-.434-1.744,1.525,1.525,0,0,0-1.254-.636A2.508,2.508,0,0,0,41.16-6.22l-.711,4.05A1.769,1.769,0,0,0,42.16-1.016a2.224,2.224,0,0,0,1.793-.823A4.777,4.777,0,0,0,44.926-4.348Zm10.18.16a6.707,6.707,0,0,1-.7,2.32A3.949,3.949,0,0,1,53.074-.324a3.058,3.058,0,0,1-1.766.488,2.815,2.815,0,0,1-2.25-.992L48.3,3.25H46.887l2.031-11.7L50.2-8.461l-.156.945a3.207,3.207,0,0,1,2.508-1.094,2.358,2.358,0,0,1,1.9.9,3.954,3.954,0,0,1,.719,2.391,8.413,8.413,0,0,1-.039.969Zm-1.391-.16L53.754-5a2.969,2.969,0,0,0-.434-1.744,1.525,1.525,0,0,0-1.254-.636A2.508,2.508,0,0,0,49.949-6.22l-.711,4.05a1.769,1.769,0,0,0,1.711,1.155,2.224,2.224,0,0,0,1.793-.823A4.777,4.777,0,0,0,53.715-4.348Zm6.18,4.5a3.048,3.048,0,0,1-2.469-1.164,4.006,4.006,0,0,1-.75-2.9l.039-.336a5.624,5.624,0,0,1,.746-2.3,4.339,4.339,0,0,1,1.5-1.566,3.491,3.491,0,0,1,1.906-.5,2.688,2.688,0,0,1,2.047.867,3.566,3.566,0,0,1,.813,2.266,6.621,6.621,0,0,1-.031,1.016l-.086.648H58.082a2.856,2.856,0,0,0,.379,1.953,1.8,1.8,0,0,0,1.551.836,3.007,3.007,0,0,0,2.313-1.125l.813.688a3.718,3.718,0,0,1-1.371,1.2A3.886,3.886,0,0,1,59.895.156Zm.9-7.586a2.066,2.066,0,0,0-1.527.594A4.22,4.22,0,0,0,58.23-5l4.109.008.031-.125a2.313,2.313,0,0,0-.316-1.637A1.488,1.488,0,0,0,60.793-7.43ZM67.34-8.461l-.2,1.07A3.333,3.333,0,0,1,69.73-8.609a2.1,2.1,0,0,1,1.766.828,3.217,3.217,0,0,1,.422,2.242L71,0H69.582l.93-5.557a2.962,2.962,0,0,0,.008-.71A1.168,1.168,0,0,0,69.23-7.383,2.661,2.661,0,0,0,67-6.025L65.949,0H64.535L66-8.453Zm8.1,5.266a4.285,4.285,0,0,1,.477-1.586,5.592,5.592,0,0,1,1.219-1.437l.633-.555a3,3,0,0,0,1.1-1.82,1.616,1.616,0,0,0-.242-1.2,1.284,1.284,0,0,0-1.047-.492,1.873,1.873,0,0,0-1.309.426,1.934,1.934,0,0,0-.645,1.137l-1.406.008a3,3,0,0,1,1.105-2.066,3.525,3.525,0,0,1,2.34-.762,2.7,2.7,0,0,1,2.035.828,2.633,2.633,0,0,1,.613,2.086,4.283,4.283,0,0,1-1.594,2.734l-.953.813A3.062,3.062,0,0,0,76.824-3.2ZM74.887-.7a.872.872,0,0,1,.234-.605.843.843,0,0,1,.6-.254.8.8,0,0,1,.6.223.77.77,0,0,1,.23.6.8.8,0,0,1-.234.594.841.841,0,0,1-.6.242.767.767,0,0,1-.6-.211A.786.786,0,0,1,74.887-.7Z" transform="translate(800 13501)" fill="#12263f"/>
      <path id="Trazado_808281" data-name="Trazado 808281" d="M-51.023,0a1.894,1.894,0,0,1-.055-.445l.023-.445A3.465,3.465,0,0,1-53.523.156,2.526,2.526,0,0,1-55.34-.551a2.14,2.14,0,0,1-.637-1.73,2.6,2.6,0,0,1,1.176-2.1,5.005,5.005,0,0,1,2.887-.754l1.477.008.094-.672A1.545,1.545,0,0,0-50.637-7a1.414,1.414,0,0,0-1.113-.457,2.181,2.181,0,0,0-1.285.355,1.513,1.513,0,0,0-.684.98l-1.422.008a2.266,2.266,0,0,1,.578-1.316,3.363,3.363,0,0,1,1.3-.891,4.215,4.215,0,0,1,1.648-.3,2.8,2.8,0,0,1,2.055.8,2.484,2.484,0,0,1,.617,2.043l-.687,4.188-.039.6a2.949,2.949,0,0,0,.094.852L-49.586,0Zm-2.219-1.094a2.466,2.466,0,0,0,1.285-.324,3.254,3.254,0,0,0,1.043-.941l.3-1.742-1.07-.008a4.054,4.054,0,0,0-2.047.422,1.554,1.554,0,0,0-.8,1.2,1.21,1.21,0,0,0,.277.988A1.321,1.321,0,0,0-53.242-1.094ZM-46.984,0-45.7-7.336h-1.3l.2-1.117h1.3l.141-1a3.318,3.318,0,0,1,.984-1.992A2.926,2.926,0,0,1-42.3-12.18a4.884,4.884,0,0,1,1.008.134l-.172,1.187a4.636,4.636,0,0,0-.758-.094,1.614,1.614,0,0,0-1.191.456,2.073,2.073,0,0,0-.566,1.211l-.125.833h1.75l-.2,1.117H-44.3L-45.57,0Zm8.516-10.5-.359,2.047h1.539l-.2,1.117h-1.531L-39.9-2.078a1.833,1.833,0,0,0-.008.375.6.6,0,0,0,.664.609,4.05,4.05,0,0,0,.688-.078l-.109,1.18A3.847,3.847,0,0,1-39.7.148a1.476,1.476,0,0,1-1.266-.621A2.4,2.4,0,0,1-41.289-2.1l.859-5.234h-1.492l.2-1.117h1.492l.359-2.047ZM-33.4.156a3.048,3.048,0,0,1-2.469-1.164,4.006,4.006,0,0,1-.75-2.9l.039-.336a5.624,5.624,0,0,1,.746-2.3,4.339,4.339,0,0,1,1.5-1.566,3.491,3.491,0,0,1,1.906-.5,2.688,2.688,0,0,1,2.047.867,3.566,3.566,0,0,1,.813,2.266A6.621,6.621,0,0,1-29.6-4.461l-.086.648h-5.523a2.856,2.856,0,0,0,.379,1.953,1.8,1.8,0,0,0,1.551.836,3.007,3.007,0,0,0,2.313-1.125l.813.688a3.718,3.718,0,0,1-1.371,1.2A3.886,3.886,0,0,1-33.4.156Zm.9-7.586a2.066,2.066,0,0,0-1.527.594A4.22,4.22,0,0,0-35.062-5l4.109.008.031-.125a2.313,2.313,0,0,0-.316-1.637A1.488,1.488,0,0,0-32.5-7.43Zm9,.266-.664-.07A2.42,2.42,0,0,0-26.3-6.008L-27.344,0h-1.414l1.469-8.453,1.367-.008-.211.984a2.527,2.527,0,0,1,2.117-1.148,2.594,2.594,0,0,1,.672.117ZM-15.031,0h-1.422l1.672-9.594L-17.8-8.531l.242-1.375,4.219-1.523h.25ZM-1.555-2.289q.117-.875-.961-1.234l-1.469-.43q-1.859-.641-1.8-2.125A2.341,2.341,0,0,1-4.762-7.91a3.631,3.631,0,0,1,2.27-.7A3.027,3.027,0,0,1-.41-7.863a2.363,2.363,0,0,1,.77,1.9l-1.406-.008A1.319,1.319,0,0,0-1.445-7a1.576,1.576,0,0,0-1.1-.414,2.059,2.059,0,0,0-1.266.359,1.316,1.316,0,0,0-.57.922q-.1.734.9,1.07l.711.2a4.577,4.577,0,0,1,2.063.977A1.865,1.865,0,0,1-.148-2.4,2.37,2.37,0,0,1-.664-1.023a2.948,2.948,0,0,1-1.25.895A4.18,4.18,0,0,1-3.578.156,3.3,3.3,0,0,1-5.8-.629a2.427,2.427,0,0,1-.844-1.98l1.414.008a1.5,1.5,0,0,0,.453,1.141,1.732,1.732,0,0,0,1.242.43A2.436,2.436,0,0,0-2.2-1.355,1.247,1.247,0,0,0-1.555-2.289ZM4.945.156A3.048,3.048,0,0,1,2.477-1.008a4.006,4.006,0,0,1-.75-2.9l.039-.336a5.624,5.624,0,0,1,.746-2.3,4.339,4.339,0,0,1,1.5-1.566,3.491,3.491,0,0,1,1.906-.5,2.688,2.688,0,0,1,2.047.867,3.566,3.566,0,0,1,.813,2.266,6.621,6.621,0,0,1-.031,1.016l-.086.648H3.133a2.856,2.856,0,0,0,.379,1.953,1.8,1.8,0,0,0,1.551.836A3.007,3.007,0,0,0,7.375-2.148l.813.688a3.718,3.718,0,0,1-1.371,1.2A3.886,3.886,0,0,1,4.945.156Zm.9-7.586a2.066,2.066,0,0,0-1.527.594A4.22,4.22,0,0,0,3.281-5l4.109.008.031-.125a2.313,2.313,0,0,0-.316-1.637A1.488,1.488,0,0,0,5.844-7.43Zm7.313,6.414a2.145,2.145,0,0,0,1.367-.441,2.1,2.1,0,0,0,.8-1.2l1.336-.008a3.014,3.014,0,0,1-.637,1.453A3.553,3.553,0,0,1,14.711-.187a3.551,3.551,0,0,1-1.617.344,3.017,3.017,0,0,1-1.785-.551,3.084,3.084,0,0,1-1.074-1.492A4.972,4.972,0,0,1,10-4.039l.039-.391a5.605,5.605,0,0,1,.711-2.18,4.11,4.11,0,0,1,1.469-1.5,3.648,3.648,0,0,1,2-.5,2.857,2.857,0,0,1,2.125.891,3.08,3.08,0,0,1,.8,2.18l-1.32-.008a2.029,2.029,0,0,0-.461-1.34,1.607,1.607,0,0,0-1.2-.543,2.254,2.254,0,0,0-1.832.82,4.3,4.3,0,0,0-.91,2.359l-.023.2a6.776,6.776,0,0,0-.016,1.031,2.355,2.355,0,0,0,.516,1.445A1.656,1.656,0,0,0,13.156-1.016Zm9.328-7.594a3.047,3.047,0,0,1,1.82.578A3.285,3.285,0,0,1,25.426-6.48a4.8,4.8,0,0,1,.246,2.16l-.016.172a5.685,5.685,0,0,1-.734,2.23A4.309,4.309,0,0,1,23.406-.367a3.7,3.7,0,0,1-2.039.523,3.052,3.052,0,0,1-1.816-.578,3.21,3.21,0,0,1-1.113-1.531,4.931,4.931,0,0,1-.25-2.133A5.76,5.76,0,0,1,18.9-6.445a4.409,4.409,0,0,1,1.527-1.621A3.652,3.652,0,0,1,22.484-8.609ZM19.609-4.078a4.8,4.8,0,0,0,0,1.023,2.507,2.507,0,0,0,.551,1.469,1.653,1.653,0,0,0,1.262.57,2.253,2.253,0,0,0,1.3-.348,2.919,2.919,0,0,0,1-1.121,4.721,4.721,0,0,0,.523-1.664,7.494,7.494,0,0,0,.023-1.211,2.6,2.6,0,0,0-.57-1.492A1.69,1.69,0,0,0,22.43-7.43a2.3,2.3,0,0,0-1.859.859,4.245,4.245,0,0,0-.945,2.313Zm9.914-4.383-.2,1.07a3.333,3.333,0,0,1,2.594-1.219,2.1,2.1,0,0,1,1.766.828A3.217,3.217,0,0,1,34.1-5.539L33.18,0H31.766l.93-5.557a2.962,2.962,0,0,0,.008-.71,1.168,1.168,0,0,0-1.289-1.116A2.661,2.661,0,0,0,29.18-6.025L28.133,0H26.719l1.469-8.453Zm6.242,4.219a6.578,6.578,0,0,1,.711-2.328,4.03,4.03,0,0,1,1.367-1.555,3.127,3.127,0,0,1,1.789-.492A2.64,2.64,0,0,1,41.8-7.586L42.617-12h1.414L41.953,0H40.664l.148-.906A3.116,3.116,0,0,1,38.344.156a2.335,2.335,0,0,1-1.867-.918,4,4,0,0,1-.75-2.379A7.6,7.6,0,0,1,35.766-4.242Zm1.359.808a2.929,2.929,0,0,0,.4,1.732,1.437,1.437,0,0,0,1.234.632A2.554,2.554,0,0,0,40.938-2.3l.672-3.9a1.754,1.754,0,0,0-1.7-1.186,2.143,2.143,0,0,0-1.473.5,3.256,3.256,0,0,0-.969,1.475A6.082,6.082,0,0,0,37.125-3.435Zm8.1,1.794a.846.846,0,0,1,.633.234.807.807,0,0,1,.242.625.844.844,0,0,1-.258.621.929.929,0,0,1-.625.254A.807.807,0,0,1,44.6-.121a.807.807,0,0,1-.242-.613.886.886,0,0,1,.242-.637A.878.878,0,0,1,45.227-1.641Zm4.164,0a.846.846,0,0,1,.633.234.807.807,0,0,1,.242.625.844.844,0,0,1-.258.621.929.929,0,0,1-.625.254.807.807,0,0,1-.617-.215.807.807,0,0,1-.242-.613.886.886,0,0,1,.242-.637A.878.878,0,0,1,49.391-1.641Zm4.164,0a.846.846,0,0,1,.633.234.807.807,0,0,1,.242.625.844.844,0,0,1-.258.621.929.929,0,0,1-.625.254.807.807,0,0,1-.617-.215.807.807,0,0,1-.242-.613.886.886,0,0,1,.242-.637A.878.878,0,0,1,53.555-1.641Z" transform="translate(522 13374)" fill="#fb405f"/>
      <path id="Trazado_808284" data-name="Trazado 808284" d="M-51.023,0a1.894,1.894,0,0,1-.055-.445l.023-.445A3.465,3.465,0,0,1-53.523.156,2.526,2.526,0,0,1-55.34-.551a2.14,2.14,0,0,1-.637-1.73,2.6,2.6,0,0,1,1.176-2.1,5.005,5.005,0,0,1,2.887-.754l1.477.008.094-.672A1.545,1.545,0,0,0-50.637-7a1.414,1.414,0,0,0-1.113-.457,2.181,2.181,0,0,0-1.285.355,1.513,1.513,0,0,0-.684.98l-1.422.008a2.266,2.266,0,0,1,.578-1.316,3.363,3.363,0,0,1,1.3-.891,4.215,4.215,0,0,1,1.648-.3,2.8,2.8,0,0,1,2.055.8,2.484,2.484,0,0,1,.617,2.043l-.687,4.188-.039.6a2.949,2.949,0,0,0,.094.852L-49.586,0Zm-2.219-1.094a2.466,2.466,0,0,0,1.285-.324,3.254,3.254,0,0,0,1.043-.941l.3-1.742-1.07-.008a4.054,4.054,0,0,0-2.047.422,1.554,1.554,0,0,0-.8,1.2,1.21,1.21,0,0,0,.277.988A1.321,1.321,0,0,0-53.242-1.094ZM-46.984,0-45.7-7.336h-1.3l.2-1.117h1.3l.141-1a3.318,3.318,0,0,1,.984-1.992A2.926,2.926,0,0,1-42.3-12.18a4.884,4.884,0,0,1,1.008.134l-.172,1.187a4.636,4.636,0,0,0-.758-.094,1.614,1.614,0,0,0-1.191.456,2.073,2.073,0,0,0-.566,1.211l-.125.833h1.75l-.2,1.117H-44.3L-45.57,0Zm8.516-10.5-.359,2.047h1.539l-.2,1.117h-1.531L-39.9-2.078a1.833,1.833,0,0,0-.008.375.6.6,0,0,0,.664.609,4.05,4.05,0,0,0,.688-.078l-.109,1.18A3.847,3.847,0,0,1-39.7.148a1.476,1.476,0,0,1-1.266-.621A2.4,2.4,0,0,1-41.289-2.1l.859-5.234h-1.492l.2-1.117h1.492l.359-2.047ZM-33.4.156a3.048,3.048,0,0,1-2.469-1.164,4.006,4.006,0,0,1-.75-2.9l.039-.336a5.624,5.624,0,0,1,.746-2.3,4.339,4.339,0,0,1,1.5-1.566,3.491,3.491,0,0,1,1.906-.5,2.688,2.688,0,0,1,2.047.867,3.566,3.566,0,0,1,.813,2.266A6.621,6.621,0,0,1-29.6-4.461l-.086.648h-5.523a2.856,2.856,0,0,0,.379,1.953,1.8,1.8,0,0,0,1.551.836,3.007,3.007,0,0,0,2.313-1.125l.813.688a3.718,3.718,0,0,1-1.371,1.2A3.886,3.886,0,0,1-33.4.156Zm.9-7.586a2.066,2.066,0,0,0-1.527.594A4.22,4.22,0,0,0-35.062-5l4.109.008.031-.125a2.313,2.313,0,0,0-.316-1.637A1.488,1.488,0,0,0-32.5-7.43Zm9,.266-.664-.07A2.42,2.42,0,0,0-26.3-6.008L-27.344,0h-1.414l1.469-8.453,1.367-.008-.211.984a2.527,2.527,0,0,1,2.117-1.148,2.594,2.594,0,0,1,.672.117ZM-15.031,0h-1.422l1.672-9.594L-17.8-8.531l.242-1.375,4.219-1.523h.25ZM-1.555-2.289q.117-.875-.961-1.234l-1.469-.43q-1.859-.641-1.8-2.125A2.341,2.341,0,0,1-4.762-7.91a3.631,3.631,0,0,1,2.27-.7A3.027,3.027,0,0,1-.41-7.863a2.363,2.363,0,0,1,.77,1.9l-1.406-.008A1.319,1.319,0,0,0-1.445-7a1.576,1.576,0,0,0-1.1-.414,2.059,2.059,0,0,0-1.266.359,1.316,1.316,0,0,0-.57.922q-.1.734.9,1.07l.711.2a4.577,4.577,0,0,1,2.063.977A1.865,1.865,0,0,1-.148-2.4,2.37,2.37,0,0,1-.664-1.023a2.948,2.948,0,0,1-1.25.895A4.18,4.18,0,0,1-3.578.156,3.3,3.3,0,0,1-5.8-.629a2.427,2.427,0,0,1-.844-1.98l1.414.008a1.5,1.5,0,0,0,.453,1.141,1.732,1.732,0,0,0,1.242.43A2.436,2.436,0,0,0-2.2-1.355,1.247,1.247,0,0,0-1.555-2.289ZM4.945.156A3.048,3.048,0,0,1,2.477-1.008a4.006,4.006,0,0,1-.75-2.9l.039-.336a5.624,5.624,0,0,1,.746-2.3,4.339,4.339,0,0,1,1.5-1.566,3.491,3.491,0,0,1,1.906-.5,2.688,2.688,0,0,1,2.047.867,3.566,3.566,0,0,1,.813,2.266,6.621,6.621,0,0,1-.031,1.016l-.086.648H3.133a2.856,2.856,0,0,0,.379,1.953,1.8,1.8,0,0,0,1.551.836A3.007,3.007,0,0,0,7.375-2.148l.813.688a3.718,3.718,0,0,1-1.371,1.2A3.886,3.886,0,0,1,4.945.156Zm.9-7.586a2.066,2.066,0,0,0-1.527.594A4.22,4.22,0,0,0,3.281-5l4.109.008.031-.125a2.313,2.313,0,0,0-.316-1.637A1.488,1.488,0,0,0,5.844-7.43Zm7.313,6.414a2.145,2.145,0,0,0,1.367-.441,2.1,2.1,0,0,0,.8-1.2l1.336-.008a3.014,3.014,0,0,1-.637,1.453A3.553,3.553,0,0,1,14.711-.187a3.551,3.551,0,0,1-1.617.344,3.017,3.017,0,0,1-1.785-.551,3.084,3.084,0,0,1-1.074-1.492A4.972,4.972,0,0,1,10-4.039l.039-.391a5.605,5.605,0,0,1,.711-2.18,4.11,4.11,0,0,1,1.469-1.5,3.648,3.648,0,0,1,2-.5,2.857,2.857,0,0,1,2.125.891,3.08,3.08,0,0,1,.8,2.18l-1.32-.008a2.029,2.029,0,0,0-.461-1.34,1.607,1.607,0,0,0-1.2-.543,2.254,2.254,0,0,0-1.832.82,4.3,4.3,0,0,0-.91,2.359l-.023.2a6.776,6.776,0,0,0-.016,1.031,2.355,2.355,0,0,0,.516,1.445A1.656,1.656,0,0,0,13.156-1.016Zm9.328-7.594a3.047,3.047,0,0,1,1.82.578A3.285,3.285,0,0,1,25.426-6.48a4.8,4.8,0,0,1,.246,2.16l-.016.172a5.685,5.685,0,0,1-.734,2.23A4.309,4.309,0,0,1,23.406-.367a3.7,3.7,0,0,1-2.039.523,3.052,3.052,0,0,1-1.816-.578,3.21,3.21,0,0,1-1.113-1.531,4.931,4.931,0,0,1-.25-2.133A5.76,5.76,0,0,1,18.9-6.445a4.409,4.409,0,0,1,1.527-1.621A3.652,3.652,0,0,1,22.484-8.609ZM19.609-4.078a4.8,4.8,0,0,0,0,1.023,2.507,2.507,0,0,0,.551,1.469,1.653,1.653,0,0,0,1.262.57,2.253,2.253,0,0,0,1.3-.348,2.919,2.919,0,0,0,1-1.121,4.721,4.721,0,0,0,.523-1.664,7.494,7.494,0,0,0,.023-1.211,2.6,2.6,0,0,0-.57-1.492A1.69,1.69,0,0,0,22.43-7.43a2.3,2.3,0,0,0-1.859.859,4.245,4.245,0,0,0-.945,2.313Zm9.914-4.383-.2,1.07a3.333,3.333,0,0,1,2.594-1.219,2.1,2.1,0,0,1,1.766.828A3.217,3.217,0,0,1,34.1-5.539L33.18,0H31.766l.93-5.557a2.962,2.962,0,0,0,.008-.71,1.168,1.168,0,0,0-1.289-1.116A2.661,2.661,0,0,0,29.18-6.025L28.133,0H26.719l1.469-8.453Zm6.242,4.219a6.578,6.578,0,0,1,.711-2.328,4.03,4.03,0,0,1,1.367-1.555,3.127,3.127,0,0,1,1.789-.492A2.64,2.64,0,0,1,41.8-7.586L42.617-12h1.414L41.953,0H40.664l.148-.906A3.116,3.116,0,0,1,38.344.156a2.335,2.335,0,0,1-1.867-.918,4,4,0,0,1-.75-2.379A7.6,7.6,0,0,1,35.766-4.242Zm1.359.808a2.929,2.929,0,0,0,.4,1.732,1.437,1.437,0,0,0,1.234.632A2.554,2.554,0,0,0,40.938-2.3l.672-3.9a1.754,1.754,0,0,0-1.7-1.186,2.143,2.143,0,0,0-1.473.5,3.256,3.256,0,0,0-.969,1.475A6.082,6.082,0,0,0,37.125-3.435Zm8.1,1.794a.846.846,0,0,1,.633.234.807.807,0,0,1,.242.625.844.844,0,0,1-.258.621.929.929,0,0,1-.625.254A.807.807,0,0,1,44.6-.121a.807.807,0,0,1-.242-.613.886.886,0,0,1,.242-.637A.878.878,0,0,1,45.227-1.641Zm4.164,0a.846.846,0,0,1,.633.234.807.807,0,0,1,.242.625.844.844,0,0,1-.258.621.929.929,0,0,1-.625.254.807.807,0,0,1-.617-.215.807.807,0,0,1-.242-.613.886.886,0,0,1,.242-.637A.878.878,0,0,1,49.391-1.641Zm4.164,0a.846.846,0,0,1,.633.234.807.807,0,0,1,.242.625.844.844,0,0,1-.258.621.929.929,0,0,1-.625.254.807.807,0,0,1-.617-.215.807.807,0,0,1-.242-.613.886.886,0,0,1,.242-.637A.878.878,0,0,1,53.555-1.641Z" transform="translate(522 13495)" fill="#fb405f"/>
      <path id="Trazado_808279" data-name="Trazado 808279" d="M-5.738-8.461l-.2,1.07A3.333,3.333,0,0,1-3.348-8.609a2.1,2.1,0,0,1,1.766.828A3.217,3.217,0,0,1-1.16-5.539L-2.082,0H-3.5l.93-5.557a2.962,2.962,0,0,0,.008-.71A1.168,1.168,0,0,0-3.848-7.383,2.661,2.661,0,0,0-6.082-6.025L-7.129,0H-8.543l1.469-8.453ZM4.793-8.609a3.047,3.047,0,0,1,1.82.578A3.285,3.285,0,0,1,7.734-6.48,4.8,4.8,0,0,1,7.98-4.32l-.016.172a5.685,5.685,0,0,1-.734,2.23A4.309,4.309,0,0,1,5.715-.367,3.7,3.7,0,0,1,3.676.156,3.052,3.052,0,0,1,1.859-.422,3.21,3.21,0,0,1,.746-1.953,4.931,4.931,0,0,1,.5-4.086a5.76,5.76,0,0,1,.711-2.359A4.409,4.409,0,0,1,2.734-8.066,3.652,3.652,0,0,1,4.793-8.609ZM1.918-4.078a4.8,4.8,0,0,0,0,1.023,2.507,2.507,0,0,0,.551,1.469,1.653,1.653,0,0,0,1.262.57,2.253,2.253,0,0,0,1.3-.348,2.919,2.919,0,0,0,1-1.121,4.721,4.721,0,0,0,.523-1.664,7.494,7.494,0,0,0,.023-1.211A2.6,2.6,0,0,0,6-6.852,1.69,1.69,0,0,0,4.738-7.43a2.3,2.3,0,0,0-1.859.859,4.245,4.245,0,0,0-.945,2.313Z" transform="translate(800 13310)" fill="#12263f"/>
      <path id="Trazado_808285" data-name="Trazado 808285" d="M-5.738-8.461l-.2,1.07A3.333,3.333,0,0,1-3.348-8.609a2.1,2.1,0,0,1,1.766.828A3.217,3.217,0,0,1-1.16-5.539L-2.082,0H-3.5l.93-5.557a2.962,2.962,0,0,0,.008-.71A1.168,1.168,0,0,0-3.848-7.383,2.661,2.661,0,0,0-6.082-6.025L-7.129,0H-8.543l1.469-8.453ZM4.793-8.609a3.047,3.047,0,0,1,1.82.578A3.285,3.285,0,0,1,7.734-6.48,4.8,4.8,0,0,1,7.98-4.32l-.016.172a5.685,5.685,0,0,1-.734,2.23A4.309,4.309,0,0,1,5.715-.367,3.7,3.7,0,0,1,3.676.156,3.052,3.052,0,0,1,1.859-.422,3.21,3.21,0,0,1,.746-1.953,4.931,4.931,0,0,1,.5-4.086a5.76,5.76,0,0,1,.711-2.359A4.409,4.409,0,0,1,2.734-8.066,3.652,3.652,0,0,1,4.793-8.609ZM1.918-4.078a4.8,4.8,0,0,0,0,1.023,2.507,2.507,0,0,0,.551,1.469,1.653,1.653,0,0,0,1.262.57,2.253,2.253,0,0,0,1.3-.348,2.919,2.919,0,0,0,1-1.121,4.721,4.721,0,0,0,.523-1.664,7.494,7.494,0,0,0,.023-1.211A2.6,2.6,0,0,0,6-6.852,1.69,1.69,0,0,0,4.738-7.43a2.3,2.3,0,0,0-1.859.859,4.245,4.245,0,0,0-.945,2.313Z" transform="translate(800 13429)" fill="#12263f"/>
      <path id="Trazado_808287" data-name="Trazado 808287" d="M-8.625-2.133l3.008-6.32h1.563L-9.07,1.406q-1.047,2.055-2.687,2.031a4.6,4.6,0,0,1-.852-.141l.125-1.172.367.039a1.853,1.853,0,0,0,1.16-.3A2.772,2.772,0,0,0-10.094.789l.508-.969-1.461-8.273H-9.57ZM-.578.156A3.048,3.048,0,0,1-3.047-1.008a4.006,4.006,0,0,1-.75-2.9l.039-.336a5.624,5.624,0,0,1,.746-2.3,4.339,4.339,0,0,1,1.5-1.566,3.491,3.491,0,0,1,1.906-.5,2.688,2.688,0,0,1,2.047.867A3.566,3.566,0,0,1,3.25-5.477a6.621,6.621,0,0,1-.031,1.016l-.086.648H-2.391a2.856,2.856,0,0,0,.379,1.953,1.8,1.8,0,0,0,1.551.836A3.007,3.007,0,0,0,1.852-2.148l.813.688a3.718,3.718,0,0,1-1.371,1.2A3.886,3.886,0,0,1-.578.156ZM.32-7.43a2.066,2.066,0,0,0-1.527.594A4.22,4.22,0,0,0-2.242-5l4.109.008L1.9-5.117a2.313,2.313,0,0,0-.316-1.637A1.488,1.488,0,0,0,.32-7.43ZM9.3-2.289q.117-.875-.961-1.234l-1.469-.43q-1.859-.641-1.8-2.125A2.341,2.341,0,0,1,6.09-7.91a3.631,3.631,0,0,1,2.27-.7,3.027,3.027,0,0,1,2.082.746,2.363,2.363,0,0,1,.77,1.9L9.8-5.969A1.319,1.319,0,0,0,9.406-7a1.576,1.576,0,0,0-1.1-.414,2.059,2.059,0,0,0-1.266.359,1.316,1.316,0,0,0-.57.922q-.1.734.9,1.07l.711.2a4.577,4.577,0,0,1,2.063.977A1.865,1.865,0,0,1,10.7-2.4a2.37,2.37,0,0,1-.516,1.375,2.948,2.948,0,0,1-1.25.895A4.18,4.18,0,0,1,7.273.156,3.3,3.3,0,0,1,5.055-.629a2.427,2.427,0,0,1-.844-1.98L5.625-2.6a1.5,1.5,0,0,0,.453,1.141,1.732,1.732,0,0,0,1.242.43,2.436,2.436,0,0,0,1.336-.324A1.247,1.247,0,0,0,9.3-2.289Z" transform="translate(800 13550)" fill="#12263f"/>
      <path id="Trazado_808278" data-name="Trazado 808278" d="M-17.348-2.383q.125-.625-.867-.906l-.711-.18q-2.523-.7-2.453-2.453A2.428,2.428,0,0,1-20.32-7.871a3.942,3.942,0,0,1,2.457-.738,3.536,3.536,0,0,1,2.313.758,2.5,2.5,0,0,1,.9,1.977l-2.187-.008a.963.963,0,0,0-1.078-1.1,1.551,1.551,0,0,0-.895.258,1.061,1.061,0,0,0-.465.7q-.117.625.945.883l.313.07a6.285,6.285,0,0,1,1.648.59,2.488,2.488,0,0,1,.879.824,2.04,2.04,0,0,1,.285,1.18,2.251,2.251,0,0,1-.52,1.406,3.18,3.18,0,0,1-1.359.93,4.736,4.736,0,0,1-1.816.3,3.568,3.568,0,0,1-2.344-.809A2.607,2.607,0,0,1-22.2-2.7l2.078.016a1.142,1.142,0,0,0,1.3,1.227,1.845,1.845,0,0,0,1-.25A.987.987,0,0,0-17.348-2.383ZM-10.176.156a3.677,3.677,0,0,1-1.965-.543,3.292,3.292,0,0,1-1.277-1.469,4.093,4.093,0,0,1-.328-2.059l.023-.312A5.465,5.465,0,0,1-13-6.492a4.341,4.341,0,0,1,1.547-1.59,3.827,3.827,0,0,1,2.094-.527,2.924,2.924,0,0,1,2.473,1.2,4.117,4.117,0,0,1,.637,2.962l-.125.962h-5.18a1.814,1.814,0,0,0,.4,1.313,1.521,1.521,0,0,0,1.172.508A2.7,2.7,0,0,0-7.879-2.6l1.008,1.25A3.135,3.135,0,0,1-8.246-.23,4.5,4.5,0,0,1-10.176.156Zm.7-6.945a1.565,1.565,0,0,0-1.082.383A3.363,3.363,0,0,0-11.4-5.023h3.031l.047-.2a2.071,2.071,0,0,0,.008-.594A1.134,1.134,0,0,0-8.7-6.527,1.2,1.2,0,0,0-9.473-6.789Zm9.539.453a4.548,4.548,0,0,0-.742-.078,2.136,2.136,0,0,0-1.867.883L-3.52,0h-2.2l1.469-8.453,2.07-.008-.2,1.031a2.325,2.325,0,0,1,1.969-1.2,3.214,3.214,0,0,1,.766.109ZM3.715-2.789,6.121-8.453H8.5L4.41,0H2.3L.855-8.453H3.09ZM12.1.156a3.677,3.677,0,0,1-1.965-.543A3.292,3.292,0,0,1,8.855-1.855a4.093,4.093,0,0,1-.328-2.059l.023-.312A5.465,5.465,0,0,1,9.27-6.492a4.341,4.341,0,0,1,1.547-1.59,3.827,3.827,0,0,1,2.094-.527,2.924,2.924,0,0,1,2.473,1.2,4.117,4.117,0,0,1,.637,2.962l-.125.962h-5.18a1.814,1.814,0,0,0,.4,1.313,1.521,1.521,0,0,0,1.172.508A2.7,2.7,0,0,0,14.395-2.6L15.4-1.352A3.135,3.135,0,0,1,14.027-.23,4.5,4.5,0,0,1,12.1.156Zm.7-6.945a1.565,1.565,0,0,0-1.082.383,3.363,3.363,0,0,0-.848,1.383H13.9l.047-.2a2.071,2.071,0,0,0,.008-.594,1.134,1.134,0,0,0-.383-.707A1.2,1.2,0,0,0,12.8-6.789Zm9.539.453a4.548,4.548,0,0,0-.742-.078,2.136,2.136,0,0,0-1.867.883L18.754,0h-2.2L18.02-8.453l2.07-.008-.2,1.031a2.325,2.325,0,0,1,1.969-1.2,3.214,3.214,0,0,1,.766.109Z" transform="translate(571 13308)" fill="#fff"/>
      <path id="Trazado_808283" data-name="Trazado 808283" d="M-17.348-2.383q.125-.625-.867-.906l-.711-.18q-2.523-.7-2.453-2.453A2.428,2.428,0,0,1-20.32-7.871a3.942,3.942,0,0,1,2.457-.738,3.536,3.536,0,0,1,2.313.758,2.5,2.5,0,0,1,.9,1.977l-2.187-.008a.963.963,0,0,0-1.078-1.1,1.551,1.551,0,0,0-.895.258,1.061,1.061,0,0,0-.465.7q-.117.625.945.883l.313.07a6.285,6.285,0,0,1,1.648.59,2.488,2.488,0,0,1,.879.824,2.04,2.04,0,0,1,.285,1.18,2.251,2.251,0,0,1-.52,1.406,3.18,3.18,0,0,1-1.359.93,4.736,4.736,0,0,1-1.816.3,3.568,3.568,0,0,1-2.344-.809A2.607,2.607,0,0,1-22.2-2.7l2.078.016a1.142,1.142,0,0,0,1.3,1.227,1.845,1.845,0,0,0,1-.25A.987.987,0,0,0-17.348-2.383ZM-10.176.156a3.677,3.677,0,0,1-1.965-.543,3.292,3.292,0,0,1-1.277-1.469,4.093,4.093,0,0,1-.328-2.059l.023-.312A5.465,5.465,0,0,1-13-6.492a4.341,4.341,0,0,1,1.547-1.59,3.827,3.827,0,0,1,2.094-.527,2.924,2.924,0,0,1,2.473,1.2,4.117,4.117,0,0,1,.637,2.962l-.125.962h-5.18a1.814,1.814,0,0,0,.4,1.313,1.521,1.521,0,0,0,1.172.508A2.7,2.7,0,0,0-7.879-2.6l1.008,1.25A3.135,3.135,0,0,1-8.246-.23,4.5,4.5,0,0,1-10.176.156Zm.7-6.945a1.565,1.565,0,0,0-1.082.383A3.363,3.363,0,0,0-11.4-5.023h3.031l.047-.2a2.071,2.071,0,0,0,.008-.594A1.134,1.134,0,0,0-8.7-6.527,1.2,1.2,0,0,0-9.473-6.789Zm9.539.453a4.548,4.548,0,0,0-.742-.078,2.136,2.136,0,0,0-1.867.883L-3.52,0h-2.2l1.469-8.453,2.07-.008-.2,1.031a2.325,2.325,0,0,1,1.969-1.2,3.214,3.214,0,0,1,.766.109ZM3.715-2.789,6.121-8.453H8.5L4.41,0H2.3L.855-8.453H3.09ZM12.1.156a3.677,3.677,0,0,1-1.965-.543A3.292,3.292,0,0,1,8.855-1.855a4.093,4.093,0,0,1-.328-2.059l.023-.312A5.465,5.465,0,0,1,9.27-6.492a4.341,4.341,0,0,1,1.547-1.59,3.827,3.827,0,0,1,2.094-.527,2.924,2.924,0,0,1,2.473,1.2,4.117,4.117,0,0,1,.637,2.962l-.125.962h-5.18a1.814,1.814,0,0,0,.4,1.313,1.521,1.521,0,0,0,1.172.508A2.7,2.7,0,0,0,14.395-2.6L15.4-1.352A3.135,3.135,0,0,1,14.027-.23,4.5,4.5,0,0,1,12.1.156Zm.7-6.945a1.565,1.565,0,0,0-1.082.383,3.363,3.363,0,0,0-.848,1.383H13.9l.047-.2a2.071,2.071,0,0,0,.008-.594,1.134,1.134,0,0,0-.383-.707A1.2,1.2,0,0,0,12.8-6.789Zm9.539.453a4.548,4.548,0,0,0-.742-.078,2.136,2.136,0,0,0-1.867.883L18.754,0h-2.2L18.02-8.453l2.07-.008-.2,1.031a2.325,2.325,0,0,1,1.969-1.2,3.214,3.214,0,0,1,.766.109Z" transform="translate(571 13429)" fill="#fff"/>
      <path id="Trazado_808288" data-name="Trazado 808288" d="M-17.348-2.383q.125-.625-.867-.906l-.711-.18q-2.523-.7-2.453-2.453A2.428,2.428,0,0,1-20.32-7.871a3.942,3.942,0,0,1,2.457-.738,3.536,3.536,0,0,1,2.313.758,2.5,2.5,0,0,1,.9,1.977l-2.187-.008a.963.963,0,0,0-1.078-1.1,1.551,1.551,0,0,0-.895.258,1.061,1.061,0,0,0-.465.7q-.117.625.945.883l.313.07a6.285,6.285,0,0,1,1.648.59,2.488,2.488,0,0,1,.879.824,2.04,2.04,0,0,1,.285,1.18,2.251,2.251,0,0,1-.52,1.406,3.18,3.18,0,0,1-1.359.93,4.736,4.736,0,0,1-1.816.3,3.568,3.568,0,0,1-2.344-.809A2.607,2.607,0,0,1-22.2-2.7l2.078.016a1.142,1.142,0,0,0,1.3,1.227,1.845,1.845,0,0,0,1-.25A.987.987,0,0,0-17.348-2.383ZM-10.176.156a3.677,3.677,0,0,1-1.965-.543,3.292,3.292,0,0,1-1.277-1.469,4.093,4.093,0,0,1-.328-2.059l.023-.312A5.465,5.465,0,0,1-13-6.492a4.341,4.341,0,0,1,1.547-1.59,3.827,3.827,0,0,1,2.094-.527,2.924,2.924,0,0,1,2.473,1.2,4.117,4.117,0,0,1,.637,2.962l-.125.962h-5.18a1.814,1.814,0,0,0,.4,1.313,1.521,1.521,0,0,0,1.172.508A2.7,2.7,0,0,0-7.879-2.6l1.008,1.25A3.135,3.135,0,0,1-8.246-.23,4.5,4.5,0,0,1-10.176.156Zm.7-6.945a1.565,1.565,0,0,0-1.082.383A3.363,3.363,0,0,0-11.4-5.023h3.031l.047-.2a2.071,2.071,0,0,0,.008-.594A1.134,1.134,0,0,0-8.7-6.527,1.2,1.2,0,0,0-9.473-6.789Zm9.539.453a4.548,4.548,0,0,0-.742-.078,2.136,2.136,0,0,0-1.867.883L-3.52,0h-2.2l1.469-8.453,2.07-.008-.2,1.031a2.325,2.325,0,0,1,1.969-1.2,3.214,3.214,0,0,1,.766.109ZM3.715-2.789,6.121-8.453H8.5L4.41,0H2.3L.855-8.453H3.09ZM12.1.156a3.677,3.677,0,0,1-1.965-.543A3.292,3.292,0,0,1,8.855-1.855a4.093,4.093,0,0,1-.328-2.059l.023-.312A5.465,5.465,0,0,1,9.27-6.492a4.341,4.341,0,0,1,1.547-1.59,3.827,3.827,0,0,1,2.094-.527,2.924,2.924,0,0,1,2.473,1.2,4.117,4.117,0,0,1,.637,2.962l-.125.962h-5.18a1.814,1.814,0,0,0,.4,1.313,1.521,1.521,0,0,0,1.172.508A2.7,2.7,0,0,0,14.395-2.6L15.4-1.352A3.135,3.135,0,0,1,14.027-.23,4.5,4.5,0,0,1,12.1.156Zm.7-6.945a1.565,1.565,0,0,0-1.082.383,3.363,3.363,0,0,0-.848,1.383H13.9l.047-.2a2.071,2.071,0,0,0,.008-.594,1.134,1.134,0,0,0-.383-.707A1.2,1.2,0,0,0,12.8-6.789Zm9.539.453a4.548,4.548,0,0,0-.742-.078,2.136,2.136,0,0,0-1.867.883L18.754,0h-2.2L18.02-8.453l2.07-.008-.2,1.031a2.325,2.325,0,0,1,1.969-1.2,3.214,3.214,0,0,1,.766.109Z" transform="translate(571 13550)" fill="#fff"/>
      <path id="Trazado_808280" data-name="Trazado 808280" d="M-15.836-1.656a1.447,1.447,0,0,0,1.016-.332,1.632,1.632,0,0,0,.531-.926l2.07-.008a3.037,3.037,0,0,1-.559,1.6A3.394,3.394,0,0,1-14.121-.211a3.847,3.847,0,0,1-1.77.375A3.123,3.123,0,0,1-18.328-.9,3.965,3.965,0,0,1-19.2-3.664l.023-.43.008-.086a5.284,5.284,0,0,1,1.391-3.27,3.761,3.761,0,0,1,2.914-1.16,3.047,3.047,0,0,1,2.27.934A3.3,3.3,0,0,1-11.766-5.3H-13.82a1.73,1.73,0,0,0-.3-1.07,1.128,1.128,0,0,0-.891-.422q-1.578-.047-1.914,2.3a7.782,7.782,0,0,0-.086,1.438Q-16.93-1.68-15.836-1.656ZM-9.039,0h-2.219l2.086-12h2.211Zm4.2,0H-7.062l1.469-8.453h2.219Zm-.492-10.6a1.1,1.1,0,0,1,.344-.867,1.209,1.209,0,0,1,.867-.344,1.215,1.215,0,0,1,.867.3,1.1,1.1,0,0,1,.383.828,1.132,1.132,0,0,1-.324.844,1.215,1.215,0,0,1-.887.375,1.235,1.235,0,0,1-.863-.3A1.091,1.091,0,0,1-5.336-10.6ZM1.039.156A3.677,3.677,0,0,1-.926-.387,3.292,3.292,0,0,1-2.2-1.855a4.093,4.093,0,0,1-.328-2.059l.023-.312a5.465,5.465,0,0,1,.719-2.266A4.341,4.341,0,0,1-.242-8.082a3.827,3.827,0,0,1,2.094-.527,2.924,2.924,0,0,1,2.473,1.2,4.117,4.117,0,0,1,.637,2.962l-.125.962H-.344a1.814,1.814,0,0,0,.4,1.313,1.521,1.521,0,0,0,1.172.508A2.7,2.7,0,0,0,3.336-2.6l1.008,1.25A3.135,3.135,0,0,1,2.969-.23,4.5,4.5,0,0,1,1.039.156Zm.7-6.945A1.565,1.565,0,0,0,.66-6.406,3.363,3.363,0,0,0-.187-5.023H2.844l.047-.2A2.071,2.071,0,0,0,2.9-5.82a1.134,1.134,0,0,0-.383-.707A1.2,1.2,0,0,0,1.742-6.789ZM8.977-8.461l-.187,1A3.042,3.042,0,0,1,11.25-8.609a2.028,2.028,0,0,1,1.766.875,3.526,3.526,0,0,1,.414,2.359L12.539,0h-2.2l.906-5.4a2.528,2.528,0,0,0,.016-.555.9.9,0,0,0-1-.82,1.9,1.9,0,0,0-1.555.8L7.648,0h-2.2L6.914-8.453Zm9.758-2.07-.367,2.078h1.406L19.484-6.8H18.078l-.719,4.234a1.077,1.077,0,0,0,.063.609q.109.211.531.227.125.008.672-.039L18.469-.039A3.706,3.706,0,0,1,17.2.141a1.985,1.985,0,0,1-1.617-.68,2.456,2.456,0,0,1-.437-1.8L15.875-6.8h-1.2l.289-1.656h1.2l.359-2.078Z" transform="translate(1040 13308)" fill="#fff"/>
      <path id="Trazado_808290" data-name="Trazado 808290" d="M-15.836-1.656a1.447,1.447,0,0,0,1.016-.332,1.632,1.632,0,0,0,.531-.926l2.07-.008a3.037,3.037,0,0,1-.559,1.6A3.394,3.394,0,0,1-14.121-.211a3.847,3.847,0,0,1-1.77.375A3.123,3.123,0,0,1-18.328-.9,3.965,3.965,0,0,1-19.2-3.664l.023-.43.008-.086a5.284,5.284,0,0,1,1.391-3.27,3.761,3.761,0,0,1,2.914-1.16,3.047,3.047,0,0,1,2.27.934A3.3,3.3,0,0,1-11.766-5.3H-13.82a1.73,1.73,0,0,0-.3-1.07,1.128,1.128,0,0,0-.891-.422q-1.578-.047-1.914,2.3a7.782,7.782,0,0,0-.086,1.438Q-16.93-1.68-15.836-1.656ZM-9.039,0h-2.219l2.086-12h2.211Zm4.2,0H-7.062l1.469-8.453h2.219Zm-.492-10.6a1.1,1.1,0,0,1,.344-.867,1.209,1.209,0,0,1,.867-.344,1.215,1.215,0,0,1,.867.3,1.1,1.1,0,0,1,.383.828,1.132,1.132,0,0,1-.324.844,1.215,1.215,0,0,1-.887.375,1.235,1.235,0,0,1-.863-.3A1.091,1.091,0,0,1-5.336-10.6ZM1.039.156A3.677,3.677,0,0,1-.926-.387,3.292,3.292,0,0,1-2.2-1.855a4.093,4.093,0,0,1-.328-2.059l.023-.312a5.465,5.465,0,0,1,.719-2.266A4.341,4.341,0,0,1-.242-8.082a3.827,3.827,0,0,1,2.094-.527,2.924,2.924,0,0,1,2.473,1.2,4.117,4.117,0,0,1,.637,2.962l-.125.962H-.344a1.814,1.814,0,0,0,.4,1.313,1.521,1.521,0,0,0,1.172.508A2.7,2.7,0,0,0,3.336-2.6l1.008,1.25A3.135,3.135,0,0,1,2.969-.23,4.5,4.5,0,0,1,1.039.156Zm.7-6.945A1.565,1.565,0,0,0,.66-6.406,3.363,3.363,0,0,0-.187-5.023H2.844l.047-.2A2.071,2.071,0,0,0,2.9-5.82a1.134,1.134,0,0,0-.383-.707A1.2,1.2,0,0,0,1.742-6.789ZM8.977-8.461l-.187,1A3.042,3.042,0,0,1,11.25-8.609a2.028,2.028,0,0,1,1.766.875,3.526,3.526,0,0,1,.414,2.359L12.539,0h-2.2l.906-5.4a2.528,2.528,0,0,0,.016-.555.9.9,0,0,0-1-.82,1.9,1.9,0,0,0-1.555.8L7.648,0h-2.2L6.914-8.453Zm9.758-2.07-.367,2.078h1.406L19.484-6.8H18.078l-.719,4.234a1.077,1.077,0,0,0,.063.609q.109.211.531.227.125.008.672-.039L18.469-.039A3.706,3.706,0,0,1,17.2.141a1.985,1.985,0,0,1-1.617-.68,2.456,2.456,0,0,1-.437-1.8L15.875-6.8h-1.2l.289-1.656h1.2l.359-2.078Z" transform="translate(1040 13429)" fill="#fff"/>
      <path id="Trazado_808289" data-name="Trazado 808289" d="M-15.836-1.656a1.447,1.447,0,0,0,1.016-.332,1.632,1.632,0,0,0,.531-.926l2.07-.008a3.037,3.037,0,0,1-.559,1.6A3.394,3.394,0,0,1-14.121-.211a3.847,3.847,0,0,1-1.77.375A3.123,3.123,0,0,1-18.328-.9,3.965,3.965,0,0,1-19.2-3.664l.023-.43.008-.086a5.284,5.284,0,0,1,1.391-3.27,3.761,3.761,0,0,1,2.914-1.16,3.047,3.047,0,0,1,2.27.934A3.3,3.3,0,0,1-11.766-5.3H-13.82a1.73,1.73,0,0,0-.3-1.07,1.128,1.128,0,0,0-.891-.422q-1.578-.047-1.914,2.3a7.782,7.782,0,0,0-.086,1.438Q-16.93-1.68-15.836-1.656ZM-9.039,0h-2.219l2.086-12h2.211Zm4.2,0H-7.062l1.469-8.453h2.219Zm-.492-10.6a1.1,1.1,0,0,1,.344-.867,1.209,1.209,0,0,1,.867-.344,1.215,1.215,0,0,1,.867.3,1.1,1.1,0,0,1,.383.828,1.132,1.132,0,0,1-.324.844,1.215,1.215,0,0,1-.887.375,1.235,1.235,0,0,1-.863-.3A1.091,1.091,0,0,1-5.336-10.6ZM1.039.156A3.677,3.677,0,0,1-.926-.387,3.292,3.292,0,0,1-2.2-1.855a4.093,4.093,0,0,1-.328-2.059l.023-.312a5.465,5.465,0,0,1,.719-2.266A4.341,4.341,0,0,1-.242-8.082a3.827,3.827,0,0,1,2.094-.527,2.924,2.924,0,0,1,2.473,1.2,4.117,4.117,0,0,1,.637,2.962l-.125.962H-.344a1.814,1.814,0,0,0,.4,1.313,1.521,1.521,0,0,0,1.172.508A2.7,2.7,0,0,0,3.336-2.6l1.008,1.25A3.135,3.135,0,0,1,2.969-.23,4.5,4.5,0,0,1,1.039.156Zm.7-6.945A1.565,1.565,0,0,0,.66-6.406,3.363,3.363,0,0,0-.187-5.023H2.844l.047-.2A2.071,2.071,0,0,0,2.9-5.82a1.134,1.134,0,0,0-.383-.707A1.2,1.2,0,0,0,1.742-6.789ZM8.977-8.461l-.187,1A3.042,3.042,0,0,1,11.25-8.609a2.028,2.028,0,0,1,1.766.875,3.526,3.526,0,0,1,.414,2.359L12.539,0h-2.2l.906-5.4a2.528,2.528,0,0,0,.016-.555.9.9,0,0,0-1-.82,1.9,1.9,0,0,0-1.555.8L7.648,0h-2.2L6.914-8.453Zm9.758-2.07-.367,2.078h1.406L19.484-6.8H18.078l-.719,4.234a1.077,1.077,0,0,0,.063.609q.109.211.531.227.125.008.672-.039L18.469-.039A3.706,3.706,0,0,1,17.2.141a1.985,1.985,0,0,1-1.617-.68,2.456,2.456,0,0,1-.437-1.8L15.875-6.8h-1.2l.289-1.656h1.2l.359-2.078Z" transform="translate(1040 13550)" fill="#fff"/>
      <g id="Grupo_1067532" data-name="Grupo 1067532" transform="translate(0 9.667)">
        <line id="Línea_2048" data-name="Línea 2048" x2="190" transform="translate(705 13281.5)" fill="none" stroke="#fb405f" stroke-width="2" stroke-dasharray="6 2"/>
        <circle id="Elipse_4865" data-name="Elipse 4865" cx="6" cy="6" r="6" transform="translate(889 13275)" fill="#fb405f"/>
        <path id="Trazado_808198" data-name="Trazado 808198" d="M-3120,1574.333l-12,10,12,9" transform="translate(3837 11697)" fill="none" stroke="#fb405f" stroke-linecap="round" stroke-width="2"/>
      </g>
      <g id="Grupo_1067534" data-name="Grupo 1067534" transform="translate(0 128.667)">
        <line id="Línea_2048-2" data-name="Línea 2048" x2="190" transform="translate(705 13281.5)" fill="none" stroke="#fb405f" stroke-width="2" stroke-dasharray="6 2"/>
        <circle id="Elipse_4865-2" data-name="Elipse 4865" cx="6" cy="6" r="6" transform="translate(889 13275)" fill="#fb405f"/>
        <path id="Trazado_808198-2" data-name="Trazado 808198" d="M-3120,1574.333l-12,10,12,9" transform="translate(3837 11697)" fill="none" stroke="#fb405f" stroke-linecap="round" stroke-width="2"/>
      </g>
      <g id="Grupo_1067536" data-name="Grupo 1067536" transform="translate(0 249.667)">
        <line id="Línea_2048-3" data-name="Línea 2048" x2="190" transform="translate(705 13281.5)" fill="none" stroke="#fb405f" stroke-width="2" stroke-dasharray="6 2"/>
        <circle id="Elipse_4865-3" data-name="Elipse 4865" cx="6" cy="6" r="6" transform="translate(889 13275)" fill="#fb405f"/>
        <path id="Trazado_808198-3" data-name="Trazado 808198" d="M-3120,1574.333l-12,10,12,9" transform="translate(3837 11697)" fill="none" stroke="#fb405f" stroke-linecap="round" stroke-width="2"/>
      </g>
      <g id="Grupo_1067533" data-name="Grupo 1067533" transform="translate(1606 26602.332) rotate(180)">
        <line id="Línea_2048-4" data-name="Línea 2048" x2="190" transform="translate(705 13281.5)" fill="none" stroke="#fb405f" stroke-width="2" stroke-dasharray="6 2"/>
        <circle id="Elipse_4865-4" data-name="Elipse 4865" cx="6" cy="6" r="6" transform="translate(889 13275)" fill="#fb405f"/>
        <path id="Trazado_808198-4" data-name="Trazado 808198" d="M-3120,1574.333l-12,10,12,9" transform="translate(3837 11697)" fill="none" stroke="#fb405f" stroke-linecap="round" stroke-width="2"/>
      </g>
      <g id="Grupo_1067535" data-name="Grupo 1067535" transform="translate(1606 26721.332) rotate(180)">
        <line id="Línea_2048-5" data-name="Línea 2048" x2="190" transform="translate(705 13281.5)" fill="none" stroke="#fb405f" stroke-width="2" stroke-dasharray="6 2"/>
        <circle id="Elipse_4865-5" data-name="Elipse 4865" cx="6" cy="6" r="6" transform="translate(889 13275)" fill="#fb405f"/>
        <path id="Trazado_808198-5" data-name="Trazado 808198" d="M-3120,1574.333l-12,10,12,9" transform="translate(3837 11697)" fill="none" stroke="#fb405f" stroke-linecap="round" stroke-width="2"/>
      </g>
      <g id="Grupo_1067537" data-name="Grupo 1067537" transform="translate(1606 26842.332) rotate(180)">
        <line id="Línea_2048-6" data-name="Línea 2048" x2="190" transform="translate(705 13281.5)" fill="none" stroke="#fb405f" stroke-width="2" stroke-dasharray="6 2"/>
        <circle id="Elipse_4865-6" data-name="Elipse 4865" cx="6" cy="6" r="6" transform="translate(889 13275)" fill="#fb405f"/>
        <path id="Trazado_808198-6" data-name="Trazado 808198" d="M-3120,1574.333l-12,10,12,9" transform="translate(3837 11697)" fill="none" stroke="#fb405f" stroke-linecap="round" stroke-width="2"/>
      </g>
    </g>
  </g>
</svg>
