<svg xmlns="http://www.w3.org/2000/svg" width="505" height="400" viewBox="0 0 505 400">
  <g id="Grupo_1067578" data-name="Grupo 1067578" transform="translate(-915 -11822)">
    <rect id="Rectángulo_376189" data-name="Rectángulo 376189" width="505" height="169" rx="20" transform="translate(915 12053)" fill="#4be5f1" opacity="0.2"/>
    <g id="Operating_system-bro" data-name="Operating system-bro" transform="translate(957 11788.887)">
      <g id="freepik--background-simple--inject-2" transform="translate(25.392 33.113)">
        <path id="Trazado_808008" data-name="Trazado 808008" d="M397.471,92.211c-20.955-37.177-64.715-56.228-108.414-58.769-48.44-2.82-92.55,12.494-124.855,46.187-12.791,13.359-24.342,27.774-38.53,39.927-24.4,20.9-55.006,38.033-76.31,61.676-26.935,29.9-30.637,76.886.175,105.559,10.687,9.945,23.923,17.218,37.544,23.277,33.571,14.9,70.268,22.963,107.165,27.372,41.595,4.977,84.971,5.239,124.2-8.513,86.569-30.375,109.662-129.779,90.8-206.525A119.251,119.251,0,0,0,397.471,92.211Z" transform="translate(-27.774 -33.113)" fill="#4be5f1"/>
      </g>
      <g id="freepik--Plants--inject-2" transform="translate(9 185.127)">
        <ellipse id="Elipse_4852" data-name="Elipse 4852" cx="25.731" cy="7.168" rx="25.731" ry="7.168" transform="translate(22.16 170.274)" fill="#263238"/>
        <path id="Trazado_808010" data-name="Trazado 808010" d="M53.544,402.94H66.152a15.166,15.166,0,0,0,15.079-13.8L85.046,347H34.65l3.8,42.136a15.166,15.166,0,0,0,15.1,13.8Z" transform="translate(-12.255 -224.957)" fill="#fff" stroke="#263238" stroke-linecap="round" stroke-linejoin="round" stroke-width="0.966"/>
        <path id="Trazado_808011" data-name="Trazado 808011" d="M53.544,402.94H66.152a15.166,15.166,0,0,0,15.079-13.8L85.046,347H34.65l3.8,42.136a15.166,15.166,0,0,0,15.1,13.8Z" transform="translate(-12.255 -224.957)" fill="#fff" stroke="#263238" stroke-linecap="round" stroke-linejoin="round" stroke-width="0.966"/>
        <path id="Trazado_808012" data-name="Trazado 808012" d="M38.971,394.936l-.2-2.226,23.181,4.217-19.488,6.347A15.078,15.078,0,0,1,38.971,394.936Z" transform="translate(-12.778 -230.757)" fill="#263238" stroke="#263238" stroke-linecap="round" stroke-linejoin="round" stroke-width="0.966"/>
        <path id="Trazado_808013" data-name="Trazado 808013" d="M84.682,391.689l-22.972-9.84,25.2-14.869Z" transform="translate(-15.688 -227.492)" fill="#263238" stroke="#263238" stroke-linecap="round" stroke-linejoin="round" stroke-width="0.966"/>
        <path id="Trazado_808014" data-name="Trazado 808014" d="M64.626,364.172,37.193,375.26,35.08,351.8Z" transform="translate(-12.309 -225.566)" fill="#263238" stroke="#263238" stroke-linecap="round" stroke-linejoin="round" stroke-width="0.966"/>
        <path id="Trazado_808015" data-name="Trazado 808015" d="M35.33,346.513c0,1.868,10.992,3.388,24.543,3.388s24.552-1.519,24.552-3.388-10.966-3.353-24.552-3.353S35.33,344.671,35.33,346.513Z" transform="translate(-12.341 -224.47)" fill="#fff" stroke="#263238" stroke-linecap="round" stroke-linejoin="round" stroke-width="0.966"/>
        <path id="Trazado_808016" data-name="Trazado 808016" d="M60.268,350.263c-9.543,0-17.8-.751-21.828-1.851,2.392-1.528,12.224-2.672,23.984-2.672,9.543,0,17.811.76,21.828,1.851C81.868,349.119,72.037,350.263,60.268,350.263Z" transform="translate(-12.736 -224.797)" fill="#263238" stroke="#263238" stroke-linecap="round" stroke-linejoin="round" stroke-width="0.966"/>
        <path id="Trazado_808017" data-name="Trazado 808017" d="M86.968,288.816a.873.873,0,0,0-1.153-.314l-17.078,9.9L77.6,280.853a.873.873,0,1,0-1.51-.76L68.153,295.81c.48-14.214-1.266-30.934-2.139-39.779-.306-3.012-.524-5.186-.524-5.911a.873.873,0,1,0-1.685,0c0,.812.21,2.907.533,6.112.952,9.465,2.829,28,2.008,42.625L50.883,280.434a.873.873,0,0,0-1.292,1.091l16.467,19.558h0v.044h.061a52.229,52.229,0,0,1-1.851,11.281L52.044,300.516a.873.873,0,0,0-1.179,1.214l12.817,12.4a55.517,55.517,0,0,0-2.034,7.072H61.6l-15.052-8.033a.873.873,0,0,0-.795,1.493l15.437,8.233h.1a50.858,50.858,0,0,0-.829,11.673.873.873,0,0,0,.873.8h0a.873.873,0,0,0,.8-.873,48.972,48.972,0,0,1,.969-12.154l13.236-6.618a.843.843,0,1,0-.751-1.51l-12.014,6.007a53.459,53.459,0,0,1,1.86-5.99,50.316,50.316,0,0,0,2.453-13.394l18.789-10.87a.873.873,0,0,0,.288-1.153Z" transform="translate(-13.627 -212.524)" fill="#263238"/>
        <path id="Trazado_808018" data-name="Trazado 808018" d="M67.147,269.892s9.456-8.277,10.643-15.96-2.96-13-1.746-16.589,4.724-9.447,1.746-14.179S60.057,207.22,60.057,207.22a28,28,0,0,1-3.58,10.634c-2.951,4.724-1.179,10.634,0,14.773s-6.5,8.862-2.357,14.773,4.13,6.5,4.13,11.228S60.651,268.669,67.147,269.892Z" transform="translate(-14.568 -207.22)" fill="#4be5f1"/>
        <path id="Trazado_808019" data-name="Trazado 808019" d="M53,287.759a10.3,10.3,0,0,0-1.179-8.862c-2.925-4.13-5.911-1.746-7.09-6.5s-2.96-7.683-5.911-10.041-2.96-1.746-5.317-3.545-2.96-4.138-5.317-5.911S20.5,250.53,20.5,250.53s1.746,4.732,1.746,7.683-2.366,7.683,1.179,11.228,6.5,2.366,8.862,6.5S38.224,287.166,53,287.759Z" transform="translate(-10.459 -212.716)" fill="#4be5f1"/>
        <path id="Trazado_808020" data-name="Trazado 808020" d="M53.661,310.617s.594-7.683-6.5-10.634-8.277-11.228-15.952-13-13.594,0-14.188,4.723a103.626,103.626,0,0,0-.585,10.634s3.545-5.9,7.09-5.317,5.911,0,10.041,6.5S47.758,314.162,53.661,310.617Z" transform="translate(-9.944 -217.255)" fill="#4be5f1"/>
        <path id="Trazado_808021" data-name="Trazado 808021" d="M49.765,327.083c-1.746-.594-5.317-11.822-15.952-13S9,317.662,9,317.662s6.5,3.545,15.96,8.268S49.765,327.083,49.765,327.083Z" transform="translate(-9 -220.756)" fill="#4be5f1"/>
        <path id="Trazado_808022" data-name="Trazado 808022" d="M70.58,326.272s4.732-11.228,12.407-13.594,10.049,1.187,14.179,4.139,7.09,4.732,7.09,4.732-4.724-1.746-9.447,2.951-11.228,5.911-17.139,5.317S70.58,326.272,70.58,326.272Z" transform="translate(-16.814 -220.504)" fill="#4be5f1"/>
        <path id="Trazado_808023" data-name="Trazado 808023" d="M83.44,295.689s0-2.96,3.545-9.456,4.139-13,11.228-14.188,7.675-1.746,11.813-4.724,14.179,2.366,16.589,4.724a30.373,30.373,0,0,1,3.545,4.139s-7.683-.585-10.634,2.96-9.456,6.5-12.407,7.675-5.911-1.179-8.862,3.545S92.9,296.868,83.44,295.689Z" transform="translate(-18.446 -214.735)" fill="#4be5f1"/>
        <path id="Trazado_808024" data-name="Trazado 808024" d="M77.483,283.848s-5.317-8.862-2.951-13.586,7.09-6.5,6.5-9.456-2.951-6.5,0-10.634,5.317-2.366,8.871-4.732a107.906,107.906,0,0,0,8.862-7.09s1.179,12.407,0,18.335-4.689,6.478-4.689,11.211-2.357,7.683-5.317,11.228S77.483,283.848,77.483,283.848Z" transform="translate(-17.238 -211.17)" fill="#4be5f1"/>
        <line id="Línea_2030" data-name="Línea 2030" x1="2.829" y1="3.091" transform="translate(14.529 44.389)" fill="none" stroke="#263238" stroke-miterlimit="10" stroke-width="0.966"/>
        <line id="Línea_2031" data-name="Línea 2031" x1="21.129" y1="23.129" transform="translate(21.409 51.915)" fill="none" stroke="#263238" stroke-miterlimit="10" stroke-width="0.966"/>
        <path id="Trazado_808025" data-name="Trazado 808025" d="M65.637,219.852a29.152,29.152,0,0,0-.987-3.492" transform="translate(-16.061 -208.38)" fill="none" stroke="#263238" stroke-linecap="round" stroke-linejoin="round" stroke-width="0.966"/>
        <path id="Trazado_808026" data-name="Trazado 808026" d="M68.938,272.433s.48-27.861-1.938-45.183" transform="translate(-16.36 -209.762)" fill="none" stroke="#263238" stroke-linecap="round" stroke-linejoin="round" stroke-width="0.966"/>
        <line id="Línea_2032" data-name="Línea 2032" y1="3.781" x2="1.851" transform="translate(76.991 34.697)" fill="none" stroke="#263238" stroke-miterlimit="10" stroke-width="0.966"/>
        <line id="Línea_2033" data-name="Línea 2033" y1="28.778" x2="14.075" transform="translate(60.262 43.9)" fill="none" stroke="#263238" stroke-miterlimit="10" stroke-width="0.966"/>
        <path id="Trazado_808027" data-name="Trazado 808027" d="M120.46,273.98a16.172,16.172,0,0,1,2.078-.14h4.112" transform="translate(-23.143 -215.673)" fill="none" stroke="#263238" stroke-miterlimit="10" stroke-width="0.966"/>
        <path id="Trazado_808028" data-name="Trazado 808028" d="M83.44,296.912c.925.14,6.208-6.906,15.314-13.97a53.7,53.7,0,0,1,10.984-6.863" transform="translate(-18.446 -215.958)" fill="none" stroke="#263238" stroke-miterlimit="10" stroke-width="0.966"/>
        <path id="Trazado_808029" data-name="Trazado 808029" d="M18.47,296.32a7.343,7.343,0,0,0-1.24,3.6" transform="translate(-10.044 -218.526)" fill="none" stroke="#263238" stroke-miterlimit="10" stroke-width="0.966"/>
        <path id="Trazado_808030" data-name="Trazado 808030" d="M54.287,311.4s-5.108-.812-14.214-10.215c-8.46-8.731-15.393-9.857-18.693-7.858" transform="translate(-10.571 -218.039)" fill="none" stroke="#263238" stroke-miterlimit="10" stroke-width="0.966"/>
        <path id="Trazado_808031" data-name="Trazado 808031" d="M96.32,319c1.414.236,2.68.585,3.772.873" transform="translate(-20.08 -221.404)" fill="none" stroke="#263238" stroke-miterlimit="10" stroke-width="0.966"/>
        <path id="Trazado_808032" data-name="Trazado 808032" d="M70.58,327.146s1.877.873,9.211-4.706a17.122,17.122,0,0,1,8.469-3.65" transform="translate(-16.814 -221.377)" fill="none" stroke="#263238" stroke-miterlimit="10" stroke-width="0.966"/>
        <path id="Trazado_808033" data-name="Trazado 808033" d="M18.322,318.77c-2.541,0-4.112.14-4.112.14" transform="translate(-9.661 -221.375)" fill="none" stroke="#263238" stroke-miterlimit="10" stroke-width="0.966"/>
        <path id="Trazado_808034" data-name="Trazado 808034" d="M51.624,327.718s-.987-1.187-12.433-5.6A54.131,54.131,0,0,0,23.65,318.9" transform="translate(-10.859 -221.391)" fill="none" stroke="#263238" stroke-miterlimit="10" stroke-width="0.966"/>
      </g>
      <g id="freepik--Graphics--inject-2" transform="translate(74.745 46.128)">
        <path id="Trazado_808035" data-name="Trazado 808035" d="M466.309,315.552h-10.18v-2.777a.306.306,0,0,0-.306-.306H444.709a.306.306,0,0,0-.306.306v2.777h-3.2a.637.637,0,0,0-.637.629v15.637h26.368V316.2a.629.629,0,0,0-.629-.646Z" transform="translate(-129.507 -81.576)" fill="none" stroke="#b2b2b2" stroke-miterlimit="10" stroke-width="0.974"/>
        <path id="Trazado_808036" data-name="Trazado 808036" d="M466.309,343.172h-10.18V340.4a.306.306,0,0,0-.306-.306H444.709a.306.306,0,0,0-.306.306v2.777h-3.2a.637.637,0,0,0-.637.629v15.637h26.368V343.8A.629.629,0,0,0,466.309,343.172Z" transform="translate(-129.507 -85.081)" fill="none" stroke="#b2b2b2" stroke-miterlimit="10" stroke-width="0.974"/>
        <path id="Trazado_808037" data-name="Trazado 808037" d="M466.309,370.758h-10.18v-2.8a.306.306,0,0,0-.306-.306H444.709a.306.306,0,0,0-.306.306v2.768h-3.2a.637.637,0,0,0-.637.637V387h26.368V371.4a.637.637,0,0,0-.629-.637Z" transform="translate(-129.507 -88.578)" fill="none" stroke="#b2b2b2" stroke-miterlimit="10" stroke-width="0.974"/>
        <path id="Trazado_808038" data-name="Trazado 808038" d="M406.8,75.244l-3.658-.253a22.426,22.426,0,0,0-.358-3.693l3.545-.952a1.039,1.039,0,0,0,.742-1.275l-.445-1.65a1.048,1.048,0,0,0-1.275-.742l-3.536.952a22.7,22.7,0,0,0-1.545-3.37l3.038-2.052a1.039,1.039,0,0,0,.279-1.449l-.952-1.406a1.048,1.048,0,0,0-1.449-.279L398.141,61.1a23.172,23.172,0,0,0-2.55-2.689l2.209-2.925a1.048,1.048,0,0,0-.2-1.467l-1.371-1.03a1.039,1.039,0,0,0-1.458.21l-2.209,2.925a23.449,23.449,0,0,0-3.283-1.746l1.126-3.492a1.039,1.039,0,0,0-.672-1.318l-1.624-.533a1.048,1.048,0,0,0-1.318.672L385.664,53.2a21.318,21.318,0,0,0-3.274-.515V49.059a1.039,1.039,0,0,0-1.048-1.039h-1.7a1.039,1.039,0,0,0-1.048,1.039v3.676a23.007,23.007,0,0,0-3.658.6l-1.187-3.492a1.057,1.057,0,0,0-1.327-.646l-1.624.559a1.048,1.048,0,0,0-.646,1.327l1.2,3.492a22.561,22.561,0,0,0-3.257,1.746l-2.261-2.89a1.039,1.039,0,0,0-1.449-.192L363.033,54.3a1.048,1.048,0,0,0-.183,1.467l2.261,2.89a22.448,22.448,0,0,0-2.48,2.768l-3.082-2a1.039,1.039,0,0,0-1.441.306l-.934,1.432a1.048,1.048,0,0,0,.306,1.449l3.038,1.982A21.9,21.9,0,0,0,359.043,68l-3.554-.873a1.039,1.039,0,0,0-1.266.76l-.419,1.659a1.048,1.048,0,0,0,.76,1.266l3.562.873a22.439,22.439,0,0,0-.3,3.615v.079l-3.658.314a1.056,1.056,0,0,0-.952,1.135l.148,1.746a1.048,1.048,0,0,0,1.135.952l3.658-.323a21.205,21.205,0,0,0,.978,3.554l-3.353,1.493a1.048,1.048,0,0,0-.533,1.38l.7,1.563a1.048,1.048,0,0,0,1.38.533l3.344-1.493a23.624,23.624,0,0,0,2.052,3.082l-2.715,2.506a1.039,1.039,0,0,0-.052,1.476l1.161,1.249a1.048,1.048,0,0,0,1.484.052l2.645-2.5a21.83,21.83,0,0,0,2.942,2.253l-1.746,3.239A1.048,1.048,0,0,0,366.884,99l1.51.8a1.03,1.03,0,0,0,1.406-.437l1.746-3.231a23.091,23.091,0,0,0,3.492,1.17l-.576,3.623a1.056,1.056,0,0,0,.873,1.2l1.685.271a1.048,1.048,0,0,0,1.2-.873l.576-3.623c.55,0,1.1.061,1.659.061a14.428,14.428,0,0,0,2.043-.1l.637,3.615a1.048,1.048,0,0,0,1.214.873l1.685-.3a1.039,1.039,0,0,0,.873-1.2l-.637-3.606A22.7,22.7,0,0,0,389.759,96l1.746,3.213a1.048,1.048,0,0,0,1.423.4l1.493-.873a1.039,1.039,0,0,0,.41-1.414l-1.746-3.2a22.988,22.988,0,0,0,2.89-2.314l2.733,2.453a1.03,1.03,0,0,0,1.476-.079l1.144-1.266a1.048,1.048,0,0,0-.079-1.476l-2.707-2.4a23.686,23.686,0,0,0,1.991-3.126l3.37,1.38a1.048,1.048,0,0,0,1.371-.55l.672-1.58a1.048,1.048,0,0,0-.533-1.362l-3.37-1.432a21.6,21.6,0,0,0,.873-3.6l3.658.253a1.048,1.048,0,0,0,1.118-.969l.113-1.746a1.039,1.039,0,0,0-1-1.065ZM380.5,88.026A12.721,12.721,0,1,1,393.19,75.3a12.721,12.721,0,0,1-12.7,12.721Z" transform="translate(-118.423 -48.02)" fill="none" stroke="#b2b2b2" stroke-miterlimit="10" stroke-width="0.974"/>
        <path id="Trazado_808039" data-name="Trazado 808039" d="M447.142,97.736l-2.4-.175a15.648,15.648,0,0,0-.236-2.41l2.322-.629a.69.69,0,0,0,.489-.873l-.3-1.083a.69.69,0,0,0-.873-.48l-2.314.62A15.327,15.327,0,0,0,442.82,90.5l1.991-1.345A.69.69,0,0,0,445,88.2l-.629-.925a.681.681,0,0,0-.952-.183l-2,1.345a14.492,14.492,0,0,0-1.668-1.746l1.449-1.921a.681.681,0,0,0-.14-.96l-.873-.672a.69.69,0,0,0-.96.131L437.8,85.225a15.713,15.713,0,0,0-2.148-1.126l.742-2.279a.69.69,0,0,0-.445-.873l-1.065-.341a.672.672,0,0,0-.873.437l-.751,2.288a14.2,14.2,0,0,0-2.139-.341V80.58a.681.681,0,0,0-.681-.69h-1.126a.681.681,0,0,0-.681.69v2.4a15.477,15.477,0,0,0-2.4.393l-.777-2.27a.681.681,0,0,0-.873-.419l-1.056.367a.681.681,0,0,0-.428.873l.786,2.27a15.768,15.768,0,0,0-2.139,1.161l-1.458-1.877a.681.681,0,0,0-.96-.114l-.873.69a.681.681,0,0,0-.122.96l1.484,1.895a15.172,15.172,0,0,0-1.641,1.746l-2.017-1.31a.69.69,0,0,0-.952.2l-.611.943a.681.681,0,0,0,.21.943l2.008,1.31a16.339,16.339,0,0,0-.969,2.226l-2.331-.576a.681.681,0,0,0-.873.5l-.236,1.065a.681.681,0,0,0,.472.873l2.331.585a15.126,15.126,0,0,0-.183,2.375v.044l-2.4.21a.681.681,0,0,0-.62.742l.1,1.118a.681.681,0,0,0,.742.62l2.4-.21a15.042,15.042,0,0,0,.6,2.357l-2.191.978a.672.672,0,0,0-.349.873l.454,1.022a.681.681,0,0,0,.873.349l2.192-.978a15.1,15.1,0,0,0,1.345,2.026l-1.746,1.641a.7.7,0,0,0,0,.969l.768.821a.69.69,0,0,0,.969,0l1.746-1.633a15.886,15.886,0,0,0,1.93,1.476l-1.1,2.165a.681.681,0,0,0,.279.925l.987.524a.681.681,0,0,0,.925-.279l1.135-2.122a13.638,13.638,0,0,0,2.3.768l-.375,2.375a.7.7,0,0,0,.576.786l1.1.175a.69.69,0,0,0,.786-.568l.375-2.384H429.9a10.769,10.769,0,0,0,1.345-.061l.419,2.366a.681.681,0,0,0,.795.559l1.1-.192a.69.69,0,0,0,.559-.795l-.419-2.366a14.5,14.5,0,0,0,2.288-.812l1.17,2.1a.672.672,0,0,0,.925.262l.987-.48a.69.69,0,0,0,.262-.934l-1.161-2.1a14.447,14.447,0,0,0,1.895-1.519l1.79,1.615a.69.69,0,0,0,.969-.052l.751-.873a.69.69,0,0,0-.052-.969l-1.746-1.607a15.72,15.72,0,0,0,1.31-2.052l2.209.943a.69.69,0,0,0,.873-.367l.436-1.03a.69.69,0,0,0-.358-.873l-2.218-.934a14.38,14.38,0,0,0,.567-2.366l2.4.166a.681.681,0,0,0,.725-.637l.079-1.118a.672.672,0,0,0-.655-.725Zm-17.253,8.373a8.329,8.329,0,1,1,5.9-2.437,8.338,8.338,0,0,1-5.9,2.437Z" transform="translate(-125.882 -52.064)" fill="none" stroke="#b2b2b2" stroke-miterlimit="10" stroke-width="0.974"/>
        <path id="Trazado_808040" data-name="Trazado 808040" d="M157.519,71.089h-70.6A2.619,2.619,0,0,1,84.3,68.469h0a2.619,2.619,0,0,1,2.619-2.619h70.6a2.619,2.619,0,0,1,2.619,2.619h0a2.619,2.619,0,0,1-2.619,2.619Z" transform="translate(-84.3 -50.282)" fill="none" stroke="#b2b2b2" stroke-miterlimit="10" stroke-width="0.974"/>
        <circle id="Elipse_4853" data-name="Elipse 4853" cx="2.663" cy="2.663" r="2.663" transform="translate(61.694 15.524)" fill="none" stroke="#b2b2b2" stroke-miterlimit="10" stroke-width="0.974"/>
        <path id="Trazado_808041" data-name="Trazado 808041" d="M157.519,60.709h-70.6A2.619,2.619,0,0,1,84.3,58.089h0a2.619,2.619,0,0,1,2.619-2.619h70.6a2.619,2.619,0,0,1,2.619,2.619h0a2.619,2.619,0,0,1-2.619,2.619Z" transform="translate(-84.3 -48.965)" fill="none" stroke="#b2b2b2" stroke-miterlimit="10" stroke-width="0.974"/>
        <circle id="Elipse_4854" data-name="Elipse 4854" cx="2.663" cy="2.663" r="2.663" transform="translate(28.647 6.47)" fill="none" stroke="#b2b2b2" stroke-miterlimit="10" stroke-width="0.974"/>
      </g>
      <g id="freepik--Device--inject-2" transform="translate(72.091 86.274)">
        <path id="Trazado_808042" data-name="Trazado 808042" d="M383.07,413.765c0,6.374-64.863,11.534-144.875,11.534S93.32,420.139,93.32,413.765s64.863-11.525,144.875-11.525S383.07,407.4,383.07,413.765Z" transform="translate(-82.79 -133.113)" fill="#263238"/>
        <rect id="Rectángulo_376141" data-name="Rectángulo 376141" width="294.386" height="169.794" transform="translate(9.84 10.896)" fill="#4be5f1" stroke="#263238" stroke-miterlimit="10" stroke-width="0.966"/>
        <rect id="Rectángulo_376142" data-name="Rectángulo 376142" width="94.907" height="40.111" transform="translate(19.654 115.879)" fill="#fff"/>
        <rect id="Rectángulo_376143" data-name="Rectángulo 376143" width="94.907" height="6.775" transform="translate(19.654 113.618)" fill="#263238"/>
        <path id="Trazado_808043" data-name="Trazado 808043" d="M108.21,227.916a1.065,1.065,0,1,1-1.056-1.056,1.065,1.065,0,0,1,1.056,1.056Z" transform="translate(-84.409 -110.859)" fill="#4be5f1"/>
        <path id="Trazado_808044" data-name="Trazado 808044" d="M113.69,227.916a1.065,1.065,0,1,1-1.065-1.056,1.065,1.065,0,0,1,1.065,1.056Z" transform="translate(-85.105 -110.859)" fill="#4be5f1"/>
        <circle id="Elipse_4855" data-name="Elipse 4855" cx="1.056" cy="1.056" r="1.056" transform="translate(31.214 116.001)" fill="#4be5f1"/>
        <rect id="Rectángulo_376144" data-name="Rectángulo 376144" width="20.335" height="8.478" transform="translate(30.952 125.378)" fill="#4be5f1"/>
        <rect id="Rectángulo_376145" data-name="Rectángulo 376145" width="32.768" height="16.947" transform="translate(24.735 131.316)" fill="#525252"/>
        <rect id="Rectángulo_376146" data-name="Rectángulo 376146" width="20.335" height="5.649" transform="translate(30.952 131.316)" fill="#757575"/>
        <rect id="Rectángulo_376147" data-name="Rectángulo 376147" width="20.335" height="8.478" transform="translate(30.952 139.785)" fill="#263238"/>
        <rect id="Rectángulo_376148" data-name="Rectángulo 376148" width="20.335" height="8.478" transform="translate(30.952 144.587)" fill="#4be5f1"/>
        <rect id="Rectángulo_376149" data-name="Rectángulo 376149" width="20.902" height="7.343" transform="translate(63.72 139.217)" fill="#ccc"/>
        <rect id="Rectángulo_376150" data-name="Rectángulo 376150" width="20.902" height="7.343" transform="translate(88.009 139.217)" fill="#4be5f1"/>
        <path id="Trazado_808045" data-name="Trazado 808045" d="M155.322,240.59c.917,0,1.275.576,1.275,1.449v.655c0,.943-.428,1.414-1.371,1.414h-.742v2.445H154.1v-5.946Zm-.1,3.143c.681,0,.987-.306.987-1.03v-.69c0-.646-.227-1.065-.873-1.065h-.873v2.785Z" transform="translate(-90.503 -112.601)" fill="#263238"/>
        <path id="Trazado_808046" data-name="Trazado 808046" d="M158.87,240.59a1.172,1.172,0,0,1,1.275,1.345v.515a1.3,1.3,0,0,0,0,2.445v.926a1.327,1.327,0,0,0,.148.716h-.41a1.379,1.379,0,0,1-.131-.716v-.934c0-.786-.428-1.013-1.109-1.013h-.62v2.663h-.393V240.59Zm-.218,2.977c.7,0,1.1-.2,1.1-1v-.559c0-.637-.244-1.022-.873-1.022h-.873v2.576Z" transform="translate(-90.951 -112.601)" fill="#263238"/>
        <path id="Trazado_808047" data-name="Trazado 808047" d="M161.774,240.59v5.946h-.384V240.59Z" transform="translate(-91.428 -112.601)" fill="#263238"/>
        <path id="Trazado_808048" data-name="Trazado 808048" d="M162.948,246.536h-.358V240.59h.506l1.79,5.02v-5.02h.349v5.946h-.428l-1.86-5.3Z" transform="translate(-91.58 -112.601)" fill="#263238"/>
        <path id="Trazado_808049" data-name="Trazado 808049" d="M167.385,246.536v-5.588h-1.2v-.358h2.811v.358h-1.222v5.588Z" transform="translate(-92.036 -112.601)" fill="#263238"/>
        <path id="Trazado_808050" data-name="Trazado 808050" d="M171.964,243.342v.358h-1.615v2.488H172.3v.358H170V240.6h2.34v.349h-1.991v2.392Z" transform="translate(-92.52 -112.602)" fill="#263238"/>
        <path id="Trazado_808051" data-name="Trazado 808051" d="M174.6,240.59a1.172,1.172,0,0,1,1.275,1.345v.515a1.3,1.3,0,0,0,0,2.445v.926a1.327,1.327,0,0,0,.148.716h-.41a1.379,1.379,0,0,1-.131-.716v-.934c0-.786-.428-1.013-1.109-1.013h-.62v2.663h-.393V240.59Zm-.218,2.934c.7,0,1.1-.2,1.1-1v-.559c0-.637-.244-1.022-.873-1.022h-.873v2.619Z" transform="translate(-92.947 -112.601)" fill="#263238"/>
        <rect id="Rectángulo_376151" data-name="Rectángulo 376151" width="122.323" height="75.995" transform="translate(136.607 20.693)" fill="#263238"/>
        <rect id="Rectángulo_376152" data-name="Rectángulo 376152" width="122.323" height="70.556" transform="translate(136.607 20.693)" fill="#fff"/>
        <rect id="Rectángulo_376153" data-name="Rectángulo 376153" width="28.594" height="70.556" transform="translate(136.607 20.693)" fill="#ccc"/>
        <rect id="Rectángulo_376154" data-name="Rectángulo 376154" width="122.323" height="19.793" transform="translate(136.607 19.121)" fill="#263238"/>
        <path id="Trazado_808052" data-name="Trazado 808052" d="M244.4,120.019a1.179,1.179,0,1,1-1.179-1.179,1.179,1.179,0,0,1,1.179,1.179Z" transform="translate(-101.662 -97.152)" fill="#4be5f1"/>
        <circle id="Elipse_4856" data-name="Elipse 4856" cx="1.179" cy="1.179" r="1.179" transform="translate(145.678 21.688)" fill="#4be5f1"/>
        <circle id="Elipse_4857" data-name="Elipse 4857" cx="1.179" cy="1.179" r="1.179" transform="translate(150.969 21.688)" fill="#4be5f1"/>
        <path id="Trazado_808053" data-name="Trazado 808053" d="M365.582,129.91H339.9a3.405,3.405,0,0,1-3.405-3.405h0A3.414,3.414,0,0,1,339.9,123.1h25.687a3.414,3.414,0,0,1,3.405,3.405h0a3.405,3.405,0,0,1-3.405,3.405Z" transform="translate(-113.646 -97.693)" fill="#fff" stroke="#263238" stroke-miterlimit="10" stroke-width="0.966"/>
        <rect id="Rectángulo_376155" data-name="Rectángulo 376155" width="7.334" height="5.239" transform="translate(208.699 25.931)" fill="#696969" stroke="#263238" stroke-miterlimit="10" stroke-width="0.966"/>
        <rect id="Rectángulo_376156" data-name="Rectángulo 376156" width="7.334" height="5.239" transform="translate(194.092 25.931)" fill="#696969" stroke="#263238" stroke-miterlimit="10" stroke-width="0.966"/>
        <rect id="Rectángulo_376157" data-name="Rectángulo 376157" width="7.334" height="5.239" transform="translate(139.514 25.931)" fill="#696969" stroke="#263238" stroke-miterlimit="10" stroke-width="0.966"/>
        <rect id="Rectángulo_376158" data-name="Rectángulo 376158" width="7.334" height="5.239" transform="translate(147.381 25.931)" fill="#696969" stroke="#263238" stroke-miterlimit="10" stroke-width="0.966"/>
        <path id="Trazado_808054" data-name="Trazado 808054" d="M276.312,147.09H287.3a.672.672,0,0,1,.672.672v6.924H275.64v-6.924A.672.672,0,0,1,276.312,147.09Z" transform="translate(-105.925 -100.737)" fill="#ccc"/>
        <rect id="Rectángulo_376159" data-name="Rectángulo 376159" width="5.474" height="2.846" rx="0.38" transform="translate(171.505 44.913)" fill="#ccc"/>
        <path id="Trazado_808055" data-name="Trazado 808055" d="M306.472,147.09h10.966a.672.672,0,0,1,.672.672v6.924H305.8v-6.924A.672.672,0,0,1,306.472,147.09Z" transform="translate(-109.752 -100.737)" fill="#ccc"/>
        <rect id="Rectángulo_376160" data-name="Rectángulo 376160" width="5.474" height="2.846" rx="0.38" transform="translate(197.838 44.913)" fill="#ccc"/>
        <path id="Trazado_808056" data-name="Trazado 808056" d="M336.637,147.09H347.6a.672.672,0,0,1,.672.672v6.924H336v-6.924a.672.672,0,0,1,.637-.672Z" transform="translate(-113.584 -100.737)" fill="#ccc"/>
        <rect id="Rectángulo_376161" data-name="Rectángulo 376161" width="5.474" height="2.846" rx="0.38" transform="translate(224.171 44.913)" fill="#ccc"/>
        <path id="Trazado_808057" data-name="Trazado 808057" d="M276.312,166.9H287.3a.672.672,0,0,1,.672.672V174.5H275.64v-6.924a.672.672,0,0,1,.672-.672Z" transform="translate(-105.925 -103.25)" fill="#ccc"/>
        <rect id="Rectángulo_376162" data-name="Rectángulo 376162" width="5.474" height="2.846" rx="0.38" transform="translate(171.505 62.209)" fill="#ccc"/>
        <path id="Trazado_808058" data-name="Trazado 808058" d="M306.472,166.9h10.966a.672.672,0,0,1,.672.672V174.5H305.8v-6.924a.672.672,0,0,1,.672-.672Z" transform="translate(-109.752 -103.25)" fill="#ccc"/>
        <rect id="Rectángulo_376163" data-name="Rectángulo 376163" width="5.474" height="2.846" rx="0.38" transform="translate(197.838 62.209)" fill="#ccc"/>
        <path id="Trazado_808059" data-name="Trazado 808059" d="M365.9,201.709H344.284a.594.594,0,0,1-.594-.585h0a.594.594,0,0,1,.594-.594H365.9a.594.594,0,0,1,.594.594h0a.594.594,0,0,1-.594.585Z" transform="translate(-114.56 -107.518)" fill="#c4c4c4"/>
        <path id="Trazado_808060" data-name="Trazado 808060" d="M349.594,201.078a.777.777,0,1,1-.768-.768A.768.768,0,0,1,349.594,201.078Z" transform="translate(-115.112 -107.49)" fill="#263238"/>
        <rect id="Rectángulo_376164" data-name="Rectángulo 376164" width="120.603" height="58.167" transform="translate(168.92 115.442)" fill="#263238"/>
        <rect id="Rectángulo_376165" data-name="Rectángulo 376165" width="120.603" height="52.806" transform="translate(168.92 115.442)" fill="#fff"/>
        <rect id="Rectángulo_376166" data-name="Rectángulo 376166" width="120.603" height="19.514" transform="translate(168.92 113.897)" fill="#263238"/>
        <path id="Trazado_808061" data-name="Trazado 808061" d="M281.322,228.511a1.161,1.161,0,1,1-1.161-1.161A1.161,1.161,0,0,1,281.322,228.511Z" transform="translate(-106.351 -110.921)" fill="#4be5f1"/>
        <path id="Trazado_808062" data-name="Trazado 808062" d="M287.3,228.511a1.161,1.161,0,1,1-1.161-1.161A1.161,1.161,0,0,1,287.3,228.511Z" transform="translate(-107.11 -110.921)" fill="#4be5f1"/>
        <path id="Trazado_808063" data-name="Trazado 808063" d="M293.283,228.511a1.161,1.161,0,1,1-1.161-1.161A1.161,1.161,0,0,1,293.283,228.511Z" transform="translate(-107.869 -110.921)" fill="#4be5f1"/>
        <rect id="Rectángulo_376167" data-name="Rectángulo 376167" width="32.034" height="6.714" rx="3.357" transform="translate(253.952 120.096)" fill="#fff" stroke="#263238" stroke-miterlimit="10" stroke-width="0.966"/>
        <rect id="Rectángulo_376168" data-name="Rectángulo 376168" width="7.238" height="5.169" transform="translate(171.793 120.611)" fill="#696969" stroke="#263238" stroke-miterlimit="10" stroke-width="0.966"/>
        <rect id="Rectángulo_376169" data-name="Rectángulo 376169" width="7.238" height="5.169" transform="translate(179.546 120.611)" fill="#696969" stroke="#263238" stroke-miterlimit="10" stroke-width="0.966"/>
        <rect id="Rectángulo_376170" data-name="Rectángulo 376170" width="13.586" height="5.169" transform="translate(188.076 120.611)" fill="#696969" stroke="#263238" stroke-miterlimit="10" stroke-width="0.966"/>
        <path id="Trazado_808064" data-name="Trazado 808064" d="M309.707,280.317H299.23l2.139-3.143V274.31h6.2v2.969Z" transform="translate(-108.918 -116.88)" fill="#969696"/>
        <rect id="Rectángulo_376171" data-name="Rectángulo 376171" width="30.41" height="24.43" transform="translate(180.341 135.227)" fill="#ccc"/>
        <rect id="Rectángulo_376172" data-name="Rectángulo 376172" width="30.41" height="20.082" transform="translate(180.341 135.227)" fill="#263238"/>
        <rect id="Rectángulo_376173" data-name="Rectángulo 376173" width="26.787" height="15.742" transform="translate(182.157 137.392)" fill="#4be5f1"/>
        <rect id="Rectángulo_376174" data-name="Rectángulo 376174" width="58.909" height="2.322" rx="1.161" transform="translate(222.503 144.264)" fill="#969696"/>
        <circle id="Elipse_4858" data-name="Elipse 4858" cx="3.1" cy="3.1" r="3.1" transform="translate(268.237 142.334)" fill="#ccc"/>
        <rect id="Rectángulo_376175" data-name="Rectángulo 376175" width="84.901" height="88.044" transform="translate(19.654 18.501)" fill="#263238"/>
        <rect id="Rectángulo_376176" data-name="Rectángulo 376176" width="84.901" height="7.046" transform="translate(19.654 18.501)" fill="#fff"/>
        <path id="Trazado_808065" data-name="Trazado 808065" d="M112.25,129.867h-2.471a.611.611,0,0,1,0-1.222h2.471a.611.611,0,0,1,0,1.222Zm.62,2.226a.611.611,0,0,0-.62-.611h-2.471a.611.611,0,0,0,0,1.222h2.471a.611.611,0,0,0,.62-.611Zm0,2.829a.62.62,0,0,0-.62-.611h-2.471a.62.62,0,1,0,0,1.231h2.471a.62.62,0,0,0,.62-.62Zm0,2.838a.611.611,0,0,0-.62-.611h-2.471a.611.611,0,1,0,0,1.222h2.471a.611.611,0,0,0,.62-.611Zm0,2.838a.62.62,0,0,0-.62-.62h-2.471a.62.62,0,1,0,0,1.231h2.471a.62.62,0,0,0,.62-.611Zm0,2.829a.611.611,0,0,0-.62-.611h-2.471a.611.611,0,0,0,0,1.222h2.471a.611.611,0,0,0,.62-.611Zm0,2.838a.611.611,0,0,0-.62-.611h-2.471a.611.611,0,0,0,0,1.222h2.471a.62.62,0,0,0,.62-.611Zm0,2.829a.611.611,0,0,0-.62-.611h-2.471a.611.611,0,0,0,0,1.222h2.471a.611.611,0,0,0,.62-.611Zm9.237-19.837a.611.611,0,0,0-.611-.611h-6.513a.611.611,0,1,0,0,1.222H121.5A.611.611,0,0,0,122.108,129.256Zm0,2.838a.611.611,0,0,0-.611-.611h-6.513a.611.611,0,1,0,0,1.222H121.5A.611.611,0,0,0,122.108,132.094Zm0,2.829a.611.611,0,0,0-.611-.611h-6.513a.62.62,0,0,0,0,1.231H121.5a.611.611,0,0,0,.611-.62Zm0,2.838a.611.611,0,0,0-.611-.611h-6.513a.611.611,0,1,0,0,1.222H121.5A.611.611,0,0,0,122.108,137.76Zm0,2.838a.611.611,0,0,0-.611-.62h-6.513a.62.62,0,0,0,0,1.231H121.5a.611.611,0,0,0,.611-.611Zm7.788,2.829a.611.611,0,0,0-.611-.611h-6.5a.611.611,0,0,0,0,1.222h6.5a.611.611,0,0,0,.681-.611Zm0,2.838a.611.611,0,0,0-.611-.611h-6.5a.611.611,0,1,0,0,1.222h6.5a.611.611,0,0,0,.681-.611Zm0,2.829a.611.611,0,0,0-.611-.611h-6.5a.611.611,0,0,0,0,1.222h6.5a.611.611,0,0,0,.681-.611Zm-4.924-19.837a.3.3,0,1,0,.035,0Zm2.122,0a.3.3,0,1,0,.035,0Zm2.13,0a.3.3,0,1,0,.035,0Zm2.122,0a.3.3,0,1,0,.035,0Zm2.122,0a.707.707,0,1,0-.707.707A.707.707,0,0,0,133.467,129.256Zm2.13,0a.3.3,0,1,0,.035,0Zm-10.626,5.666a.3.3,0,1,0,.035,0Zm2.122,0a.3.3,0,1,0,.035,0Zm2.13,0a.3.3,0,1,0,.035,0Zm2.122,0a.3.3,0,1,0,.035,0Zm2.122,0a.707.707,0,1,0-.707.707A.707.707,0,0,0,133.467,134.922Zm2.13,0a.3.3,0,1,0,.035,0Zm-3.37,8.155a.707.707,0,1,0-.707.707.716.716,0,0,0,.742-.707Zm2.13,0a.707.707,0,1,0-.707.707.716.716,0,0,0,.742-.707Zm2.122,0a.707.707,0,1,0-.707.707.716.716,0,0,0,.742-.707Zm2.13,0a.3.3,0,1,0,.035,0Zm2.122,0a.707.707,0,1,0-.707.707.716.716,0,0,0,.742-.707Zm2.122,0a.707.707,0,1,0-.707.707.716.716,0,0,0,.742-.707Zm-10.626,5.841a.3.3,0,1,0,.035,0Zm2.13,0a.3.3,0,1,0,.035,0Zm2.122,0a.3.3,0,1,0,.035,0Zm2.13,0a.716.716,0,1,0-.707.707.707.707,0,0,0,.742-.707Zm2.122,0a.3.3,0,1,0,.035,0Zm2.122,0a.3.3,0,1,0,.035,0Z" transform="translate(-84.791 -98.383)" fill="#4be5f1"/>
        <path id="Trazado_808066" data-name="Trazado 808066" d="M112.25,155.81h-2.471a.611.611,0,0,1,0-1.222h2.471a.611.611,0,0,1,0,1.222Zm.62,2.226a.611.611,0,0,0-.62-.611h-2.471a.611.611,0,0,0,0,1.222h2.471a.611.611,0,0,0,.62-.585Zm0,2.829a.62.62,0,0,0-.62-.611h-2.471a.611.611,0,0,0,0,1.222h2.471a.611.611,0,0,0,.62-.585Zm0,2.838a.611.611,0,0,0-.62-.611h-2.471a.611.611,0,1,0,0,1.222h2.471a.611.611,0,0,0,.62-.585Zm0,2.829a.62.62,0,0,0-.62-.611h-2.471a.611.611,0,0,0,0,1.222h2.471a.611.611,0,0,0,.62-.585Zm0,2.838a.611.611,0,0,0-.62-.611h-2.471a.611.611,0,0,0,0,1.222h2.471a.611.611,0,0,0,.62-.585Zm0,2.838a.62.62,0,0,0-.62-.62h-2.471a.62.62,0,1,0,0,1.231h2.471a.62.62,0,0,0,.62-.585Zm0,2.829a.611.611,0,0,0-.62-.611h-2.471a.611.611,0,0,0,0,1.222h2.471a.611.611,0,0,0,.62-.585Zm9.237-19.811a.611.611,0,0,0-.611-.611h-6.513a.611.611,0,1,0,0,1.222H121.5A.611.611,0,0,0,122.108,155.225Zm0,2.838a.611.611,0,0,0-.611-.611h-6.513a.611.611,0,1,0,0,1.222H121.5A.611.611,0,0,0,122.108,158.062Zm0,2.829a.611.611,0,0,0-.611-.611h-6.513a.611.611,0,1,0,0,1.222H121.5A.611.611,0,0,0,122.108,160.891Zm0,2.838a.611.611,0,0,0-.611-.611h-6.513a.611.611,0,1,0,0,1.222H121.5A.611.611,0,0,0,122.108,163.729Zm0,2.829a.611.611,0,0,0-.611-.611h-6.513a.611.611,0,1,0,0,1.222H121.5A.611.611,0,0,0,122.108,166.558ZM129.9,169.4a.611.611,0,0,0-.611-.611h-6.5a.611.611,0,1,0,0,1.222h6.5a.611.611,0,0,0,.681-.611Zm0,2.838a.611.611,0,0,0-.611-.62h-6.5a.62.62,0,0,0,0,1.231h6.5a.611.611,0,0,0,.681-.611Zm0,2.829a.611.611,0,0,0-.611-.611h-6.5a.611.611,0,0,0,0,1.222h6.5a.611.611,0,0,0,.681-.611Zm-4.924-19.837a.3.3,0,1,0,.035,0Zm2.122,0a.3.3,0,1,0,.035,0Zm2.13,0a.3.3,0,1,0,.035,0Zm2.122,0a.3.3,0,1,0,.035,0Zm2.122,0a.3.3,0,1,0,.035,0Zm2.13,0a.3.3,0,1,0,.035,0Zm-10.626,5.666a.3.3,0,1,0,.035,0Zm2.122,0a.3.3,0,1,0,.035,0Zm2.13,0a.3.3,0,1,0,.035,0Zm2.122,0a.3.3,0,1,0,.035,0Zm2.122,0a.707.707,0,1,0-.707.707A.707.707,0,0,0,133.467,160.891Zm2.13,0a.3.3,0,1,0,.035,0Zm-3.37,8.146a.707.707,0,1,0-.707.707A.707.707,0,0,0,132.227,169.037Zm2.13,0a.3.3,0,1,0,.035,0Zm2.122,0a.3.3,0,1,0,.035,0Zm2.13,0a.3.3,0,1,0,.035,0Zm2.122,0a.3.3,0,1,0,.035,0Zm2.122,0a.707.707,0,1,0-.707.707A.707.707,0,0,0,142.853,169.037Zm-10.626,5.85a.3.3,0,1,0,.035,0Zm2.13,0a.3.3,0,1,0,.035,0Zm2.122,0a.3.3,0,1,0,.035,0Zm2.13,0a.716.716,0,1,0-.707.707.707.707,0,0,0,.742-.707Zm2.122,0a.3.3,0,1,0,.035,0Zm2.122,0a.3.3,0,1,0,.035,0Z" transform="translate(-84.791 -101.677)" fill="#4be5f1"/>
        <path id="Trazado_808067" data-name="Trazado 808067" d="M112.25,182.436h-2.471a.611.611,0,0,1,0-1.222h2.471a.611.611,0,0,1,0,1.222Zm.62,2.218a.62.62,0,0,0-.62-.611h-2.471a.611.611,0,0,0,0,1.222h2.471a.611.611,0,0,0,.62-.611Zm0,2.838a.611.611,0,0,0-.62-.611h-2.471a.611.611,0,0,0,0,1.222h2.471a.611.611,0,0,0,.62-.611Zm0,2.838a.62.62,0,0,0-.62-.62h-2.471a.62.62,0,1,0,0,1.231h2.471a.62.62,0,0,0,.62-.611Zm0,2.829a.611.611,0,0,0-.62-.611h-2.471a.611.611,0,0,0,0,1.222h2.471a.611.611,0,0,0,.62-.611Zm0,2.838a.611.611,0,0,0-.62-.611h-2.471a.611.611,0,0,0,0,1.222h2.471a.62.62,0,0,0,.62-.611Zm0,2.829a.611.611,0,0,0-.62-.611h-2.471a.611.611,0,0,0,0,1.222h2.471a.611.611,0,0,0,.62-.611Zm0,2.838a.611.611,0,0,0-.62-.611h-2.471a.611.611,0,0,0,0,1.222h2.471a.62.62,0,0,0,.62-.611Zm9.237-19.837a.611.611,0,0,0-.611-.611h-6.513a.611.611,0,1,0,0,1.222H121.5A.611.611,0,0,0,122.108,181.825Zm0,2.829a.611.611,0,0,0-.611-.611h-6.513a.611.611,0,1,0,0,1.222H121.5A.611.611,0,0,0,122.108,184.654Zm0,2.838a.611.611,0,0,0-.611-.611h-6.513a.611.611,0,0,0,0,1.222H121.5a.611.611,0,0,0,.611-.611Zm0,2.838a.611.611,0,0,0-.611-.62h-6.513a.62.62,0,0,0,0,1.231H121.5a.611.611,0,0,0,.611-.611Zm0,2.829a.611.611,0,0,0-.611-.611h-6.513a.611.611,0,1,0,0,1.222H121.5A.611.611,0,0,0,122.108,193.158ZM129.9,196a.611.611,0,0,0-.611-.611h-6.5a.611.611,0,1,0,0,1.222h6.5a.611.611,0,0,0,.681-.611Zm0,2.829a.611.611,0,0,0-.611-.611h-6.5a.611.611,0,0,0,0,1.222h6.5a.611.611,0,0,0,.681-.611Zm0,2.838a.611.611,0,0,0-.611-.611h-6.5a.611.611,0,0,0,0,1.222h6.5a.611.611,0,0,0,.681-.611Zm-4.924-19.837a.3.3,0,1,0,.035,0Zm2.122,0a.3.3,0,1,0,.035,0Zm2.13,0a.716.716,0,1,0-.707.707.707.707,0,0,0,.742-.707Zm2.122,0a.3.3,0,1,0,.035,0Zm2.122,0a.3.3,0,1,0,.035,0Zm2.13,0a.3.3,0,1,0,.035,0Zm-10.626,5.666a.3.3,0,1,0,.035,0Zm2.122,0a.3.3,0,1,0,.035,0Zm2.13,0a.716.716,0,1,0-.707.707.707.707,0,0,0,.742-.707Zm2.122,0a.3.3,0,1,0,.035,0Zm2.122,0a.3.3,0,1,0,.035,0Zm2.13,0a.3.3,0,1,0,.035,0Zm-3.37,8.146a.3.3,0,1,0,.035,0Zm2.13,0a.3.3,0,1,0,.035,0Zm2.122,0a.3.3,0,1,0,.035,0Zm2.13,0a.716.716,0,1,0-.707.707.707.707,0,0,0,.742-.707Zm2.122,0a.3.3,0,1,0,.035,0Zm2.122,0a.3.3,0,1,0,.035,0Zm-10.626,5.841a.3.3,0,1,0,.035,0Zm2.13,0a.3.3,0,1,0,.035,0Zm2.122,0a.3.3,0,1,0,.035,0Zm2.13,0a.3.3,0,1,0,.035,0Zm2.122,0a.3.3,0,1,0,.035,0Zm2.122,0a.3.3,0,1,0,.035,0Z" transform="translate(-84.791 -105.052)" fill="#4be5f1"/>
        <path id="Trazado_808068" data-name="Trazado 808068" d="M155.861,129.867h-2.48a.611.611,0,1,1,0-1.222h2.48a.611.611,0,0,1,0,1.222Zm.611,2.226a.611.611,0,0,0-.611-.611h-2.48a.611.611,0,1,0,0,1.222h2.48a.611.611,0,0,0,.6-.611Zm0,2.829a.611.611,0,0,0-.611-.611h-2.48a.62.62,0,0,0,0,1.231h2.48a.611.611,0,0,0,.6-.62Zm0,2.838a.611.611,0,0,0-.611-.611h-2.48a.611.611,0,1,0,0,1.222h2.48a.611.611,0,0,0,.6-.611Zm0,2.838a.611.611,0,0,0-.611-.62h-2.48a.62.62,0,0,0,0,1.231h2.48a.611.611,0,0,0,.6-.611Zm0,2.829a.611.611,0,0,0-.611-.611h-2.48a.611.611,0,0,0,0,1.222h2.48a.611.611,0,0,0,.6-.611Zm0,2.838a.611.611,0,0,0-.611-.611h-2.48a.611.611,0,1,0,0,1.222h2.48a.611.611,0,0,0,.6-.611Zm0,2.829a.611.611,0,0,0-.611-.611h-2.48a.611.611,0,0,0,0,1.222h2.48a.611.611,0,0,0,.6-.611Zm9.281-19.837a.62.62,0,0,0-.62-.611h-6.5a.611.611,0,0,0,0,1.222h6.5a.611.611,0,0,0,.62-.611Zm0,2.838a.611.611,0,0,0-.62-.611h-6.5a.611.611,0,0,0,0,1.222h6.5a.611.611,0,0,0,.62-.611Zm0,2.829a.62.62,0,0,0-.62-.611h-6.5a.62.62,0,0,0,0,1.231h6.5a.62.62,0,0,0,.62-.62Zm0,2.838a.611.611,0,0,0-.62-.611h-6.5a.611.611,0,0,0,0,1.222h6.5a.611.611,0,0,0,.62-.611Zm0,2.838a.62.62,0,0,0-.62-.62h-6.5a.62.62,0,0,0,0,1.231h6.5a.62.62,0,0,0,.62-.611Zm7.788,2.829a.611.611,0,0,0-.611-.611h-6.5a.611.611,0,0,0,0,1.222h6.5a.611.611,0,0,0,.611-.611Zm0,2.838a.611.611,0,0,0-.611-.611h-6.5a.611.611,0,0,0,0,1.222h6.5a.611.611,0,0,0,.611-.611Zm0,2.829a.611.611,0,0,0-.611-.611h-6.5a.611.611,0,0,0,0,1.222h6.5a.611.611,0,0,0,.611-.611Zm-4.924-19.837a.716.716,0,1,0-.716.716.716.716,0,0,0,.716-.716Zm2.122,0a.707.707,0,1,0-.2.506.707.707,0,0,0,.2-.506Zm2.122,0a.707.707,0,1,0-.2.506.707.707,0,0,0,.2-.506Zm2.13,0a.707.707,0,1,0-.707.716.716.716,0,0,0,.707-.716Zm2.122,0a.707.707,0,1,0-.2.506.707.707,0,0,0,.2-.506Zm2.13,0a.716.716,0,1,0-.716.716.716.716,0,0,0,.716-.716Zm-10.626,5.666a.716.716,0,1,0-.716.716.716.716,0,0,0,.716-.716Zm2.122,0a.707.707,0,1,0-.2.506.707.707,0,0,0,.2-.506Zm2.122,0a.707.707,0,1,0-.2.506.707.707,0,0,0,.2-.506Zm2.13,0a.707.707,0,1,0-.707.716.716.716,0,0,0,.707-.716Zm2.122,0a.707.707,0,1,0-.2.506.707.707,0,0,0,.2-.506Zm2.13,0a.716.716,0,1,0-.716.716.716.716,0,0,0,.716-.716Zm-3.37,8.155a.707.707,0,1,0-.707.707.716.716,0,0,0,.707-.707Zm2.13,0a.716.716,0,1,0-.716.707.716.716,0,0,0,.716-.707Zm2.122,0a.707.707,0,1,0-.707.707.716.716,0,0,0,.707-.707Zm2.122,0a.707.707,0,1,0-.707.707.716.716,0,0,0,.707-.707Zm2.13,0a.3.3,0,1,0,.026,0Zm2.122,0a.707.707,0,1,0-.707.707.716.716,0,0,0,.707-.707Zm-10.626,5.841a.707.707,0,1,0-.707.707.707.707,0,0,0,.707-.707Zm2.13,0a.716.716,0,1,0-.716.707.716.716,0,0,0,.716-.707Zm2.122,0a.707.707,0,1,0-.707.707.707.707,0,0,0,.707-.707Zm2.122,0a.707.707,0,1,0-.707.707.707.707,0,0,0,.707-.707Zm2.13,0a.716.716,0,1,0-.707.707.707.707,0,0,0,.733-.707Zm2.122,0a.707.707,0,1,0-.707.707.707.707,0,0,0,.707-.707Z" transform="translate(-90.334 -98.383)" fill="#4be5f1"/>
        <path id="Trazado_808069" data-name="Trazado 808069" d="M155.861,156.471h-2.48a.611.611,0,1,1,0-1.222h2.48a.611.611,0,1,1,0,1.222Zm.611,2.226a.611.611,0,0,0-.611-.611h-2.48a.611.611,0,1,0,0,1.222h2.48a.611.611,0,0,0,.6-.611Zm0,2.829a.611.611,0,0,0-.611-.611h-2.48a.611.611,0,1,0,0,1.222h2.48a.611.611,0,0,0,.6-.611Zm0,2.838a.611.611,0,0,0-.611-.611h-2.48a.611.611,0,1,0,0,1.222h2.48a.611.611,0,0,0,.6-.611Zm0,2.829a.611.611,0,0,0-.611-.611h-2.48a.611.611,0,1,0,0,1.222h2.48a.611.611,0,0,0,.6-.611Zm0,2.838a.611.611,0,0,0-.611-.611h-2.48a.611.611,0,1,0,0,1.222h2.48a.611.611,0,0,0,.6-.611Zm0,2.829a.611.611,0,0,0-.611-.611h-2.48a.611.611,0,1,0,0,1.222h2.48a.611.611,0,0,0,.6-.611Zm0,2.838a.611.611,0,0,0-.611-.611h-2.48a.611.611,0,1,0,0,1.222h2.48a.611.611,0,0,0,.6-.611Zm9.281-19.8a.611.611,0,0,0-.62-.611h-6.5a.611.611,0,0,0,0,1.222h6.5a.611.611,0,0,0,.62-.611Zm0,2.838a.611.611,0,0,0-.62-.611h-6.5a.611.611,0,0,0,0,1.222h6.5a.62.62,0,0,0,.62-.646Zm0,2.829a.611.611,0,0,0-.62-.611h-6.5a.611.611,0,0,0,0,1.222h6.5a.611.611,0,0,0,.62-.646Zm0,2.838a.611.611,0,0,0-.62-.611h-6.5a.611.611,0,0,0,0,1.222h6.5a.62.62,0,0,0,.62-.646Zm0,2.829a.611.611,0,0,0-.62-.611h-6.5a.611.611,0,0,0,0,1.222h6.5a.611.611,0,0,0,.62-.646Zm7.788,2.838a.611.611,0,0,0-.611-.611h-6.5a.611.611,0,0,0,0,1.222h6.5a.611.611,0,0,0,.611-.646Zm0,2.829a.611.611,0,0,0-.611-.611h-6.5a.611.611,0,0,0,0,1.222h6.5a.611.611,0,0,0,.611-.646Zm0,2.838a.611.611,0,0,0-.611-.611h-6.5a.611.611,0,0,0,0,1.222h6.5a.611.611,0,0,0,.611-.646Zm-4.924-19.837a.716.716,0,1,0-.716.707.716.716,0,0,0,.716-.707Zm2.122,0a.707.707,0,1,0-.707.707A.707.707,0,0,0,170.739,155.895Zm2.122,0a.707.707,0,1,0-.707.707A.707.707,0,0,0,172.86,155.895Zm2.13,0a.707.707,0,1,0-.707.707.707.707,0,0,0,.707-.707Zm2.122,0a.707.707,0,1,0-.707.707A.707.707,0,0,0,177.112,155.895Zm2.13,0a.716.716,0,1,0-.716.707.716.716,0,0,0,.716-.707Zm-10.626,5.666a.74.74,0,1,1,0-.035Zm2.122,0a.753.753,0,1,1,0-.035Zm2.122,0a.753.753,0,1,1,0-.035Zm2.13,0a.755.755,0,1,1,0-.035Zm2.122,0a.755.755,0,1,1,0-.035Zm2.13,0a.74.74,0,1,1,0-.035Zm-3.37,8.146a.753.753,0,1,1,0-.035Zm2.13,0a.743.743,0,1,1,0-.035Zm2.122,0a.755.755,0,1,1,0-.035Zm2.122,0a.757.757,0,1,1,0-.035Zm2.13,0a.716.716,0,1,0-.707.707.707.707,0,0,0,.733-.742Zm2.122,0a.755.755,0,1,1,0-.035Zm-10.626,5.841a.782.782,0,1,1,0-.035Zm2.13,0a.767.767,0,1,1,0-.035Zm2.122,0a.781.781,0,1,1,0-.035Zm2.122,0a.782.782,0,1,1,0-.035Zm2.13,0a.953.953,0,1,0,.026-.035Zm2.122,0a.782.782,0,1,1,0-.035Z" transform="translate(-90.334 -101.762)" fill="#4be5f1"/>
        <path id="Trazado_808070" data-name="Trazado 808070" d="M111.457,119.459a1.179,1.179,0,1,1-1.179-1.179A1.179,1.179,0,0,1,111.457,119.459Z" transform="translate(-84.793 -97.081)" fill="#263238"/>
        <path id="Trazado_808071" data-name="Trazado 808071" d="M117.527,119.459a1.179,1.179,0,1,1-1.179-1.179,1.179,1.179,0,0,1,1.179,1.179Z" transform="translate(-85.563 -97.081)" fill="#263238"/>
        <circle id="Elipse_4859" data-name="Elipse 4859" cx="1.179" cy="1.179" r="1.179" transform="translate(34.898 21.199)" fill="#263238"/>
        <rect id="Rectángulo_376177" data-name="Rectángulo 376177" width="122.323" height="70.556" transform="translate(97.753 62.401)" opacity="0.3"/>
        <rect id="Rectángulo_376178" data-name="Rectángulo 376178" width="122.323" height="70.556" transform="translate(95.876 60.524)" fill="#fff" stroke="#263238" stroke-miterlimit="10" stroke-width="0.966"/>
        <path id="Trazado_808072" data-name="Trazado 808072" d="M260.075,207.7l-1.283-.087a7.9,7.9,0,0,0-.122-1.292l1.24-.332a.358.358,0,0,0,.262-.445l-.157-.585a.367.367,0,0,0-.445-.253l-1.24.332a8.01,8.01,0,0,0-.541-1.179l1.065-.725a.367.367,0,0,0,.1-.506l-.332-.5a.367.367,0,0,0-.506-.1l-1.065.716a10.159,10.159,0,0,0-.873-.943l.777-1.022a.375.375,0,0,0-.07-.515l-.48-.358a.375.375,0,0,0-.515.07l-.777,1.03a6.793,6.793,0,0,0-1.144-.6l.393-1.222a.367.367,0,0,0-.236-.463l-.568-.183a.367.367,0,0,0-.463.236L252.7,200a8.346,8.346,0,0,0-1.152-.183v-1.283a.367.367,0,0,0-.367-.367h-.594a.367.367,0,0,0-.367.367v1.283a7.864,7.864,0,0,0-1.283.21l-.419-1.214a.375.375,0,0,0-.463-.227l-.568.2a.367.367,0,0,0-.227.463l.419,1.214a7.49,7.49,0,0,0-1.135.62l-.795-1.013a.375.375,0,0,0-.515-.061l-.471.367a.367.367,0,0,0-.061.515l.786,1.013a8.261,8.261,0,0,0-.873.96l-1.083-.7a.358.358,0,0,0-.506.1l-.323.5a.367.367,0,0,0,.1.506l1.083.7a7.606,7.606,0,0,0-.515,1.2l-1.249-.314a.367.367,0,0,0-.445.271l-.148.576a.367.367,0,0,0,.271.445l1.249.314a7.589,7.589,0,0,0-.1,1.266h0l-1.283.113a.367.367,0,0,0-.332.393l.052.6a.367.367,0,0,0,.4.332l1.275-.114a8.559,8.559,0,0,0,.323,1.257l-1.17.524a.358.358,0,0,0-.183.48l.244.55a.367.367,0,0,0,.48.183l1.17-.524a7.555,7.555,0,0,0,.725,1.083l-.943.873a.358.358,0,0,0,0,.515l.41.437a.358.358,0,0,0,.515,0l.943-.873a7.638,7.638,0,0,0,1.03.786l-.611,1.135a.375.375,0,0,0,.157.5l.524.279a.367.367,0,0,0,.5-.148l.6-1.135a8.143,8.143,0,0,0,1.231.41l-.2,1.266a.367.367,0,0,0,.306.419l.594.1a.367.367,0,0,0,.419-.306l.2-1.266h.576a6.447,6.447,0,0,0,.716,0l.227,1.266a.367.367,0,0,0,.428.3l.585-.1a.367.367,0,0,0,.3-.428l-.218-1.266a7.542,7.542,0,0,0,1.222-.437l.62,1.126a.358.358,0,0,0,.5.14l.524-.288a.358.358,0,0,0,.087-.428l-.62-1.118a8.253,8.253,0,0,0,1.013-.812l.96.873a.358.358,0,0,0,.515,0l.4-.445a.367.367,0,0,0,0-.515l-.96-.873a8.071,8.071,0,0,0,.7-1.1l1.187.506a.367.367,0,0,0,.48-.192l.236-.559a.367.367,0,0,0-.2-.48l-1.179-.5a8.635,8.635,0,0,0,.306-1.266l1.275.1a.367.367,0,0,0,.393-.341l.044-.6a.367.367,0,0,0-.358-.454Zm-9.22,4.479a4.453,4.453,0,1,1,4.453-4.453,4.453,4.453,0,0,1-4.453,4.453Z" transform="translate(-101.571 -107.218)" fill="#263238"/>
        <circle id="Elipse_4860" data-name="Elipse 4860" cx="6.225" cy="6.225" r="6.225" transform="translate(142.16 105.678) rotate(-80.8)" fill="none" stroke="#fff" stroke-miterlimit="10" stroke-width="0.966"/>
        <path id="Trazado_808073" data-name="Trazado 808073" d="M274.2,215.577l-.873-.061a5.459,5.459,0,0,0-.079-.873l.812-.218a.236.236,0,0,0,.166-.3l-.1-.375a.236.236,0,0,0-.3-.166l-.812.21a5.112,5.112,0,0,0-.358-.768l.7-.471a.244.244,0,0,0,.07-.332l-.218-.332a.245.245,0,0,0-.332-.061l-.7.471a5.675,5.675,0,0,0-.594-.62l.515-.672a.236.236,0,0,0-.052-.332l-.314-.236a.236.236,0,0,0-.332,0l-.506.672a6.241,6.241,0,0,0-.76-.393l.262-.8a.227.227,0,0,0-.157-.3l-.367-.122a.236.236,0,0,0-.306.157l-.262.795a5.183,5.183,0,0,0-.751-.113v-.873a.236.236,0,0,0-.236-.236h-.393a.244.244,0,0,0-.244.236v.873a4.428,4.428,0,0,0-.873.14l-.271-.795a.236.236,0,0,0-.306-.148l-.375.122a.244.244,0,0,0-.148.306l.279.795a4.811,4.811,0,0,0-.751.41l-.515-.664a.245.245,0,0,0-.341-.044l-.306.244a.236.236,0,0,0-.044.332l.515.664a5.585,5.585,0,0,0-.568.629l-.707-.454a.236.236,0,0,0-.332.07l-.218.323a.236.236,0,0,0,.07.332l.707.463a5.638,5.638,0,0,0-.34.777l-.812-.2a.244.244,0,0,0-.3.175l-.1.384a.253.253,0,0,0,.175.288l.821.2a5.244,5.244,0,0,0-.07.829h0l-.873.079a.236.236,0,0,0-.218.262v.384a.245.245,0,0,0,.262.218l.873-.07a6.266,6.266,0,0,0,.21.821l-.768.349a.244.244,0,0,0-.122.314l.166.358a.236.236,0,0,0,.314.122l.768-.341a6.221,6.221,0,0,0,.471.707l-.62.576a.236.236,0,0,0,0,.332l.271.288a.244.244,0,0,0,.34,0l.611-.576a5.48,5.48,0,0,0,.672.515l-.393.742a.253.253,0,0,0,.1.332l.349.183a.236.236,0,0,0,.323-.1l.4-.742a4.828,4.828,0,0,0,.8.271l-.131.829a.253.253,0,0,0,.2.279l.384.061a.253.253,0,0,0,.279-.2l.131-.829h.847l.148.873a.236.236,0,0,0,.279.192l.384-.07a.236.236,0,0,0,.192-.279l-.14-.821a6.109,6.109,0,0,0,.795-.288l.41.733a.244.244,0,0,0,.332.1l.341-.192a.244.244,0,0,0,.1-.323l-.41-.733a6.564,6.564,0,0,0,.664-.533l.629.559a.227.227,0,0,0,.34,0l.262-.288a.245.245,0,0,0,0-.341l-.629-.559a4.8,4.8,0,0,0,.454-.725l.777.332a.236.236,0,0,0,.314-.122l.157-.367a.245.245,0,0,0-.131-.314l-.777-.332a5.123,5.123,0,0,0,.2-.821l.873.052a.245.245,0,0,0,.262-.218V215.8A.245.245,0,0,0,274.2,215.577Zm-6.042,2.934a2.936,2.936,0,1,0-.009,0Z" transform="translate(-104.167 -108.622)" fill="#263238"/>
        <path id="Trazado_808074" data-name="Trazado 808074" d="M272.562,215.917a4.086,4.086,0,1,1-4.086-4.077,4.086,4.086,0,0,1,4.086,4.077Z" transform="translate(-104.498 -108.953)" fill="none" stroke="#fff" stroke-miterlimit="10" stroke-width="0.966"/>
        <path id="Trazado_808075" data-name="Trazado 808075" d="M199.8,183.038c0-2.061,1.091-3.248,3.082-3.248s3.073,1.187,3.073,3.248v6.705c0,2.061-1.083,3.239-3.073,3.239s-3.082-1.179-3.082-3.239Zm2.034,6.836c0,.873.4,1.266,1.048,1.266s1.048-.349,1.048-1.266V182.89c0-.917-.4-1.275-1.048-1.275s-1.048.358-1.048,1.275Z" transform="translate(-96.302 -104.886)" fill="#263238"/>
        <path id="Trazado_808076" data-name="Trazado 808076" d="M214.357,183.152v1.676c0,2.069-1,3.2-3.021,3.2h-.96v4.846H208.35V180h2.986C213.362,180,214.357,181.091,214.357,183.152Zm-3.981-1.345v4.366h.96c.646,0,1-.288,1-1.214v-1.93c0-.925-.349-1.222-1-1.222Z" transform="translate(-97.387 -104.913)" fill="#263238"/>
        <path id="Trazado_808077" data-name="Trazado 808077" d="M218.444,185.4h2.776v1.842h-2.776v3.772h3.492v1.851H216.41V180h5.527v1.842h-3.492Z" transform="translate(-98.409 -104.913)" fill="#263238"/>
        <path id="Trazado_808078" data-name="Trazado 808078" d="M228.383,192.87a3.955,3.955,0,0,1-.183-1.589v-2.026c0-1.2-.41-1.641-1.327-1.641h-.707v5.239H224.14V180H227.2c2.1,0,3,.978,3,2.969v1.013a2.585,2.585,0,0,1-1.327,2.619c1.013.419,1.345,1.4,1.345,2.742v1.991a3.859,3.859,0,0,0,.218,1.572Zm-2.218-11.062v3.964h.795c.76,0,1.214-.332,1.214-1.362v-1.275c0-.917-.306-1.327-1.03-1.327Z" transform="translate(-99.39 -104.913)" fill="#263238"/>
        <path id="Trazado_808079" data-name="Trazado 808079" d="M239.15,192.87h-2.043l-.349-2.34h-2.488l-.349,2.34h-1.86L234.121,180h2.969Zm-4.628-4.095h1.956l-.978-6.522Z" transform="translate(-100.395 -104.913)" fill="#263238"/>
        <path id="Trazado_808080" data-name="Trazado 808080" d="M240.579,180h6.269v1.842h-2.122V192.9h-2.034v-11.1H240.57Z" transform="translate(-101.475 -104.913)" fill="#263238"/>
        <path id="Trazado_808081" data-name="Trazado 808081" d="M248.77,180H250.8v12.9H248.77Z" transform="translate(-102.516 -104.913)" fill="#263238"/>
        <path id="Trazado_808082" data-name="Trazado 808082" d="M254.585,183.492v9.342H252.76V180H255.3l2.087,7.727V180h1.807v12.9h-2.087Z" transform="translate(-103.022 -104.913)" fill="#263238"/>
        <path id="Trazado_808083" data-name="Trazado 808083" d="M264.813,185.657h2.838v4.086c0,2.061-1.039,3.239-3.03,3.239s-3.021-1.179-3.021-3.239v-6.705c0-2.061,1.039-3.248,3.021-3.248s3.03,1.187,3.03,3.248v1.249H265.73v-1.38c0-.917-.4-1.275-1.048-1.275s-1.048.358-1.048,1.275v6.985c0,.873.4,1.249,1.048,1.249s1.048-.332,1.048-1.249v-2.375h-.917Z" transform="translate(-104.144 -104.886)" fill="#263238"/>
        <path id="Trazado_808084" data-name="Trazado 808084" d="M275.978,179.79c1.973,0,2.986,1.187,2.986,3.248v.428h-1.921v-.533c0-.917-.367-1.275-1.013-1.275s-1.013.358-1.013,1.275c0,2.619,3.964,3.152,3.964,6.836,0,2.061-1.03,3.239-3.021,3.239s-3.021-1.179-3.021-3.239v-.795h1.912v.925c0,.873.41,1.249,1.056,1.249s1.048-.332,1.048-1.249c0-2.619-3.964-3.152-3.964-6.836C272.992,180.977,274.005,179.79,275.978,179.79Z" transform="translate(-105.583 -104.886)" fill="#263238"/>
        <path id="Trazado_808085" data-name="Trazado 808085" d="M282.847,188.591,280.28,180H282.4l1.545,5.876L285.5,180h1.93l-2.558,8.626V192.9h-2.026Z" transform="translate(-106.514 -104.913)" fill="#263238"/>
        <path id="Trazado_808086" data-name="Trazado 808086" d="M291.938,179.79c1.973,0,2.986,1.187,2.986,3.248v.428H293v-.533c0-.917-.367-1.275-1.013-1.275s-1.013.358-1.013,1.275c0,2.619,3.964,3.152,3.964,6.836,0,2.061-1.03,3.239-3.021,3.239s-3.021-1.179-3.021-3.239v-.795h1.912v.925c0,.873.4,1.249,1.048,1.249s1.056-.332,1.056-1.249c0-2.619-3.964-3.152-3.964-6.836C288.987,180.977,289.965,179.79,291.938,179.79Z" transform="translate(-107.608 -104.886)" fill="#263238"/>
        <path id="Trazado_808087" data-name="Trazado 808087" d="M296.47,180h6.269v1.842h-2.122V192.9h-2.026v-11.1H296.47Z" transform="translate(-108.568 -104.913)" fill="#263238"/>
        <path id="Trazado_808088" data-name="Trazado 808088" d="M306.7,185.4h2.785v1.842H306.7v3.772H310.2v1.851H304.67V180H310.2v1.842H306.7Z" transform="translate(-109.609 -104.913)" fill="#263238"/>
        <path id="Trazado_808089" data-name="Trazado 808089" d="M316.731,189.124,318.11,180h2.82v12.9h-1.886V183.65l-1.4,9.255h-1.921l-1.51-9.124V192.9H312.47V180h2.82Z" transform="translate(-110.598 -104.913)" fill="#263238"/>
        <rect id="Rectángulo_376179" data-name="Rectángulo 376179" width="122.323" height="5.116" transform="translate(95.876 60.524)" fill="#263238" stroke="#263238" stroke-miterlimit="10" stroke-width="0.966"/>
        <circle id="Elipse_4861" data-name="Elipse 4861" cx="1.179" cy="1.179" r="1.179" transform="translate(99.255 61.519)" fill="#4be5f1"/>
        <circle id="Elipse_4862" data-name="Elipse 4862" cx="1.179" cy="1.179" r="1.179" transform="translate(104.546 61.519)" fill="#4be5f1"/>
        <path id="Trazado_808090" data-name="Trazado 808090" d="M209.427,165.639a1.179,1.179,0,1,1-1.179-1.179A1.179,1.179,0,0,1,209.427,165.639Z" transform="translate(-97.224 -102.941)" fill="#4be5f1"/>
        <path id="Trazado_808091" data-name="Trazado 808091" d="M304.689,229.792H203.461a1.3,1.3,0,0,1-1.3-1.3h0a1.3,1.3,0,0,1,1.3-1.3H304.689a1.3,1.3,0,0,1,1.31,1.3h0a1.31,1.31,0,0,1-1.31,1.3Z" transform="translate(-96.601 -110.901)" fill="#fff" stroke="#263238" stroke-miterlimit="10" stroke-width="0.966"/>
        <path id="Trazado_808092" data-name="Trazado 808092" d="M274.732,227.19H203.46a1.31,1.31,0,1,0,0,2.619h71.272Z" transform="translate(-96.6 -110.901)" fill="#4be5f1" stroke="#263238" stroke-miterlimit="10" stroke-width="0.966"/>
        <path id="Trazado_808093" data-name="Trazado 808093" d="M121.905,284.7H85.75L177.479,103.89h36.164Z" transform="translate(-81.83 -95.255)" fill="#fff" opacity="0.3"/>
        <path id="Trazado_808094" data-name="Trazado 808094" d="M154.823,284.7H140.67L232.408,103.89h14.144Z" transform="translate(-88.799 -95.255)" fill="#fff" opacity="0.3"/>
        <path id="Trazado_808095" data-name="Trazado 808095" d="M388.655,94H87.931a6.671,6.671,0,0,0-6.671,6.671V317.926a6.671,6.671,0,0,0,6.671,6.671H388.655a6.671,6.671,0,0,0,6.671-6.671V100.662A6.67,6.67,0,0,0,388.655,94Zm-9.133,177.241H97.063v-162.9H379.523Z" transform="translate(-81.26 -94)" fill="#263238" stroke="#263238" stroke-linecap="round" stroke-linejoin="round" stroke-width="0.966"/>
        <path id="Trazado_808096" data-name="Trazado 808096" d="M292.8,374.705V348.73H214.657v25.975a37.151,37.151,0,0,1-8.295,23.347l-3.423,4.226H304.526l-3.423-4.226a37.107,37.107,0,0,1-8.3-23.347Z" transform="translate(-96.7 -126.323)" fill="#a8a8a8" stroke="#263238" stroke-linecap="round" stroke-linejoin="round" stroke-width="0.966"/>
        <rect id="Rectángulo_376180" data-name="Rectángulo 376180" width="78.143" height="16.781" transform="translate(117.957 222.407)" fill="#263238"/>
        <rect id="Rectángulo_376181" data-name="Rectángulo 376181" width="101.604" height="4.636" transform="translate(106.24 275.955)" fill="#a8a8a8" stroke="#263238" stroke-linecap="round" stroke-linejoin="round" stroke-width="0.966"/>
        <path id="Trazado_808097" data-name="Trazado 808097" d="M81.26,317.05H395.352v28.69a7.16,7.16,0,0,1-7.16,7.16H88.419a7.159,7.159,0,0,1-7.16-7.16Z" transform="translate(-81.26 -122.303)" fill="#fff" stroke="#263238" stroke-linecap="round" stroke-linejoin="round" stroke-width="0.966"/>
        <path id="Trazado_808098" data-name="Trazado 808098" d="M395.4,129.675h12.966l-1.3-12.765H396.692Z" transform="translate(-121.122 -96.907)" fill="#263238"/>
        <rect id="Rectángulo_376182" data-name="Rectángulo 376182" width="12.966" height="2.977" rx="0.28" transform="translate(274.278 32.148)" fill="#fff"/>
        <path id="Trazado_808099" data-name="Trazado 808099" d="M395.4,150.595h12.966l-1.3-12.765H396.692Z" transform="translate(-121.122 -99.562)" fill="#263238"/>
        <rect id="Rectángulo_376183" data-name="Rectángulo 376183" width="12.966" height="2.977" rx="0.45" transform="translate(274.278 50.413)" fill="#fff"/>
        <rect id="Rectángulo_376184" data-name="Rectángulo 376184" width="5.867" height="1.205" transform="translate(275.108 51.286)" fill="#263238"/>
        <path id="Trazado_808100" data-name="Trazado 808100" d="M406.821,144.117c0,1.991-2,3.606-4.47,3.606s-4.47-1.615-4.47-3.606,2-3.6,4.47-3.6S406.821,142.135,406.821,144.117Z" transform="translate(-121.436 -99.903)" fill="#263238" stroke="#595959" stroke-miterlimit="10" stroke-width="0.483"/>
        <path id="Trazado_808101" data-name="Trazado 808101" d="M396.962,165.55h10.966a.672.672,0,0,1,.672.672v6.924H396.29v-6.924a.672.672,0,0,1,.672-.672Z" transform="translate(-121.234 -103.079)" fill="#fff"/>
        <rect id="Rectángulo_376185" data-name="Rectángulo 376185" width="5.474" height="2.846" rx="0.38" transform="translate(276.845 61.03)" fill="#fff"/>
        <path id="Trazado_808102" data-name="Trazado 808102" d="M396.962,186.25h10.966a.672.672,0,0,1,.672.672v6.967H396.29V186.9a.672.672,0,0,1,.672-.655Z" transform="translate(-121.234 -105.706)" fill="#fff"/>
        <rect id="Rectángulo_376186" data-name="Rectángulo 376186" width="5.474" height="2.846" rx="0.38" transform="translate(276.845 79.112)" fill="#fff"/>
        <path id="Trazado_808103" data-name="Trazado 808103" d="M396.962,207h10.966a.672.672,0,0,1,.672.672V214.6H396.29v-6.924A.672.672,0,0,1,396.962,207Z" transform="translate(-121.234 -108.339)" fill="#fff"/>
        <rect id="Rectángulo_376187" data-name="Rectángulo 376187" width="5.474" height="2.846" rx="0.38" transform="translate(276.845 97.195)" fill="#fff"/>
      </g>
      <g id="freepik--Keyboard--inject-2" transform="translate(62.74 374.295)">
        <rect id="Rectángulo_376188" data-name="Rectángulo 376188" width="258.693" height="6.749" rx="2.66" transform="translate(0 31.467)" fill="#3c464c"/>
        <path id="Trazado_808104" data-name="Trazado 808104" d="M328.757,456.237l-26.63-31.03c-.742-.873-3.152-1.327-5.047-1.327H102.665c-1.895,0-4.3.463-5.047,1.327l-26.673,31.03a1.248,1.248,0,0,0-.279,1.379c.384.812,1.746,1.284,3.772,1.284H325.273c2.017,0,3.388-.471,3.763-1.284a1.249,1.249,0,0,0-.279-1.379Z" transform="translate(-70.552 -423.88)" fill="#263238"/>
        <path id="Trazado_808105" data-name="Trazado 808105" d="M219.321,425.15H207.813l-.323,4.06H219.4Z" transform="translate(-87.926 -424.041)" fill="#fff" stroke="#263238" stroke-linecap="round" stroke-linejoin="round" stroke-width="1.059"/>
        <path id="Trazado_808106" data-name="Trazado 808106" d="M187.371,425.15H175.855l-1.275,4.06h11.909Z" transform="translate(-83.75 -424.041)" fill="#fff" stroke="#263238" stroke-linecap="round" stroke-linejoin="round" stroke-width="1.059"/>
        <path id="Trazado_808107" data-name="Trazado 808107" d="M235.278,425.15H223.77l.148,4.06h11.909Z" transform="translate(-89.992 -424.041)" fill="#fff" stroke="#263238" stroke-linecap="round" stroke-linejoin="round" stroke-width="1.059"/>
        <path id="Trazado_808108" data-name="Trazado 808108" d="M155.413,425.15H143.905l-2.235,4.06h11.909Z" transform="translate(-79.574 -424.041)" fill="#fff" stroke="#263238" stroke-linecap="round" stroke-linejoin="round" stroke-width="1.059"/>
        <path id="Trazado_808109" data-name="Trazado 808109" d="M171.393,425.15H159.876l-1.746,4.06h11.9Z" transform="translate(-81.663 -424.041)" fill="#fff" stroke="#263238" stroke-linecap="round" stroke-linejoin="round" stroke-width="1.059"/>
        <path id="Trazado_808110" data-name="Trazado 808110" d="M125.22,429.21h11.909l2.3-4.06H127.927Z" transform="translate(-77.487 -424.041)" fill="#fff" stroke="#263238" stroke-linecap="round" stroke-linejoin="round" stroke-width="1.059"/>
        <path id="Trazado_808111" data-name="Trazado 808111" d="M203.35,425.15H191.833l-.8,4.06h11.909Z" transform="translate(-85.838 -424.041)" fill="#fff" stroke="#263238" stroke-linecap="round" stroke-linejoin="round" stroke-width="1.059"/>
        <path id="Trazado_808112" data-name="Trazado 808112" d="M251.186,425.15H239.67l.637,4.06h11.9Z" transform="translate(-92.01 -424.041)" fill="#fff" stroke="#263238" stroke-linecap="round" stroke-linejoin="round" stroke-width="1.059"/>
        <path id="Trazado_808113" data-name="Trazado 808113" d="M122.56,425.15H105.028l-3.388,4.06h18.126Z" transform="translate(-74.495 -424.041)" fill="#fff" stroke="#263238" stroke-linecap="round" stroke-linejoin="round" stroke-width="1.059"/>
        <path id="Trazado_808114" data-name="Trazado 808114" d="M319.21,425.15l3.012,4.06h12.293l-3.423-4.06Z" transform="translate(-102.103 -424.041)" fill="#fff" stroke="#263238" stroke-linecap="round" stroke-linejoin="round" stroke-width="1.059"/>
        <path id="Trazado_808115" data-name="Trazado 808115" d="M314.818,425.15H303.31l2.532,4.06h11.909Z" transform="translate(-100.085 -424.041)" fill="#fff" stroke="#263238" stroke-linecap="round" stroke-linejoin="round" stroke-width="1.059"/>
        <path id="Trazado_808116" data-name="Trazado 808116" d="M298.908,425.15H287.4l2.061,4.06h11.9Z" transform="translate(-98.066 -424.041)" fill="#fff" stroke="#263238" stroke-linecap="round" stroke-linejoin="round" stroke-width="1.059"/>
        <path id="Trazado_808117" data-name="Trazado 808117" d="M267.1,425.15H255.58l1.109,4.06H268.6Z" transform="translate(-94.029 -424.041)" fill="#fff" stroke="#263238" stroke-linecap="round" stroke-linejoin="round" stroke-width="1.059"/>
        <path id="Trazado_808118" data-name="Trazado 808118" d="M283.006,425.15H271.49l1.58,4.06h11.909Z" transform="translate(-96.047 -424.041)" fill="#fff" stroke="#263238" stroke-linecap="round" stroke-linejoin="round" stroke-width="1.059"/>
        <path id="Trazado_808119" data-name="Trazado 808119" d="M177.782,430.26h-11.97l-1.641,4.374h12.4Z" transform="translate(-82.43 -424.69)" fill="#fff" stroke="#263238" stroke-linecap="round" stroke-linejoin="round" stroke-width="1.059"/>
        <path id="Trazado_808120" data-name="Trazado 808120" d="M194.4,430.26h-11.97l-1.126,4.374h12.4Z" transform="translate(-84.603 -424.69)" fill="#fff" stroke="#263238" stroke-linecap="round" stroke-linejoin="round" stroke-width="1.059"/>
        <path id="Trazado_808121" data-name="Trazado 808121" d="M211.011,430.26H199.032l-.6,4.374h12.4Z" transform="translate(-86.777 -424.69)" fill="#fff" stroke="#263238" stroke-linecap="round" stroke-linejoin="round" stroke-width="1.059"/>
        <path id="Trazado_808122" data-name="Trazado 808122" d="M144.562,430.26H132.583l-2.663,4.374h12.4Z" transform="translate(-78.084 -424.69)" fill="#fff" stroke="#263238" stroke-linecap="round" stroke-linejoin="round" stroke-width="1.059"/>
        <path id="Trazado_808123" data-name="Trazado 808123" d="M112.79,434.634h12.4l2.759-4.374h-11.97Z" transform="translate(-75.91 -424.69)" fill="#fff" stroke="#263238" stroke-linecap="round" stroke-linejoin="round" stroke-width="1.059"/>
        <path id="Trazado_808124" data-name="Trazado 808124" d="M227.616,430.26h-11.97l-.1,4.374h12.4Z" transform="translate(-88.949 -424.69)" fill="#fff" stroke="#263238" stroke-linecap="round" stroke-linejoin="round" stroke-width="1.059"/>
        <path id="Trazado_808125" data-name="Trazado 808125" d="M161.167,430.26H149.2l-2.157,4.374h12.407Z" transform="translate(-80.256 -424.69)" fill="#fff" stroke="#263238" stroke-linecap="round" stroke-linejoin="round" stroke-width="1.059"/>
        <path id="Trazado_808126" data-name="Trazado 808126" d="M310.32,430.26H298.35l2.48,4.374h12.4Z" transform="translate(-99.456 -424.69)" fill="#fff" stroke="#263238" stroke-linecap="round" stroke-linejoin="round" stroke-width="1.059"/>
        <path id="Trazado_808127" data-name="Trazado 808127" d="M111.511,430.26H100.72l-3.65,4.374h11.176Z" transform="translate(-73.915 -424.69)" fill="#fff" stroke="#263238" stroke-linecap="round" stroke-linejoin="round" stroke-width="1.059"/>
        <path id="Trazado_808128" data-name="Trazado 808128" d="M314.88,430.26l3,4.374H338l-3.693-4.374Z" transform="translate(-101.553 -424.69)" fill="#fff" stroke="#263238" stroke-linecap="round" stroke-linejoin="round" stroke-width="1.059"/>
        <path id="Trazado_808129" data-name="Trazado 808129" d="M293.78,430.26H281.81l1.964,4.374h12.4Z" transform="translate(-97.357 -424.69)" fill="#fff" stroke="#263238" stroke-linecap="round" stroke-linejoin="round" stroke-width="1.059"/>
        <path id="Trazado_808130" data-name="Trazado 808130" d="M244.17,430.26H232.2l.419,4.374h12.4Z" transform="translate(-91.062 -424.69)" fill="#fff" stroke="#263238" stroke-linecap="round" stroke-linejoin="round" stroke-width="1.059"/>
        <path id="Trazado_808131" data-name="Trazado 808131" d="M260.71,430.26H248.74l.934,4.374h12.4Z" transform="translate(-93.161 -424.69)" fill="#fff" stroke="#263238" stroke-linecap="round" stroke-linejoin="round" stroke-width="1.059"/>
        <path id="Trazado_808132" data-name="Trazado 808132" d="M277.249,430.26H265.27l1.458,4.374h12.4Z" transform="translate(-95.258 -424.69)" fill="#fff" stroke="#263238" stroke-linecap="round" stroke-linejoin="round" stroke-width="1.059"/>
        <path id="Trazado_808133" data-name="Trazado 808133" d="M244.019,455.23H161.877l-2.087,6.1h85.617Z" transform="translate(-81.874 -427.858)" fill="#fff" stroke="#263238" stroke-linecap="round" stroke-linejoin="round" stroke-width="1.059"/>
        <path id="Trazado_808134" data-name="Trazado 808134" d="M155.754,455.23H137.427l-2.977,6.1h19.1Z" transform="translate(-78.658 -427.858)" fill="#fff" stroke="#263238" stroke-linecap="round" stroke-linejoin="round" stroke-width="1.059"/>
        <path id="Trazado_808135" data-name="Trazado 808135" d="M274.632,455.23H259.58l1.511,6.1h15.69Z" transform="translate(-94.536 -427.858)" fill="#fff" stroke="#263238" stroke-linecap="round" stroke-linejoin="round" stroke-width="1.059"/>
        <path id="Trazado_808136" data-name="Trazado 808136" d="M94.54,461.333h14.869l3.789-6.1H98.94Z" transform="translate(-73.594 -427.858)" fill="#fff" stroke="#263238" stroke-linecap="round" stroke-linejoin="round" stroke-width="1.059"/>
        <path id="Trazado_808137" data-name="Trazado 808137" d="M132.064,455.23H118.706l-3.676,6.1h13.926Z" transform="translate(-76.194 -427.858)" fill="#fff" stroke="#263238" stroke-linecap="round" stroke-linejoin="round" stroke-width="1.059"/>
        <path id="Trazado_808138" data-name="Trazado 808138" d="M93.5,455.23H79.649l-5.1,6.1H88.982Z" transform="translate(-71.058 -427.858)" fill="#fff" stroke="#263238" stroke-linecap="round" stroke-linejoin="round" stroke-width="1.059"/>
        <path id="Trazado_808139" data-name="Trazado 808139" d="M295.2,455.23H280.15l2.27,6.1h15.69Z" transform="translate(-97.146 -427.858)" fill="#fff" stroke="#263238" stroke-linecap="round" stroke-linejoin="round" stroke-width="1.059"/>
        <path id="Trazado_808140" data-name="Trazado 808140" d="M341.85,455.23l4.549,6.1h14.86l-5.151-6.1Z" transform="translate(-104.975 -427.858)" fill="#fff" stroke="#263238" stroke-linecap="round" stroke-linejoin="round" stroke-width="1.059"/>
        <path id="Trazado_808141" data-name="Trazado 808141" d="M315.772,455.23H300.72l3.03,6.1h15.681Z" transform="translate(-99.757 -427.858)" fill="#fff" stroke="#263238" stroke-linecap="round" stroke-linejoin="round" stroke-width="1.059"/>
        <path id="Trazado_808142" data-name="Trazado 808142" d="M336.332,455.23H321.28l3.789,6.1h15.69Z" transform="translate(-102.365 -427.858)" fill="#fff" stroke="#263238" stroke-linecap="round" stroke-linejoin="round" stroke-width="1.059"/>
        <path id="Trazado_808143" data-name="Trazado 808143" d="M196.566,448.19H183.129l-1.249,5.588h13.978Z" transform="translate(-84.677 -426.965)" fill="#fff" stroke="#263238" stroke-linecap="round" stroke-linejoin="round" stroke-width="1.059"/>
        <path id="Trazado_808144" data-name="Trazado 808144" d="M233.9,448.19H220.46l.061,5.588h13.987Z" transform="translate(-89.572 -426.965)" fill="#fff" stroke="#263238" stroke-linecap="round" stroke-linejoin="round" stroke-width="1.059"/>
        <path id="Trazado_808145" data-name="Trazado 808145" d="M177.891,448.19H164.453l-1.9,5.588h13.978Z" transform="translate(-82.224 -426.965)" fill="#fff" stroke="#263238" stroke-linecap="round" stroke-linejoin="round" stroke-width="1.059"/>
        <path id="Trazado_808146" data-name="Trazado 808146" d="M140.549,448.19H127.1l-3.213,5.588h13.987Z" transform="translate(-77.318 -426.965)" fill="#fff" stroke="#263238" stroke-linecap="round" stroke-linejoin="round" stroke-width="1.059"/>
        <path id="Trazado_808147" data-name="Trazado 808147" d="M104.56,453.778h13.987l3.327-5.588H108.437Z" transform="translate(-74.866 -426.965)" fill="#fff" stroke="#263238" stroke-linecap="round" stroke-linejoin="round" stroke-width="1.059"/>
        <path id="Trazado_808148" data-name="Trazado 808148" d="M159.215,448.19H145.778l-2.558,5.588h13.987Z" transform="translate(-79.771 -426.965)" fill="#fff" stroke="#263238" stroke-linecap="round" stroke-linejoin="round" stroke-width="1.059"/>
        <path id="Trazado_808149" data-name="Trazado 808149" d="M215.241,448.19H201.795l-.585,5.588h13.978Z" transform="translate(-87.13 -426.965)" fill="#fff" stroke="#263238" stroke-linecap="round" stroke-linejoin="round" stroke-width="1.059"/>
        <path id="Trazado_808150" data-name="Trazado 808150" d="M102.652,448.19H85.591l-4.671,5.588H98.67Z" transform="translate(-71.866 -426.965)" fill="#fff" stroke="#263238" stroke-linecap="round" stroke-linejoin="round" stroke-width="1.059"/>
        <path id="Trazado_808151" data-name="Trazado 808151" d="M308.207,448.19H294.77l2.689,5.588h13.978Z" transform="translate(-99.002 -426.965)" fill="#fff" stroke="#263238" stroke-linecap="round" stroke-linejoin="round" stroke-width="1.059"/>
        <path id="Trazado_808152" data-name="Trazado 808152" d="M313.35,448.19l3.335,5.588H352.02l-4.706-5.588Z" transform="translate(-101.359 -426.965)" fill="#fff" stroke="#263238" stroke-linecap="round" stroke-linejoin="round" stroke-width="1.059"/>
        <path id="Trazado_808153" data-name="Trazado 808153" d="M252.477,448.19H239.04l.716,5.588h13.987Z" transform="translate(-91.93 -426.965)" fill="#fff" stroke="#263238" stroke-linecap="round" stroke-linejoin="round" stroke-width="1.059"/>
        <path id="Trazado_808154" data-name="Trazado 808154" d="M271.057,448.19H257.62l1.371,5.588h13.978Z" transform="translate(-94.287 -426.965)" fill="#fff" stroke="#263238" stroke-linecap="round" stroke-linejoin="round" stroke-width="1.059"/>
        <path id="Trazado_808155" data-name="Trazado 808155" d="M289.627,448.19H276.19l2.034,5.588H292.2Z" transform="translate(-96.644 -426.965)" fill="#fff" stroke="#263238" stroke-linecap="round" stroke-linejoin="round" stroke-width="1.059"/>
        <path id="Trazado_808156" data-name="Trazado 808156" d="M206.449,441.72H193.518l-.838,5.134h13.428Z" transform="translate(-86.047 -426.144)" fill="#fff" stroke="#263238" stroke-linecap="round" stroke-linejoin="round" stroke-width="1.059"/>
        <path id="Trazado_808157" data-name="Trazado 808157" d="M224.405,441.72H211.474l-.244,5.134h13.437Z" transform="translate(-88.401 -426.144)" fill="#fff" stroke="#263238" stroke-linecap="round" stroke-linejoin="round" stroke-width="1.059"/>
        <path id="Trazado_808158" data-name="Trazado 808158" d="M188.5,441.72H175.569l-1.449,5.134h13.428Z" transform="translate(-83.692 -426.144)" fill="#fff" stroke="#263238" stroke-linecap="round" stroke-linejoin="round" stroke-width="1.059"/>
        <path id="Trazado_808159" data-name="Trazado 808159" d="M170.543,441.72H157.612l-2.052,5.134H169Z" transform="translate(-81.337 -426.144)" fill="#fff" stroke="#263238" stroke-linecap="round" stroke-linejoin="round" stroke-width="1.059"/>
        <path id="Trazado_808160" data-name="Trazado 808160" d="M152.595,441.72H139.664l-2.654,5.134h13.428Z" transform="translate(-78.983 -426.144)" fill="#fff" stroke="#263238" stroke-linecap="round" stroke-linejoin="round" stroke-width="1.059"/>
        <path id="Trazado_808161" data-name="Trazado 808161" d="M118.45,446.854h13.428l2.759-5.134H121.707Z" transform="translate(-76.628 -426.144)" fill="#fff" stroke="#263238" stroke-linecap="round" stroke-linejoin="round" stroke-width="1.059"/>
        <path id="Trazado_808162" data-name="Trazado 808162" d="M242.3,441.72H229.37l.367,5.134h13.428Z" transform="translate(-90.703 -426.144)" fill="#fff" stroke="#263238" stroke-linecap="round" stroke-linejoin="round" stroke-width="1.059"/>
        <path id="Trazado_808163" data-name="Trazado 808163" d="M115.023,441.72H91.047l-4.287,5.134h24.9Z" transform="translate(-72.607 -426.144)" fill="#fff" stroke="#263238" stroke-linecap="round" stroke-linejoin="round" stroke-width="1.059"/>
        <path id="Trazado_808164" data-name="Trazado 808164" d="M331.631,441.72H318.7l3.379,5.134h13.428Z" transform="translate(-102.038 -426.144)" fill="#fff" stroke="#263238" stroke-linecap="round" stroke-linejoin="round" stroke-width="1.059"/>
        <path id="Trazado_808165" data-name="Trazado 808165" d="M260.171,441.72H247.24l.96,5.134h13.437Z" transform="translate(-92.97 -426.144)" fill="#fff" stroke="#263238" stroke-linecap="round" stroke-linejoin="round" stroke-width="1.059"/>
        <path id="Trazado_808166" data-name="Trazado 808166" d="M313.762,441.72H300.84l2.768,5.134h13.437Z" transform="translate(-99.772 -426.144)" fill="#fff" stroke="#263238" stroke-linecap="round" stroke-linejoin="round" stroke-width="1.059"/>
        <path id="Trazado_808167" data-name="Trazado 808167" d="M278.041,441.72H265.11l1.563,5.134H280.11Z" transform="translate(-95.238 -426.144)" fill="#fff" stroke="#263238" stroke-linecap="round" stroke-linejoin="round" stroke-width="1.059"/>
        <path id="Trazado_808168" data-name="Trazado 808168" d="M295.9,441.72H282.97l2.174,5.134h13.428Z" transform="translate(-97.504 -426.144)" fill="#fff" stroke="#263238" stroke-linecap="round" stroke-linejoin="round" stroke-width="1.059"/>
        <path id="Trazado_808169" data-name="Trazado 808169" d="M188.03,440.5h12.625l.506-4.732h-12.18Z" transform="translate(-85.457 -425.389)" fill="#fff" stroke="#263238" stroke-linecap="round" stroke-linejoin="round" stroke-width="1.059"/>
        <path id="Trazado_808170" data-name="Trazado 808170" d="M170.52,440.5h12.625l1.056-4.732h-12.18Z" transform="translate(-83.235 -425.389)" fill="#fff" stroke="#263238" stroke-linecap="round" stroke-linejoin="round" stroke-width="1.059"/>
        <path id="Trazado_808171" data-name="Trazado 808171" d="M205.53,440.5h12.625l-.035-4.732H205.94Z" transform="translate(-87.678 -425.389)" fill="#fff" stroke="#263238" stroke-linecap="round" stroke-linejoin="round" stroke-width="1.059"/>
        <path id="Trazado_808172" data-name="Trazado 808172" d="M118,440.5h12.625l2.7-4.732h-12.18Z" transform="translate(-76.571 -425.389)" fill="#fff" stroke="#263238" stroke-linecap="round" stroke-linejoin="round" stroke-width="1.059"/>
        <path id="Trazado_808173" data-name="Trazado 808173" d="M135.51,440.5h12.625l2.148-4.732H138.1Z" transform="translate(-78.793 -425.389)" fill="#fff" stroke="#263238" stroke-linecap="round" stroke-linejoin="round" stroke-width="1.059"/>
        <path id="Trazado_808174" data-name="Trazado 808174" d="M223.02,440.5h12.625l-.585-4.732H222.88Z" transform="translate(-89.879 -425.389)" fill="#fff" stroke="#263238" stroke-linecap="round" stroke-linejoin="round" stroke-width="1.059"/>
        <path id="Trazado_808175" data-name="Trazado 808175" d="M153.01,440.5h12.634l1.6-4.732h-12.18Z" transform="translate(-81.013 -425.389)" fill="#fff" stroke="#263238" stroke-linecap="round" stroke-linejoin="round" stroke-width="1.059"/>
        <path id="Trazado_808176" data-name="Trazado 808176" d="M339.908,435.77H327.1l3.492,4.732h3.126a1.746,1.746,0,0,1,1.17.323l4.121,5.326h9.447Z" transform="translate(-103.104 -425.389)" fill="#fff" stroke="#263238" stroke-linecap="round" stroke-linejoin="round" stroke-width="1.059"/>
        <path id="Trazado_808177" data-name="Trazado 808177" d="M292.722,440.5h12.625l-2.768-4.732H290.4Z" transform="translate(-98.447 -425.389)" fill="#fff" stroke="#263238" stroke-linecap="round" stroke-linejoin="round" stroke-width="1.059"/>
        <path id="Trazado_808178" data-name="Trazado 808178" d="M310.153,440.5h15.288l-3.423-4.732H307.28Z" transform="translate(-100.589 -425.389)" fill="#fff" stroke="#263238" stroke-linecap="round" stroke-linejoin="round" stroke-width="1.059"/>
        <path id="Trazado_808179" data-name="Trazado 808179" d="M92.12,440.5h19.942l3.239-4.732H96.075Z" transform="translate(-73.287 -425.389)" fill="#fff" stroke="#263238" stroke-linecap="round" stroke-linejoin="round" stroke-width="1.059"/>
        <path id="Trazado_808180" data-name="Trazado 808180" d="M240.441,440.5h12.634l-1.135-4.732H239.76Z" transform="translate(-92.021 -425.389)" fill="#fff" stroke="#263238" stroke-linecap="round" stroke-linejoin="round" stroke-width="1.059"/>
        <path id="Trazado_808181" data-name="Trazado 808181" d="M275.3,440.5h12.625l-2.235-4.732H273.52Z" transform="translate(-96.305 -425.389)" fill="#fff" stroke="#263238" stroke-linecap="round" stroke-linejoin="round" stroke-width="1.059"/>
        <path id="Trazado_808182" data-name="Trazado 808182" d="M257.871,440.5H270.5l-1.685-4.732H256.64Z" transform="translate(-94.163 -425.389)" fill="#fff" stroke="#263238" stroke-linecap="round" stroke-linejoin="round" stroke-width="1.059"/>
      </g>
      <g id="freepik--CD--inject-2" transform="translate(194.396 370.75)">
        <path id="Trazado_808183" data-name="Trazado 808183" d="M405.376,427.067c-23.984-.489-43.594,6.863-43.786,16.414s19.086,17.707,43.079,18.2,43.594-6.854,43.8-16.414S429.369,427.564,405.376,427.067Zm-.489,23.914c-9.159-.183-16.528-3.292-16.449-6.941s7.561-6.461,16.72-6.269,16.528,3.3,16.449,6.985-7.561,6.417-16.72,6.225Z" transform="translate(-239.136 -420.737)" fill="#fff" stroke="#263238" stroke-linecap="round" stroke-linejoin="round" stroke-width="0.966"/>
        <path id="Trazado_808184" data-name="Trazado 808184" d="M408.443,437.278c-11.639-.236-21.147,3.327-21.243,7.963s9.264,8.591,20.9,8.827,21.147-3.327,21.243-7.963S420.081,437.514,408.443,437.278Zm-.253,12.3c-5.413-.114-9.77-1.947-9.726-4.1s4.47-3.824,9.892-3.711,9.77,1.956,9.727,4.112S413.611,449.694,408.189,449.581Z" transform="translate(-242.386 -422.034)" fill="#263238" stroke="#263238" stroke-linecap="round" stroke-linejoin="round" stroke-width="0.966"/>
        <line id="Línea_2034" data-name="Línea 2034" x2="25.119" y2="1.153" transform="translate(183.257 26.097)" fill="none" stroke="#263238" stroke-linecap="round" stroke-linejoin="round" stroke-width="0.966"/>
        <line id="Línea_2035" data-name="Línea 2035" x2="22.491" y2="5.553" transform="translate(181.965 26.708)" fill="none" stroke="#263238" stroke-linecap="round" stroke-linejoin="round" stroke-width="0.966"/>
        <path id="Trazado_808185" data-name="Trazado 808185" d="M373.44,457.458,393.3,451.18l-13.245,9.272" transform="translate(-240.64 -423.799)" fill="none" stroke="#263238" stroke-linecap="round" stroke-linejoin="round" stroke-width="0.966"/>
        <line id="Línea_2036" data-name="Línea 2036" x2="8.714" y2="9.726" transform="translate(151.17 7.29)" fill="none" stroke="#263238" stroke-linecap="round" stroke-linejoin="round" stroke-width="0.966"/>
        <line id="Línea_2037" data-name="Línea 2037" x2="5.204" y2="10.294" transform="translate(156.592 6.767)" fill="none" stroke="#263238" stroke-linecap="round" stroke-linejoin="round" stroke-width="0.966"/>
        <path id="Trazado_808186" data-name="Trazado 808186" d="M285.617,424.3c-23.993-.5-43.655,9.517-43.917,22.369s18.973,23.661,42.957,24.159,43.655-9.526,43.917-22.369S309.558,424.786,285.617,424.3Zm-.664,32.148c-9.159-.192-16.5-4.322-16.4-9.229s7.6-8.731,16.764-8.539,16.5,4.366,16.406,9.22-7.657,8.731-16.816,8.548Z" transform="translate(-223.923 -420.386)" fill="#fff" stroke="#263238" stroke-linecap="round" stroke-linejoin="round" stroke-width="0.966"/>
        <path id="Trazado_808187" data-name="Trazado 808187" d="M288.572,438c-11.639-.244-21.182,4.619-21.313,10.853s9.2,11.481,20.841,11.717,21.182-4.619,21.313-10.853S300.211,438.252,288.572,438Zm-.341,16.589c-5.422-.114-9.761-2.558-9.7-5.457s4.5-5.16,9.91-5.047,9.761,2.549,9.7,5.448S293.645,454.666,288.232,454.588Z" transform="translate(-227.167 -422.126)" fill="#263238" stroke="#263238" stroke-linecap="round" stroke-linejoin="round" stroke-width="0.966"/>
        <line id="Línea_2038" data-name="Línea 2038" x2="25.128" y2="1.38" transform="translate(78.519 30.349)" fill="none" stroke="#263238" stroke-linecap="round" stroke-linejoin="round" stroke-width="0.966"/>
        <line id="Línea_2039" data-name="Línea 2039" x2="22.448" y2="7.308" transform="translate(77.235 31.179)" fill="none" stroke="#263238" stroke-linecap="round" stroke-linejoin="round" stroke-width="0.966"/>
        <path id="Trazado_808188" data-name="Trazado 808188" d="M253.42,465.383l19.916-8.583-13.315,12.564" transform="translate(-225.411 -424.512)" fill="none" stroke="#263238" stroke-linecap="round" stroke-linejoin="round" stroke-width="0.966"/>
        <line id="Línea_2040" data-name="Línea 2040" x2="8.653" y2="13.018" transform="translate(46.563 5.3)" fill="none" stroke="#263238" stroke-linecap="round" stroke-linejoin="round" stroke-width="0.966"/>
        <line id="Línea_2041" data-name="Línea 2041" x2="5.125" y2="13.804" transform="translate(51.994 4.558)" fill="none" stroke="#263238" stroke-linecap="round" stroke-linejoin="round" stroke-width="0.966"/>
        <path id="Trazado_808189" data-name="Trazado 808189" d="M290.412,419.82l-69.072,3.03,11.054,52.369,79.907-4.462Z" transform="translate(-221.34 -419.82)" fill="#fff" stroke="#263238" stroke-miterlimit="10" stroke-width="0.966"/>
        <path id="Trazado_808190" data-name="Trazado 808190" d="M273.124,442.991h-2.357a9.166,9.166,0,0,0-.681-1.668l2.113-.5c.332-.079.471-.349.306-.594l-.489-.725a.873.873,0,0,0-.873-.306l-2.1.5a13.52,13.52,0,0,0-1.371-1.476l1.65-.96c.262-.148.262-.437,0-.637l-.76-.6a.873.873,0,0,0-.934-.1l-1.659.952a17.058,17.058,0,0,0-1.9-1.126l1.048-1.31c.157-.21,0-.489-.3-.629l-.96-.419a.8.8,0,0,0-.873.113l-1.048,1.3a20.705,20.705,0,0,0-2.235-.681l.332-1.519c.052-.244-.192-.489-.55-.55l-1.065-.2c-.358-.07-.7.07-.751.306l-.4,1.519c-.69-.087-1.388-.14-2.1-.166l-.349-1.58a.742.742,0,0,0-.751-.428H253c-.367,0-.611.218-.559.463l.358,1.58a18.033,18.033,0,0,0-2.244.323L249.48,432.4a.873.873,0,0,0-.873-.253l-.969.262c-.323.1-.454.358-.288.585l1.065,1.484a15.093,15.093,0,0,0-1.9.873l-1.694-1.231a.943.943,0,0,0-.943-.052l-.768.489a.358.358,0,0,0,0,.646l1.685,1.231a10.567,10.567,0,0,0-1.371,1.266l-2.148-.829a.8.8,0,0,0-.873.157l-.489.664c-.166.218,0,.506.314.637l2.157.873a7.281,7.281,0,0,0-.672,1.572l-2.392-.323c-.375-.052-.725.113-.768.367l-.14.768c-.052.262.218.515.6.568l2.4.332a7.367,7.367,0,0,0,.113,1.685h0l-2.384.236c-.375,0-.62.279-.541.55l.236.795a.786.786,0,0,0,.829.428l2.4-.236a9.883,9.883,0,0,0,.926,1.676l-2.1.795c-.332.122-.445.428-.244.672l.6.733a.873.873,0,0,0,.969.227l2.113-.8a13.877,13.877,0,0,0,1.65,1.432l-1.572,1.292a.428.428,0,0,0,.1.725l.873.585a.873.873,0,0,0,1,0l1.572-1.292a17.355,17.355,0,0,0,2.192,1.022l-.873,1.65c-.131.262.061.568.437.69l1.1.358a.76.76,0,0,0,.873-.253l.829-1.65a22.624,22.624,0,0,0,2.48.48V456.1c0,.288.323.541.716.568l1.17.087c.393,0,.707-.183.707-.471v-1.816h1.118c.375,0,.873-.052,1.353-.1l.873,1.746a.873.873,0,0,0,.873.384l1.091-.192c.367-.061.55-.349.419-.629l-.873-1.746a16.123,16.123,0,0,0,2.165-.707l1.563,1.528a.925.925,0,0,0,1,.157l.873-.445a.41.41,0,0,0,.1-.707l-1.572-1.51a10.817,10.817,0,0,0,1.607-1.2l2.1,1.118a.873.873,0,0,0,.96-.079l.576-.637c.2-.218.087-.533-.236-.707l-2.087-1.1a8.242,8.242,0,0,0,.873-1.528l2.357.594a.664.664,0,0,0,.812-.3l.227-.76c.07-.253-.166-.533-.541-.629l-2.349-.585a7.282,7.282,0,0,0,.1-1.694h2.357c.375,0,.637-.2.585-.463l-.148-.786a.751.751,0,0,0-.62-.5Zm-15.471,6.583c-4.645.175-8.976-2.4-9.6-5.693s2.48-5.911,6.985-6.042,8.687,2.288,9.5,5.474S262.262,449.4,257.652,449.574Z" transform="translate(-223.505 -421.303)" fill="#263238"/>
        <path id="Trazado_808191" data-name="Trazado 808191" d="M268.641,443.8c1.2,4.549-3.012,8.548-9.5,8.8s-12.608-3.388-13.5-8.015,3.545-8.207,9.761-8.391S267.436,439.377,268.641,443.8Z" transform="translate(-224.409 -421.897)" fill="none" stroke="#fff" stroke-miterlimit="10" stroke-width="0.966"/>
        <path id="Trazado_808192" data-name="Trazado 808192" d="M301.78,452.45h-1.545a7.437,7.437,0,0,0-.533-1.135l1.362-.341a.253.253,0,0,0,.166-.41l-.358-.5a.6.6,0,0,0-.6-.2l-1.362.341a9.723,9.723,0,0,0-.987-1l1.039-.664a.269.269,0,0,0,0-.445l-.533-.41a.594.594,0,0,0-.629-.07l-1.039.664a13.012,13.012,0,0,0-1.318-.768l.611-.873c.1-.14,0-.332-.227-.428l-.664-.288a.489.489,0,0,0-.576.079l-.62.873a14.415,14.415,0,0,0-1.51-.463l.122-1.056a.443.443,0,0,0-.4-.384l-.716-.131c-.244-.044-.454.052-.471.218l-.131,1.056a12.388,12.388,0,0,0-1.4-.1l-.349-1.1a.541.541,0,0,0-.524-.3h-.7c-.236,0-.384.157-.332.323l.341,1.1a12.38,12.38,0,0,0-1.458.236l-.8-1.022a.629.629,0,0,0-.611-.175l-.611.192c-.21.061-.279.244-.148.4l.8,1.03a8.414,8.414,0,0,0-1.2.576l-1.2-.873a.576.576,0,0,0-.62,0l-.471.341c-.157.113-.131.314.052.445l1.2.873a5.386,5.386,0,0,0-.8.873l-1.467-.568a.506.506,0,0,0-.585.114l-.262.454c-.1.157,0,.349.253.445l1.467.559a5.155,5.155,0,0,0-.323,1.083l-1.58-.218c-.244,0-.463.079-.471.253v.524a.458.458,0,0,0,.428.384l1.589.218a5.345,5.345,0,0,0,.2,1.135h0l-1.528.166c-.244,0-.384.192-.314.375l.218.533a.55.55,0,0,0,.568.279l1.537-.157a7.324,7.324,0,0,0,.716,1.118l-1.3.541a.271.271,0,0,0-.1.454l.445.489a.62.62,0,0,0,.637.148l1.3-.541a10.485,10.485,0,0,0,1.17.952l-.925.873c-.14.14-.087.349.113.48l.629.384a.55.55,0,0,0,.637,0l.926-.873a13.382,13.382,0,0,0,1.476.681l-.428,1.091c-.07.166.079.375.323.454l.733.236a.454.454,0,0,0,.568-.175l.428-1.091a14.423,14.423,0,0,0,1.624.323l.113,1.2a.506.506,0,0,0,.5.375l.76.052c.253,0,.445-.113.428-.306l-.122-1.2h.716a3.875,3.875,0,0,0,.873-.07l.655,1.17a.577.577,0,0,0,.6.262l.7-.131a.288.288,0,0,0,.236-.419l-.655-1.161a10.411,10.411,0,0,0,1.362-.471l1.1,1.013a.612.612,0,0,0,.646.1l.55-.306c.183-.1.192-.306,0-.463l-1.1-1a6.927,6.927,0,0,0,.987-.8l1.414.742a.524.524,0,0,0,.62-.052l.341-.428c.122-.148,0-.358-.192-.472l-1.414-.742a5.066,5.066,0,0,0,.506-1.022l1.572.393c.245.061.472,0,.506-.2l.114-.506a.472.472,0,0,0-.384-.428l-1.563-.393a5.046,5.046,0,0,0,0-1.144h1.545c.245,0,.41-.14.358-.323l-.131-.533a.541.541,0,0,0-.594-.332Zm-9.674,4.479c-2.986.122-5.963-1.6-6.618-3.816s1.2-4.034,4.13-4.138,5.841,1.545,6.557,3.719S295.048,456.8,292.105,456.929Z" transform="translate(-228.665 -422.965)" fill="#263238"/>
        <path id="Trazado_808193" data-name="Trazado 808193" d="M298.805,453.018c1.03,3.082-1.484,5.763-5.666,5.946s-8.3-2.253-9.246-5.352,1.746-5.614,5.789-5.763S297.81,450,298.805,453.018Z" transform="translate(-229.253 -423.376)" fill="none" stroke="#fff" stroke-miterlimit="10" stroke-width="0.966"/>
      </g>
    </g>
  </g>
</svg>
