<svg xmlns="http://www.w3.org/2000/svg" width="1030" height="421" viewBox="0 0 1030 421">
  <g id="Grupo_1067549" data-name="Grupo 1067549" transform="translate(5007 -2178)">
    <rect id="Rectángulo_376210" data-name="Rectángulo 376210" width="1030" height="421" rx="20" transform="translate(-5007 2178)" fill="#fff"/>
    <g id="Grupo_1067546" data-name="Grupo 1067546" transform="translate(83)">
      <rect id="Rectángulo_376204" data-name="Rectángulo 376204" width="206" height="54" rx="10" transform="translate(-4829 2228)" fill="#451484"/>
      <rect id="Rectángulo_376206" data-name="Rectángulo 376206" width="206" height="54" rx="10" transform="translate(-4829 2322)" fill="#451484"/>
      <rect id="Rectángulo_376208" data-name="Rectángulo 376208" width="206" height="54" rx="10" transform="translate(-4829 2416)" fill="#451484"/>
      <rect id="Rectángulo_376213" data-name="Rectángulo 376213" width="206" height="54" rx="10" transform="translate(-4829 2506)" fill="#451484"/>
      <rect id="Rectángulo_376205" data-name="Rectángulo 376205" width="206" height="54" rx="10" transform="translate(-4360 2228)" fill="#451484"/>
      <rect id="Rectángulo_376207" data-name="Rectángulo 376207" width="206" height="54" rx="10" transform="translate(-4360 2322)" fill="#451484"/>
      <rect id="Rectángulo_376209" data-name="Rectángulo 376209" width="206" height="54" rx="10" transform="translate(-4360 2416)" fill="#451484"/>
      <rect id="Rectángulo_376214" data-name="Rectángulo 376214" width="206" height="54" rx="10" transform="translate(-4360 2506)" fill="#451484"/>
      <path id="Trazado_808291" data-name="Trazado 808291" d="M-96.859-10.5l-.359,2.047h1.539l-.2,1.117h-1.531l-.883,5.258A1.833,1.833,0,0,0-98.3-1.7a.6.6,0,0,0,.664.609,4.05,4.05,0,0,0,.688-.078l-.109,1.18a3.847,3.847,0,0,1-1.031.141,1.476,1.476,0,0,1-1.266-.621A2.4,2.4,0,0,1-99.68-2.1l.859-5.234h-1.492l.2-1.117h1.492l.359-2.047ZM-91.789.156a3.048,3.048,0,0,1-2.469-1.164,4.006,4.006,0,0,1-.75-2.9l.039-.336a5.624,5.624,0,0,1,.746-2.3,4.339,4.339,0,0,1,1.5-1.566,3.491,3.491,0,0,1,1.906-.5,2.688,2.688,0,0,1,2.047.867,3.566,3.566,0,0,1,.813,2.266,6.62,6.62,0,0,1-.031,1.016l-.086.648H-93.6a2.856,2.856,0,0,0,.379,1.953,1.8,1.8,0,0,0,1.551.836,3.007,3.007,0,0,0,2.313-1.125l.813.688a3.718,3.718,0,0,1-1.371,1.2A3.886,3.886,0,0,1-91.789.156Zm.9-7.586a2.066,2.066,0,0,0-1.527.594A4.22,4.22,0,0,0-93.453-5l4.109.008.031-.125a2.313,2.313,0,0,0-.316-1.637A1.488,1.488,0,0,0-90.891-7.43ZM-85.617,0h-1.406l2.078-12h1.414Zm3.844,0H-83.18L-81.1-12h1.414Zm13.82-2,2.7-6.453H-63.8L-67.648,0H-68.8l-.875-6.391L-72.719,0h-1.148l-.914-8.453h1.352l.516,6.3,3-6.3h1.141ZM-60.141.156a3.048,3.048,0,0,1-2.469-1.164,4.006,4.006,0,0,1-.75-2.9l.039-.336a5.624,5.624,0,0,1,.746-2.3,4.339,4.339,0,0,1,1.5-1.566,3.491,3.491,0,0,1,1.906-.5,2.688,2.688,0,0,1,2.047.867,3.566,3.566,0,0,1,.813,2.266,6.621,6.621,0,0,1-.031,1.016l-.086.648h-5.523a2.856,2.856,0,0,0,.379,1.953,1.8,1.8,0,0,0,1.551.836,3.007,3.007,0,0,0,2.313-1.125l.813.688a3.718,3.718,0,0,1-1.371,1.2A3.886,3.886,0,0,1-60.141.156Zm.9-7.586a2.066,2.066,0,0,0-1.527.594A4.22,4.22,0,0,0-61.8-5l4.109.008.031-.125a2.313,2.313,0,0,0-.316-1.637A1.488,1.488,0,0,0-59.242-7.43ZM-43.992-2l2.7-6.453h1.461L-43.687,0h-1.148l-.875-6.391L-48.758,0h-1.148l-.914-8.453h1.352l.516,6.3,3-6.3h1.141Zm6.8-5.422A3.275,3.275,0,0,1-34.641-8.6a2.058,2.058,0,0,1,1.762.816,3.217,3.217,0,0,1,.426,2.246L-33.375,0h-1.414l.93-5.562a2.968,2.968,0,0,0,.008-.711,1.168,1.168,0,0,0-1.289-1.117,2.6,2.6,0,0,0-2.234,1.359L-38.422,0h-1.414l2.086-12h1.414ZM-27.555.156a3.048,3.048,0,0,1-2.469-1.164,4.006,4.006,0,0,1-.75-2.9l.039-.336a5.624,5.624,0,0,1,.746-2.3,4.339,4.339,0,0,1,1.5-1.566,3.491,3.491,0,0,1,1.906-.5,2.688,2.688,0,0,1,2.047.867,3.566,3.566,0,0,1,.813,2.266,6.621,6.621,0,0,1-.031,1.016l-.086.648h-5.523a2.856,2.856,0,0,0,.379,1.953,1.8,1.8,0,0,0,1.551.836,3.007,3.007,0,0,0,2.313-1.125l.813.688a3.718,3.718,0,0,1-1.371,1.2A3.886,3.886,0,0,1-27.555.156Zm.9-7.586a2.066,2.066,0,0,0-1.527.594A4.22,4.22,0,0,0-29.219-5l4.109.008.031-.125a2.313,2.313,0,0,0-.316-1.637A1.488,1.488,0,0,0-26.656-7.43Zm6.547-1.031-.2,1.07a3.333,3.333,0,0,1,2.594-1.219,2.1,2.1,0,0,1,1.766.828,3.217,3.217,0,0,1,.422,2.242L-16.453,0h-1.414l.93-5.557a2.962,2.962,0,0,0,.008-.71,1.168,1.168,0,0,0-1.289-1.116,2.661,2.661,0,0,0-2.234,1.358L-21.5,0h-1.414l1.469-8.453Zm12.766,2.07.938.008a2.769,2.769,0,0,0,1.738-.543A2.058,2.058,0,0,0-3.859-8.4,1.814,1.814,0,0,0-4.2-9.824a1.613,1.613,0,0,0-1.273-.535,2.175,2.175,0,0,0-1.512.52A2.294,2.294,0,0,0-7.742-8.4l-1.4.008a3.241,3.241,0,0,1,1.2-2.285A3.8,3.8,0,0,1-5.4-11.539a3.04,3.04,0,0,1,2.246.895,2.838,2.838,0,0,1,.707,2.277A2.631,2.631,0,0,1-3.062-6.9,4.111,4.111,0,0,1-4.578-5.8a2.248,2.248,0,0,1,1.156.988A2.757,2.757,0,0,1-3.1-3.227,3.491,3.491,0,0,1-4.324-.75,3.844,3.844,0,0,1-6.992.156,3.234,3.234,0,0,1-9.32-.75a2.874,2.874,0,0,1-.8-2.258L-8.711-3a1.9,1.9,0,0,0,.422,1.41,1.8,1.8,0,0,0,1.359.566,2.273,2.273,0,0,0,1.664-.57A2.38,2.38,0,0,0-4.508-3.2,1.741,1.741,0,0,0-4.93-4.652,2.127,2.127,0,0,0-6.445-5.2l-1.086-.008ZM6.1-10.5,5.742-8.453H7.281l-.2,1.117H5.555L4.672-2.078a1.833,1.833,0,0,0-.008.375.6.6,0,0,0,.664.609,4.05,4.05,0,0,0,.688-.078L5.906.008A3.847,3.847,0,0,1,4.875.148,1.476,1.476,0,0,1,3.609-.473,2.4,2.4,0,0,1,3.281-2.1l.859-5.234H2.648l.2-1.117H4.336L4.7-10.5Zm4.055,3.078A3.275,3.275,0,0,1,12.711-8.6a2.058,2.058,0,0,1,1.762.816A3.217,3.217,0,0,1,14.9-5.539L13.977,0H12.563l.93-5.562a2.968,2.968,0,0,0,.008-.711,1.168,1.168,0,0,0-1.289-1.117A2.6,2.6,0,0,0,9.977-6.031L8.93,0H7.516L9.6-12h1.414ZM17.672,0H16.266l1.469-8.453h1.406Zm1.164-11.539a.774.774,0,0,1,.6.215.8.8,0,0,1,.238.605.849.849,0,0,1-.238.6.855.855,0,0,1-.6.25.779.779,0,0,1-.6-.211.764.764,0,0,1-.227-.594.886.886,0,0,1,.234-.609A.826.826,0,0,1,18.836-11.539Zm3.953,3.078-.2,1.07A3.333,3.333,0,0,1,25.18-8.609a2.1,2.1,0,0,1,1.766.828,3.217,3.217,0,0,1,.422,2.242L26.445,0H25.031l.93-5.557a2.962,2.962,0,0,0,.008-.71A1.168,1.168,0,0,0,24.68-7.383a2.661,2.661,0,0,0-2.234,1.358L21.4,0H19.984l1.469-8.453Zm6.25,4.219a6.889,6.889,0,0,1,.746-2.4,3.9,3.9,0,0,1,1.359-1.508A3.151,3.151,0,0,1,32.9-8.617a2.6,2.6,0,0,1,2.219,1.109l.281-.945h1.3L35.289-.18a4.113,4.113,0,0,1-1.312,2.59,3.7,3.7,0,0,1-2.68.926,3.8,3.8,0,0,1-1.645-.406,3.127,3.127,0,0,1-1.238-1.07l.8-.867a2.419,2.419,0,0,0,2.023,1.164,2.425,2.425,0,0,0,1.707-.562,2.9,2.9,0,0,0,.926-1.687l.156-.75a3.2,3.2,0,0,1-2.414,1A2.486,2.486,0,0,1,30.246-.27a2.589,2.589,0,0,1-.9-1.164,4.759,4.759,0,0,1-.352-1.7A8.733,8.733,0,0,1,29.039-4.242Zm1.367.8a2.974,2.974,0,0,0,.387,1.728,1.461,1.461,0,0,0,1.238.644,2.561,2.561,0,0,0,2.18-1.241l.664-3.878a1.776,1.776,0,0,0-1.7-1.2,2.194,2.194,0,0,0-1.887.936,4.878,4.878,0,0,0-.871,2.614ZM42.648-2.289q.117-.875-.961-1.234l-1.469-.43q-1.859-.641-1.8-2.125a2.341,2.341,0,0,1,1.02-1.832,3.631,3.631,0,0,1,2.27-.7,3.027,3.027,0,0,1,2.082.746,2.363,2.363,0,0,1,.77,1.9l-1.406-.008A1.319,1.319,0,0,0,42.758-7a1.576,1.576,0,0,0-1.1-.414,2.059,2.059,0,0,0-1.266.359,1.316,1.316,0,0,0-.57.922q-.1.734.9,1.07l.711.2a4.577,4.577,0,0,1,2.063.977A1.865,1.865,0,0,1,44.055-2.4a2.37,2.37,0,0,1-.516,1.375,2.948,2.948,0,0,1-1.25.895,4.18,4.18,0,0,1-1.664.285,3.3,3.3,0,0,1-2.219-.785,2.427,2.427,0,0,1-.844-1.98l1.414.008a1.5,1.5,0,0,0,.453,1.141,1.732,1.732,0,0,0,1.242.43,2.436,2.436,0,0,0,1.336-.324A1.247,1.247,0,0,0,42.648-2.289Zm9.406-5.133A3.275,3.275,0,0,1,54.609-8.6a2.058,2.058,0,0,1,1.762.816A3.217,3.217,0,0,1,56.8-5.539L55.875,0H54.461l.93-5.562a2.968,2.968,0,0,0,.008-.711,1.168,1.168,0,0,0-1.289-1.117,2.6,2.6,0,0,0-2.234,1.359L50.828,0H49.414L51.5-12h1.414ZM63.211,0a1.894,1.894,0,0,1-.055-.445l.023-.445A3.465,3.465,0,0,1,60.711.156a2.526,2.526,0,0,1-1.816-.707,2.14,2.14,0,0,1-.637-1.73,2.6,2.6,0,0,1,1.176-2.1,5.005,5.005,0,0,1,2.887-.754l1.477.008.094-.672A1.545,1.545,0,0,0,63.6-7a1.414,1.414,0,0,0-1.113-.457A2.181,2.181,0,0,0,61.2-7.1a1.513,1.513,0,0,0-.684.98l-1.422.008a2.266,2.266,0,0,1,.578-1.316,3.363,3.363,0,0,1,1.3-.891,4.215,4.215,0,0,1,1.648-.3,2.8,2.8,0,0,1,2.055.8A2.484,2.484,0,0,1,65.3-5.773l-.687,4.188-.039.6a2.949,2.949,0,0,0,.094.852L64.648,0ZM60.992-1.094a2.466,2.466,0,0,0,1.285-.324,3.254,3.254,0,0,0,1.043-.941l.3-1.742-1.07-.008a4.054,4.054,0,0,0-2.047.422,1.554,1.554,0,0,0-.8,1.2,1.21,1.21,0,0,0,.277.988A1.321,1.321,0,0,0,60.992-1.094ZM74.219-4.187a6.706,6.706,0,0,1-.7,2.32A3.949,3.949,0,0,1,72.188-.324a3.058,3.058,0,0,1-1.766.488,2.815,2.815,0,0,1-2.25-.992L67.414,3.25H66l2.031-11.7,1.281-.008-.156.945a3.207,3.207,0,0,1,2.508-1.094,2.358,2.358,0,0,1,1.9.9,3.954,3.954,0,0,1,.719,2.391,8.412,8.412,0,0,1-.039.969Zm-1.391-.16L72.867-5a2.969,2.969,0,0,0-.434-1.744,1.525,1.525,0,0,0-1.254-.636A2.508,2.508,0,0,0,69.063-6.22l-.711,4.05a1.769,1.769,0,0,0,1.711,1.155,2.224,2.224,0,0,0,1.793-.823A4.777,4.777,0,0,0,72.828-4.348Zm10.18.16a6.706,6.706,0,0,1-.7,2.32A3.949,3.949,0,0,1,80.977-.324a3.058,3.058,0,0,1-1.766.488,2.815,2.815,0,0,1-2.25-.992L76.2,3.25H74.789l2.031-11.7L78.1-8.461l-.156.945a3.207,3.207,0,0,1,2.508-1.094,2.358,2.358,0,0,1,1.9.9A3.954,3.954,0,0,1,83.07-5.32a8.412,8.412,0,0,1-.039.969Zm-1.391-.16L81.656-5a2.969,2.969,0,0,0-.434-1.744,1.525,1.525,0,0,0-1.254-.636A2.508,2.508,0,0,0,77.852-6.22l-.711,4.05a1.769,1.769,0,0,0,1.711,1.155,2.224,2.224,0,0,0,1.793-.823A4.777,4.777,0,0,0,81.617-4.348ZM87.8.156a3.048,3.048,0,0,1-2.469-1.164,4.006,4.006,0,0,1-.75-2.9l.039-.336a5.624,5.624,0,0,1,.746-2.3,4.339,4.339,0,0,1,1.5-1.566,3.491,3.491,0,0,1,1.906-.5,2.688,2.688,0,0,1,2.047.867,3.566,3.566,0,0,1,.813,2.266,6.62,6.62,0,0,1-.031,1.016l-.086.648H85.984a2.856,2.856,0,0,0,.379,1.953,1.8,1.8,0,0,0,1.551.836,3.007,3.007,0,0,0,2.313-1.125l.813.688a3.718,3.718,0,0,1-1.371,1.2A3.886,3.886,0,0,1,87.8.156Zm.9-7.586a2.066,2.066,0,0,0-1.527.594A4.22,4.22,0,0,0,86.133-5l4.109.008.031-.125a2.313,2.313,0,0,0-.316-1.637A1.488,1.488,0,0,0,88.7-7.43Zm6.547-1.031-.2,1.07a3.333,3.333,0,0,1,2.594-1.219,2.1,2.1,0,0,1,1.766.828,3.217,3.217,0,0,1,.422,2.242L98.9,0H97.484l.93-5.557a2.962,2.962,0,0,0,.008-.71,1.168,1.168,0,0,0-1.289-1.116A2.661,2.661,0,0,0,94.9-6.025L93.852,0H92.438l1.469-8.453Z" transform="translate(-4491 2214)" fill="#12263f"/>
      <path id="Trazado_808302" data-name="Trazado 808302" d="M-81.754-7.422A3.275,3.275,0,0,1-79.2-8.6a2.058,2.058,0,0,1,1.762.816,3.217,3.217,0,0,1,.426,2.246L-77.934,0h-1.414l.93-5.562a2.968,2.968,0,0,0,.008-.711A1.168,1.168,0,0,0-79.7-7.391a2.6,2.6,0,0,0-2.234,1.359L-82.98,0h-1.414l2.086-12h1.414ZM-72.113.156a3.048,3.048,0,0,1-2.469-1.164,4.006,4.006,0,0,1-.75-2.9l.039-.336a5.624,5.624,0,0,1,.746-2.3,4.339,4.339,0,0,1,1.5-1.566,3.491,3.491,0,0,1,1.906-.5,2.688,2.688,0,0,1,2.047.867,3.566,3.566,0,0,1,.813,2.266,6.62,6.62,0,0,1-.031,1.016l-.086.648h-5.523a2.856,2.856,0,0,0,.379,1.953A1.8,1.8,0,0,0-72-1.023a3.007,3.007,0,0,0,2.313-1.125l.813.688a3.718,3.718,0,0,1-1.371,1.2A3.886,3.886,0,0,1-72.113.156Zm.9-7.586a2.066,2.066,0,0,0-1.527.594A4.22,4.22,0,0,0-73.777-5l4.109.008.031-.125a2.313,2.313,0,0,0-.316-1.637A1.488,1.488,0,0,0-71.215-7.43Zm9,.266-.664-.07A2.42,2.42,0,0,0-65.02-6.008L-66.059,0h-1.414L-66-8.453l1.367-.008-.211.984A2.527,2.527,0,0,1-62.73-8.625a2.594,2.594,0,0,1,.672.117Zm3.727,7.32a3.048,3.048,0,0,1-2.469-1.164,4.006,4.006,0,0,1-.75-2.9l.039-.336a5.624,5.624,0,0,1,.746-2.3,4.339,4.339,0,0,1,1.5-1.566,3.491,3.491,0,0,1,1.906-.5,2.688,2.688,0,0,1,2.047.867,3.566,3.566,0,0,1,.813,2.266,6.621,6.621,0,0,1-.031,1.016l-.086.648H-60.3a2.856,2.856,0,0,0,.379,1.953,1.8,1.8,0,0,0,1.551.836,3.007,3.007,0,0,0,2.313-1.125l.813.688a3.718,3.718,0,0,1-1.371,1.2A3.886,3.886,0,0,1-58.488.156Zm.9-7.586a2.066,2.066,0,0,0-1.527.594A4.22,4.22,0,0,0-60.152-5l4.109.008.031-.125a2.313,2.313,0,0,0-.316-1.637A1.488,1.488,0,0,0-57.59-7.43ZM-44.754,0a1.894,1.894,0,0,1-.055-.445l.023-.445A3.465,3.465,0,0,1-47.254.156,2.526,2.526,0,0,1-49.07-.551a2.14,2.14,0,0,1-.637-1.73,2.6,2.6,0,0,1,1.176-2.1,5.005,5.005,0,0,1,2.887-.754l1.477.008.094-.672A1.545,1.545,0,0,0-44.367-7a1.414,1.414,0,0,0-1.113-.457,2.181,2.181,0,0,0-1.285.355,1.513,1.513,0,0,0-.684.98l-1.422.008a2.266,2.266,0,0,1,.578-1.316,3.363,3.363,0,0,1,1.3-.891,4.215,4.215,0,0,1,1.648-.3,2.8,2.8,0,0,1,2.055.8,2.484,2.484,0,0,1,.617,2.043l-.687,4.188-.039.6a2.949,2.949,0,0,0,.094.852L-43.316,0Zm-2.219-1.094a2.466,2.466,0,0,0,1.285-.324,3.254,3.254,0,0,0,1.043-.941l.3-1.742-1.07-.008a4.054,4.054,0,0,0-2.047.422,1.554,1.554,0,0,0-.8,1.2,1.21,1.21,0,0,0,.277.988A1.321,1.321,0,0,0-46.973-1.094Zm10.828-6.07-.664-.07a2.42,2.42,0,0,0-2.141,1.227L-39.988,0H-41.4l1.469-8.453,1.367-.008-.211.984A2.527,2.527,0,0,1-36.66-8.625a2.594,2.594,0,0,1,.672.117Zm3.727,7.32a3.048,3.048,0,0,1-2.469-1.164,4.006,4.006,0,0,1-.75-2.9l.039-.336a5.624,5.624,0,0,1,.746-2.3,4.339,4.339,0,0,1,1.5-1.566,3.491,3.491,0,0,1,1.906-.5,2.688,2.688,0,0,1,2.047.867,3.566,3.566,0,0,1,.813,2.266,6.621,6.621,0,0,1-.031,1.016l-.086.648H-34.23a2.856,2.856,0,0,0,.379,1.953,1.8,1.8,0,0,0,1.551.836,3.007,3.007,0,0,0,2.313-1.125l.813.688a3.718,3.718,0,0,1-1.371,1.2A3.886,3.886,0,0,1-32.418.156Zm.9-7.586a2.066,2.066,0,0,0-1.527.594A4.22,4.22,0,0,0-34.082-5l4.109.008.031-.125a2.313,2.313,0,0,0-.316-1.637A1.488,1.488,0,0,0-31.52-7.43Zm11.4-3.07-.359,2.047h1.539l-.2,1.117h-1.531l-.883,5.258a1.833,1.833,0,0,0-.008.375.6.6,0,0,0,.664.609,4.05,4.05,0,0,0,.688-.078l-.109,1.18a3.847,3.847,0,0,1-1.031.141,1.476,1.476,0,0,1-1.266-.621A2.4,2.4,0,0,1-22.941-2.1l.859-5.234h-1.492l.2-1.117h1.492l.359-2.047Zm4.055,3.078A3.275,3.275,0,0,1-13.512-8.6a2.058,2.058,0,0,1,1.762.816,3.217,3.217,0,0,1,.426,2.246L-12.246,0H-13.66l.93-5.562a2.968,2.968,0,0,0,.008-.711,1.168,1.168,0,0,0-1.289-1.117,2.6,2.6,0,0,0-2.234,1.359L-17.293,0h-1.414l2.086-12h1.414ZM-6.426.156A3.048,3.048,0,0,1-8.895-1.008a4.006,4.006,0,0,1-.75-2.9l.039-.336a5.624,5.624,0,0,1,.746-2.3,4.339,4.339,0,0,1,1.5-1.566,3.491,3.491,0,0,1,1.906-.5,2.688,2.688,0,0,1,2.047.867A3.566,3.566,0,0,1-2.6-5.477a6.621,6.621,0,0,1-.031,1.016l-.086.648H-8.238a2.856,2.856,0,0,0,.379,1.953,1.8,1.8,0,0,0,1.551.836A3.007,3.007,0,0,0-4-2.148l.813.688a3.718,3.718,0,0,1-1.371,1.2A3.886,3.886,0,0,1-6.426.156Zm.9-7.586a2.066,2.066,0,0,0-1.527.594A4.22,4.22,0,0,0-8.09-5l4.109.008.031-.125a2.313,2.313,0,0,0-.316-1.637A1.488,1.488,0,0,0-5.527-7.43Zm11.4-3.07L5.512-8.453H7.051l-.2,1.117H5.324L4.441-2.078a1.833,1.833,0,0,0-.008.375.6.6,0,0,0,.664.609,4.05,4.05,0,0,0,.688-.078L5.676.008A3.847,3.847,0,0,1,4.645.148,1.476,1.476,0,0,1,3.379-.473,2.4,2.4,0,0,1,3.051-2.1L3.91-7.336H2.418l.2-1.117H4.105L4.465-10.5ZM9.926-7.422A3.275,3.275,0,0,1,12.48-8.6a2.058,2.058,0,0,1,1.762.816,3.217,3.217,0,0,1,.426,2.246L13.746,0H12.332l.93-5.562a2.968,2.968,0,0,0,.008-.711A1.168,1.168,0,0,0,11.98-7.391,2.6,2.6,0,0,0,9.746-6.031L8.7,0H7.285L9.371-12h1.414Zm11.242.258-.664-.07a2.42,2.42,0,0,0-2.141,1.227L17.324,0H15.91l1.469-8.453,1.367-.008-.211.984a2.527,2.527,0,0,1,2.117-1.148,2.594,2.594,0,0,1,.672.117ZM24.895.156a3.048,3.048,0,0,1-2.469-1.164,4.006,4.006,0,0,1-.75-2.9l.039-.336a5.624,5.624,0,0,1,.746-2.3,4.339,4.339,0,0,1,1.5-1.566,3.491,3.491,0,0,1,1.906-.5,2.688,2.688,0,0,1,2.047.867,3.566,3.566,0,0,1,.813,2.266,6.621,6.621,0,0,1-.031,1.016l-.086.648H23.082a2.856,2.856,0,0,0,.379,1.953,1.8,1.8,0,0,0,1.551.836,3.007,3.007,0,0,0,2.313-1.125l.813.688a3.718,3.718,0,0,1-1.371,1.2A3.886,3.886,0,0,1,24.895.156Zm.9-7.586a2.066,2.066,0,0,0-1.527.594A4.22,4.22,0,0,0,23.23-5l4.109.008.031-.125a2.313,2.313,0,0,0-.316-1.637A1.488,1.488,0,0,0,25.793-7.43Zm7.4,7.586a3.048,3.048,0,0,1-2.469-1.164,4.006,4.006,0,0,1-.75-2.9l.039-.336a5.624,5.624,0,0,1,.746-2.3,4.339,4.339,0,0,1,1.5-1.566,3.491,3.491,0,0,1,1.906-.5,2.688,2.688,0,0,1,2.047.867,3.566,3.566,0,0,1,.813,2.266,6.621,6.621,0,0,1-.031,1.016l-.086.648H31.379a2.856,2.856,0,0,0,.379,1.953,1.8,1.8,0,0,0,1.551.836,3.007,3.007,0,0,0,2.313-1.125l.813.688a3.718,3.718,0,0,1-1.371,1.2A3.886,3.886,0,0,1,33.191.156Zm.9-7.586a2.066,2.066,0,0,0-1.527.594A4.22,4.22,0,0,0,31.527-5l4.109.008.031-.125a2.313,2.313,0,0,0-.316-1.637A1.488,1.488,0,0,0,34.09-7.43Zm11.4-3.07-.359,2.047h1.539l-.2,1.117H44.941l-.883,5.258a1.833,1.833,0,0,0-.008.375.6.6,0,0,0,.664.609,4.05,4.05,0,0,0,.688-.078L45.293.008a3.847,3.847,0,0,1-1.031.141A1.476,1.476,0,0,1,43-.473,2.4,2.4,0,0,1,42.668-2.1l.859-5.234H42.035l.2-1.117h1.492l.359-2.047Zm4.055,3.078A3.275,3.275,0,0,1,52.1-8.6a2.058,2.058,0,0,1,1.762.816,3.217,3.217,0,0,1,.426,2.246L53.363,0H51.949l.93-5.562a2.968,2.968,0,0,0,.008-.711A1.168,1.168,0,0,0,51.6-7.391a2.6,2.6,0,0,0-2.234,1.359L48.316,0H46.9l2.086-12H50.4ZM57.059,0H55.652l1.469-8.453h1.406Zm1.164-11.539a.774.774,0,0,1,.6.215.8.8,0,0,1,.238.605.849.849,0,0,1-.238.6.855.855,0,0,1-.6.25.779.779,0,0,1-.6-.211.764.764,0,0,1-.227-.594.886.886,0,0,1,.234-.609A.826.826,0,0,1,58.223-11.539Zm3.953,3.078-.2,1.07a3.333,3.333,0,0,1,2.594-1.219,2.1,2.1,0,0,1,1.766.828,3.217,3.217,0,0,1,.422,2.242L65.832,0H64.418l.93-5.557a2.962,2.962,0,0,0,.008-.71,1.168,1.168,0,0,0-1.289-1.116,2.661,2.661,0,0,0-2.234,1.358L60.785,0H59.371L60.84-8.453Zm6.25,4.219a6.889,6.889,0,0,1,.746-2.4,3.9,3.9,0,0,1,1.359-1.508,3.151,3.151,0,0,1,1.754-.465A2.6,2.6,0,0,1,74.5-7.508l.281-.945h1.3L74.676-.18a4.113,4.113,0,0,1-1.312,2.59,3.7,3.7,0,0,1-2.68.926,3.8,3.8,0,0,1-1.645-.406A3.127,3.127,0,0,1,67.8,1.859l.8-.867a2.419,2.419,0,0,0,2.023,1.164,2.425,2.425,0,0,0,1.707-.562,2.9,2.9,0,0,0,.926-1.687l.156-.75A3.2,3.2,0,0,1,71,.156,2.486,2.486,0,0,1,69.633-.27a2.589,2.589,0,0,1-.9-1.164,4.759,4.759,0,0,1-.352-1.7A8.734,8.734,0,0,1,68.426-4.242Zm1.367.8a2.974,2.974,0,0,0,.387,1.728,1.461,1.461,0,0,0,1.238.644A2.561,2.561,0,0,0,73.6-2.311l.664-3.878a1.776,1.776,0,0,0-1.7-1.2,2.194,2.194,0,0,0-1.887.936,4.878,4.878,0,0,0-.871,2.614ZM82.035-2.289q.117-.875-.961-1.234l-1.469-.43q-1.859-.641-1.8-2.125a2.341,2.341,0,0,1,1.02-1.832,3.631,3.631,0,0,1,2.27-.7,3.027,3.027,0,0,1,2.082.746,2.363,2.363,0,0,1,.77,1.9l-1.406-.008A1.319,1.319,0,0,0,82.145-7a1.576,1.576,0,0,0-1.1-.414,2.059,2.059,0,0,0-1.266.359,1.316,1.316,0,0,0-.57.922q-.1.734.9,1.07l.711.2a4.577,4.577,0,0,1,2.063.977A1.865,1.865,0,0,1,83.441-2.4a2.37,2.37,0,0,1-.516,1.375,2.948,2.948,0,0,1-1.25.895,4.18,4.18,0,0,1-1.664.285,3.3,3.3,0,0,1-2.219-.785,2.427,2.427,0,0,1-.844-1.98l1.414.008a1.5,1.5,0,0,0,.453,1.141,1.732,1.732,0,0,0,1.242.43,2.436,2.436,0,0,0,1.336-.324A1.247,1.247,0,0,0,82.035-2.289Z" transform="translate(-4491 2542)" fill="#12263f"/>
      <path id="Trazado_808294" data-name="Trazado 808294" d="M-72.215-2.289q.117-.875-.961-1.234l-1.469-.43q-1.859-.641-1.8-2.125a2.341,2.341,0,0,1,1.02-1.832,3.631,3.631,0,0,1,2.27-.7,3.027,3.027,0,0,1,2.082.746,2.363,2.363,0,0,1,.77,1.9l-1.406-.008A1.319,1.319,0,0,0-72.105-7a1.576,1.576,0,0,0-1.1-.414,2.059,2.059,0,0,0-1.266.359,1.316,1.316,0,0,0-.57.922q-.1.734.9,1.07l.711.2a4.577,4.577,0,0,1,2.063.977A1.865,1.865,0,0,1-70.809-2.4a2.37,2.37,0,0,1-.516,1.375,2.948,2.948,0,0,1-1.25.895,4.18,4.18,0,0,1-1.664.285,3.3,3.3,0,0,1-2.219-.785,2.427,2.427,0,0,1-.844-1.98l1.414.008a1.5,1.5,0,0,0,.453,1.141,1.732,1.732,0,0,0,1.242.43,2.436,2.436,0,0,0,1.336-.324A1.247,1.247,0,0,0-72.215-2.289Zm7.539-6.32a3.047,3.047,0,0,1,1.82.578A3.285,3.285,0,0,1-61.734-6.48a4.8,4.8,0,0,1,.246,2.16l-.016.172a5.685,5.685,0,0,1-.734,2.23A4.309,4.309,0,0,1-63.754-.367a3.7,3.7,0,0,1-2.039.523,3.052,3.052,0,0,1-1.816-.578,3.21,3.21,0,0,1-1.113-1.531,4.931,4.931,0,0,1-.25-2.133,5.76,5.76,0,0,1,.711-2.359,4.409,4.409,0,0,1,1.527-1.621A3.652,3.652,0,0,1-64.676-8.609Zm-2.875,4.531a4.8,4.8,0,0,0,0,1.023A2.507,2.507,0,0,0-67-1.586a1.653,1.653,0,0,0,1.262.57,2.253,2.253,0,0,0,1.3-.348,2.919,2.919,0,0,0,1-1.121,4.721,4.721,0,0,0,.523-1.664,7.494,7.494,0,0,0,.023-1.211,2.6,2.6,0,0,0-.57-1.492A1.69,1.69,0,0,0-64.73-7.43a2.3,2.3,0,0,0-1.859.859,4.245,4.245,0,0,0-.945,2.313Zm9.9-4.383-.18.945a3.305,3.305,0,0,1,2.57-1.094,2.608,2.608,0,0,1,1.363.367,1.8,1.8,0,0,1,.77.992,3.49,3.49,0,0,1,2.8-1.359,2.235,2.235,0,0,1,1.867.852,3.042,3.042,0,0,1,.445,2.2L-48.941,0h-1.406l.922-5.57a2.943,2.943,0,0,0,0-.742q-.148-1.062-1.391-1.086a2.136,2.136,0,0,0-1.4.48,2.222,2.222,0,0,0-.809,1.3L-53.988,0H-55.41l.938-5.562A1.786,1.786,0,0,0-54.734-6.9a1.377,1.377,0,0,0-1.129-.484,2.315,2.315,0,0,0-2.1,1.2L-59.035,0h-1.414l1.469-8.453ZM-43.105.156a3.048,3.048,0,0,1-2.469-1.164,4.006,4.006,0,0,1-.75-2.9l.039-.336a5.624,5.624,0,0,1,.746-2.3,4.339,4.339,0,0,1,1.5-1.566,3.491,3.491,0,0,1,1.906-.5,2.688,2.688,0,0,1,2.047.867,3.566,3.566,0,0,1,.813,2.266,6.621,6.621,0,0,1-.031,1.016l-.086.648h-5.523a2.856,2.856,0,0,0,.379,1.953,1.8,1.8,0,0,0,1.551.836,3.007,3.007,0,0,0,2.313-1.125l.813.688a3.718,3.718,0,0,1-1.371,1.2A3.886,3.886,0,0,1-43.105.156Zm.9-7.586a2.066,2.066,0,0,0-1.527.594A4.22,4.22,0,0,0-44.77-5l4.109.008.031-.125a2.313,2.313,0,0,0-.316-1.637A1.488,1.488,0,0,0-42.207-7.43Zm7.477-3.07-.359,2.047h1.539l-.2,1.117h-1.531l-.883,5.258a1.833,1.833,0,0,0-.008.375.6.6,0,0,0,.664.609,4.05,4.05,0,0,0,.688-.078l-.109,1.18a3.847,3.847,0,0,1-1.031.141,1.476,1.476,0,0,1-1.266-.621A2.4,2.4,0,0,1-37.551-2.1l.859-5.234h-1.492l.2-1.117H-36.5l.359-2.047Zm4.055,3.078A3.275,3.275,0,0,1-28.121-8.6a2.058,2.058,0,0,1,1.762.816,3.217,3.217,0,0,1,.426,2.246L-26.855,0H-28.27l.93-5.562a2.968,2.968,0,0,0,.008-.711,1.168,1.168,0,0,0-1.289-1.117,2.6,2.6,0,0,0-2.234,1.359L-31.9,0h-1.414l2.086-12h1.414ZM-23.16,0h-1.406L-23.1-8.453h1.406ZM-22-11.539a.774.774,0,0,1,.6.215.8.8,0,0,1,.238.605.849.849,0,0,1-.238.6.855.855,0,0,1-.6.25.779.779,0,0,1-.6-.211.764.764,0,0,1-.227-.594.886.886,0,0,1,.234-.609A.826.826,0,0,1-22-11.539Zm3.953,3.078-.2,1.07a3.333,3.333,0,0,1,2.594-1.219,2.1,2.1,0,0,1,1.766.828,3.217,3.217,0,0,1,.422,2.242L-14.387,0H-15.8l.93-5.557a2.962,2.962,0,0,0,.008-.71,1.168,1.168,0,0,0-1.289-1.116,2.661,2.661,0,0,0-2.234,1.358L-19.434,0h-1.414l1.469-8.453Zm6.25,4.219a6.889,6.889,0,0,1,.746-2.4A3.9,3.9,0,0,1-9.687-8.152a3.151,3.151,0,0,1,1.754-.465A2.6,2.6,0,0,1-5.715-7.508l.281-.945h1.3L-5.543-.18A4.113,4.113,0,0,1-6.855,2.41a3.7,3.7,0,0,1-2.68.926A3.8,3.8,0,0,1-11.18,2.93a3.127,3.127,0,0,1-1.238-1.07l.8-.867A2.419,2.419,0,0,0-9.59,2.156a2.425,2.425,0,0,0,1.707-.562A2.9,2.9,0,0,0-6.957-.094l.156-.75a3.2,3.2,0,0,1-2.414,1A2.486,2.486,0,0,1-10.586-.27a2.589,2.589,0,0,1-.9-1.164,4.759,4.759,0,0,1-.352-1.7A8.733,8.733,0,0,1-11.793-4.242Zm1.367.8a2.974,2.974,0,0,0,.387,1.728A1.461,1.461,0,0,0-8.8-1.07a2.561,2.561,0,0,0,2.18-1.241l.664-3.878a1.776,1.776,0,0,0-1.7-1.2,2.194,2.194,0,0,0-1.887.936A4.878,4.878,0,0,0-10.41-3.84ZM3.145-7.422A3.275,3.275,0,0,1,5.7-8.6a2.058,2.058,0,0,1,1.762.816,3.217,3.217,0,0,1,.426,2.246L6.965,0H5.551l.93-5.562a2.968,2.968,0,0,0,.008-.711A1.168,1.168,0,0,0,5.2-7.391,2.6,2.6,0,0,0,2.965-6.031L1.918,0H.5L2.59-12H4ZM14.3,0a1.894,1.894,0,0,1-.055-.445l.023-.445A3.465,3.465,0,0,1,11.8.156,2.526,2.526,0,0,1,9.984-.551a2.14,2.14,0,0,1-.637-1.73,2.6,2.6,0,0,1,1.176-2.1,5.005,5.005,0,0,1,2.887-.754l1.477.008L14.98-5.8A1.545,1.545,0,0,0,14.688-7a1.414,1.414,0,0,0-1.113-.457,2.181,2.181,0,0,0-1.285.355,1.513,1.513,0,0,0-.684.98l-1.422.008a2.266,2.266,0,0,1,.578-1.316,3.363,3.363,0,0,1,1.3-.891,4.215,4.215,0,0,1,1.648-.3,2.8,2.8,0,0,1,2.055.8,2.484,2.484,0,0,1,.617,2.043L15.7-1.586l-.039.6a2.949,2.949,0,0,0,.094.852L15.738,0ZM12.082-1.094a2.466,2.466,0,0,0,1.285-.324,3.254,3.254,0,0,0,1.043-.941l.3-1.742-1.07-.008a4.054,4.054,0,0,0-2.047.422,1.554,1.554,0,0,0-.8,1.2,1.21,1.21,0,0,0,.277.988A1.321,1.321,0,0,0,12.082-1.094ZM25.309-4.187a6.707,6.707,0,0,1-.7,2.32A3.949,3.949,0,0,1,23.277-.324a3.058,3.058,0,0,1-1.766.488,2.815,2.815,0,0,1-2.25-.992L18.5,3.25H17.09l2.031-11.7L20.4-8.461l-.156.945a3.207,3.207,0,0,1,2.508-1.094,2.358,2.358,0,0,1,1.9.9,3.954,3.954,0,0,1,.719,2.391,8.413,8.413,0,0,1-.039.969Zm-1.391-.16L23.957-5a2.969,2.969,0,0,0-.434-1.744,1.525,1.525,0,0,0-1.254-.636A2.508,2.508,0,0,0,20.152-6.22l-.711,4.05a1.769,1.769,0,0,0,1.711,1.155,2.224,2.224,0,0,0,1.793-.823A4.777,4.777,0,0,0,23.918-4.348Zm10.18.16a6.707,6.707,0,0,1-.7,2.32A3.949,3.949,0,0,1,32.066-.324,3.058,3.058,0,0,1,30.3.164a2.815,2.815,0,0,1-2.25-.992L27.293,3.25H25.879l2.031-11.7,1.281-.008-.156.945a3.207,3.207,0,0,1,2.508-1.094,2.358,2.358,0,0,1,1.9.9A3.954,3.954,0,0,1,34.16-5.32a8.413,8.413,0,0,1-.039.969Zm-1.391-.16L32.746-5a2.969,2.969,0,0,0-.434-1.744,1.525,1.525,0,0,0-1.254-.636A2.508,2.508,0,0,0,28.941-6.22L28.23-2.17a1.769,1.769,0,0,0,1.711,1.155,2.224,2.224,0,0,0,1.793-.823A4.777,4.777,0,0,0,32.707-4.348Zm6.18,4.5a3.048,3.048,0,0,1-2.469-1.164,4.006,4.006,0,0,1-.75-2.9l.039-.336a5.624,5.624,0,0,1,.746-2.3,4.339,4.339,0,0,1,1.5-1.566,3.491,3.491,0,0,1,1.906-.5,2.688,2.688,0,0,1,2.047.867,3.566,3.566,0,0,1,.813,2.266,6.621,6.621,0,0,1-.031,1.016l-.086.648H37.074a2.856,2.856,0,0,0,.379,1.953A1.8,1.8,0,0,0,39-1.023a3.007,3.007,0,0,0,2.313-1.125l.813.688a3.718,3.718,0,0,1-1.371,1.2A3.886,3.886,0,0,1,38.887.156Zm.9-7.586a2.066,2.066,0,0,0-1.527.594A4.22,4.22,0,0,0,37.223-5l4.109.008.031-.125a2.313,2.313,0,0,0-.316-1.637A1.488,1.488,0,0,0,39.785-7.43Zm6.547-1.031-.2,1.07a3.333,3.333,0,0,1,2.594-1.219,2.1,2.1,0,0,1,1.766.828,3.217,3.217,0,0,1,.422,2.242L49.988,0H48.574l.93-5.557a2.962,2.962,0,0,0,.008-.71,1.168,1.168,0,0,0-1.289-1.116,2.661,2.661,0,0,0-2.234,1.358L44.941,0H43.527L45-8.453Zm8.641,0-.2,1.07a3.333,3.333,0,0,1,2.594-1.219,2.1,2.1,0,0,1,1.766.828,3.217,3.217,0,0,1,.422,2.242L58.629,0H57.215l.93-5.557a2.962,2.962,0,0,0,.008-.71,1.168,1.168,0,0,0-1.289-1.116,2.661,2.661,0,0,0-2.234,1.358L53.582,0H52.168l1.469-8.453ZM64.465.156A3.048,3.048,0,0,1,62-1.008a4.006,4.006,0,0,1-.75-2.9l.039-.336a5.624,5.624,0,0,1,.746-2.3,4.339,4.339,0,0,1,1.5-1.566,3.491,3.491,0,0,1,1.906-.5,2.688,2.688,0,0,1,2.047.867,3.566,3.566,0,0,1,.813,2.266,6.62,6.62,0,0,1-.031,1.016l-.086.648H62.652a2.856,2.856,0,0,0,.379,1.953,1.8,1.8,0,0,0,1.551.836,3.007,3.007,0,0,0,2.313-1.125l.813.688a3.718,3.718,0,0,1-1.371,1.2A3.886,3.886,0,0,1,64.465.156Zm.9-7.586a2.066,2.066,0,0,0-1.527.594A4.22,4.22,0,0,0,62.8-5l4.109.008.031-.125a2.313,2.313,0,0,0-.316-1.637A1.488,1.488,0,0,0,65.363-7.43Zm4.148,3.188a6.578,6.578,0,0,1,.711-2.328A4.03,4.03,0,0,1,71.59-8.125a3.127,3.127,0,0,1,1.789-.492,2.64,2.64,0,0,1,2.172,1.031L76.363-12h1.414L75.7,0H74.41l.148-.906A3.116,3.116,0,0,1,72.09.156a2.335,2.335,0,0,1-1.867-.918,4,4,0,0,1-.75-2.379A7.6,7.6,0,0,1,69.512-4.242Zm1.359.808a2.929,2.929,0,0,0,.4,1.732A1.437,1.437,0,0,0,72.5-1.07,2.554,2.554,0,0,0,74.684-2.3l.672-3.9a1.754,1.754,0,0,0-1.7-1.186,2.143,2.143,0,0,0-1.473.5,3.256,3.256,0,0,0-.969,1.475A6.082,6.082,0,0,0,70.871-3.435Z" transform="translate(-4916 2345)" fill="#12263f"/>
      <path id="Trazado_808297" data-name="Trazado 808297" d="M-72.215-2.289q.117-.875-.961-1.234l-1.469-.43q-1.859-.641-1.8-2.125a2.341,2.341,0,0,1,1.02-1.832,3.631,3.631,0,0,1,2.27-.7,3.027,3.027,0,0,1,2.082.746,2.363,2.363,0,0,1,.77,1.9l-1.406-.008A1.319,1.319,0,0,0-72.105-7a1.576,1.576,0,0,0-1.1-.414,2.059,2.059,0,0,0-1.266.359,1.316,1.316,0,0,0-.57.922q-.1.734.9,1.07l.711.2a4.577,4.577,0,0,1,2.063.977A1.865,1.865,0,0,1-70.809-2.4a2.37,2.37,0,0,1-.516,1.375,2.948,2.948,0,0,1-1.25.895,4.18,4.18,0,0,1-1.664.285,3.3,3.3,0,0,1-2.219-.785,2.427,2.427,0,0,1-.844-1.98l1.414.008a1.5,1.5,0,0,0,.453,1.141,1.732,1.732,0,0,0,1.242.43,2.436,2.436,0,0,0,1.336-.324A1.247,1.247,0,0,0-72.215-2.289Zm7.539-6.32a3.047,3.047,0,0,1,1.82.578A3.285,3.285,0,0,1-61.734-6.48a4.8,4.8,0,0,1,.246,2.16l-.016.172a5.685,5.685,0,0,1-.734,2.23A4.309,4.309,0,0,1-63.754-.367a3.7,3.7,0,0,1-2.039.523,3.052,3.052,0,0,1-1.816-.578,3.21,3.21,0,0,1-1.113-1.531,4.931,4.931,0,0,1-.25-2.133,5.76,5.76,0,0,1,.711-2.359,4.409,4.409,0,0,1,1.527-1.621A3.652,3.652,0,0,1-64.676-8.609Zm-2.875,4.531a4.8,4.8,0,0,0,0,1.023A2.507,2.507,0,0,0-67-1.586a1.653,1.653,0,0,0,1.262.57,2.253,2.253,0,0,0,1.3-.348,2.919,2.919,0,0,0,1-1.121,4.721,4.721,0,0,0,.523-1.664,7.494,7.494,0,0,0,.023-1.211,2.6,2.6,0,0,0-.57-1.492A1.69,1.69,0,0,0-64.73-7.43a2.3,2.3,0,0,0-1.859.859,4.245,4.245,0,0,0-.945,2.313Zm9.9-4.383-.18.945a3.305,3.305,0,0,1,2.57-1.094,2.608,2.608,0,0,1,1.363.367,1.8,1.8,0,0,1,.77.992,3.49,3.49,0,0,1,2.8-1.359,2.235,2.235,0,0,1,1.867.852,3.042,3.042,0,0,1,.445,2.2L-48.941,0h-1.406l.922-5.57a2.943,2.943,0,0,0,0-.742q-.148-1.062-1.391-1.086a2.136,2.136,0,0,0-1.4.48,2.222,2.222,0,0,0-.809,1.3L-53.988,0H-55.41l.938-5.562A1.786,1.786,0,0,0-54.734-6.9a1.377,1.377,0,0,0-1.129-.484,2.315,2.315,0,0,0-2.1,1.2L-59.035,0h-1.414l1.469-8.453ZM-43.105.156a3.048,3.048,0,0,1-2.469-1.164,4.006,4.006,0,0,1-.75-2.9l.039-.336a5.624,5.624,0,0,1,.746-2.3,4.339,4.339,0,0,1,1.5-1.566,3.491,3.491,0,0,1,1.906-.5,2.688,2.688,0,0,1,2.047.867,3.566,3.566,0,0,1,.813,2.266,6.621,6.621,0,0,1-.031,1.016l-.086.648h-5.523a2.856,2.856,0,0,0,.379,1.953,1.8,1.8,0,0,0,1.551.836,3.007,3.007,0,0,0,2.313-1.125l.813.688a3.718,3.718,0,0,1-1.371,1.2A3.886,3.886,0,0,1-43.105.156Zm.9-7.586a2.066,2.066,0,0,0-1.527.594A4.22,4.22,0,0,0-44.77-5l4.109.008.031-.125a2.313,2.313,0,0,0-.316-1.637A1.488,1.488,0,0,0-42.207-7.43Zm7.477-3.07-.359,2.047h1.539l-.2,1.117h-1.531l-.883,5.258a1.833,1.833,0,0,0-.008.375.6.6,0,0,0,.664.609,4.05,4.05,0,0,0,.688-.078l-.109,1.18a3.847,3.847,0,0,1-1.031.141,1.476,1.476,0,0,1-1.266-.621A2.4,2.4,0,0,1-37.551-2.1l.859-5.234h-1.492l.2-1.117H-36.5l.359-2.047Zm4.055,3.078A3.275,3.275,0,0,1-28.121-8.6a2.058,2.058,0,0,1,1.762.816,3.217,3.217,0,0,1,.426,2.246L-26.855,0H-28.27l.93-5.562a2.968,2.968,0,0,0,.008-.711,1.168,1.168,0,0,0-1.289-1.117,2.6,2.6,0,0,0-2.234,1.359L-31.9,0h-1.414l2.086-12h1.414ZM-23.16,0h-1.406L-23.1-8.453h1.406ZM-22-11.539a.774.774,0,0,1,.6.215.8.8,0,0,1,.238.605.849.849,0,0,1-.238.6.855.855,0,0,1-.6.25.779.779,0,0,1-.6-.211.764.764,0,0,1-.227-.594.886.886,0,0,1,.234-.609A.826.826,0,0,1-22-11.539Zm3.953,3.078-.2,1.07a3.333,3.333,0,0,1,2.594-1.219,2.1,2.1,0,0,1,1.766.828,3.217,3.217,0,0,1,.422,2.242L-14.387,0H-15.8l.93-5.557a2.962,2.962,0,0,0,.008-.71,1.168,1.168,0,0,0-1.289-1.116,2.661,2.661,0,0,0-2.234,1.358L-19.434,0h-1.414l1.469-8.453Zm6.25,4.219a6.889,6.889,0,0,1,.746-2.4A3.9,3.9,0,0,1-9.687-8.152a3.151,3.151,0,0,1,1.754-.465A2.6,2.6,0,0,1-5.715-7.508l.281-.945h1.3L-5.543-.18A4.113,4.113,0,0,1-6.855,2.41a3.7,3.7,0,0,1-2.68.926A3.8,3.8,0,0,1-11.18,2.93a3.127,3.127,0,0,1-1.238-1.07l.8-.867A2.419,2.419,0,0,0-9.59,2.156a2.425,2.425,0,0,0,1.707-.562A2.9,2.9,0,0,0-6.957-.094l.156-.75a3.2,3.2,0,0,1-2.414,1A2.486,2.486,0,0,1-10.586-.27a2.589,2.589,0,0,1-.9-1.164,4.759,4.759,0,0,1-.352-1.7A8.733,8.733,0,0,1-11.793-4.242Zm1.367.8a2.974,2.974,0,0,0,.387,1.728A1.461,1.461,0,0,0-8.8-1.07a2.561,2.561,0,0,0,2.18-1.241l.664-3.878a1.776,1.776,0,0,0-1.7-1.2,2.194,2.194,0,0,0-1.887.936A4.878,4.878,0,0,0-10.41-3.84ZM3.145-7.422A3.275,3.275,0,0,1,5.7-8.6a2.058,2.058,0,0,1,1.762.816,3.217,3.217,0,0,1,.426,2.246L6.965,0H5.551l.93-5.562a2.968,2.968,0,0,0,.008-.711A1.168,1.168,0,0,0,5.2-7.391,2.6,2.6,0,0,0,2.965-6.031L1.918,0H.5L2.59-12H4ZM14.3,0a1.894,1.894,0,0,1-.055-.445l.023-.445A3.465,3.465,0,0,1,11.8.156,2.526,2.526,0,0,1,9.984-.551a2.14,2.14,0,0,1-.637-1.73,2.6,2.6,0,0,1,1.176-2.1,5.005,5.005,0,0,1,2.887-.754l1.477.008L14.98-5.8A1.545,1.545,0,0,0,14.688-7a1.414,1.414,0,0,0-1.113-.457,2.181,2.181,0,0,0-1.285.355,1.513,1.513,0,0,0-.684.98l-1.422.008a2.266,2.266,0,0,1,.578-1.316,3.363,3.363,0,0,1,1.3-.891,4.215,4.215,0,0,1,1.648-.3,2.8,2.8,0,0,1,2.055.8,2.484,2.484,0,0,1,.617,2.043L15.7-1.586l-.039.6a2.949,2.949,0,0,0,.094.852L15.738,0ZM12.082-1.094a2.466,2.466,0,0,0,1.285-.324,3.254,3.254,0,0,0,1.043-.941l.3-1.742-1.07-.008a4.054,4.054,0,0,0-2.047.422,1.554,1.554,0,0,0-.8,1.2,1.21,1.21,0,0,0,.277.988A1.321,1.321,0,0,0,12.082-1.094ZM25.309-4.187a6.707,6.707,0,0,1-.7,2.32A3.949,3.949,0,0,1,23.277-.324a3.058,3.058,0,0,1-1.766.488,2.815,2.815,0,0,1-2.25-.992L18.5,3.25H17.09l2.031-11.7L20.4-8.461l-.156.945a3.207,3.207,0,0,1,2.508-1.094,2.358,2.358,0,0,1,1.9.9,3.954,3.954,0,0,1,.719,2.391,8.413,8.413,0,0,1-.039.969Zm-1.391-.16L23.957-5a2.969,2.969,0,0,0-.434-1.744,1.525,1.525,0,0,0-1.254-.636A2.508,2.508,0,0,0,20.152-6.22l-.711,4.05a1.769,1.769,0,0,0,1.711,1.155,2.224,2.224,0,0,0,1.793-.823A4.777,4.777,0,0,0,23.918-4.348Zm10.18.16a6.707,6.707,0,0,1-.7,2.32A3.949,3.949,0,0,1,32.066-.324,3.058,3.058,0,0,1,30.3.164a2.815,2.815,0,0,1-2.25-.992L27.293,3.25H25.879l2.031-11.7,1.281-.008-.156.945a3.207,3.207,0,0,1,2.508-1.094,2.358,2.358,0,0,1,1.9.9A3.954,3.954,0,0,1,34.16-5.32a8.413,8.413,0,0,1-.039.969Zm-1.391-.16L32.746-5a2.969,2.969,0,0,0-.434-1.744,1.525,1.525,0,0,0-1.254-.636A2.508,2.508,0,0,0,28.941-6.22L28.23-2.17a1.769,1.769,0,0,0,1.711,1.155,2.224,2.224,0,0,0,1.793-.823A4.777,4.777,0,0,0,32.707-4.348Zm6.18,4.5a3.048,3.048,0,0,1-2.469-1.164,4.006,4.006,0,0,1-.75-2.9l.039-.336a5.624,5.624,0,0,1,.746-2.3,4.339,4.339,0,0,1,1.5-1.566,3.491,3.491,0,0,1,1.906-.5,2.688,2.688,0,0,1,2.047.867,3.566,3.566,0,0,1,.813,2.266,6.621,6.621,0,0,1-.031,1.016l-.086.648H37.074a2.856,2.856,0,0,0,.379,1.953A1.8,1.8,0,0,0,39-1.023a3.007,3.007,0,0,0,2.313-1.125l.813.688a3.718,3.718,0,0,1-1.371,1.2A3.886,3.886,0,0,1,38.887.156Zm.9-7.586a2.066,2.066,0,0,0-1.527.594A4.22,4.22,0,0,0,37.223-5l4.109.008.031-.125a2.313,2.313,0,0,0-.316-1.637A1.488,1.488,0,0,0,39.785-7.43Zm6.547-1.031-.2,1.07a3.333,3.333,0,0,1,2.594-1.219,2.1,2.1,0,0,1,1.766.828,3.217,3.217,0,0,1,.422,2.242L49.988,0H48.574l.93-5.557a2.962,2.962,0,0,0,.008-.71,1.168,1.168,0,0,0-1.289-1.116,2.661,2.661,0,0,0-2.234,1.358L44.941,0H43.527L45-8.453Zm8.641,0-.2,1.07a3.333,3.333,0,0,1,2.594-1.219,2.1,2.1,0,0,1,1.766.828,3.217,3.217,0,0,1,.422,2.242L58.629,0H57.215l.93-5.557a2.962,2.962,0,0,0,.008-.71,1.168,1.168,0,0,0-1.289-1.116,2.661,2.661,0,0,0-2.234,1.358L53.582,0H52.168l1.469-8.453ZM64.465.156A3.048,3.048,0,0,1,62-1.008a4.006,4.006,0,0,1-.75-2.9l.039-.336a5.624,5.624,0,0,1,.746-2.3,4.339,4.339,0,0,1,1.5-1.566,3.491,3.491,0,0,1,1.906-.5,2.688,2.688,0,0,1,2.047.867,3.566,3.566,0,0,1,.813,2.266,6.62,6.62,0,0,1-.031,1.016l-.086.648H62.652a2.856,2.856,0,0,0,.379,1.953,1.8,1.8,0,0,0,1.551.836,3.007,3.007,0,0,0,2.313-1.125l.813.688a3.718,3.718,0,0,1-1.371,1.2A3.886,3.886,0,0,1,64.465.156Zm.9-7.586a2.066,2.066,0,0,0-1.527.594A4.22,4.22,0,0,0,62.8-5l4.109.008.031-.125a2.313,2.313,0,0,0-.316-1.637A1.488,1.488,0,0,0,65.363-7.43Zm4.148,3.188a6.578,6.578,0,0,1,.711-2.328A4.03,4.03,0,0,1,71.59-8.125a3.127,3.127,0,0,1,1.789-.492,2.64,2.64,0,0,1,2.172,1.031L76.363-12h1.414L75.7,0H74.41l.148-.906A3.116,3.116,0,0,1,72.09.156a2.335,2.335,0,0,1-1.867-.918,4,4,0,0,1-.75-2.379A7.6,7.6,0,0,1,69.512-4.242Zm1.359.808a2.929,2.929,0,0,0,.4,1.732A1.437,1.437,0,0,0,72.5-1.07,2.554,2.554,0,0,0,74.684-2.3l.672-3.9a1.754,1.754,0,0,0-1.7-1.186,2.143,2.143,0,0,0-1.473.5,3.256,3.256,0,0,0-.969,1.475A6.082,6.082,0,0,0,70.871-3.435Z" transform="translate(-4916 2435)" fill="#12263f"/>
      <path id="Trazado_808300" data-name="Trazado 808300" d="M-72.215-2.289q.117-.875-.961-1.234l-1.469-.43q-1.859-.641-1.8-2.125a2.341,2.341,0,0,1,1.02-1.832,3.631,3.631,0,0,1,2.27-.7,3.027,3.027,0,0,1,2.082.746,2.363,2.363,0,0,1,.77,1.9l-1.406-.008A1.319,1.319,0,0,0-72.105-7a1.576,1.576,0,0,0-1.1-.414,2.059,2.059,0,0,0-1.266.359,1.316,1.316,0,0,0-.57.922q-.1.734.9,1.07l.711.2a4.577,4.577,0,0,1,2.063.977A1.865,1.865,0,0,1-70.809-2.4a2.37,2.37,0,0,1-.516,1.375,2.948,2.948,0,0,1-1.25.895,4.18,4.18,0,0,1-1.664.285,3.3,3.3,0,0,1-2.219-.785,2.427,2.427,0,0,1-.844-1.98l1.414.008a1.5,1.5,0,0,0,.453,1.141,1.732,1.732,0,0,0,1.242.43,2.436,2.436,0,0,0,1.336-.324A1.247,1.247,0,0,0-72.215-2.289Zm7.539-6.32a3.047,3.047,0,0,1,1.82.578A3.285,3.285,0,0,1-61.734-6.48a4.8,4.8,0,0,1,.246,2.16l-.016.172a5.685,5.685,0,0,1-.734,2.23A4.309,4.309,0,0,1-63.754-.367a3.7,3.7,0,0,1-2.039.523,3.052,3.052,0,0,1-1.816-.578,3.21,3.21,0,0,1-1.113-1.531,4.931,4.931,0,0,1-.25-2.133,5.76,5.76,0,0,1,.711-2.359,4.409,4.409,0,0,1,1.527-1.621A3.652,3.652,0,0,1-64.676-8.609Zm-2.875,4.531a4.8,4.8,0,0,0,0,1.023A2.507,2.507,0,0,0-67-1.586a1.653,1.653,0,0,0,1.262.57,2.253,2.253,0,0,0,1.3-.348,2.919,2.919,0,0,0,1-1.121,4.721,4.721,0,0,0,.523-1.664,7.494,7.494,0,0,0,.023-1.211,2.6,2.6,0,0,0-.57-1.492A1.69,1.69,0,0,0-64.73-7.43a2.3,2.3,0,0,0-1.859.859,4.245,4.245,0,0,0-.945,2.313Zm9.9-4.383-.18.945a3.305,3.305,0,0,1,2.57-1.094,2.608,2.608,0,0,1,1.363.367,1.8,1.8,0,0,1,.77.992,3.49,3.49,0,0,1,2.8-1.359,2.235,2.235,0,0,1,1.867.852,3.042,3.042,0,0,1,.445,2.2L-48.941,0h-1.406l.922-5.57a2.943,2.943,0,0,0,0-.742q-.148-1.062-1.391-1.086a2.136,2.136,0,0,0-1.4.48,2.222,2.222,0,0,0-.809,1.3L-53.988,0H-55.41l.938-5.562A1.786,1.786,0,0,0-54.734-6.9a1.377,1.377,0,0,0-1.129-.484,2.315,2.315,0,0,0-2.1,1.2L-59.035,0h-1.414l1.469-8.453ZM-43.105.156a3.048,3.048,0,0,1-2.469-1.164,4.006,4.006,0,0,1-.75-2.9l.039-.336a5.624,5.624,0,0,1,.746-2.3,4.339,4.339,0,0,1,1.5-1.566,3.491,3.491,0,0,1,1.906-.5,2.688,2.688,0,0,1,2.047.867,3.566,3.566,0,0,1,.813,2.266,6.621,6.621,0,0,1-.031,1.016l-.086.648h-5.523a2.856,2.856,0,0,0,.379,1.953,1.8,1.8,0,0,0,1.551.836,3.007,3.007,0,0,0,2.313-1.125l.813.688a3.718,3.718,0,0,1-1.371,1.2A3.886,3.886,0,0,1-43.105.156Zm.9-7.586a2.066,2.066,0,0,0-1.527.594A4.22,4.22,0,0,0-44.77-5l4.109.008.031-.125a2.313,2.313,0,0,0-.316-1.637A1.488,1.488,0,0,0-42.207-7.43Zm7.477-3.07-.359,2.047h1.539l-.2,1.117h-1.531l-.883,5.258a1.833,1.833,0,0,0-.008.375.6.6,0,0,0,.664.609,4.05,4.05,0,0,0,.688-.078l-.109,1.18a3.847,3.847,0,0,1-1.031.141,1.476,1.476,0,0,1-1.266-.621A2.4,2.4,0,0,1-37.551-2.1l.859-5.234h-1.492l.2-1.117H-36.5l.359-2.047Zm4.055,3.078A3.275,3.275,0,0,1-28.121-8.6a2.058,2.058,0,0,1,1.762.816,3.217,3.217,0,0,1,.426,2.246L-26.855,0H-28.27l.93-5.562a2.968,2.968,0,0,0,.008-.711,1.168,1.168,0,0,0-1.289-1.117,2.6,2.6,0,0,0-2.234,1.359L-31.9,0h-1.414l2.086-12h1.414ZM-23.16,0h-1.406L-23.1-8.453h1.406ZM-22-11.539a.774.774,0,0,1,.6.215.8.8,0,0,1,.238.605.849.849,0,0,1-.238.6.855.855,0,0,1-.6.25.779.779,0,0,1-.6-.211.764.764,0,0,1-.227-.594.886.886,0,0,1,.234-.609A.826.826,0,0,1-22-11.539Zm3.953,3.078-.2,1.07a3.333,3.333,0,0,1,2.594-1.219,2.1,2.1,0,0,1,1.766.828,3.217,3.217,0,0,1,.422,2.242L-14.387,0H-15.8l.93-5.557a2.962,2.962,0,0,0,.008-.71,1.168,1.168,0,0,0-1.289-1.116,2.661,2.661,0,0,0-2.234,1.358L-19.434,0h-1.414l1.469-8.453Zm6.25,4.219a6.889,6.889,0,0,1,.746-2.4A3.9,3.9,0,0,1-9.687-8.152a3.151,3.151,0,0,1,1.754-.465A2.6,2.6,0,0,1-5.715-7.508l.281-.945h1.3L-5.543-.18A4.113,4.113,0,0,1-6.855,2.41a3.7,3.7,0,0,1-2.68.926A3.8,3.8,0,0,1-11.18,2.93a3.127,3.127,0,0,1-1.238-1.07l.8-.867A2.419,2.419,0,0,0-9.59,2.156a2.425,2.425,0,0,0,1.707-.562A2.9,2.9,0,0,0-6.957-.094l.156-.75a3.2,3.2,0,0,1-2.414,1A2.486,2.486,0,0,1-10.586-.27a2.589,2.589,0,0,1-.9-1.164,4.759,4.759,0,0,1-.352-1.7A8.733,8.733,0,0,1-11.793-4.242Zm1.367.8a2.974,2.974,0,0,0,.387,1.728A1.461,1.461,0,0,0-8.8-1.07a2.561,2.561,0,0,0,2.18-1.241l.664-3.878a1.776,1.776,0,0,0-1.7-1.2,2.194,2.194,0,0,0-1.887.936A4.878,4.878,0,0,0-10.41-3.84ZM3.145-7.422A3.275,3.275,0,0,1,5.7-8.6a2.058,2.058,0,0,1,1.762.816,3.217,3.217,0,0,1,.426,2.246L6.965,0H5.551l.93-5.562a2.968,2.968,0,0,0,.008-.711A1.168,1.168,0,0,0,5.2-7.391,2.6,2.6,0,0,0,2.965-6.031L1.918,0H.5L2.59-12H4ZM14.3,0a1.894,1.894,0,0,1-.055-.445l.023-.445A3.465,3.465,0,0,1,11.8.156,2.526,2.526,0,0,1,9.984-.551a2.14,2.14,0,0,1-.637-1.73,2.6,2.6,0,0,1,1.176-2.1,5.005,5.005,0,0,1,2.887-.754l1.477.008L14.98-5.8A1.545,1.545,0,0,0,14.688-7a1.414,1.414,0,0,0-1.113-.457,2.181,2.181,0,0,0-1.285.355,1.513,1.513,0,0,0-.684.98l-1.422.008a2.266,2.266,0,0,1,.578-1.316,3.363,3.363,0,0,1,1.3-.891,4.215,4.215,0,0,1,1.648-.3,2.8,2.8,0,0,1,2.055.8,2.484,2.484,0,0,1,.617,2.043L15.7-1.586l-.039.6a2.949,2.949,0,0,0,.094.852L15.738,0ZM12.082-1.094a2.466,2.466,0,0,0,1.285-.324,3.254,3.254,0,0,0,1.043-.941l.3-1.742-1.07-.008a4.054,4.054,0,0,0-2.047.422,1.554,1.554,0,0,0-.8,1.2,1.21,1.21,0,0,0,.277.988A1.321,1.321,0,0,0,12.082-1.094ZM25.309-4.187a6.707,6.707,0,0,1-.7,2.32A3.949,3.949,0,0,1,23.277-.324a3.058,3.058,0,0,1-1.766.488,2.815,2.815,0,0,1-2.25-.992L18.5,3.25H17.09l2.031-11.7L20.4-8.461l-.156.945a3.207,3.207,0,0,1,2.508-1.094,2.358,2.358,0,0,1,1.9.9,3.954,3.954,0,0,1,.719,2.391,8.413,8.413,0,0,1-.039.969Zm-1.391-.16L23.957-5a2.969,2.969,0,0,0-.434-1.744,1.525,1.525,0,0,0-1.254-.636A2.508,2.508,0,0,0,20.152-6.22l-.711,4.05a1.769,1.769,0,0,0,1.711,1.155,2.224,2.224,0,0,0,1.793-.823A4.777,4.777,0,0,0,23.918-4.348Zm10.18.16a6.707,6.707,0,0,1-.7,2.32A3.949,3.949,0,0,1,32.066-.324,3.058,3.058,0,0,1,30.3.164a2.815,2.815,0,0,1-2.25-.992L27.293,3.25H25.879l2.031-11.7,1.281-.008-.156.945a3.207,3.207,0,0,1,2.508-1.094,2.358,2.358,0,0,1,1.9.9A3.954,3.954,0,0,1,34.16-5.32a8.413,8.413,0,0,1-.039.969Zm-1.391-.16L32.746-5a2.969,2.969,0,0,0-.434-1.744,1.525,1.525,0,0,0-1.254-.636A2.508,2.508,0,0,0,28.941-6.22L28.23-2.17a1.769,1.769,0,0,0,1.711,1.155,2.224,2.224,0,0,0,1.793-.823A4.777,4.777,0,0,0,32.707-4.348Zm6.18,4.5a3.048,3.048,0,0,1-2.469-1.164,4.006,4.006,0,0,1-.75-2.9l.039-.336a5.624,5.624,0,0,1,.746-2.3,4.339,4.339,0,0,1,1.5-1.566,3.491,3.491,0,0,1,1.906-.5,2.688,2.688,0,0,1,2.047.867,3.566,3.566,0,0,1,.813,2.266,6.621,6.621,0,0,1-.031,1.016l-.086.648H37.074a2.856,2.856,0,0,0,.379,1.953A1.8,1.8,0,0,0,39-1.023a3.007,3.007,0,0,0,2.313-1.125l.813.688a3.718,3.718,0,0,1-1.371,1.2A3.886,3.886,0,0,1,38.887.156Zm.9-7.586a2.066,2.066,0,0,0-1.527.594A4.22,4.22,0,0,0,37.223-5l4.109.008.031-.125a2.313,2.313,0,0,0-.316-1.637A1.488,1.488,0,0,0,39.785-7.43Zm6.547-1.031-.2,1.07a3.333,3.333,0,0,1,2.594-1.219,2.1,2.1,0,0,1,1.766.828,3.217,3.217,0,0,1,.422,2.242L49.988,0H48.574l.93-5.557a2.962,2.962,0,0,0,.008-.71,1.168,1.168,0,0,0-1.289-1.116,2.661,2.661,0,0,0-2.234,1.358L44.941,0H43.527L45-8.453Zm8.641,0-.2,1.07a3.333,3.333,0,0,1,2.594-1.219,2.1,2.1,0,0,1,1.766.828,3.217,3.217,0,0,1,.422,2.242L58.629,0H57.215l.93-5.557a2.962,2.962,0,0,0,.008-.71,1.168,1.168,0,0,0-1.289-1.116,2.661,2.661,0,0,0-2.234,1.358L53.582,0H52.168l1.469-8.453ZM64.465.156A3.048,3.048,0,0,1,62-1.008a4.006,4.006,0,0,1-.75-2.9l.039-.336a5.624,5.624,0,0,1,.746-2.3,4.339,4.339,0,0,1,1.5-1.566,3.491,3.491,0,0,1,1.906-.5,2.688,2.688,0,0,1,2.047.867,3.566,3.566,0,0,1,.813,2.266,6.62,6.62,0,0,1-.031,1.016l-.086.648H62.652a2.856,2.856,0,0,0,.379,1.953,1.8,1.8,0,0,0,1.551.836,3.007,3.007,0,0,0,2.313-1.125l.813.688a3.718,3.718,0,0,1-1.371,1.2A3.886,3.886,0,0,1,64.465.156Zm.9-7.586a2.066,2.066,0,0,0-1.527.594A4.22,4.22,0,0,0,62.8-5l4.109.008.031-.125a2.313,2.313,0,0,0-.316-1.637A1.488,1.488,0,0,0,65.363-7.43Zm4.148,3.188a6.578,6.578,0,0,1,.711-2.328A4.03,4.03,0,0,1,71.59-8.125a3.127,3.127,0,0,1,1.789-.492,2.64,2.64,0,0,1,2.172,1.031L76.363-12h1.414L75.7,0H74.41l.148-.906A3.116,3.116,0,0,1,72.09.156a2.335,2.335,0,0,1-1.867-.918,4,4,0,0,1-.75-2.379A7.6,7.6,0,0,1,69.512-4.242Zm1.359.808a2.929,2.929,0,0,0,.4,1.732A1.437,1.437,0,0,0,72.5-1.07,2.554,2.554,0,0,0,74.684-2.3l.672-3.9a1.754,1.754,0,0,0-1.7-1.186,2.143,2.143,0,0,0-1.473.5,3.256,3.256,0,0,0-.969,1.475A6.082,6.082,0,0,0,70.871-3.435Z" transform="translate(-4916 2525)" fill="#12263f"/>
      <path id="Trazado_808292" data-name="Trazado 808292" d="M-17.348-2.383q.125-.625-.867-.906l-.711-.18q-2.523-.7-2.453-2.453A2.428,2.428,0,0,1-20.32-7.871a3.942,3.942,0,0,1,2.457-.738,3.536,3.536,0,0,1,2.313.758,2.5,2.5,0,0,1,.9,1.977l-2.187-.008a.963.963,0,0,0-1.078-1.1,1.551,1.551,0,0,0-.895.258,1.061,1.061,0,0,0-.465.7q-.117.625.945.883l.313.07a6.285,6.285,0,0,1,1.648.59,2.488,2.488,0,0,1,.879.824,2.04,2.04,0,0,1,.285,1.18,2.251,2.251,0,0,1-.52,1.406,3.18,3.18,0,0,1-1.359.93,4.736,4.736,0,0,1-1.816.3,3.568,3.568,0,0,1-2.344-.809A2.607,2.607,0,0,1-22.2-2.7l2.078.016a1.142,1.142,0,0,0,1.3,1.227,1.845,1.845,0,0,0,1-.25A.987.987,0,0,0-17.348-2.383ZM-10.176.156a3.677,3.677,0,0,1-1.965-.543,3.292,3.292,0,0,1-1.277-1.469,4.093,4.093,0,0,1-.328-2.059l.023-.312A5.465,5.465,0,0,1-13-6.492a4.341,4.341,0,0,1,1.547-1.59,3.827,3.827,0,0,1,2.094-.527,2.924,2.924,0,0,1,2.473,1.2,4.117,4.117,0,0,1,.637,2.962l-.125.962h-5.18a1.814,1.814,0,0,0,.4,1.313,1.521,1.521,0,0,0,1.172.508A2.7,2.7,0,0,0-7.879-2.6l1.008,1.25A3.135,3.135,0,0,1-8.246-.23,4.5,4.5,0,0,1-10.176.156Zm.7-6.945a1.565,1.565,0,0,0-1.082.383A3.363,3.363,0,0,0-11.4-5.023h3.031l.047-.2a2.071,2.071,0,0,0,.008-.594A1.134,1.134,0,0,0-8.7-6.527,1.2,1.2,0,0,0-9.473-6.789Zm9.539.453a4.548,4.548,0,0,0-.742-.078,2.136,2.136,0,0,0-1.867.883L-3.52,0h-2.2l1.469-8.453,2.07-.008-.2,1.031a2.325,2.325,0,0,1,1.969-1.2,3.214,3.214,0,0,1,.766.109ZM3.715-2.789,6.121-8.453H8.5L4.41,0H2.3L.855-8.453H3.09ZM12.1.156a3.677,3.677,0,0,1-1.965-.543A3.292,3.292,0,0,1,8.855-1.855a4.093,4.093,0,0,1-.328-2.059l.023-.312A5.465,5.465,0,0,1,9.27-6.492a4.341,4.341,0,0,1,1.547-1.59,3.827,3.827,0,0,1,2.094-.527,2.924,2.924,0,0,1,2.473,1.2,4.117,4.117,0,0,1,.637,2.962l-.125.962h-5.18a1.814,1.814,0,0,0,.4,1.313,1.521,1.521,0,0,0,1.172.508A2.7,2.7,0,0,0,14.395-2.6L15.4-1.352A3.135,3.135,0,0,1,14.027-.23,4.5,4.5,0,0,1,12.1.156Zm.7-6.945a1.565,1.565,0,0,0-1.082.383,3.363,3.363,0,0,0-.848,1.383H13.9l.047-.2a2.071,2.071,0,0,0,.008-.594,1.134,1.134,0,0,0-.383-.707A1.2,1.2,0,0,0,12.8-6.789Zm9.539.453a4.548,4.548,0,0,0-.742-.078,2.136,2.136,0,0,0-1.867.883L18.754,0h-2.2L18.02-8.453l2.07-.008-.2,1.031a2.325,2.325,0,0,1,1.969-1.2,3.214,3.214,0,0,1,.766.109Z" transform="translate(-4720 2261)" fill="#fff"/>
      <path id="Trazado_808295" data-name="Trazado 808295" d="M-17.348-2.383q.125-.625-.867-.906l-.711-.18q-2.523-.7-2.453-2.453A2.428,2.428,0,0,1-20.32-7.871a3.942,3.942,0,0,1,2.457-.738,3.536,3.536,0,0,1,2.313.758,2.5,2.5,0,0,1,.9,1.977l-2.187-.008a.963.963,0,0,0-1.078-1.1,1.551,1.551,0,0,0-.895.258,1.061,1.061,0,0,0-.465.7q-.117.625.945.883l.313.07a6.285,6.285,0,0,1,1.648.59,2.488,2.488,0,0,1,.879.824,2.04,2.04,0,0,1,.285,1.18,2.251,2.251,0,0,1-.52,1.406,3.18,3.18,0,0,1-1.359.93,4.736,4.736,0,0,1-1.816.3,3.568,3.568,0,0,1-2.344-.809A2.607,2.607,0,0,1-22.2-2.7l2.078.016a1.142,1.142,0,0,0,1.3,1.227,1.845,1.845,0,0,0,1-.25A.987.987,0,0,0-17.348-2.383ZM-10.176.156a3.677,3.677,0,0,1-1.965-.543,3.292,3.292,0,0,1-1.277-1.469,4.093,4.093,0,0,1-.328-2.059l.023-.312A5.465,5.465,0,0,1-13-6.492a4.341,4.341,0,0,1,1.547-1.59,3.827,3.827,0,0,1,2.094-.527,2.924,2.924,0,0,1,2.473,1.2,4.117,4.117,0,0,1,.637,2.962l-.125.962h-5.18a1.814,1.814,0,0,0,.4,1.313,1.521,1.521,0,0,0,1.172.508A2.7,2.7,0,0,0-7.879-2.6l1.008,1.25A3.135,3.135,0,0,1-8.246-.23,4.5,4.5,0,0,1-10.176.156Zm.7-6.945a1.565,1.565,0,0,0-1.082.383A3.363,3.363,0,0,0-11.4-5.023h3.031l.047-.2a2.071,2.071,0,0,0,.008-.594A1.134,1.134,0,0,0-8.7-6.527,1.2,1.2,0,0,0-9.473-6.789Zm9.539.453a4.548,4.548,0,0,0-.742-.078,2.136,2.136,0,0,0-1.867.883L-3.52,0h-2.2l1.469-8.453,2.07-.008-.2,1.031a2.325,2.325,0,0,1,1.969-1.2,3.214,3.214,0,0,1,.766.109ZM3.715-2.789,6.121-8.453H8.5L4.41,0H2.3L.855-8.453H3.09ZM12.1.156a3.677,3.677,0,0,1-1.965-.543A3.292,3.292,0,0,1,8.855-1.855a4.093,4.093,0,0,1-.328-2.059l.023-.312A5.465,5.465,0,0,1,9.27-6.492a4.341,4.341,0,0,1,1.547-1.59,3.827,3.827,0,0,1,2.094-.527,2.924,2.924,0,0,1,2.473,1.2,4.117,4.117,0,0,1,.637,2.962l-.125.962h-5.18a1.814,1.814,0,0,0,.4,1.313,1.521,1.521,0,0,0,1.172.508A2.7,2.7,0,0,0,14.395-2.6L15.4-1.352A3.135,3.135,0,0,1,14.027-.23,4.5,4.5,0,0,1,12.1.156Zm.7-6.945a1.565,1.565,0,0,0-1.082.383,3.363,3.363,0,0,0-.848,1.383H13.9l.047-.2a2.071,2.071,0,0,0,.008-.594,1.134,1.134,0,0,0-.383-.707A1.2,1.2,0,0,0,12.8-6.789Zm9.539.453a4.548,4.548,0,0,0-.742-.078,2.136,2.136,0,0,0-1.867.883L18.754,0h-2.2L18.02-8.453l2.07-.008-.2,1.031a2.325,2.325,0,0,1,1.969-1.2,3.214,3.214,0,0,1,.766.109Z" transform="translate(-4720 2355)" fill="#fff"/>
      <path id="Trazado_808298" data-name="Trazado 808298" d="M-17.348-2.383q.125-.625-.867-.906l-.711-.18q-2.523-.7-2.453-2.453A2.428,2.428,0,0,1-20.32-7.871a3.942,3.942,0,0,1,2.457-.738,3.536,3.536,0,0,1,2.313.758,2.5,2.5,0,0,1,.9,1.977l-2.187-.008a.963.963,0,0,0-1.078-1.1,1.551,1.551,0,0,0-.895.258,1.061,1.061,0,0,0-.465.7q-.117.625.945.883l.313.07a6.285,6.285,0,0,1,1.648.59,2.488,2.488,0,0,1,.879.824,2.04,2.04,0,0,1,.285,1.18,2.251,2.251,0,0,1-.52,1.406,3.18,3.18,0,0,1-1.359.93,4.736,4.736,0,0,1-1.816.3,3.568,3.568,0,0,1-2.344-.809A2.607,2.607,0,0,1-22.2-2.7l2.078.016a1.142,1.142,0,0,0,1.3,1.227,1.845,1.845,0,0,0,1-.25A.987.987,0,0,0-17.348-2.383ZM-10.176.156a3.677,3.677,0,0,1-1.965-.543,3.292,3.292,0,0,1-1.277-1.469,4.093,4.093,0,0,1-.328-2.059l.023-.312A5.465,5.465,0,0,1-13-6.492a4.341,4.341,0,0,1,1.547-1.59,3.827,3.827,0,0,1,2.094-.527,2.924,2.924,0,0,1,2.473,1.2,4.117,4.117,0,0,1,.637,2.962l-.125.962h-5.18a1.814,1.814,0,0,0,.4,1.313,1.521,1.521,0,0,0,1.172.508A2.7,2.7,0,0,0-7.879-2.6l1.008,1.25A3.135,3.135,0,0,1-8.246-.23,4.5,4.5,0,0,1-10.176.156Zm.7-6.945a1.565,1.565,0,0,0-1.082.383A3.363,3.363,0,0,0-11.4-5.023h3.031l.047-.2a2.071,2.071,0,0,0,.008-.594A1.134,1.134,0,0,0-8.7-6.527,1.2,1.2,0,0,0-9.473-6.789Zm9.539.453a4.548,4.548,0,0,0-.742-.078,2.136,2.136,0,0,0-1.867.883L-3.52,0h-2.2l1.469-8.453,2.07-.008-.2,1.031a2.325,2.325,0,0,1,1.969-1.2,3.214,3.214,0,0,1,.766.109ZM3.715-2.789,6.121-8.453H8.5L4.41,0H2.3L.855-8.453H3.09ZM12.1.156a3.677,3.677,0,0,1-1.965-.543A3.292,3.292,0,0,1,8.855-1.855a4.093,4.093,0,0,1-.328-2.059l.023-.312A5.465,5.465,0,0,1,9.27-6.492a4.341,4.341,0,0,1,1.547-1.59,3.827,3.827,0,0,1,2.094-.527,2.924,2.924,0,0,1,2.473,1.2,4.117,4.117,0,0,1,.637,2.962l-.125.962h-5.18a1.814,1.814,0,0,0,.4,1.313,1.521,1.521,0,0,0,1.172.508A2.7,2.7,0,0,0,14.395-2.6L15.4-1.352A3.135,3.135,0,0,1,14.027-.23,4.5,4.5,0,0,1,12.1.156Zm.7-6.945a1.565,1.565,0,0,0-1.082.383,3.363,3.363,0,0,0-.848,1.383H13.9l.047-.2a2.071,2.071,0,0,0,.008-.594,1.134,1.134,0,0,0-.383-.707A1.2,1.2,0,0,0,12.8-6.789Zm9.539.453a4.548,4.548,0,0,0-.742-.078,2.136,2.136,0,0,0-1.867.883L18.754,0h-2.2L18.02-8.453l2.07-.008-.2,1.031a2.325,2.325,0,0,1,1.969-1.2,3.214,3.214,0,0,1,.766.109Z" transform="translate(-4720 2449)" fill="#fff"/>
      <path id="Trazado_808301" data-name="Trazado 808301" d="M-17.348-2.383q.125-.625-.867-.906l-.711-.18q-2.523-.7-2.453-2.453A2.428,2.428,0,0,1-20.32-7.871a3.942,3.942,0,0,1,2.457-.738,3.536,3.536,0,0,1,2.313.758,2.5,2.5,0,0,1,.9,1.977l-2.187-.008a.963.963,0,0,0-1.078-1.1,1.551,1.551,0,0,0-.895.258,1.061,1.061,0,0,0-.465.7q-.117.625.945.883l.313.07a6.285,6.285,0,0,1,1.648.59,2.488,2.488,0,0,1,.879.824,2.04,2.04,0,0,1,.285,1.18,2.251,2.251,0,0,1-.52,1.406,3.18,3.18,0,0,1-1.359.93,4.736,4.736,0,0,1-1.816.3,3.568,3.568,0,0,1-2.344-.809A2.607,2.607,0,0,1-22.2-2.7l2.078.016a1.142,1.142,0,0,0,1.3,1.227,1.845,1.845,0,0,0,1-.25A.987.987,0,0,0-17.348-2.383ZM-10.176.156a3.677,3.677,0,0,1-1.965-.543,3.292,3.292,0,0,1-1.277-1.469,4.093,4.093,0,0,1-.328-2.059l.023-.312A5.465,5.465,0,0,1-13-6.492a4.341,4.341,0,0,1,1.547-1.59,3.827,3.827,0,0,1,2.094-.527,2.924,2.924,0,0,1,2.473,1.2,4.117,4.117,0,0,1,.637,2.962l-.125.962h-5.18a1.814,1.814,0,0,0,.4,1.313,1.521,1.521,0,0,0,1.172.508A2.7,2.7,0,0,0-7.879-2.6l1.008,1.25A3.135,3.135,0,0,1-8.246-.23,4.5,4.5,0,0,1-10.176.156Zm.7-6.945a1.565,1.565,0,0,0-1.082.383A3.363,3.363,0,0,0-11.4-5.023h3.031l.047-.2a2.071,2.071,0,0,0,.008-.594A1.134,1.134,0,0,0-8.7-6.527,1.2,1.2,0,0,0-9.473-6.789Zm9.539.453a4.548,4.548,0,0,0-.742-.078,2.136,2.136,0,0,0-1.867.883L-3.52,0h-2.2l1.469-8.453,2.07-.008-.2,1.031a2.325,2.325,0,0,1,1.969-1.2,3.214,3.214,0,0,1,.766.109ZM3.715-2.789,6.121-8.453H8.5L4.41,0H2.3L.855-8.453H3.09ZM12.1.156a3.677,3.677,0,0,1-1.965-.543A3.292,3.292,0,0,1,8.855-1.855a4.093,4.093,0,0,1-.328-2.059l.023-.312A5.465,5.465,0,0,1,9.27-6.492a4.341,4.341,0,0,1,1.547-1.59,3.827,3.827,0,0,1,2.094-.527,2.924,2.924,0,0,1,2.473,1.2,4.117,4.117,0,0,1,.637,2.962l-.125.962h-5.18a1.814,1.814,0,0,0,.4,1.313,1.521,1.521,0,0,0,1.172.508A2.7,2.7,0,0,0,14.395-2.6L15.4-1.352A3.135,3.135,0,0,1,14.027-.23,4.5,4.5,0,0,1,12.1.156Zm.7-6.945a1.565,1.565,0,0,0-1.082.383,3.363,3.363,0,0,0-.848,1.383H13.9l.047-.2a2.071,2.071,0,0,0,.008-.594,1.134,1.134,0,0,0-.383-.707A1.2,1.2,0,0,0,12.8-6.789Zm9.539.453a4.548,4.548,0,0,0-.742-.078,2.136,2.136,0,0,0-1.867.883L18.754,0h-2.2L18.02-8.453l2.07-.008-.2,1.031a2.325,2.325,0,0,1,1.969-1.2,3.214,3.214,0,0,1,.766.109Z" transform="translate(-4720 2539)" fill="#fff"/>
      <path id="Trazado_808293" data-name="Trazado 808293" d="M-15.836-1.656a1.447,1.447,0,0,0,1.016-.332,1.632,1.632,0,0,0,.531-.926l2.07-.008a3.037,3.037,0,0,1-.559,1.6A3.394,3.394,0,0,1-14.121-.211a3.847,3.847,0,0,1-1.77.375A3.123,3.123,0,0,1-18.328-.9,3.965,3.965,0,0,1-19.2-3.664l.023-.43.008-.086a5.284,5.284,0,0,1,1.391-3.27,3.761,3.761,0,0,1,2.914-1.16,3.047,3.047,0,0,1,2.27.934A3.3,3.3,0,0,1-11.766-5.3H-13.82a1.73,1.73,0,0,0-.3-1.07,1.128,1.128,0,0,0-.891-.422q-1.578-.047-1.914,2.3a7.782,7.782,0,0,0-.086,1.438Q-16.93-1.68-15.836-1.656ZM-9.039,0h-2.219l2.086-12h2.211Zm4.2,0H-7.062l1.469-8.453h2.219Zm-.492-10.6a1.1,1.1,0,0,1,.344-.867,1.209,1.209,0,0,1,.867-.344,1.215,1.215,0,0,1,.867.3,1.1,1.1,0,0,1,.383.828,1.132,1.132,0,0,1-.324.844,1.215,1.215,0,0,1-.887.375,1.235,1.235,0,0,1-.863-.3A1.091,1.091,0,0,1-5.336-10.6ZM1.039.156A3.677,3.677,0,0,1-.926-.387,3.292,3.292,0,0,1-2.2-1.855a4.093,4.093,0,0,1-.328-2.059l.023-.312a5.465,5.465,0,0,1,.719-2.266A4.341,4.341,0,0,1-.242-8.082a3.827,3.827,0,0,1,2.094-.527,2.924,2.924,0,0,1,2.473,1.2,4.117,4.117,0,0,1,.637,2.962l-.125.962H-.344a1.814,1.814,0,0,0,.4,1.313,1.521,1.521,0,0,0,1.172.508A2.7,2.7,0,0,0,3.336-2.6l1.008,1.25A3.135,3.135,0,0,1,2.969-.23,4.5,4.5,0,0,1,1.039.156Zm.7-6.945A1.565,1.565,0,0,0,.66-6.406,3.363,3.363,0,0,0-.187-5.023H2.844l.047-.2A2.071,2.071,0,0,0,2.9-5.82a1.134,1.134,0,0,0-.383-.707A1.2,1.2,0,0,0,1.742-6.789ZM8.977-8.461l-.187,1A3.042,3.042,0,0,1,11.25-8.609a2.028,2.028,0,0,1,1.766.875,3.526,3.526,0,0,1,.414,2.359L12.539,0h-2.2l.906-5.4a2.528,2.528,0,0,0,.016-.555.9.9,0,0,0-1-.82,1.9,1.9,0,0,0-1.555.8L7.648,0h-2.2L6.914-8.453Zm9.758-2.07-.367,2.078h1.406L19.484-6.8H18.078l-.719,4.234a1.077,1.077,0,0,0,.063.609q.109.211.531.227.125.008.672-.039L18.469-.039A3.706,3.706,0,0,1,17.2.141a1.985,1.985,0,0,1-1.617-.68,2.456,2.456,0,0,1-.437-1.8L15.875-6.8h-1.2l.289-1.656h1.2l.359-2.078Z" transform="translate(-4251 2261)" fill="#fff"/>
      <path id="Trazado_808296" data-name="Trazado 808296" d="M-15.836-1.656a1.447,1.447,0,0,0,1.016-.332,1.632,1.632,0,0,0,.531-.926l2.07-.008a3.037,3.037,0,0,1-.559,1.6A3.394,3.394,0,0,1-14.121-.211a3.847,3.847,0,0,1-1.77.375A3.123,3.123,0,0,1-18.328-.9,3.965,3.965,0,0,1-19.2-3.664l.023-.43.008-.086a5.284,5.284,0,0,1,1.391-3.27,3.761,3.761,0,0,1,2.914-1.16,3.047,3.047,0,0,1,2.27.934A3.3,3.3,0,0,1-11.766-5.3H-13.82a1.73,1.73,0,0,0-.3-1.07,1.128,1.128,0,0,0-.891-.422q-1.578-.047-1.914,2.3a7.782,7.782,0,0,0-.086,1.438Q-16.93-1.68-15.836-1.656ZM-9.039,0h-2.219l2.086-12h2.211Zm4.2,0H-7.062l1.469-8.453h2.219Zm-.492-10.6a1.1,1.1,0,0,1,.344-.867,1.209,1.209,0,0,1,.867-.344,1.215,1.215,0,0,1,.867.3,1.1,1.1,0,0,1,.383.828,1.132,1.132,0,0,1-.324.844,1.215,1.215,0,0,1-.887.375,1.235,1.235,0,0,1-.863-.3A1.091,1.091,0,0,1-5.336-10.6ZM1.039.156A3.677,3.677,0,0,1-.926-.387,3.292,3.292,0,0,1-2.2-1.855a4.093,4.093,0,0,1-.328-2.059l.023-.312a5.465,5.465,0,0,1,.719-2.266A4.341,4.341,0,0,1-.242-8.082a3.827,3.827,0,0,1,2.094-.527,2.924,2.924,0,0,1,2.473,1.2,4.117,4.117,0,0,1,.637,2.962l-.125.962H-.344a1.814,1.814,0,0,0,.4,1.313,1.521,1.521,0,0,0,1.172.508A2.7,2.7,0,0,0,3.336-2.6l1.008,1.25A3.135,3.135,0,0,1,2.969-.23,4.5,4.5,0,0,1,1.039.156Zm.7-6.945A1.565,1.565,0,0,0,.66-6.406,3.363,3.363,0,0,0-.187-5.023H2.844l.047-.2A2.071,2.071,0,0,0,2.9-5.82a1.134,1.134,0,0,0-.383-.707A1.2,1.2,0,0,0,1.742-6.789ZM8.977-8.461l-.187,1A3.042,3.042,0,0,1,11.25-8.609a2.028,2.028,0,0,1,1.766.875,3.526,3.526,0,0,1,.414,2.359L12.539,0h-2.2l.906-5.4a2.528,2.528,0,0,0,.016-.555.9.9,0,0,0-1-.82,1.9,1.9,0,0,0-1.555.8L7.648,0h-2.2L6.914-8.453Zm9.758-2.07-.367,2.078h1.406L19.484-6.8H18.078l-.719,4.234a1.077,1.077,0,0,0,.063.609q.109.211.531.227.125.008.672-.039L18.469-.039A3.706,3.706,0,0,1,17.2.141a1.985,1.985,0,0,1-1.617-.68,2.456,2.456,0,0,1-.437-1.8L15.875-6.8h-1.2l.289-1.656h1.2l.359-2.078Z" transform="translate(-4251 2355)" fill="#fff"/>
      <path id="Trazado_808299" data-name="Trazado 808299" d="M-15.836-1.656a1.447,1.447,0,0,0,1.016-.332,1.632,1.632,0,0,0,.531-.926l2.07-.008a3.037,3.037,0,0,1-.559,1.6A3.394,3.394,0,0,1-14.121-.211a3.847,3.847,0,0,1-1.77.375A3.123,3.123,0,0,1-18.328-.9,3.965,3.965,0,0,1-19.2-3.664l.023-.43.008-.086a5.284,5.284,0,0,1,1.391-3.27,3.761,3.761,0,0,1,2.914-1.16,3.047,3.047,0,0,1,2.27.934A3.3,3.3,0,0,1-11.766-5.3H-13.82a1.73,1.73,0,0,0-.3-1.07,1.128,1.128,0,0,0-.891-.422q-1.578-.047-1.914,2.3a7.782,7.782,0,0,0-.086,1.438Q-16.93-1.68-15.836-1.656ZM-9.039,0h-2.219l2.086-12h2.211Zm4.2,0H-7.062l1.469-8.453h2.219Zm-.492-10.6a1.1,1.1,0,0,1,.344-.867,1.209,1.209,0,0,1,.867-.344,1.215,1.215,0,0,1,.867.3,1.1,1.1,0,0,1,.383.828,1.132,1.132,0,0,1-.324.844,1.215,1.215,0,0,1-.887.375,1.235,1.235,0,0,1-.863-.3A1.091,1.091,0,0,1-5.336-10.6ZM1.039.156A3.677,3.677,0,0,1-.926-.387,3.292,3.292,0,0,1-2.2-1.855a4.093,4.093,0,0,1-.328-2.059l.023-.312a5.465,5.465,0,0,1,.719-2.266A4.341,4.341,0,0,1-.242-8.082a3.827,3.827,0,0,1,2.094-.527,2.924,2.924,0,0,1,2.473,1.2,4.117,4.117,0,0,1,.637,2.962l-.125.962H-.344a1.814,1.814,0,0,0,.4,1.313,1.521,1.521,0,0,0,1.172.508A2.7,2.7,0,0,0,3.336-2.6l1.008,1.25A3.135,3.135,0,0,1,2.969-.23,4.5,4.5,0,0,1,1.039.156Zm.7-6.945A1.565,1.565,0,0,0,.66-6.406,3.363,3.363,0,0,0-.187-5.023H2.844l.047-.2A2.071,2.071,0,0,0,2.9-5.82a1.134,1.134,0,0,0-.383-.707A1.2,1.2,0,0,0,1.742-6.789ZM8.977-8.461l-.187,1A3.042,3.042,0,0,1,11.25-8.609a2.028,2.028,0,0,1,1.766.875,3.526,3.526,0,0,1,.414,2.359L12.539,0h-2.2l.906-5.4a2.528,2.528,0,0,0,.016-.555.9.9,0,0,0-1-.82,1.9,1.9,0,0,0-1.555.8L7.648,0h-2.2L6.914-8.453Zm9.758-2.07-.367,2.078h1.406L19.484-6.8H18.078l-.719,4.234a1.077,1.077,0,0,0,.063.609q.109.211.531.227.125.008.672-.039L18.469-.039A3.706,3.706,0,0,1,17.2.141a1.985,1.985,0,0,1-1.617-.68,2.456,2.456,0,0,1-.437-1.8L15.875-6.8h-1.2l.289-1.656h1.2l.359-2.078Z" transform="translate(-4251 2449)" fill="#fff"/>
      <path id="Trazado_808303" data-name="Trazado 808303" d="M-15.836-1.656a1.447,1.447,0,0,0,1.016-.332,1.632,1.632,0,0,0,.531-.926l2.07-.008a3.037,3.037,0,0,1-.559,1.6A3.394,3.394,0,0,1-14.121-.211a3.847,3.847,0,0,1-1.77.375A3.123,3.123,0,0,1-18.328-.9,3.965,3.965,0,0,1-19.2-3.664l.023-.43.008-.086a5.284,5.284,0,0,1,1.391-3.27,3.761,3.761,0,0,1,2.914-1.16,3.047,3.047,0,0,1,2.27.934A3.3,3.3,0,0,1-11.766-5.3H-13.82a1.73,1.73,0,0,0-.3-1.07,1.128,1.128,0,0,0-.891-.422q-1.578-.047-1.914,2.3a7.782,7.782,0,0,0-.086,1.438Q-16.93-1.68-15.836-1.656ZM-9.039,0h-2.219l2.086-12h2.211Zm4.2,0H-7.062l1.469-8.453h2.219Zm-.492-10.6a1.1,1.1,0,0,1,.344-.867,1.209,1.209,0,0,1,.867-.344,1.215,1.215,0,0,1,.867.3,1.1,1.1,0,0,1,.383.828,1.132,1.132,0,0,1-.324.844,1.215,1.215,0,0,1-.887.375,1.235,1.235,0,0,1-.863-.3A1.091,1.091,0,0,1-5.336-10.6ZM1.039.156A3.677,3.677,0,0,1-.926-.387,3.292,3.292,0,0,1-2.2-1.855a4.093,4.093,0,0,1-.328-2.059l.023-.312a5.465,5.465,0,0,1,.719-2.266A4.341,4.341,0,0,1-.242-8.082a3.827,3.827,0,0,1,2.094-.527,2.924,2.924,0,0,1,2.473,1.2,4.117,4.117,0,0,1,.637,2.962l-.125.962H-.344a1.814,1.814,0,0,0,.4,1.313,1.521,1.521,0,0,0,1.172.508A2.7,2.7,0,0,0,3.336-2.6l1.008,1.25A3.135,3.135,0,0,1,2.969-.23,4.5,4.5,0,0,1,1.039.156Zm.7-6.945A1.565,1.565,0,0,0,.66-6.406,3.363,3.363,0,0,0-.187-5.023H2.844l.047-.2A2.071,2.071,0,0,0,2.9-5.82a1.134,1.134,0,0,0-.383-.707A1.2,1.2,0,0,0,1.742-6.789ZM8.977-8.461l-.187,1A3.042,3.042,0,0,1,11.25-8.609a2.028,2.028,0,0,1,1.766.875,3.526,3.526,0,0,1,.414,2.359L12.539,0h-2.2l.906-5.4a2.528,2.528,0,0,0,.016-.555.9.9,0,0,0-1-.82,1.9,1.9,0,0,0-1.555.8L7.648,0h-2.2L6.914-8.453Zm9.758-2.07-.367,2.078h1.406L19.484-6.8H18.078l-.719,4.234a1.077,1.077,0,0,0,.063.609q.109.211.531.227.125.008.672-.039L18.469-.039A3.706,3.706,0,0,1,17.2.141a1.985,1.985,0,0,1-1.617-.68,2.456,2.456,0,0,1-.437-1.8L15.875-6.8h-1.2l.289-1.656h1.2l.359-2.078Z" transform="translate(-4251 2539)" fill="#fff"/>
      <g id="Grupo_1067532" data-name="Grupo 1067532" transform="translate(-5291 -11025.333)">
        <line id="Línea_2048" data-name="Línea 2048" x2="190" transform="translate(705 13281.5)" fill="none" stroke="#fb405f" stroke-width="2" stroke-dasharray="6 2"/>
        <circle id="Elipse_4865" data-name="Elipse 4865" cx="6" cy="6" r="6" transform="translate(889 13275)" fill="#fb405f"/>
        <path id="Trazado_808198" data-name="Trazado 808198" d="M-3120,1574.333l-12,10,12,9" transform="translate(3837 11697)" fill="none" stroke="#fb405f" stroke-linecap="round" stroke-width="2"/>
      </g>
      <g id="Grupo_1067545" data-name="Grupo 1067545" transform="translate(-3661 15833.333) rotate(180)">
        <line id="Línea_2048-2" data-name="Línea 2048" x2="241" transform="translate(705 13281.5)" fill="none" stroke="#fb405f" stroke-width="2" stroke-dasharray="6 2"/>
        <circle id="Elipse_4865-2" data-name="Elipse 4865" cx="6" cy="6" r="6" transform="translate(940 13275)" fill="#fb405f"/>
        <path id="Trazado_808198-2" data-name="Trazado 808198" d="M-3120,1574.333l-12,10,12,9" transform="translate(3837 11697)" fill="none" stroke="#fb405f" stroke-linecap="round" stroke-width="2"/>
      </g>
      <g id="Grupo_1067542" data-name="Grupo 1067542" transform="translate(-4140 15647.332) rotate(180)">
        <line id="Línea_2048-3" data-name="Línea 2048" x2="145" transform="translate(705 13281.5)" fill="none" stroke="#fb405f" stroke-width="2" stroke-dasharray="6 2"/>
        <circle id="Elipse_4865-3" data-name="Elipse 4865" cx="6" cy="6" r="6" transform="translate(844 13275)" fill="#fb405f"/>
        <path id="Trazado_808198-3" data-name="Trazado 808198" d="M-3120,1574.333l-12,10,12,9" transform="translate(3837 11697)" fill="none" stroke="#fb405f" stroke-linecap="round" stroke-width="2"/>
      </g>
      <g id="Grupo_1067543" data-name="Grupo 1067543" transform="translate(-4140 15737.332) rotate(180)">
        <line id="Línea_2048-4" data-name="Línea 2048" x2="145" transform="translate(705 13281.5)" fill="none" stroke="#fb405f" stroke-width="2" stroke-dasharray="6 2"/>
        <circle id="Elipse_4865-4" data-name="Elipse 4865" cx="6" cy="6" r="6" transform="translate(844 13275)" fill="#fb405f"/>
        <path id="Trazado_808198-4" data-name="Trazado 808198" d="M-3120,1574.333l-12,10,12,9" transform="translate(3837 11697)" fill="none" stroke="#fb405f" stroke-linecap="round" stroke-width="2"/>
      </g>
      <g id="Grupo_1067544" data-name="Grupo 1067544" transform="translate(-4140 15827.332) rotate(180)">
        <line id="Línea_2048-5" data-name="Línea 2048" x2="145" transform="translate(705 13281.5)" fill="none" stroke="#fb405f" stroke-width="2" stroke-dasharray="6 2"/>
        <circle id="Elipse_4865-5" data-name="Elipse 4865" cx="6" cy="6" r="6" transform="translate(844 13275)" fill="#fb405f"/>
        <path id="Trazado_808198-5" data-name="Trazado 808198" d="M-3120,1574.333l-12,10,12,9" transform="translate(3837 11697)" fill="none" stroke="#fb405f" stroke-linecap="round" stroke-width="2"/>
      </g>
      <line id="Línea_2049" data-name="Línea 2049" x1="263" transform="translate(-4622.5 2340)" fill="none" stroke="#fb405f" stroke-width="2"/>
      <line id="Línea_2050" data-name="Línea 2050" x1="263" transform="translate(-4622.5 2439)" fill="none" stroke="#fb405f" stroke-width="2"/>
      <line id="Línea_2051" data-name="Línea 2051" x1="263" transform="translate(-4622.5 2524)" fill="none" stroke="#fb405f" stroke-width="2"/>
    </g>
  </g>
</svg>
