<svg id="Grupo_1067040" data-name="Grupo 1067040" xmlns="http://www.w3.org/2000/svg" xmlns:xlink="http://www.w3.org/1999/xlink" width="227.255" height="61.654" viewBox="0 0 227.255 61.654">
  <defs>
    <clipPath id="clip-path">
      <rect id="Rectángulo_375810" data-name="Rectángulo 375810" width="227.255" height="61.653" fill="none"/>
    </clipPath>
  </defs>
  <g id="Grupo_1067039" data-name="Grupo 1067039" clip-path="url(#clip-path)">
    <path id="Trazado_806987" data-name="Trazado 806987" d="M193.995,57.735q4.747.46,9.484.977l6.968-17.2L217.07,60.3q5.1.639,10.181,1.339L215.64,28.685,227.255,0h-9.837l-.1.141-6.275,15.5L205.532,0h-9.713l10.027,28.456L194,57.735Zm-7.346-.674V0H176.94V56.26q4.858.375,9.709.8m-72.935-3.19c2.621,0,5.239.02,7.852.041V32.949h11.664V24.022H121.568V8.939H135V0h-23.18V53.877c.629,0,1.262-.01,1.894-.008m-30.145.545q4.852-.173,9.715-.291V8.941h9.075V0H74.494V8.941h9.077V54.415ZM9.314,60.432V26.438l11.5,32.621q5.3-.6,10.627-1.123V0H22.12V35.215L9.715,0H0v61.65H.058q4.617-.639,9.255-1.222M65.132,8.939V0H41.95V56.97q11.57-1,23.164-1.675V46.351q-6.722.391-13.416.895V32.952H63.361V24.02H51.7V8.939Zm89.111,36.985V0h-9.752V54.448q11.636.427,23.185,1.182V46.68q-6.7-.433-13.433-.758" fill="#b81d24"/>
  </g>
</svg>
