<svg id="Grupo_1067262" data-name="Grupo 1067262" xmlns="http://www.w3.org/2000/svg" xmlns:xlink="http://www.w3.org/1999/xlink" width="350.191" height="304.993" viewBox="0 0 350.191 304.993">
  <defs>
    <clipPath id="clip-path">
      <rect id="Rectángulo_375971" data-name="Rectángulo 375971" width="350.191" height="304.993" fill="none"/>
    </clipPath>
    <clipPath id="clip-path-3">
      <rect id="Rectángulo_375964" data-name="Rectángulo 375964" width="323.95" height="73.35" transform="translate(24.66 37.49)" fill="none"/>
    </clipPath>
    <clipPath id="clip-path-4">
      <rect id="Rectángulo_375965" data-name="Rectángulo 375965" width="96.612" height="29.327" transform="translate(26.48 24.19)" fill="none"/>
    </clipPath>
    <clipPath id="clip-path-5">
      <rect id="Rectángulo_375966" data-name="Rectángulo 375966" width="21.801" height="21.8" transform="translate(148.144 44.515)" fill="none"/>
    </clipPath>
    <clipPath id="clip-path-6">
      <rect id="Rectángulo_375967" data-name="Rectángulo 375967" width="13.18" height="1.68" transform="translate(277.32 302.41)" fill="none"/>
    </clipPath>
    <clipPath id="clip-path-7">
      <rect id="Rectángulo_375968" data-name="Rectángulo 375968" width="5" height="3.524" transform="translate(326.61 301.176)" fill="none"/>
    </clipPath>
    <clipPath id="clip-path-8">
      <rect id="Rectángulo_375969" data-name="Rectángulo 375969" width="22.694" height="2.373" transform="translate(326.71 302.62)" fill="none"/>
    </clipPath>
  </defs>
  <g id="Grupo_1067261" data-name="Grupo 1067261" clip-path="url(#clip-path)">
    <g id="Grupo_1067260" data-name="Grupo 1067260">
      <g id="Grupo_1067259" data-name="Grupo 1067259" clip-path="url(#clip-path)">
        <path id="Trazado_807322" data-name="Trazado 807322" d="M327.08,0H9.9A9.9,9.9,0,0,0,0,9.9v224a9.9,9.9,0,0,0,9.9,9.9H131.61s7.75,23.95-16.26,36.34H229.2s-27.11-9.29-20.14-36.34h118a9.9,9.9,0,0,0,9.9-9.9V9.9A9.9,9.9,0,0,0,327.08,0" fill="#263238"/>
        <path id="Trazado_807323" data-name="Trazado 807323" d="M172.72,220.27c4.32,6.17-2.43,12.92-8.6,8.61a2.223,2.223,0,0,1-.53-.53c-4.31-6.17,2.44-12.91,8.6-8.61a2.054,2.054,0,0,1,.53.53" fill="#455a64"/>
        <path id="Trazado_807324" data-name="Trazado 807324" d="M10.43,13.43H325.89a3.27,3.27,0,0,1,3.27,3.27V201.16a3.27,3.27,0,0,1-3.27,3.27H10.43a3.27,3.27,0,0,1-3.27-3.27V16.7a3.27,3.27,0,0,1,3.27-3.27" fill="#fafafa"/>
        <path id="Trazado_807325" data-name="Trazado 807325" d="M325.89,204.93H10.43a3.77,3.77,0,0,1-3.77-3.77V16.7a3.77,3.77,0,0,1,3.77-3.77H325.89a3.77,3.77,0,0,1,3.77,3.77V201.2a3.77,3.77,0,0,1-3.77,3.73M10.43,13.93A2.779,2.779,0,0,0,7.66,16.7V201.2a2.77,2.77,0,0,0,2.77,2.77H325.89a2.77,2.77,0,0,0,2.77-2.77V16.7a2.779,2.779,0,0,0-2.77-2.77Z" fill="#fff"/>
        <path id="Trazado_807326" data-name="Trazado 807326" d="M33.61,20.81a2.58,2.58,0,1,1-2.59-2.57h.01a2.58,2.58,0,0,1,2.58,2.57" fill="#455a64"/>
        <path id="Trazado_807327" data-name="Trazado 807327" d="M17.98,20.81a2.59,2.59,0,1,1,0-.04v.04" fill="#455a64"/>
        <circle id="Elipse_4804" data-name="Elipse 4804" cx="2.57" cy="2.57" r="2.57" transform="matrix(0.729, -0.685, 0.685, 0.729, 19.257, 20.696)" fill="#455a64"/>
        <path id="Trazado_807328" data-name="Trazado 807328" d="M229.18,118.28c0,.14-26.73.26-59.7.26s-59.7-.12-59.7-.26,26.72-.26,59.7-.26,59.7.12,59.7.26" fill="#263238"/>
        <path id="Trazado_807329" data-name="Trazado 807329" d="M200.14,122.39c0,.15-14.32.26-32,.26s-32-.11-32-.26,14.32-.26,32-.26,32,.12,32,.26" fill="#263238"/>
        <rect id="Rectángulo_375961" data-name="Rectángulo 375961" width="76.21" height="49.71" transform="translate(38.94 140.09)" fill="#4be5f1"/>
        <path id="Trazado_807330" data-name="Trazado 807330" d="M50,149.94a3.06,3.06,0,1,1-3.07-3.05h.01A3.051,3.051,0,0,1,50,149.93v.01" fill="#fafafa"/>
        <path id="Trazado_807331" data-name="Trazado 807331" d="M111.02,152.51l-2.51-2.46-2.33,2.39-.08-7.12,4.84-.05Zm-2.51-2.76.08.07,2.21,2.16-.07-6.49h-4.41l.07,6.37Z" fill="#fafafa"/>
        <path id="Trazado_807332" data-name="Trazado 807332" d="M91.82,148.32c0,.15-8.37.26-18.69.26s-18.69-.11-18.69-.26,8.37-.26,18.69-.26,18.69.14,18.69.26" fill="#fafafa"/>
        <path id="Trazado_807333" data-name="Trazado 807333" d="M68.85,152.51a50.913,50.913,0,0,1-7.21.26,50.773,50.773,0,0,1-7.2-.26,50.775,50.775,0,0,1,7.2-.26,50.916,50.916,0,0,1,7.21.26" fill="#fafafa"/>
        <rect id="Rectángulo_375962" data-name="Rectángulo 375962" width="76.21" height="49.71" transform="translate(131.37 140.09)" fill="#455a64"/>
        <path id="Trazado_807334" data-name="Trazado 807334" d="M206.61,195.57c0,.15-16.48.26-36.82.26s-36.82-.11-36.82-.26,16.48-.26,36.82-.26,36.82.12,36.82.26" fill="#263238"/>
        <path id="Trazado_807335" data-name="Trazado 807335" d="M139.37,146.89a3.05,3.05,0,1,1-3.05,3.05,3.051,3.051,0,0,1,3.05-3.05" fill="#fafafa"/>
        <path id="Trazado_807336" data-name="Trazado 807336" d="M203.45,152.51l-2.51-2.46-2.33,2.39-.08-7.12,4.84-.05Zm-2.51-2.76.07.07,2.21,2.16-.07-6.49h-4.4l.07,6.37Z" fill="#fafafa"/>
        <path id="Trazado_807337" data-name="Trazado 807337" d="M184.25,148.32c0,.15-8.37.26-18.69.26s-18.7-.11-18.7-.26,8.37-.26,18.7-.26,18.69.14,18.69.26" fill="#fafafa"/>
        <path id="Trazado_807338" data-name="Trazado 807338" d="M161.28,152.51a100,100,0,0,1-14.42,0,100,100,0,0,1,14.42,0" fill="#fafafa"/>
        <rect id="Rectángulo_375963" data-name="Rectángulo 375963" width="76.21" height="49.71" transform="translate(223.8 140.09)" fill="#4be5f1"/>
        <path id="Trazado_807339" data-name="Trazado 807339" d="M299.01,195.57c0,.15-16.49.26-36.82.26s-36.83-.11-36.83-.26,16.49-.26,36.83-.26,36.82.12,36.82.26" fill="#263238"/>
        <path id="Trazado_807340" data-name="Trazado 807340" d="M234.85,149.94a3.05,3.05,0,1,1-3.05-3.05,3,3,0,0,1,3.05,2.949c0,.034,0,.067,0,.1" fill="#fafafa"/>
        <path id="Trazado_807341" data-name="Trazado 807341" d="M295.88,152.51l-2.51-2.46-2.34,2.39-.07-7.12,4.84-.05Zm-2.52-2.76.08.07,2.21,2.16-.07-6.49h-4.4l.07,6.37Z" fill="#fafafa"/>
        <path id="Trazado_807342" data-name="Trazado 807342" d="M276.68,148.32c0,.15-8.37.26-18.69.26s-18.7-.11-18.7-.26,8.37-.26,18.7-.26,18.69.14,18.69.26" fill="#fafafa"/>
        <path id="Trazado_807343" data-name="Trazado 807343" d="M253.71,152.51a100,100,0,0,1-14.42,0,100,100,0,0,1,14.42,0" fill="#fafafa"/>
        <circle id="Elipse_4805" data-name="Elipse 4805" cx="10.57" cy="10.57" r="10.57" transform="translate(305.52 155.04)" fill="#e0e0e0"/>
        <path id="Trazado_807344" data-name="Trazado 807344" d="M314.49,170.11a9.853,9.853,0,0,1,1.48-1.37c.95-.82,2.28-1.92,3.76-3.12v.28l-.07-.06c-1.46-1.27-2.77-2.43-3.7-3.29a10.569,10.569,0,0,1-1.46-1.44,11.752,11.752,0,0,1,1.63,1.24c1,.81,2.32,1.94,3.78,3.2l.07.07.17.15-.17.14c-1.49,1.2-2.84,2.27-3.83,3a11.05,11.05,0,0,1-1.66,1.2" fill="#263238"/>
        <path id="Trazado_807345" data-name="Trazado 807345" d="M10.75,165.61a10.58,10.58,0,1,1,0,.02v-.02" fill="#e0e0e0"/>
        <path id="Trazado_807346" data-name="Trazado 807346" d="M22.92,161.11a9.9,9.9,0,0,1-1.48,1.37c-1,.81-2.28,1.92-3.76,3.12v-.29l.07.07c1.46,1.26,2.77,2.43,3.7,3.28a10.261,10.261,0,0,1,1.46,1.45,11.752,11.752,0,0,1-1.63-1.24c-1-.81-2.32-1.94-3.78-3.21l-.07-.06-.17-.15.17-.14c1.49-1.2,2.84-2.28,3.83-3a11.372,11.372,0,0,1,1.66-1.2" fill="#263238"/>
        <path id="Trazado_807347" data-name="Trazado 807347" d="M26.84,24.2l-.36,12.48.36-12.48,96.19,3c.7,5.1-4.6,9.2-9.69,10s-10.31-.38-15.43.26C87.69,38.72,79.82,46.9,70.34,50.9c-15.57,6.58-35.28.41-43.86-14.16l-1.87,64.84.1-3.25c11.05-18.28,34.63-26.59,56-26.62s42.1,6.46,63,10.75,43.45,6.25,63-2.38c15.73-6.94,27.87-20,42.51-29,29.71-18.35,69.94-18,99.34.82l-1.71,59L24.61,101.58l322.61,9.51,2.24-77.38ZM158.73,66.31a10.9,10.9,0,1,1,11.21-10.581h0a10.891,10.891,0,0,1-11.191,10.581h-.019" fill="#4be5f1"/>
        <path id="Trazado_807348" data-name="Trazado 807348" d="M348.61,51.85c-29.4-18.84-69.63-19.17-99.34-.82-14.64,9-26.78,22.11-42.51,29-19.54,8.63-42.07,6.67-63,2.38s-41.67-10.78-63-10.75S35.82,80,24.76,98.28l-.1,3.25,322.25,9.31Zm-171.28,45a.938.938,0,1,1,.044.024c-.031,0-.063,0-.094,0Zm8,.24a.9.9,0,1,1,.021.021h-.031Zm8,.23a1.27,1.27,0,1,1,1.3-1.239v.009a1.27,1.27,0,0,1-1.27,1.25ZM316.81,76.5a3.55,3.55,0,1,1,.122-5.019l.018.019a3.55,3.55,0,0,1-.109,5.019h0Z" fill="#4be5f1"/>
        <g id="Grupo_1067243" data-name="Grupo 1067243" opacity="0.3">
          <g id="Grupo_1067242" data-name="Grupo 1067242">
            <g id="Grupo_1067241" data-name="Grupo 1067241" clip-path="url(#clip-path-3)">
              <path id="Trazado_807349" data-name="Trazado 807349" d="M348.61,51.85c-29.4-18.84-69.63-19.17-99.34-.82-14.64,9-26.78,22.11-42.51,29-19.54,8.63-42.07,6.67-63,2.38s-41.67-10.78-63-10.75S35.82,80,24.76,98.28l-.1,3.25,322.25,9.31Zm-171.28,45a.938.938,0,1,1,.044.024c-.031,0-.063,0-.094,0Zm8,.24a.9.9,0,1,1,.021.021h-.031Zm8,.23a1.27,1.27,0,1,1,1.3-1.239v.009a1.27,1.27,0,0,1-1.27,1.25ZM316.81,76.5a3.55,3.55,0,1,1,.122-5.019l.018.019a3.55,3.55,0,0,1-.109,5.019h0Z"/>
            </g>
          </g>
        </g>
        <path id="Trazado_807350" data-name="Trazado 807350" d="M177.36,94.34a1.27,1.27,0,1,0,1.23,1.309V95.64a1.27,1.27,0,0,0-1.23-1.3" fill="#263238"/>
        <path id="Trazado_807351" data-name="Trazado 807351" d="M185.39,94.57a1.27,1.27,0,1,0,1.23,1.309V95.87a1.26,1.26,0,0,0-1.219-1.3h-.011" fill="#263238"/>
        <path id="Trazado_807352" data-name="Trazado 807352" d="M193.43,94.8a1.281,1.281,0,1,0,.021,0h-.021" fill="#263238"/>
        <path id="Trazado_807353" data-name="Trazado 807353" d="M70.34,50.89c9.48-4,17.35-12.18,27.57-13.44,5.12-.64,10.35.57,15.43-.26s10.39-4.93,9.69-10l-96.19-3-.36,12.48v.05C35.06,51.3,54.77,57.47,70.34,50.89" fill="#4be5f1"/>
        <g id="Grupo_1067246" data-name="Grupo 1067246" opacity="0.3">
          <g id="Grupo_1067245" data-name="Grupo 1067245">
            <g id="Grupo_1067244" data-name="Grupo 1067244" clip-path="url(#clip-path-4)">
              <path id="Trazado_807354" data-name="Trazado 807354" d="M70.34,50.89c9.48-4,17.35-12.18,27.57-13.44,5.12-.64,10.35.57,15.43-.26s10.39-4.93,9.69-10l-96.19-3-.36,12.48v.05C35.06,51.3,54.77,57.47,70.34,50.89" fill="#fff"/>
            </g>
          </g>
        </g>
        <path id="Trazado_807355" data-name="Trazado 807355" d="M159.36,44.52a10.9,10.9,0,1,0,10.58,11.211h0a10.9,10.9,0,0,0-10.58-11.21" fill="#4be5f1"/>
        <g id="Grupo_1067249" data-name="Grupo 1067249" opacity="0.3">
          <g id="Grupo_1067248" data-name="Grupo 1067248">
            <g id="Grupo_1067247" data-name="Grupo 1067247" clip-path="url(#clip-path-5)">
              <path id="Trazado_807356" data-name="Trazado 807356" d="M159.36,44.52a10.9,10.9,0,1,0,10.58,11.211h0a10.9,10.9,0,0,0-10.58-11.21"/>
            </g>
          </g>
        </g>
        <path id="Trazado_807357" data-name="Trazado 807357" d="M311.96,71.35a3.55,3.55,0,1,0,5.018.159l-.018-.019a3.55,3.55,0,0,0-5-.14" fill="#4be5f1"/>
        <path id="Trazado_807358" data-name="Trazado 807358" d="M299.99,111.26c2.67-4.48,3.44-10.45,4.13-15.61.32-2.43.89-5.9-.82-7.42s-2-4.15-4.09-5.41a6.469,6.469,0,0,0-7,.06" fill="#263238"/>
        <path id="Trazado_807359" data-name="Trazado 807359" d="M292.61,127.11h0a7.19,7.19,0,0,1-7.724-6.613c-.007-.092-.012-.185-.016-.277-.15-3.92-.28-7.88-.28-7.88s-5.93-.55-6.36-6.43-.24-19.43-.24-19.43a20.472,20.472,0,0,1,20.69,1.33l-.37,20.67V119.6c-.06,3.73-2,7.23-5.7,7.51" fill="#ffbe9d"/>
        <path id="Trazado_807360" data-name="Trazado 807360" d="M284.06,98.74a3,3,0,0,1,4-.87,3.39,3.39,0,0,1,1.14,4.26,4.452,4.452,0,0,1-2.88,2.18,2.28,2.28,0,0,0-1.77,2.43c.17,1.48,2.63,2,3.73,3.25,1.72,1.9,5.5,2.7,8.05,3s2.2.32,3.65-1.73a7.912,7.912,0,0,0,1.43-4.77l.27-13a18.626,18.626,0,0,0-.3-4.66,6.258,6.258,0,0,0-2.46-3.86c-1.42-.94-3.23-1-4.86-1.55-2-.65-3.76-2-5.67-3s-4.23-1.55-6.14-.59c-1.37.69-2.29,2.05-3.63,2.81-1.9,1.08-4.48.84-5.4,3.63a4.71,4.71,0,0,0,0,3c1.29,3.8,6,5.33,9.38,3.69.07.64-.57,2.07.11,4.1.22.65.3,1.64,1.31,1.66" fill="#263238"/>
        <path id="Trazado_807361" data-name="Trazado 807361" d="M285.11,102.41a1.087,1.087,0,0,0,.74.25,1.35,1.35,0,0,0,1-1.31,1.44,1.44,0,0,0-1-1.43c-.47-.19-.82-.11-.84-.19s.32-.29.94-.17a1.732,1.732,0,0,1,.94.54,1.762,1.762,0,0,1-1.12,2.93.933.933,0,0,1-.67-.35c-.02-.15-.02-.26.01-.27" fill="#eb996e"/>
        <path id="Trazado_807362" data-name="Trazado 807362" d="M302.05,94.9a7.248,7.248,0,0,1,5-3.84,6.179,6.179,0,0,1,5.87,2.14,5.35,5.35,0,0,1,.26,6.13c-1.42,2.07-4.14,2.71-6.62,3a10.171,10.171,0,0,0,7.25,3.48,6.611,6.611,0,0,1-6.72.32l4,3.45a9,9,0,0,1-7.4-16.09" fill="#263238"/>
        <path id="Trazado_807363" data-name="Trazado 807363" d="M305.76,102.09a2.307,2.307,0,0,1-2.1,0,5.111,5.111,0,0,1-2.94-4,5.412,5.412,0,0,1,1.62-4.75,3.346,3.346,0,0,1,1.82-1.06,14.954,14.954,0,0,0-1.55,1.22,5.388,5.388,0,0,0-1.38,4.42,5,5,0,0,0,2.58,3.79,4.478,4.478,0,0,0,1.95.38" fill="#4be5f1"/>
        <path id="Trazado_807364" data-name="Trazado 807364" d="M314.27,96.2a5.6,5.6,0,0,0-1.66-1.1,9,9,0,0,0-4.78-.16,12.381,12.381,0,0,0-4.46,1.9c-1,.69-1.59,1.27-1.65,1.21a4.511,4.511,0,0,1,1.43-1.51,11.008,11.008,0,0,1,4.58-2.11,8.411,8.411,0,0,1,5,.33c1.25.57,1.59,1.44,1.54,1.44" fill="#455a64"/>
        <path id="Trazado_807365" data-name="Trazado 807365" d="M312.49,100.13a2.794,2.794,0,0,1-1.43.4,6.76,6.76,0,0,1-6.25-2.92c-.51-.77-.66-1.33-.6-1.35a13.678,13.678,0,0,1,.89,1.13,7.908,7.908,0,0,0,2.66,2.06,7.721,7.721,0,0,0,3.28.71,9,9,0,0,1,1.45-.03" fill="#455a64"/>
        <path id="Trazado_807366" data-name="Trazado 807366" d="M303.54,108.01a3.478,3.478,0,0,1-1.53-1,7.66,7.66,0,0,1-2.1-8.15,3.554,3.554,0,0,1,.87-1.6c.07,0-.25.65-.52,1.7a8.239,8.239,0,0,0,2,7.79c.75.81,1.35,1.19,1.28,1.26" fill="#455a64"/>
        <path id="Trazado_807367" data-name="Trazado 807367" d="M291.22,84.7a3.067,3.067,0,0,1,2.28-1.22,5.174,5.174,0,0,1,2.83.42,6.5,6.5,0,0,1,2.61,2.33,13.067,13.067,0,0,1,1.82,6,12.771,12.771,0,0,1,.12,2.57,12.247,12.247,0,0,1-.49-2.53,14.247,14.247,0,0,0-1.88-5.72,6.243,6.243,0,0,0-2.39-2.18,4.926,4.926,0,0,0-2.58-.49,5.4,5.4,0,0,0-2.32.82" fill="#455a64"/>
        <path id="Trazado_807368" data-name="Trazado 807368" d="M274.69,90.71a1.15,1.15,0,0,1-.82-.27,2.049,2.049,0,0,1-.89-2.14,2.249,2.249,0,0,1,1-1.4,3.24,3.24,0,0,1,1.88-.37,2.546,2.546,0,0,0,1.75-.45,12.79,12.79,0,0,0,1.43-1.54,7.364,7.364,0,0,1,3.68-2.12,7.832,7.832,0,0,1,3.46-.07,6.639,6.639,0,0,1,2.17.85c.46.3.68.51.66.53a10.989,10.989,0,0,0-2.9-1,7.556,7.556,0,0,0-3.27.17,7.07,7.07,0,0,0-3.42,2,10.84,10.84,0,0,1-1.51,1.6,2.359,2.359,0,0,1-1,.46,5.234,5.234,0,0,1-1,.06,2.749,2.749,0,0,0-1.64.26,1.819,1.819,0,0,0-.19,3c.2.153.4.3.61.43" fill="#455a64"/>
        <path id="Trazado_807369" data-name="Trazado 807369" d="M290.4,107.05a7.733,7.733,0,0,1,.77-.48,4.985,4.985,0,0,0,1.58-1.79,4.482,4.482,0,0,0,.26-3.42,4.585,4.585,0,0,0-1.06-1.74,8.477,8.477,0,0,0-1.83-1.34c-.68-.4-1.38-.77-2-1.2a6.922,6.922,0,0,1-1.64-1.55,7.125,7.125,0,0,1-1.37-3.49,6.188,6.188,0,0,1,.21-2.52,2.076,2.076,0,0,1,.37-.85,8.991,8.991,0,0,0-.21,3.32,6.944,6.944,0,0,0,1.38,3.25,10.833,10.833,0,0,0,3.54,2.59,8.886,8.886,0,0,1,1.93,1.43,4.635,4.635,0,0,1,1.15,2,4.741,4.741,0,0,1-.39,3.74,4.624,4.624,0,0,1-1.8,1.78,2.057,2.057,0,0,1-.89.27" fill="#455a64"/>
        <path id="Trazado_807370" data-name="Trazado 807370" d="M300.61,98.43a4.64,4.64,0,0,1-.75.19,11.828,11.828,0,0,1-2.12.08,13.078,13.078,0,0,1-6.57-2.25,10.351,10.351,0,0,1-4.31-5.44,4.5,4.5,0,0,1-.07-2.14,1.662,1.662,0,0,1,.31-.72,5.463,5.463,0,0,0,.12,2.76,10.726,10.726,0,0,0,4.24,5.11,13.912,13.912,0,0,0,6.31,2.31c1.71.2,2.84,0,2.84.1" fill="#455a64"/>
        <path id="Trazado_807371" data-name="Trazado 807371" d="M280.23,297.76l-2.93,6.19,13.11-.16.58-6.55Z" fill="#4be5f1"/>
        <path id="Trazado_807372" data-name="Trazado 807372" d="M290.66,302.55a8.617,8.617,0,0,1-1.91.15h-4.6l-4.6-.15a9.406,9.406,0,0,1-1.91-.15,7.95,7.95,0,0,1,1.91-.15h4.61l4.59.14a9.41,9.41,0,0,1,1.91.16" fill="#263238"/>
        <path id="Trazado_807373" data-name="Trazado 807373" d="M285.04,296.99a9.123,9.123,0,0,1,.06,2.76,9.722,9.722,0,0,1-.36,2.74,9.156,9.156,0,0,1-.06-2.76,9.722,9.722,0,0,1,.36-2.74" fill="#263238"/>
        <g id="Grupo_1067252" data-name="Grupo 1067252" opacity="0.6">
          <g id="Grupo_1067251" data-name="Grupo 1067251">
            <g id="Grupo_1067250" data-name="Grupo 1067250" clip-path="url(#clip-path-6)">
              <path id="Trazado_807374" data-name="Trazado 807374" d="M277.32,304.09l13.1-.44.08-1.24-12.52.1-.66,1.43" fill="#fff"/>
            </g>
          </g>
        </g>
        <path id="Trazado_807375" data-name="Trazado 807375" d="M337.19,300.3,316.81,183.07a2.388,2.388,0,0,0-.13-.51c-3.48-13.78-6.22-17.16-6.22-17.16l-33.85.9c-2.65,4.77-3,16.23-3,16.23-.36,1.41,6.6,115.24,6.6,115.24l10.45-.29,5.67-107.7,30.28,110.76Z" fill="#ffbe9d"/>
        <path id="Trazado_807376" data-name="Trazado 807376" d="M223.61,107.33c-.08-2.14.82-6.23,1.33-6.55s1.1.29.86.9a7.842,7.842,0,0,0-.32,2.13,4.946,4.946,0,0,0,.2,1.71c.14.48.28.9.41,1.28l.23.69,22.39,20,14-.86,2.78,14.28-22.76-2L219.32,113.2c-2-1.42-4-3.17-5.28-4-2.3-1.5-1.64-1.91-1.36-2.15Z" fill="#ffbe9d"/>
        <path id="Trazado_807377" data-name="Trazado 807377" d="M349.33,95.41l-13.94,28.47-14,5.95-5.22-12.57,10.25-2.71,15.95-25.46V87.04a5.246,5.246,0,0,0-.29-1.72,7.68,7.68,0,0,0-.89-2c-.41-.52,0-1.27.58-1.11s1.72,1.57,2.23,3.64,1.89-.95,2.42-2,2.29-4.38,2.75-4.47c.67-.15,1,.56.41,1.64s-2,4.42-1.39,4.69l1-.06.78,3.86a9.217,9.217,0,0,1-.64,5.9" fill="#ffbe9d"/>
        <path id="Trazado_807378" data-name="Trazado 807378" d="M340.18,301.41l-.05-1.33-13.54.39.12,4.4h.84c3.72.09,18.94.22,21.4-.54,2.75-.83-8.77-2.92-8.77-2.92" fill="#4be5f1"/>
        <g id="Grupo_1067255" data-name="Grupo 1067255" opacity="0.6">
          <g id="Grupo_1067254" data-name="Grupo 1067254">
            <g id="Grupo_1067253" data-name="Grupo 1067253" clip-path="url(#clip-path-7)">
              <path id="Trazado_807379" data-name="Trazado 807379" d="M331.61,304.64a4.308,4.308,0,0,0-1.8-2.62,4.807,4.807,0,0,0-3.2-.82l.11,3.5Z" fill="#fff"/>
            </g>
          </g>
        </g>
        <g id="Grupo_1067258" data-name="Grupo 1067258" opacity="0.6">
          <g id="Grupo_1067257" data-name="Grupo 1067257">
            <g id="Grupo_1067256" data-name="Grupo 1067256" clip-path="url(#clip-path-8)">
              <path id="Trazado_807380" data-name="Trazado 807380" d="M345.81,302.62s4,1,3.56,1.59-15.86,1-22.66.66v-.28l17.95-.33s.37-1.59,1.15-1.64" fill="#fff"/>
            </g>
          </g>
        </g>
        <path id="Trazado_807381" data-name="Trazado 807381" d="M326.51,304.59h3.35c2.07,0,4.93,0,8.09-.08s6-.21,8.08-.33l2.45-.16.66-.06h-.67l-2.44.11c-2.07.09-4.93.21-8.08.29s-6,.11-8.09.12h-3.35Z" fill="#263238"/>
        <path id="Trazado_807382" data-name="Trazado 807382" d="M344.67,304.46a4.621,4.621,0,0,1,.43-1.1,5.393,5.393,0,0,1,.8-.9,1.869,1.869,0,0,0-.95.82,1.617,1.617,0,0,0-.28,1.18" fill="#263238"/>
        <path id="Trazado_807383" data-name="Trazado 807383" d="M340.61,302.69a2.692,2.692,0,0,0,.41-.5c.19-.3.31-.54.27-.57s-.22.2-.41.5a2.024,2.024,0,0,0-.27.57" fill="#263238"/>
        <path id="Trazado_807384" data-name="Trazado 807384" d="M339.53,302.2a2.208,2.208,0,0,0,.47-.31c.23-.2.38-.39.35-.42s-.24.11-.46.31a1.415,1.415,0,0,0-.36.42" fill="#263238"/>
        <path id="Trazado_807385" data-name="Trazado 807385" d="M338.81,301.01c0,.05.31.08.7.07a1.717,1.717,0,0,0,.7-.09,3.548,3.548,0,0,0-1.4,0Z" fill="#263238"/>
        <path id="Trazado_807386" data-name="Trazado 807386" d="M338.54,300.2a1.6,1.6,0,0,0,.8.19,1.448,1.448,0,0,0,.8-.12,3.964,3.964,0,0,0-.8,0,3.7,3.7,0,0,0-.8-.07" fill="#263238"/>
        <path id="Trazado_807387" data-name="Trazado 807387" d="M341.06,301.58a2.445,2.445,0,0,0,.87,0,4.657,4.657,0,0,0,.91-.21,2.61,2.61,0,0,0,.53-.22.43.43,0,0,0,.2-.25.31.31,0,0,0-.14-.32,1.661,1.661,0,0,0-2,.48,1.4,1.4,0,0,0-.26.55v.22a2.253,2.253,0,0,1,.37-.7,1.568,1.568,0,0,1,.73-.47,1.457,1.457,0,0,1,1,0c.14.09.09.24-.06.33a2.627,2.627,0,0,1-.48.21,6.656,6.656,0,0,1-.88.24c-.46.11-.79.12-.79.14" fill="#263238"/>
        <path id="Trazado_807388" data-name="Trazado 807388" d="M341.29,301.62a.83.83,0,0,0,.08-.57,1.361,1.361,0,0,0-.25-.58.921.921,0,0,0-.74-.39.31.31,0,0,0-.255.357l.005.023a.843.843,0,0,0,.16.36,2.438,2.438,0,0,0,.42.47,1.17,1.17,0,0,0,.51.31s-.18-.14-.43-.38a3.313,3.313,0,0,1-.37-.48c-.13-.16-.22-.47,0-.51s.44.17.58.33a1.315,1.315,0,0,1,.26.51,3.61,3.61,0,0,1,.03.55" fill="#263238"/>
        <path id="Trazado_807389" data-name="Trazado 807389" d="M326.68,301.2h1a4.66,4.66,0,0,1,2.2.78,4.173,4.173,0,0,1,1.41,1.74c.22.53.25.89.28.89a.7.7,0,0,0,0-.25,2.961,2.961,0,0,0-.16-.67,3.994,3.994,0,0,0-1.43-1.84,4.363,4.363,0,0,0-2.28-.76,3.814,3.814,0,0,0-.74,0Z" fill="#263238"/>
        <path id="Trazado_807390" data-name="Trazado 807390" d="M333.25,303.38a11.845,11.845,0,0,0,3.94-.07c0-.05-.89,0-2,0a11.425,11.425,0,0,0-1.94.07" fill="#263238"/>
        <path id="Trazado_807391" data-name="Trazado 807391" d="M330.61,303.44l.17.36c.09.19.15.35.2.34s.06-.19,0-.41a.45.45,0,0,0-.37-.29" fill="#263238"/>
        <path id="Trazado_807392" data-name="Trazado 807392" d="M329.61,302.32a.769.769,0,0,0,.2.28c.14.12.29.21.32.18s-.06-.16-.2-.29-.32-.2-.32-.17" fill="#263238"/>
        <path id="Trazado_807393" data-name="Trazado 807393" d="M328.14,301.83a1.058,1.058,0,0,1,.39.09c.2.09.35.16.38.13s-.08-.2-.33-.27-.45.01-.44.05" fill="#263238"/>
        <path id="Trazado_807394" data-name="Trazado 807394" d="M327.12,301.61a.359.359,0,0,0,.18.14.4.4,0,0,0,.23,0c.02,0-.06-.1-.18-.14s-.21-.04-.23,0" fill="#263238"/>
        <path id="Trazado_807395" data-name="Trazado 807395" d="M307.45,140.52l.41-1.5c1-.65,13.27-8.28,13.73-8.35s-5.45-14-5.45-14l-13.92,2a22.3,22.3,0,0,0-3.93-.48l-13.2-.11s-5.91.7-7.79,2.07l-14.8,5.59,3.35,17.22,12.9-2.27c-.63,1.76,0,4.82.52,8.3.67,4.29,1,10.28-1.15,14,0,0-2.73,9.41-2.73,16.89l37.85-4.42s-.11-8.13-7.6-17.78l.35-10.17Z" fill="#263238"/>
        <path id="Trazado_807396" data-name="Trazado 807396" d="M279.96,136.2a21.7,21.7,0,0,1-.57-3.27l.29.12-3.57,2.65-.36.27v-.45c-.09-1.11-.19-2.31-.29-3.56l.41.2-.17.11-3.94,2.62-.27.18-.09-.3a13.1,13.1,0,0,1-.62-3.37l.27.16a5.484,5.484,0,0,0-1.93,1.45,7.737,7.737,0,0,1-.58.71,2.226,2.226,0,0,1,.42-.83,5.151,5.151,0,0,1,1.93-1.67l.24-.12v.28a13.871,13.871,0,0,0,.7,3.24l-.36-.12,3.92-2.66.17-.11.37-.25v.44c.09,1.25.18,2.45.26,3.57l-.39-.19,3.65-2.54.26-.19v.31a21.2,21.2,0,0,1,.25,3.32" fill="#fafafa"/>
        <path id="Trazado_807397" data-name="Trazado 807397" d="M298.95,129.7a20.877,20.877,0,0,1-2.25-2.45l.31-.05-1.57,4.17-.15.41-.27-.35-2.17-2.84.44-.05-.07.18c-.68,1.54-1.31,3-1.9,4.34l-.12.29-.25-.2a12.675,12.675,0,0,1-2.34-2.49h.31a5.357,5.357,0,0,0-.83,2.27c-.08.58-.06.9-.1.91a1.99,1.99,0,0,1-.11-.93,5.164,5.164,0,0,1,.72-2.44l.14-.23.17.21a13.588,13.588,0,0,0,2.34,2.35l-.36.1c.57-1.35,1.19-2.82,1.85-4.36l.08-.19.17-.41.27.36,2.15,2.85-.43.06,1.69-4.12.12-.29.19.24a21.772,21.772,0,0,1,1.97,2.66" fill="#fafafa"/>
        <path id="Trazado_807398" data-name="Trazado 807398" d="M282.76,140.33a20.475,20.475,0,0,1-1,3.18l-.2-.24,4.38-.77.44-.08-.17.41c-.42,1-.87,2.15-1.33,3.31l-.28-.35h.2l4.7-.58h.31v.31a13.143,13.143,0,0,1-1,3.29l-.17-.25a5.615,5.615,0,0,0,2.38-.44,7.673,7.673,0,0,1,.83-.38,2,2,0,0,1-.75.56,5.163,5.163,0,0,1-2.47.63h-.26l.1-.26a14.616,14.616,0,0,0,.83-3.22l.26.27-4.69.63h-.2l-.45.06.17-.41,1.37-3.3.26.33-4.4.65-.31.05.11-.29a23.409,23.409,0,0,1,1.34-3.11" fill="#fafafa"/>
        <path id="Trazado_807399" data-name="Trazado 807399" d="M305.16,121.26a20.472,20.472,0,0,1-1,3.18l-.2-.24,4.38-.77.43-.08-.16.41-1.34,3.31-.27-.35h.2l4.7-.58h.31v.31a12.707,12.707,0,0,1-1,3.29l-.16-.26a5.458,5.458,0,0,0,2.37-.43,7.3,7.3,0,0,1,.83-.38,2.738,2.738,0,0,1-.74.56,5.083,5.083,0,0,1-2.47.62h-.27l.1-.26a13.571,13.571,0,0,0,.83-3.22l.27.27-4.7.63h-.2l-.44.06.17-.41c.48-1.16.94-2.27,1.36-3.3l.27.33-4.4.65h-.32l.12-.28a20.4,20.4,0,0,1,1.33-3.06" fill="#fafafa"/>
        <path id="Trazado_807400" data-name="Trazado 807400" d="M277.72,121.74a20.33,20.33,0,0,1,1.34,3l-.31-.05c.82-1,1.78-2.16,2.83-3.44l.28-.34.14.43,1.13,3.38-.44-.09.14-.15,3.2-3.49.21-.23.16.26a13.056,13.056,0,0,1,1.41,3.18l-.29-.08a5.613,5.613,0,0,0,1.52-1.88,5.649,5.649,0,0,1,.39-.82,2.28,2.28,0,0,1-.21.9,5.128,5.128,0,0,1-1.47,2.08l-.2.18-.09-.26a14.087,14.087,0,0,0-1.46-3h.38l-3.17,3.52-.13.15-.31.33-.13-.43-1.11-3.39.42.08-2.93,3.35-.2.24-.11-.29a21.71,21.71,0,0,1-.99-3.14" fill="#fafafa"/>
        <path id="Trazado_807401" data-name="Trazado 807401" d="M297.81,138.48a20.125,20.125,0,0,1,2.64,2l-.29.1c.24-1.28.51-2.75.82-4.37l.08-.44.32.31c.83.75,1.71,1.57,2.63,2.41l-.43.13v-.19c.39-1.63.77-3.18,1.11-4.61l.08-.3.27.15a13.122,13.122,0,0,1,2.74,2.06l-.3.06a5.52,5.52,0,0,0,.43-2.37,6.6,6.6,0,0,1-.06-.91,2,2,0,0,1,.26.89,5.157,5.157,0,0,1-.29,2.53l-.09.25-.2-.18a14.215,14.215,0,0,0-2.72-1.91l.35-.16c-.33,1.43-.7,3-1.08,4.62v.19l-.1.44-.33-.31-2.61-2.43.41-.14c-.35,1.62-.67,3.08-1,4.35l-.06.31-.23-.21a23.324,23.324,0,0,1-2.35-2.27" fill="#fafafa"/>
        <path id="Trazado_807402" data-name="Trazado 807402" d="M299.77,146.88a21.355,21.355,0,0,1-2.85,1.71v-.31l3.76,2.37.37.23-.4.2-3.21,1.55v-.45l.16.12,3.87,2.73.26.18-.24.2a13.621,13.621,0,0,1-2.88,1.79v-.3a5.437,5.437,0,0,0,2.06,1.27,8.558,8.558,0,0,1,.87.28,2,2,0,0,1-.93-.09,5.253,5.253,0,0,1-2.25-1.19l-.2-.18.25-.13a13.509,13.509,0,0,0,2.77-1.82v.38l-3.9-2.69-.16-.12-.37-.26.4-.19,3.23-1.53v.43l-3.69-2.48-.26-.17.27-.14a21.721,21.721,0,0,1,3.07-1.39" fill="#fafafa"/>
        <path id="Trazado_807403" data-name="Trazado 807403" d="M279.27,161.4a20.8,20.8,0,0,1,3.14,1.1l-.25.19c-.17-1.29-.37-2.78-.58-4.41l-.06-.44.4.18,3.25,1.48-.36.26v-.2c-.13-1.67-.26-3.26-.37-4.72v-.31l.31.06a12.885,12.885,0,0,1,3.24,1.1l-.26.15a5.592,5.592,0,0,0-.34-2.39,9.008,9.008,0,0,1-.34-.85,1.994,1.994,0,0,1,.53.77,5.305,5.305,0,0,1,.52,2.5v.26l-.26-.11a14.164,14.164,0,0,0-3.17-1l.28-.25.42,4.72v.64l-.4-.18-3.24-1.51.35-.25c.16,1.64.32,3.13.45,4.42v.32l-.28-.13a21.289,21.289,0,0,1-2.98-1.4" fill="#fafafa"/>
        <path id="Trazado_807404" data-name="Trazado 807404" d="M278.12,120.37a2.344,2.344,0,0,1,1.05-.05,6.155,6.155,0,0,1,2.7,1,7.74,7.74,0,0,1,2.81,3.19,11.165,11.165,0,0,1,1.09,5.09,13.238,13.238,0,0,1-3.45,8.63,12.246,12.246,0,0,1-2.16,1.86,3.479,3.479,0,0,1-.93.48,21.149,21.149,0,0,0,2.82-2.58,13.526,13.526,0,0,0,3.2-8.4,10.992,10.992,0,0,0-1-4.87,7.551,7.551,0,0,0-2.58-3.09,7.382,7.382,0,0,0-3.55-1.26" fill="#455a64"/>
        <path id="Trazado_807405" data-name="Trazado 807405" d="M276,166.79c-9.86,31.11,1.61,69.82-1.39,106.07-.28,3.33-1.56,7.27,1,9.42a6.2,6.2,0,0,0,5.5.89,42.482,42.482,0,0,0,5.36-2.14,21.569,21.569,0,0,1,14.29-.55c3.15,1,6.27,2.71,9.52,2.22,4.33-.66,7.13-4.93,11.11-6.74,3.73-1.7,8-1.07,12.13-1.17s8.78-1.46,10.34-5.25c0,0-28.28-105.61-38.19-111.91L279.4,159.3Z" fill="#455a64"/>
        <path id="Trazado_807406" data-name="Trazado 807406" d="M305.31,186.12c0,.11-3.74,1.18-8.42,2.39s-8.49,2.11-8.52,2a87.516,87.516,0,0,1,8.42-2.4c4.67-1.21,8.49-2.1,8.52-1.99" fill="#263238"/>
      </g>
    </g>
  </g>
</svg>
