<svg xmlns="http://www.w3.org/2000/svg" xmlns:xlink="http://www.w3.org/1999/xlink" width="85" height="118" viewBox="0 0 85 118">
  <defs>
    <clipPath id="clip-path">
      <rect id="Rect치ngulo_375973" data-name="Rect치ngulo 375973" width="85" height="85" transform="translate(180.333 3176.333)" fill="#fff"/>
    </clipPath>
  </defs>
  <g id="Grupo_1067369" data-name="Grupo 1067369" transform="translate(-180 -3182)">
    <rect id="Rect치ngulo_375972" data-name="Rect치ngulo 375972" width="85" height="63" transform="translate(180 3237)" fill="#fb405f"/>
    <g id="Enmascarar_grupo_56" data-name="Enmascarar grupo 56" transform="translate(-0.333 5.667)" clip-path="url(#clip-path)">
      <g id="Layer_54" transform="translate(179.945 3179.546)">
        <g id="Grupo_1067368" data-name="Grupo 1067368" transform="translate(0 0)">
          <g id="Grupo_1067265" data-name="Grupo 1067265" transform="translate(23.178 74.023)">
            <g id="Grupo_1067264" data-name="Grupo 1067264">
              <path id="Trazado_807407" data-name="Trazado 807407" d="M36.21,77.51v-.588H24.825a1.857,1.857,0,1,0,0,3.713H39.334A3.134,3.134,0,0,1,36.21,77.51Z" transform="translate(-22.969 -76.922)" fill="#edf4fc"/>
            </g>
          </g>
          <g id="Grupo_1067267" data-name="Grupo 1067267" transform="translate(31.122 65.514)">
            <g id="Grupo_1067266" data-name="Grupo 1067266">
              <path id="Trazado_807408" data-name="Trazado 807408" d="M30.84,68.49h5.3V77h-5.3Z" transform="translate(-30.84 -68.49)" fill="#c7d7e5"/>
            </g>
          </g>
          <g id="Grupo_1067269" data-name="Grupo 1067269" transform="translate(36.42 23.451)">
            <g id="Grupo_1067268" data-name="Grupo 1067268">
              <path id="Trazado_807409" data-name="Trazado 807409" d="M60.919,77.5V45.518a3.6,3.6,0,0,1,3.594-3.594H76.087V29.932a3.134,3.134,0,0,0-3.124-3.124H39.215a3.134,3.134,0,0,0-3.124,3.124V77.968a3.134,3.134,0,0,0,3.124,3.124h25.3A3.6,3.6,0,0,1,60.919,77.5Z" transform="translate(-36.09 -26.807)" fill="#5290db"/>
            </g>
          </g>
          <g id="Grupo_1067271" data-name="Grupo 1067271" transform="translate(0.838 8.04)">
            <g id="Grupo_1067270" data-name="Grupo 1067270">
              <path id="Trazado_807410" data-name="Trazado 807410" d="M36.412,30.071a3.134,3.134,0,0,1,3.124-3.124H73.284a3.134,3.134,0,0,1,3.124,3.124V15.5a3.976,3.976,0,0,0-3.964-3.964H4.794A3.975,3.975,0,0,0,.83,15.5V65.047A3.975,3.975,0,0,0,4.794,69.01H36.412Z" transform="translate(-0.83 -11.536)" fill="#5290db"/>
            </g>
          </g>
          <g id="Grupo_1067273" data-name="Grupo 1067273" transform="translate(61.248 38.568)">
            <g id="Grupo_1067272" data-name="Grupo 1067272">
              <path id="Trazado_807411" data-name="Trazado 807411" d="M80.79,41.788h-16.5a3.6,3.6,0,0,0-3.594,3.594v31.98a3.6,3.6,0,0,0,3.594,3.594h16.5a3.6,3.6,0,0,0,3.594-3.594V45.382a3.6,3.6,0,0,0-3.594-3.594Z" transform="translate(-60.694 -41.788)" fill="#5290db"/>
            </g>
          </g>
          <g id="Grupo_1067275" data-name="Grupo 1067275" transform="translate(64.406 41.727)">
            <g id="Grupo_1067274" data-name="Grupo 1067274">
              <path id="Trazado_807412" data-name="Trazado 807412" d="M80.143,44.918h-3.7a1.25,1.25,0,0,0-1.166.778,2.98,2.98,0,0,1-5.539,0,1.25,1.25,0,0,0-1.166-.778h-3.7a1.054,1.054,0,0,0-1.054,1.054V76.714a1.054,1.054,0,0,0,1.054,1.054H80.143A1.054,1.054,0,0,0,81.2,76.714V45.972A1.053,1.053,0,0,0,80.143,44.918Z" transform="translate(-63.824 -44.918)" fill="#edf4fc"/>
            </g>
          </g>
          <g id="Grupo_1067277" data-name="Grupo 1067277" transform="translate(39.83 26.861)">
            <g id="Grupo_1067276" data-name="Grupo 1067276">
              <path id="Trazado_807413" data-name="Trazado 807413" d="M60.888,77.468V45.488a3.6,3.6,0,0,1,3.594-3.594h8.163V30.5a.308.308,0,0,0-.309-.308H39.778a.309.309,0,0,0-.309.308V77.343a.308.308,0,0,0,.309.308H60.9C60.894,77.59,60.888,77.53,60.888,77.468Z" transform="translate(-39.47 -30.187)" fill="#edf4fc"/>
            </g>
          </g>
          <g id="Grupo_1067279" data-name="Grupo 1067279" transform="translate(0.838 54.944)">
            <g id="Grupo_1067278" data-name="Grupo 1067278">
              <path id="Trazado_807414" data-name="Trazado 807414" d="M36.412,58.016H.83v6.606a3.975,3.975,0,0,0,3.964,3.964H36.412Z" transform="translate(-0.83 -58.016)" fill="#edf4fc"/>
            </g>
          </g>
          <g id="Grupo_1067281" data-name="Grupo 1067281" transform="translate(4.141 11.343)">
            <g id="Grupo_1067280" data-name="Grupo 1067280" transform="translate(0 0)">
              <path id="Trazado_807415" data-name="Trazado 807415" d="M36.382,30.041a3.134,3.134,0,0,1,3.124-3.124H73.075V15.47a.662.662,0,0,0-.661-.66H4.764a.663.663,0,0,0-.661.66V58.41H36.382Z" transform="translate(-4.103 -14.809)" fill="#edf4fc"/>
            </g>
          </g>
          <g id="Grupo_1067283" data-name="Grupo 1067283" transform="translate(4.141 11.343)">
            <g id="Grupo_1067282" data-name="Grupo 1067282" transform="translate(0 0)">
              <path id="Trazado_807416" data-name="Trazado 807416" d="M72.415,14.809H4.764a.663.663,0,0,0-.661.661V18.8H73.075V15.47A.663.663,0,0,0,72.415,14.809Z" transform="translate(-4.103 -14.809)" fill="#5290db"/>
            </g>
          </g>
          <g id="Grupo_1067285" data-name="Grupo 1067285" transform="translate(4.141 11.343)">
            <g id="Grupo_1067284" data-name="Grupo 1067284">
              <path id="Trazado_807417" data-name="Trazado 807417" d="M9.512,14.809H4.764a.663.663,0,0,0-.661.661V18.8H9.512Z" transform="translate(-4.103 -14.809)" fill="#fc657e"/>
            </g>
          </g>
          <g id="Grupo_1067287" data-name="Grupo 1067287" transform="translate(8.209 35.099)">
            <g id="Grupo_1067286" data-name="Grupo 1067286">
              <path id="Trazado_807418" data-name="Trazado 807418" d="M19.941,54.433H9.4a1.261,1.261,0,0,1-1.261-1.261V39.611A1.261,1.261,0,0,1,9.4,38.35H19.941A1.261,1.261,0,0,1,21.2,39.611v13.56A1.261,1.261,0,0,1,19.941,54.433Z" transform="translate(-8.135 -38.35)" fill="#70d6f9"/>
            </g>
          </g>
          <g id="Grupo_1067289" data-name="Grupo 1067289" transform="translate(24.962 35.098)">
            <g id="Grupo_1067288" data-name="Grupo 1067288">
              <path id="Trazado_807419" data-name="Trazado 807419" d="M36.194,54.433V38.35H26a1.261,1.261,0,0,0-1.261,1.261v13.56A1.261,1.261,0,0,0,26,54.432h10.2Z" transform="translate(-24.736 -38.35)" fill="#f5c84c"/>
            </g>
          </g>
          <g id="Grupo_1067291" data-name="Grupo 1067291" transform="translate(67.23 59.28)">
            <g id="Grupo_1067290" data-name="Grupo 1067290">
              <path id="Trazado_807420" data-name="Trazado 807420" d="M77.377,62.312H67.593a.971.971,0,0,0-.971.971V65.7a.971.971,0,0,0,.971.971h9.784a.971.971,0,0,0,.971-.971v-2.42A.972.972,0,0,0,77.377,62.312Z" transform="translate(-66.622 -62.312)" fill="#f5c84c"/>
            </g>
          </g>
          <g id="Grupo_1067293" data-name="Grupo 1067293" transform="translate(67.23 66.865)">
            <g id="Grupo_1067292" data-name="Grupo 1067292">
              <path id="Trazado_807421" data-name="Trazado 807421" d="M77.377,69.828H67.593a.971.971,0,0,0-.971.971v2.42a.971.971,0,0,0,.971.971h9.784a.971.971,0,0,0,.971-.971V70.8A.971.971,0,0,0,77.377,69.828Z" transform="translate(-66.622 -69.828)" fill="#fc657e"/>
            </g>
          </g>
          <g id="Grupo_1067296" data-name="Grupo 1067296" transform="translate(67.23 51.695)">
            <g id="Grupo_1067295" data-name="Grupo 1067295">
              <g id="Grupo_1067294" data-name="Grupo 1067294">
                <path id="Trazado_807422" data-name="Trazado 807422" d="M77.377,54.8H67.593a.971.971,0,0,0-.971.971v2.42a.971.971,0,0,0,.971.971h9.784a.971.971,0,0,0,.971-.971v-2.42A.971.971,0,0,0,77.377,54.8Z" transform="translate(-66.622 -54.796)" fill="#70d6f9"/>
              </g>
            </g>
          </g>
          <g id="Grupo_1067298" data-name="Grupo 1067298" transform="translate(43.741 39.724)">
            <g id="Grupo_1067297" data-name="Grupo 1067297">
              <path id="Trazado_807423" data-name="Trazado 807423" d="M44.626,42.933a1.281,1.281,0,0,0-1.281,1.281v4.971a1.281,1.281,0,0,0,1.281,1.281H60.852V45.372a3.575,3.575,0,0,1,.965-2.438H44.626Z" transform="translate(-43.345 -42.933)" fill="#70d6f9"/>
            </g>
          </g>
          <g id="Grupo_1067300" data-name="Grupo 1067300" transform="translate(43.741 51.284)">
            <g id="Grupo_1067299" data-name="Grupo 1067299">
              <path id="Trazado_807424" data-name="Trazado 807424" d="M44.626,54.388a1.281,1.281,0,0,0-1.281,1.281V60.64a1.281,1.281,0,0,0,1.281,1.281H60.852V54.389H44.626Z" transform="translate(-43.345 -54.388)" fill="#f5c84c"/>
            </g>
          </g>
          <g id="Grupo_1067302" data-name="Grupo 1067302" transform="translate(43.741 62.843)">
            <g id="Grupo_1067301" data-name="Grupo 1067301">
              <path id="Trazado_807425" data-name="Trazado 807425" d="M44.626,65.843a1.281,1.281,0,0,0-1.281,1.281v4.971a1.281,1.281,0,0,0,1.281,1.281H60.852V65.844H44.626Z" transform="translate(-43.345 -65.843)" fill="#fc657e"/>
            </g>
          </g>
          <g id="Grupo_1067304" data-name="Grupo 1067304" transform="translate(80.75 20.271)">
            <g id="Grupo_1067303" data-name="Grupo 1067303">
              <path id="Trazado_807426" data-name="Trazado 807426" d="M85,26.066A3.01,3.01,0,0,1,82.586,23.7a.054.054,0,0,0-.107,0,3.01,3.01,0,0,1-2.413,2.364.053.053,0,0,0,0,.1,3.01,3.01,0,0,1,2.413,2.364.054.054,0,0,0,.107,0A3.01,3.01,0,0,1,85,26.171.053.053,0,0,0,85,26.066Z" transform="translate(-80.019 -23.656)" fill="#f5c84c"/>
            </g>
          </g>
          <g id="Grupo_1067306" data-name="Grupo 1067306" transform="translate(42.467)">
            <g id="Grupo_1067305" data-name="Grupo 1067305">
              <path id="Trazado_807427" data-name="Trazado 807427" d="M46.568,5.739a2.712,2.712,0,0,1-2.174-2.129.049.049,0,0,0-.1,0,2.711,2.711,0,0,1-2.174,2.129.048.048,0,0,0,0,.094A2.712,2.712,0,0,1,44.3,7.963a.049.049,0,0,0,.1,0,2.712,2.712,0,0,1,2.174-2.13A.048.048,0,0,0,46.568,5.739Z" transform="translate(-42.083 -3.569)" fill="#fc657e"/>
            </g>
          </g>
          <g id="Grupo_1067308" data-name="Grupo 1067308" transform="translate(14.168 69.358)">
            <g id="Grupo_1067307" data-name="Grupo 1067307">
              <path id="Trazado_807428" data-name="Trazado 807428" d="M15.1,74.138h.781v-.781a1.058,1.058,0,1,1,2.116,0v.781h.78a1.058,1.058,0,0,1,0,2.116h-.78v.781a1.058,1.058,0,0,1-2.116,0v-.781H15.1a1.058,1.058,0,0,1,0-2.116Z" transform="translate(-14.04 -72.299)" fill="#70d6f9"/>
            </g>
          </g>
          <g id="Grupo_1067310" data-name="Grupo 1067310" transform="translate(79.86 27.892)">
            <g id="Grupo_1067309" data-name="Grupo 1067309">
              <circle id="Elipse_4806" data-name="Elipse 4806" cx="1.132" cy="1.132" r="1.132" fill="#87d147"/>
            </g>
          </g>
          <g id="Grupo_1067312" data-name="Grupo 1067312" transform="translate(35.297 2.427)">
            <g id="Grupo_1067311" data-name="Grupo 1067311">
              <circle id="Elipse_4807" data-name="Elipse 4807" cx="1.132" cy="1.132" r="1.132" fill="#70d6f9"/>
            </g>
          </g>
          <g id="Grupo_1067314" data-name="Grupo 1067314" transform="translate(7.152 68.77)">
            <g id="Grupo_1067313" data-name="Grupo 1067313">
              <circle id="Elipse_4808" data-name="Elipse 4808" cx="1.132" cy="1.132" r="1.132" fill="#f5c84c"/>
            </g>
          </g>
          <g id="Grupo_1067316" data-name="Grupo 1067316" transform="translate(22.341 73.185)">
            <g id="Grupo_1067315" data-name="Grupo 1067315">
              <path id="Trazado_807429" data-name="Trazado 807429" d="M39.342,81.48H24.833a2.694,2.694,0,1,1,0-5.388H35.995a.838.838,0,0,1,0,1.675H24.833a1.019,1.019,0,1,0,0,2.038H39.342a.838.838,0,1,1,0,1.675Z" transform="translate(-22.139 -76.092)"/>
            </g>
          </g>
          <g id="Grupo_1067318" data-name="Grupo 1067318" transform="translate(30.284 64.933)">
            <g id="Grupo_1067317" data-name="Grupo 1067317">
              <path id="Trazado_807430" data-name="Trazado 807430" d="M30.848,77.586a.838.838,0,0,1-.838-.838v-8a.838.838,0,0,1,1.675,0v8A.838.838,0,0,1,30.848,77.586Z" transform="translate(-30.01 -67.914)"/>
            </g>
          </g>
          <g id="Grupo_1067320" data-name="Grupo 1067320" transform="translate(35.582 22.613)">
            <g id="Grupo_1067319" data-name="Grupo 1067319">
              <path id="Trazado_807431" data-name="Trazado 807431" d="M64.52,81.938h-25.3a3.967,3.967,0,0,1-3.962-3.962V29.939a3.967,3.967,0,0,1,3.962-3.962H72.969a3.967,3.967,0,0,1,3.962,3.962V41.715a.838.838,0,0,1-1.675,0V29.939a2.289,2.289,0,0,0-2.287-2.287H39.222a2.289,2.289,0,0,0-2.287,2.287V77.975a2.289,2.289,0,0,0,2.287,2.287h25.3a.838.838,0,1,1,0,1.675Z" transform="translate(-35.26 -25.977)"/>
            </g>
          </g>
          <g id="Grupo_1067322" data-name="Grupo 1067322" transform="translate(0 7.202)">
            <g id="Grupo_1067321" data-name="Grupo 1067321">
              <path id="Trazado_807432" data-name="Trazado 807432" d="M36.229,69.856H4.8a4.807,4.807,0,0,1-4.8-4.8V15.507a4.807,4.807,0,0,1,4.8-4.8H72.452a4.807,4.807,0,0,1,4.8,4.8V30.078a.838.838,0,1,1-1.675,0V15.507a3.129,3.129,0,0,0-3.126-3.126H4.8a3.129,3.129,0,0,0-3.126,3.126V65.054A3.13,3.13,0,0,0,4.8,68.18H36.229a.838.838,0,1,1,0,1.675Z" transform="translate(0 -10.706)"/>
            </g>
          </g>
          <g id="Grupo_1067324" data-name="Grupo 1067324" transform="translate(60.41 37.73)">
            <g id="Grupo_1067323" data-name="Grupo 1067323">
              <path id="Trazado_807433" data-name="Trazado 807433" d="M80.8,81.8H64.3a4.436,4.436,0,0,1-4.432-4.432V45.389A4.436,4.436,0,0,1,64.3,40.958H80.8a4.436,4.436,0,0,1,4.432,4.432v31.98A4.436,4.436,0,0,1,80.8,81.8ZM64.3,42.633a2.759,2.759,0,0,0-2.756,2.756v31.98A2.759,2.759,0,0,0,64.3,80.125H80.8a2.759,2.759,0,0,0,2.756-2.756V45.389A2.759,2.759,0,0,0,80.8,42.633Z" transform="translate(-59.864 -40.958)"/>
            </g>
          </g>
          <g id="Grupo_1067326" data-name="Grupo 1067326" transform="translate(9.382 18.513)">
            <g id="Grupo_1067325" data-name="Grupo 1067325">
              <path id="Trazado_807434" data-name="Trazado 807434" d="M12.145,23.589h-2.01a.838.838,0,0,1,0-1.675h2.01a.838.838,0,1,1,0,1.675Z" transform="translate(-9.297 -21.914)"/>
            </g>
          </g>
          <g id="Grupo_1067328" data-name="Grupo 1067328" transform="translate(15.245 18.513)">
            <g id="Grupo_1067327" data-name="Grupo 1067327">
              <path id="Trazado_807435" data-name="Trazado 807435" d="M17.955,23.589h-2.01a.838.838,0,1,1,0-1.675h2.01a.838.838,0,1,1,0,1.675Z" transform="translate(-15.107 -21.914)"/>
            </g>
          </g>
          <g id="Grupo_1067330" data-name="Grupo 1067330" transform="translate(21.109 18.513)">
            <g id="Grupo_1067329" data-name="Grupo 1067329">
              <path id="Trazado_807436" data-name="Trazado 807436" d="M23.766,23.589h-2.01a.838.838,0,1,1,0-1.675h2.01a.838.838,0,1,1,0,1.675Z" transform="translate(-20.918 -21.914)"/>
            </g>
          </g>
          <g id="Grupo_1067332" data-name="Grupo 1067332" transform="translate(43.223 29.905)">
            <g id="Grupo_1067331" data-name="Grupo 1067331">
              <path id="Trazado_807437" data-name="Trazado 807437" d="M45.68,34.878H43.67a.838.838,0,0,1,0-1.675h2.01a.838.838,0,1,1,0,1.675Z" transform="translate(-42.832 -33.203)"/>
            </g>
          </g>
          <g id="Grupo_1067334" data-name="Grupo 1067334" transform="translate(49.087 29.905)">
            <g id="Grupo_1067333" data-name="Grupo 1067333">
              <path id="Trazado_807438" data-name="Trazado 807438" d="M51.491,34.878H49.48a.838.838,0,1,1,0-1.675h2.01a.838.838,0,0,1,0,1.675Z" transform="translate(-48.643 -33.203)"/>
            </g>
          </g>
          <g id="Grupo_1067336" data-name="Grupo 1067336" transform="translate(54.95 29.905)">
            <g id="Grupo_1067335" data-name="Grupo 1067335">
              <path id="Trazado_807439" data-name="Trazado 807439" d="M57.3,34.878h-2.01a.838.838,0,0,1,0-1.675H57.3a.838.838,0,0,1,0,1.675Z" transform="translate(-54.453 -33.203)"/>
            </g>
          </g>
          <g id="Grupo_1067338" data-name="Grupo 1067338" transform="translate(75.389 46.323)">
            <g id="Grupo_1067337" data-name="Grupo 1067337">
              <path id="Trazado_807440" data-name="Trazado 807440" d="M77.555,51.148h-2.01a.838.838,0,0,1,0-1.675h2.01a.838.838,0,0,1,0,1.675Z" transform="translate(-74.707 -49.473)"/>
            </g>
          </g>
          <g id="Grupo_1067340" data-name="Grupo 1067340" transform="translate(63.569 40.889)">
            <g id="Grupo_1067339" data-name="Grupo 1067339">
              <path id="Trazado_807441" data-name="Trazado 807441" d="M80.151,78.614H64.885a1.894,1.894,0,0,1-1.891-1.892V45.979a1.894,1.894,0,0,1,1.891-1.892h3.7a2.076,2.076,0,0,1,1.945,1.306,2.142,2.142,0,0,0,3.981,0,2.075,2.075,0,0,1,1.944-1.306h3.7a1.894,1.894,0,0,1,1.891,1.892V76.722A1.893,1.893,0,0,1,80.151,78.614ZM64.885,45.763a.217.217,0,0,0-.216.216V76.722a.217.217,0,0,0,.216.216H80.151a.217.217,0,0,0,.216-.216V45.979a.217.217,0,0,0-.216-.216h-3.7a.414.414,0,0,0-.387.25,3.817,3.817,0,0,1-7.1,0,.415.415,0,0,0-.388-.25Z" transform="translate(-62.994 -44.087)"/>
            </g>
          </g>
          <g id="Grupo_1067342" data-name="Grupo 1067342" transform="translate(38.993 26.023)">
            <g id="Grupo_1067341" data-name="Grupo 1067341">
              <path id="Trazado_807442" data-name="Trazado 807442" d="M60.775,78.5H39.786A1.147,1.147,0,0,1,38.64,77.35V30.5a1.147,1.147,0,0,1,1.146-1.146H72.344A1.147,1.147,0,0,1,73.49,30.5V41.74a.838.838,0,1,1-1.675,0V31.032h-31.5V76.821h20.46a.838.838,0,0,1,0,1.675Z" transform="translate(-38.64 -29.357)"/>
            </g>
          </g>
          <g id="Grupo_1067344" data-name="Grupo 1067344" transform="translate(0.23 54.106)">
            <g id="Grupo_1067343" data-name="Grupo 1067343">
              <path id="Trazado_807443" data-name="Trazado 807443" d="M36.29,58.861H1.066a.838.838,0,1,1,0-1.675H36.29a.838.838,0,1,1,0,1.675Z" transform="translate(-0.228 -57.186)"/>
            </g>
          </g>
          <g id="Grupo_1067346" data-name="Grupo 1067346" transform="translate(3.303 10.505)">
            <g id="Grupo_1067345" data-name="Grupo 1067345">
              <path id="Trazado_807444" data-name="Trazado 807444" d="M4.111,59.095a.838.838,0,0,1-.838-.838V15.477a1.5,1.5,0,0,1,1.5-1.5H72.422a1.5,1.5,0,0,1,1.5,1.5V26.719a.838.838,0,1,1-1.675,0V15.654H4.948v42.6a.838.838,0,0,1-.838.838Z" transform="translate(-3.273 -13.979)"/>
            </g>
          </g>
          <g id="Grupo_1067348" data-name="Grupo 1067348" transform="translate(3.532 14.492)">
            <g id="Grupo_1067347" data-name="Grupo 1067347">
              <path id="Trazado_807445" data-name="Trazado 807445" d="M72.854,19.6H4.338a.838.838,0,1,1,0-1.675H72.854a.838.838,0,1,1,0,1.675Z" transform="translate(-3.5 -17.93)"/>
            </g>
          </g>
          <g id="Grupo_1067350" data-name="Grupo 1067350" transform="translate(8.712 10.691)">
            <g id="Grupo_1067349" data-name="Grupo 1067349" transform="translate(0 0)">
              <path id="Trazado_807446" data-name="Trazado 807446" d="M9.47,19.388a.838.838,0,0,1-.838-.838V15a.838.838,0,1,1,1.675,0v3.55A.838.838,0,0,1,9.47,19.388Z" transform="translate(-8.633 -14.163)"/>
            </g>
          </g>
          <g id="Grupo_1067352" data-name="Grupo 1067352" transform="translate(7.371 34.26)">
            <g id="Grupo_1067351" data-name="Grupo 1067351">
              <path id="Trazado_807447" data-name="Trazado 807447" d="M19.948,55.278H9.4a2.1,2.1,0,0,1-2.1-2.1V39.618a2.1,2.1,0,0,1,2.1-2.1H19.949a2.1,2.1,0,0,1,2.1,2.1v13.56A2.1,2.1,0,0,1,19.948,55.278ZM9.4,39.195a.424.424,0,0,0-.424.424v13.56A.424.424,0,0,0,9.4,53.6H19.949a.424.424,0,0,0,.424-.424V39.619a.424.424,0,0,0-.424-.424Z" transform="translate(-7.305 -37.519)"/>
            </g>
          </g>
          <g id="Grupo_1067354" data-name="Grupo 1067354" transform="translate(24.124 34.26)">
            <g id="Grupo_1067353" data-name="Grupo 1067353">
              <path id="Trazado_807448" data-name="Trazado 807448" d="M35.941,55.278H26.005a2.1,2.1,0,0,1-2.1-2.1V39.618a2.1,2.1,0,0,1,2.1-2.1h9.974a.838.838,0,0,1,0,1.675H26.005a.424.424,0,0,0-.424.424v13.56a.424.424,0,0,0,.424.424h9.935a.838.838,0,1,1,0,1.675Z" transform="translate(-23.906 -37.519)"/>
            </g>
          </g>
          <g id="Grupo_1067356" data-name="Grupo 1067356" transform="translate(66.392 58.442)">
            <g id="Grupo_1067355" data-name="Grupo 1067355">
              <path id="Trazado_807449" data-name="Trazado 807449" d="M77.385,67.521H67.6a1.811,1.811,0,0,1-1.809-1.809v-2.42A1.811,1.811,0,0,1,67.6,61.482h9.784a1.811,1.811,0,0,1,1.809,1.809v2.42A1.811,1.811,0,0,1,77.385,67.521ZM67.6,63.157a.134.134,0,0,0-.134.134v2.42a.134.134,0,0,0,.134.134h9.784a.134.134,0,0,0,.134-.134v-2.42a.134.134,0,0,0-.134-.134Z" transform="translate(-65.792 -61.482)"/>
            </g>
          </g>
          <g id="Grupo_1067358" data-name="Grupo 1067358" transform="translate(66.392 66.027)">
            <g id="Grupo_1067357" data-name="Grupo 1067357">
              <path id="Trazado_807450" data-name="Trazado 807450" d="M77.385,75.037H67.6a1.811,1.811,0,0,1-1.809-1.809v-2.42A1.811,1.811,0,0,1,67.6,69h9.784a1.811,1.811,0,0,1,1.809,1.809v2.42A1.811,1.811,0,0,1,77.385,75.037ZM67.6,70.674a.134.134,0,0,0-.134.134v2.42a.134.134,0,0,0,.134.134h9.784a.134.134,0,0,0,.134-.134v-2.42a.134.134,0,0,0-.134-.134Z" transform="translate(-65.792 -68.998)"/>
            </g>
          </g>
          <g id="Grupo_1067361" data-name="Grupo 1067361" transform="translate(66.392 50.858)">
            <g id="Grupo_1067360" data-name="Grupo 1067360">
              <g id="Grupo_1067359" data-name="Grupo 1067359">
                <path id="Trazado_807451" data-name="Trazado 807451" d="M77.385,60.005H67.6A1.811,1.811,0,0,1,65.792,58.2v-2.42A1.811,1.811,0,0,1,67.6,53.967h9.784a1.811,1.811,0,0,1,1.809,1.809V58.2A1.811,1.811,0,0,1,77.385,60.005ZM67.6,55.642a.134.134,0,0,0-.134.134V58.2a.134.134,0,0,0,.134.134h9.784a.134.134,0,0,0,.134-.134v-2.42a.134.134,0,0,0-.134-.134Z" transform="translate(-65.792 -53.967)"/>
              </g>
            </g>
          </g>
          <g id="Grupo_1067363" data-name="Grupo 1067363" transform="translate(42.903 38.886)">
            <g id="Grupo_1067362" data-name="Grupo 1067362">
              <path id="Trazado_807452" data-name="Trazado 807452" d="M60.677,51.311H44.633a2.121,2.121,0,0,1-2.119-2.118V44.222A2.121,2.121,0,0,1,44.633,42.1h17a.838.838,0,1,1,0,1.675h-17a.444.444,0,0,0-.443.443v4.971a.444.444,0,0,0,.443.443H60.677a.838.838,0,1,1,0,1.675Z" transform="translate(-42.515 -42.103)"/>
            </g>
          </g>
          <g id="Grupo_1067365" data-name="Grupo 1067365" transform="translate(42.903 50.446)">
            <g id="Grupo_1067364" data-name="Grupo 1067364">
              <path id="Trazado_807453" data-name="Trazado 807453" d="M60.677,62.766H44.633a2.121,2.121,0,0,1-2.119-2.118V55.677a2.121,2.121,0,0,1,2.119-2.119H60.708a.838.838,0,1,1,0,1.675H44.633a.444.444,0,0,0-.443.443v4.971a.444.444,0,0,0,.443.443H60.677a.838.838,0,1,1,0,1.675Z" transform="translate(-42.515 -53.558)"/>
            </g>
          </g>
          <g id="Grupo_1067367" data-name="Grupo 1067367" transform="translate(42.903 62.006)">
            <g id="Grupo_1067366" data-name="Grupo 1067366">
              <path id="Trazado_807454" data-name="Trazado 807454" d="M60.625,74.221H44.633A2.121,2.121,0,0,1,42.515,72.1V67.132a2.121,2.121,0,0,1,2.119-2.119H60.656a.838.838,0,0,1,0,1.675H44.633a.444.444,0,0,0-.443.443V72.1a.444.444,0,0,0,.443.443H60.625a.838.838,0,0,1,0,1.675Z" transform="translate(-42.515 -65.013)"/>
            </g>
          </g>
        </g>
      </g>
    </g>
  </g>
</svg>
