<svg id="Grupo_1067042" data-name="Grupo 1067042" xmlns="http://www.w3.org/2000/svg" xmlns:xlink="http://www.w3.org/1999/xlink" width="219.864" height="62.513" viewBox="0 0 219.864 62.513">
  <defs>
    <clipPath id="clip-path">
      <rect id="Rectángulo_375811" data-name="Rectángulo 375811" width="219.864" height="62.513" fill="none"/>
    </clipPath>
  </defs>
  <g id="Grupo_1067041" data-name="Grupo 1067041" clip-path="url(#clip-path)">
    <path id="Trazado_806988" data-name="Trazado 806988" d="M501.711,56.264a6.239,6.239,0,0,1-6.229,6.25H446.158a6.239,6.239,0,0,1-6.229-6.25V6.25A6.239,6.239,0,0,1,446.158,0h49.325a6.239,6.239,0,0,1,6.229,6.25Z" transform="translate(-281.847)" fill="#069"/>
    <path id="Trazado_806989" data-name="Trazado 806989" d="M0,35.079H8.312V64.937H22.968v7H0Z" transform="translate(0 -22.474)"/>
    <path id="Trazado_806990" data-name="Trazado 806990" d="M80.324,35.129a4.143,4.143,0,0,1-4.484,4.156,4.164,4.164,0,1,1,4.484-4.156m-8.585,7.437h8.312V69.307H71.739Z" transform="translate(-45.82 -19.843)"/>
    <path id="Trazado_806991" data-name="Trazado 806991" d="M108.714,70.692c0-3.335-.109-6.124-.218-8.531h7.218l.383,3.719h.164a9.6,9.6,0,0,1,8.257-4.32c5.469,0,9.571,3.664,9.571,11.539V88.9h-8.313V74.083c0-3.445-1.2-5.8-4.21-5.8A4.565,4.565,0,0,0,117.3,71.4a5.994,5.994,0,0,0-.273,2.078V88.9h-8.313Z" transform="translate(-69.51 -39.439)"/>
    <path id="Trazado_806992" data-name="Trazado 806992" d="M201.874,52.952h.109a36.046,36.046,0,0,1,1.914-3.226l5.414-8.039h10.007l-9.57,10.827,10.937,15.913H210.46l-6.508-10.992-2.078,2.625v8.367h-8.312V29.6h8.312Z" transform="translate(-124.009 -18.965)"/>
    <path id="Trazado_806993" data-name="Trazado 806993" d="M272.863,78.184c.219,3.445,3.663,5.086,7.546,5.086a22.04,22.04,0,0,0,7.383-1.148l1.093,5.633a25.281,25.281,0,0,1-9.679,1.7c-9.078,0-14.273-5.25-14.273-13.617,0-6.781,4.211-14.273,13.507-14.273,8.641,0,11.922,6.727,11.922,13.343a19.751,19.751,0,0,1-.274,3.281Zm9.788-5.688c0-2.023-.875-5.414-4.7-5.414-3.5,0-4.922,3.227-5.141,5.414Z" transform="translate(-169.733 -39.439)"/>
    <path id="Trazado_806994" data-name="Trazado 806994" d="M368.015,29.6V60.444c0,3.007.109,6.18.219,7.984h-7.383l-.328-3.883h-.164a9.341,9.341,0,0,1-8.367,4.485c-6.343,0-11.429-5.414-11.429-13.727-.054-9.023,5.578-14.273,11.976-14.273,3.336,0,5.851,1.2,7.054,3.008h.11V29.6ZM359.7,53.008a7.466,7.466,0,0,0-.11-1.532,5,5,0,0,0-4.866-4.046c-3.829,0-5.743,3.39-5.743,7.6,0,4.538,2.243,7.382,5.688,7.382a4.925,4.925,0,0,0,4.867-3.991,10.789,10.789,0,0,0,.164-1.914Z" transform="translate(-218.187 -18.965)"/>
    <path id="Trazado_806995" data-name="Trazado 806995" d="M480.163,35.129a4.143,4.143,0,0,1-4.484,4.156,4.164,4.164,0,1,1,4.484-4.156m-8.585,7.437h8.312V69.307h-8.312Z" transform="translate(-301.984 -19.843)" fill="#fff"/>
    <path id="Trazado_806996" data-name="Trazado 806996" d="M508.554,70.692c0-3.335-.109-6.124-.218-8.531h7.218l.383,3.719h.164a9.6,9.6,0,0,1,8.258-4.32c5.469,0,9.569,3.664,9.569,11.539V88.9h-8.312V74.083c0-3.445-1.2-5.8-4.211-5.8A4.564,4.564,0,0,0,517.14,71.4a5.984,5.984,0,0,0-.274,2.078V88.9h-8.312Z" transform="translate(-325.673 -39.439)" fill="#fff"/>
  </g>
</svg>
