<svg xmlns="http://www.w3.org/2000/svg" width="249" height="63.633" viewBox="0 0 249 63.633">
  <g id="paypal" transform="translate(0 -187.6)">
    <path id="Trazado_806997" data-name="Trazado 806997" d="M368.148,221.2H354.71a2.626,2.626,0,0,0-1.976,1.581L347.2,257.562a1.048,1.048,0,0,0,1.186,1.186H355.5a1.048,1.048,0,0,0,1.186-1.186l1.581-9.881a1.808,1.808,0,0,1,1.976-1.581h4.348q13.636,0,15.414-13.043a10.36,10.36,0,0,0-1.581-8.7c-2.371-1.976-5.929-3.162-10.276-3.162m1.581,13.043c-.79,4.743-4.348,4.743-7.9,4.743h-2.371l1.581-9.09c0-.4.4-.79,1.186-.79h.79c2.371,0,4.743,0,5.929,1.581.79.4.79,1.581.79,3.557" transform="translate(-175.667 -17)" fill="#139ad6"/>
    <g id="Grupo_1067043" data-name="Grupo 1067043" transform="translate(74.7 204.2)">
      <path id="Trazado_806998" data-name="Trazado 806998" d="M172.148,221.2H158.71a2.626,2.626,0,0,0-1.976,1.581L151.2,257.562a1.048,1.048,0,0,0,1.186,1.186h6.324a2.626,2.626,0,0,0,1.976-1.581l1.581-9.486a1.808,1.808,0,0,1,1.976-1.581h4.348q13.636,0,15.414-13.043a10.36,10.36,0,0,0-1.581-8.7c-2.371-1.976-5.533-3.162-10.276-3.162m1.581,13.043c-.79,4.743-4.348,4.743-7.9,4.743h-1.976l1.581-9.09c0-.4.4-.79,1.186-.79h.79c2.371,0,4.743,0,5.929,1.581.4.4.79,1.581.4,3.557" transform="translate(-151.2 -221.2)" fill="#263b80"/>
      <path id="Trazado_806999" data-name="Trazado 806999" d="M244.58,245.99h-6.324c-.4,0-1.186.4-1.186.79l-.4,1.976-.4-.79c-1.581-1.976-4.348-2.767-7.51-2.767-7.114,0-13.438,5.533-14.624,13.043a11.78,11.78,0,0,0,2.371,9.881c1.976,2.371,4.743,3.162,8.3,3.162a12.633,12.633,0,0,0,9.09-3.557l-.4,1.976a1.048,1.048,0,0,0,1.186,1.186h5.929a2.626,2.626,0,0,0,1.976-1.581l3.557-22.133c-.4-.4-1.186-1.186-1.581-1.186m-9.09,12.648a7.645,7.645,0,0,1-7.51,6.324,6.32,6.32,0,0,1-4.348-1.581,8.429,8.429,0,0,1-1.186-4.743,7.05,7.05,0,0,1,11.462-4.743,6.9,6.9,0,0,1,1.581,4.743" transform="translate(-182.923 -233.343)" fill="#263b80"/>
    </g>
    <path id="Trazado_807000" data-name="Trazado 807000" d="M439.78,245.99h-6.324c-.4,0-1.186.4-1.186.79l-.4,1.976-.4-.79c-1.581-1.976-4.348-2.767-7.51-2.767-7.114,0-13.438,5.533-14.624,13.043a11.781,11.781,0,0,0,2.371,9.881c1.976,2.371,4.743,3.162,8.3,3.162a12.633,12.633,0,0,0,9.09-3.557l-.4,1.976a1.048,1.048,0,0,0,1.186,1.186h5.929a2.626,2.626,0,0,0,1.976-1.581l3.557-22.133c-.4-.4-.79-1.186-1.581-1.186m-9.09,12.648a7.645,7.645,0,0,1-7.51,6.324,6.32,6.32,0,0,1-4.348-1.581,8.429,8.429,0,0,1-1.186-4.743,7.05,7.05,0,0,1,11.462-4.743,4.536,4.536,0,0,1,1.581,4.743" transform="translate(-206.985 -29.143)" fill="#139ad6"/>
    <path id="Trazado_807001" data-name="Trazado 807001" d="M314.433,246.8h-6.719a2.053,2.053,0,0,0-1.581.79l-8.7,13.438-3.952-12.648a1.826,1.826,0,0,0-1.976-1.186h-6.324c-.79,0-1.186.79-1.186,1.581l7.114,20.948L284.4,279.21c-.4.79,0,1.976.79,1.976h6.324a2.053,2.053,0,0,0,1.581-.79l21.738-31.224c1.186-1.186.4-2.371-.4-2.371" transform="translate(-143.69 -29.952)" fill="#263b80"/>
    <path id="Trazado_807002" data-name="Trazado 807002" d="M480.733,222.632,475.2,258.2a1.048,1.048,0,0,0,1.186,1.186h5.533a2.626,2.626,0,0,0,1.976-1.581l5.533-34.781a1.048,1.048,0,0,0-1.186-1.186h-6.324c-.4-.4-.79,0-1.186.79" transform="translate(-240.429 -17.246)" fill="#139ad6"/>
    <path id="Trazado_807003" data-name="Trazado 807003" d="M45.452,192.343c-2.767-3.162-7.9-4.743-15.019-4.743H10.671A3.391,3.391,0,0,0,7.9,189.971L0,241.748a1.808,1.808,0,0,0,1.581,1.976H13.833L17,224.357v.79a3.391,3.391,0,0,1,2.767-2.371H25.69c11.462,0,20.157-4.743,22.924-17.786V203.8h0c.4-5.138-.4-8.3-3.162-11.462" transform="translate(0 0)" fill="#263b80"/>
    <path id="Trazado_807004" data-name="Trazado 807004" d="M61.171,220.4h0v1.186C58.4,235.024,49.71,239.371,38.248,239.371H32.319a3.391,3.391,0,0,0-2.767,2.371L25.6,265.852a1.448,1.448,0,0,0,1.581,1.581H37.457a2.213,2.213,0,0,0,2.371-1.976v-.4L41.8,252.81v-.79a2.213,2.213,0,0,1,2.371-1.976h1.581c9.881,0,17.786-3.952,19.762-15.81.79-4.743.4-9.09-1.976-11.857a4.048,4.048,0,0,0-2.371-1.976" transform="translate(-12.952 -16.595)" fill="#139ad6"/>
    <path id="Trazado_807005" data-name="Trazado 807005" d="M62.857,216.786c-.4,0-.79-.4-1.186-.4a1.452,1.452,0,0,1-1.186-.4,20.88,20.88,0,0,0-5.138-.4H39.933a1.452,1.452,0,0,0-1.186.4,2.174,2.174,0,0,0-1.186,1.976L34.4,238.524v.79a3.391,3.391,0,0,1,2.767-2.371H43.1c11.462,0,20.157-4.743,22.924-17.786a1.452,1.452,0,0,1,.4-1.186c-.79-.4-1.186-.79-1.976-.79-1.186-.4-1.186-.4-1.581-.4" transform="translate(-17.405 -14.167)" fill="#232c65"/>
  </g>
</svg>
